<svg xmlns="http://www.w3.org/2000/svg" xmlns:xlink="http://www.w3.org/1999/xlink" width="1328" height="328" viewBox="0 0 1328 328">
  <defs>
    <clipPath id="clip-path">
      <rect id="Rectángulo_404550" data-name="Rectángulo 404550" width="1328" height="328" transform="translate(136.051 2122)" fill="#e2dacc"/>
    </clipPath>
    <linearGradient id="linear-gradient" x1="0.5" x2="0.5" y2="1" gradientUnits="objectBoundingBox">
      <stop offset="0" stop-color="#e2dacc"/>
      <stop offset="1" stop-color="#f3f0ea" stop-opacity="0"/>
    </linearGradient>
    <linearGradient id="linear-gradient-2" x1="0.5" x2="0.5" y2="1" gradientUnits="objectBoundingBox">
      <stop offset="0" stop-color="#f3f0ea" stop-opacity="0"/>
      <stop offset="1" stop-color="#e2dacc"/>
    </linearGradient>
    <linearGradient id="linear-gradient-3" x1="0.5" y1="1" x2="0.5" gradientUnits="objectBoundingBox">
      <stop offset="0" stop-color="#fff"/>
      <stop offset="1" stop-color="#fff" stop-opacity="0"/>
    </linearGradient>
  </defs>
  <g id="Enmascarar_grupo_1098695" data-name="Enmascarar grupo 1098695" transform="translate(-136.051 -2122)" clip-path="url(#clip-path)">
    <g id="Grupo_1111357" data-name="Grupo 1111357" transform="translate(136.229 2078.45)">
      <path id="Unión_5" data-name="Unión 5" d="M.488,536.236V288.608c-.164-.253-.326-.5-.488-.758V83.066C56.9,18.258,174.219-2.2,283.281.183c87.2,1.9,169.931,20.1,244.223,45.742,65.7,22.677,125.758,51.222,193.682,71.418,167.743,49.88,355.8,4.8,523.077-45.285,27.262-8.162,54.636-16.281,82.091-24.155V258.7h1.183V536.236Z" transform="translate(0.003 0)" opacity="0.39" fill="url(#linear-gradient)"/>
      <path id="Unión_6" data-name="Unión 6" d="M1049.091,478.071c-107.508,0-211.93-28.478-314.138-58.025-100.259-28.984-212.973-55.074-313.511-26.207-40.712,11.688-76.707,28.208-116.086,41.332-44.528,14.839-94.116,25.37-146.378,26.472C99.9,462.89,36.775,453.337,0,423.8V0H1327.538V285.7h-1.183v98.319c-33.732,45.73-112.389,75.574-193.026,87.836a558.915,558.915,0,0,1-84.225,6.216Z" transform="translate(1327.539 545.469) rotate(180)" opacity="0.52" fill="url(#linear-gradient-2)"/>
    </g>
    <rect id="Rectángulo_404549" data-name="Rectángulo 404549" width="1328" height="60" transform="translate(136.051 2390)" fill="url(#linear-gradient-3)"/>
  </g>
</svg>
