<svg xmlns="http://www.w3.org/2000/svg" xmlns:xlink="http://www.w3.org/1999/xlink" width="118" height="118" viewBox="0 0 118 118">
  <defs>
    <filter id="Trazado_874925" x="0" y="0" width="118" height="118" filterUnits="userSpaceOnUse">
      <feOffset dy="3" input="SourceAlpha"/>
      <feGaussianBlur stdDeviation="3" result="blur"/>
      <feFlood flood-opacity="0.161"/>
      <feComposite operator="in" in2="blur"/>
      <feComposite in="SourceGraphic"/>
    </filter>
  </defs>
  <g id="Grupo_1179052" data-name="Grupo 1179052" transform="translate(6873 4769.312)">
    <g id="Grupo_1178649" data-name="Grupo 1178649" transform="translate(-7672.5 -6715.522)">
      <g id="Grupo_1109835" data-name="Grupo 1109835" transform="translate(808.5 1952.211)">
        <g id="Grupo_1107913" data-name="Grupo 1107913" transform="translate(0 0)">
          <g transform="matrix(1, 0, 0, 1, -9, -6)" filter="url(#Trazado_874925)">
            <g id="Trazado_874925-2" data-name="Trazado 874925" transform="translate(9 6)" fill="#f3d82a" opacity="0.859">
              <path d="M 49.99972534179688 98.49999237060547 C 43.45164108276367 98.49999237060547 37.10022354125977 97.21788024902344 31.12189674377441 94.68926239013672 C 25.34676742553711 92.24658966064453 20.15985298156738 88.74936676025391 15.70523929595947 84.29476165771484 C 11.25062561035156 79.84014892578125 7.753411293029785 74.65323638916016 5.310725212097168 68.87808990478516 C 2.782111167907715 62.89977645874023 1.499996781349182 56.54836273193359 1.499996781349182 50.00027847290039 C 1.499996781349182 43.45162200927734 2.782111167907715 37.1002197265625 5.310725212097168 31.12189292907715 C 7.753411293029785 25.34676361083984 11.25062561035156 20.15984916687012 15.70523929595947 15.70523548126221 C 20.15985298156738 11.25063514709473 25.34676742553711 7.753406524658203 31.12189674377441 5.31073522567749 C 37.10022354125977 2.782120943069458 43.45164108276367 1.500006675720215 49.99972534179688 1.500006675720215 C 56.54780960083008 1.500006675720215 62.89922714233398 2.782120943069458 68.87755584716797 5.31073522567749 C 74.65267944335938 7.753406524658203 79.839599609375 11.25063514709473 84.29421234130859 15.70523548126221 C 88.74882507324219 20.15984916687012 92.24604034423828 25.34676361083984 94.68872833251953 31.12189292907715 C 97.21733856201172 37.1002197265625 98.49945068359375 43.45162200927734 98.49945068359375 49.99970626831055 C 98.49945068359375 56.54836273193359 97.21733856201172 62.89977645874023 94.68872833251953 68.87808990478516 C 92.24604034423828 74.65323638916016 88.74882507324219 79.84014892578125 84.29421234130859 84.29476165771484 C 79.839599609375 88.74936676025391 74.65267944335938 92.24658966064453 68.87755584716797 94.68926239013672 C 62.89922714233398 97.21788024902344 56.54780960083008 98.49999237060547 49.99972534179688 98.49999237060547 Z" stroke="none"/>
              <path d="M 49.99972534179688 2.999992370605469 C 43.65348052978516 2.999992370605469 37.49866485595703 4.242240905761719 31.70623016357422 6.692222595214844 C 26.10989379882812 9.059288024902344 21.08323669433594 12.44854736328125 16.76589202880859 16.76588439941406 C 12.44855499267578 21.08322143554688 9.059295654296875 26.10988616943359 6.692230224609375 31.70620727539062 C 4.24224853515625 37.49863815307617 3 43.6534538269043 3 50.00028610229492 C 3 56.34653091430664 4.24224853515625 62.50134658813477 6.692230224609375 68.29376220703125 C 9.059295654296875 73.89009857177734 12.44855499267578 78.916748046875 16.76589202880859 83.23408508300781 C 21.08323669433594 87.55142211914062 26.10989379882812 90.94070434570312 31.70623016357422 93.30774688720703 C 37.49866485595703 95.75772857666016 43.65348052978516 96.99997711181641 49.99972534179688 96.99997711181641 C 56.34597015380859 96.99997711181641 62.50078582763672 95.75772857666016 68.293212890625 93.30774688720703 C 73.88955688476562 90.94070434570312 78.91621398925781 87.55142211914062 83.23355865478516 83.23408508300781 C 87.55089569091797 78.916748046875 90.94015502929688 73.89009857177734 93.30722045898438 68.29376220703125 C 95.7572021484375 62.50134658813477 96.99945068359375 56.34653091430664 96.99945068359375 49.99969863891602 C 96.99945068359375 43.6534538269043 95.7572021484375 37.49863815307617 93.30722045898438 31.70620727539062 C 90.94015502929688 26.10988616943359 87.55089569091797 21.08322143554688 83.23355865478516 16.76588439941406 C 78.91621398925781 12.44854736328125 73.88955688476562 9.059288024902344 68.293212890625 6.692222595214844 C 62.50078582763672 4.242240905761719 56.34597015380859 2.999992370605469 49.99972534179688 2.999992370605469 M 49.99972534179688 -7.62939453125e-06 C 77.61381530761719 -7.62939453125e-06 99.99945068359375 22.3856201171875 99.99945068359375 49.99969863891602 L 99.99945068359375 50.00028610229492 C 99.99945068359375 77.61436462402344 77.61381530761719 99.99997711181641 49.99972534179688 99.99997711181641 C 22.38563537597656 99.99997711181641 0 77.61436462402344 0 50.00028610229492 L 0 49.99969863891602 C 0 22.3856201171875 22.38563537597656 -7.62939453125e-06 49.99972534179688 -7.62939453125e-06 Z" stroke="none" fill="#fff"/>
            </g>
          </g>
          <g id="Trazado_874923" data-name="Trazado 874923" transform="translate(0 0)" fill="none">
            <path d="M50,0a50,50,0,0,1,50,50h0A50,50,0,0,1,0,50H0A50,50,0,0,1,50,0Z" stroke="none"/>
            <path d="M 49.99972534179688 2.999992370605469 C 43.65348052978516 2.999992370605469 37.49866485595703 4.242240905761719 31.70623016357422 6.692222595214844 C 26.10989379882812 9.059288024902344 21.08323669433594 12.44854736328125 16.76589202880859 16.76588439941406 C 12.44855499267578 21.08322143554688 9.059295654296875 26.10988616943359 6.692230224609375 31.70620727539062 C 4.24224853515625 37.49863815307617 3 43.6534538269043 3 50.00028610229492 C 3 56.34653091430664 4.24224853515625 62.50134658813477 6.692230224609375 68.29376220703125 C 9.059295654296875 73.89009857177734 12.44855499267578 78.916748046875 16.76589202880859 83.23408508300781 C 21.08323669433594 87.55142211914062 26.10989379882812 90.94070434570312 31.70623016357422 93.30774688720703 C 37.49866485595703 95.75772857666016 43.65348052978516 96.99997711181641 49.99972534179688 96.99997711181641 C 56.34597015380859 96.99997711181641 62.50078582763672 95.75772857666016 68.293212890625 93.30774688720703 C 73.88955688476562 90.94070434570312 78.91621398925781 87.55142211914062 83.23355865478516 83.23408508300781 C 87.55089569091797 78.916748046875 90.94015502929688 73.89009857177734 93.30722045898438 68.29376220703125 C 95.7572021484375 62.50134658813477 96.99945068359375 56.34653091430664 96.99945068359375 49.99969863891602 C 96.99945068359375 43.6534538269043 95.7572021484375 37.49863815307617 93.30722045898438 31.70620727539062 C 90.94015502929688 26.10988616943359 87.55089569091797 21.08322143554688 83.23355865478516 16.76588439941406 C 78.91621398925781 12.44854736328125 73.88955688476562 9.059288024902344 68.293212890625 6.692222595214844 C 62.50078582763672 4.242240905761719 56.34597015380859 2.999992370605469 49.99972534179688 2.999992370605469 M 49.99972534179688 -7.62939453125e-06 C 77.61381530761719 -7.62939453125e-06 99.99945068359375 22.3856201171875 99.99945068359375 49.99969863891602 L 99.99945068359375 50.00028610229492 C 99.99945068359375 77.61436462402344 77.61381530761719 99.99997711181641 49.99972534179688 99.99997711181641 C 22.38563537597656 99.99997711181641 0 77.61436462402344 0 50.00028610229492 L 0 49.99969863891602 C 0 22.3856201171875 22.38563537597656 -7.62939453125e-06 49.99972534179688 -7.62939453125e-06 Z" stroke="none" fill="#fff"/>
          </g>
        </g>
      </g>
    </g>
    <g id="Laptop-File-Online-Business-User" transform="translate(-6846 -4745)">
      <path id="Trazado_905714" data-name="Trazado 905714" d="M56,13V43H8V13a2.006,2.006,0,0,1,2-2H54A2.006,2.006,0,0,1,56,13Z" fill="#5aaae7"/>
      <path id="Trazado_905715" data-name="Trazado 905715" d="M54,18a13,13,0,1,1-25-5,11.6,11.6,0,0,1,1.06-2H51.94A11.6,11.6,0,0,1,53,13a13.007,13.007,0,0,1,1,5Z" fill="#3d9ae2"/>
      <path id="Trazado_905716" data-name="Trazado 905716" d="M52,16a13,13,0,1,1-1-5,13,13,0,0,1,1,5Z" fill="#ffda44"/>
      <path id="Trazado_905717" data-name="Trazado 905717" d="M46.11,20.41,44,19l-1.85-1.23A3.024,3.024,0,0,0,44,15V12a3,3,0,0,0-6,0v3a2.993,2.993,0,0,0,.88,2.12,1.2,1.2,0,0,0,.12.11,2.921,2.921,0,0,0,.85.54L38,19l-2.11,1.41A1.981,1.981,0,0,0,35,22.07V25H47V22.07a1.981,1.981,0,0,0-.89-1.66Z" fill="#ffcd00"/>
      <path id="Trazado_905718" data-name="Trazado 905718" d="M45,20.07V23H33V20.07a1.981,1.981,0,0,1,.89-1.66L36,17l1.85-1.23a2.99,2.99,0,0,0,2.3,0L42,17l2.11,1.41A1.981,1.981,0,0,1,45,20.07Z" fill="#5aaae7"/>
      <path id="Trazado_905719" data-name="Trazado 905719" d="M39,19l-3-2,1.85-1.23a2.99,2.99,0,0,0,2.3,0L42,17Z" fill="#ffb655"/>
      <path id="Trazado_905720" data-name="Trazado 905720" d="M45,20.07V23H33V20.07a1.981,1.981,0,0,1,.89-1.66L36,17l3,2,3-2,2.11,1.41A1.981,1.981,0,0,1,45,20.07Z" fill="#00ccb3"/>
      <path id="Trazado_905721" data-name="Trazado 905721" d="M61,55v4a2.006,2.006,0,0,1-2,2H5a2.006,2.006,0,0,1-2-2V55Z" fill="#acabb1"/>
      <path id="Trazado_905722" data-name="Trazado 905722" d="M56,43l5,12H3L8,43Z" fill="#c6c5ca"/>
      <path id="Trazado_905723" data-name="Trazado 905723" d="M27,33H56v8H27Z" fill="#3d9ae2"/>
      <path id="Trazado_905724" data-name="Trazado 905724" d="M25,31H61v8H25Z" fill="#ff9811"/>
      <path id="Trazado_905725" data-name="Trazado 905725" d="M42,12v1a2.993,2.993,0,0,1-5,2.23,1.2,1.2,0,0,1-.12-.11A2.993,2.993,0,0,1,36,13V12h1.17a2.006,2.006,0,0,0,1.42-.59L40,10Z" fill="#ffc477"/>
      <path id="Trazado_905726" data-name="Trazado 905726" d="M39,7a3,3,0,0,0-3,3v2h1.17a2.006,2.006,0,0,0,1.42-.59L39,11l1-1,1,1,1,1V10a3,3,0,0,0-3-3Z" fill="#57565c"/>
      <path id="Trazado_905727" data-name="Trazado 905727" d="M23,15V29a2.006,2.006,0,0,1-2,2H8V13a2.006,2.006,0,0,1,2-2h9Z" fill="#3d9ae2"/>
      <path id="Trazado_905728" data-name="Trazado 905728" d="M21,13H17a2.006,2.006,0,0,1-2-2V7Z" fill="#bcbec0"/>
      <path id="Trazado_905729" data-name="Trazado 905729" d="M17,13a2.006,2.006,0,0,1-2-2V7H5A2.006,2.006,0,0,0,3,9V27a2.006,2.006,0,0,0,2,2H19a2.006,2.006,0,0,0,2-2V13Z" fill="#e6e7e8"/>
      <path id="Trazado_905730" data-name="Trazado 905730" d="M10,50h2v2H10Z"/>
      <path id="Trazado_905731" data-name="Trazado 905731" d="M14,50h2v2H14Z"/>
      <path id="Trazado_905732" data-name="Trazado 905732" d="M48,50h2v2H48Z"/>
      <path id="Trazado_905733" data-name="Trazado 905733" d="M52,50h2v2H52Z"/>
      <path id="Trazado_905734" data-name="Trazado 905734" d="M15,46h2v2H15Z"/>
      <path id="Trazado_905735" data-name="Trazado 905735" d="M11,46h2v2H11Z"/>
      <path id="Trazado_905736" data-name="Trazado 905736" d="M19,46h2v2H19Z"/>
      <path id="Trazado_905737" data-name="Trazado 905737" d="M23,46h2v2H23Z"/>
      <path id="Trazado_905738" data-name="Trazado 905738" d="M27,46h2v2H27Z"/>
      <path id="Trazado_905739" data-name="Trazado 905739" d="M31,46h2v2H31Z"/>
      <path id="Trazado_905740" data-name="Trazado 905740" d="M35,46h2v2H35Z"/>
      <path id="Trazado_905741" data-name="Trazado 905741" d="M39,46h2v2H39Z"/>
      <path id="Trazado_905742" data-name="Trazado 905742" d="M43,46h2v2H43Z"/>
      <path id="Trazado_905743" data-name="Trazado 905743" d="M47,46h2v2H47Z"/>
      <path id="Trazado_905744" data-name="Trazado 905744" d="M51,46h2v2H51Z"/>
      <path id="Trazado_905745" data-name="Trazado 905745" d="M18,50h4v2H18Z"/>
      <path id="Trazado_905746" data-name="Trazado 905746" d="M42,50h4v2H42Z"/>
      <path id="Trazado_905747" data-name="Trazado 905747" d="M24,50H40v2H24Z"/>
      <path id="Trazado_905748" data-name="Trazado 905748" d="M61,40a1,1,0,0,0,1-1V31a1,1,0,0,0-1-1H57V13a3.009,3.009,0,0,0-3-3H51.63a13.97,13.97,0,0,0-25.26,0H19.41l-3.7-3.71A1.033,1.033,0,0,0,15,6H5A3.009,3.009,0,0,0,2,9V27a3.009,3.009,0,0,0,3,3H7V42.8L2.08,54.62A1,1,0,0,0,2,55v4a3.009,3.009,0,0,0,3,3H59a3.009,3.009,0,0,0,3-3V55a1,1,0,0,0-.08-.38L57,42.8V40ZM39,4A12,12,0,1,1,27,16,12,12,0,0,1,39,4ZM21.71,12.29l-.3-.29h4.18a14,14,0,1,0,26.82,0H54a1,1,0,0,1,1,1V30H25a1,1,0,0,0-1,1v8a1,1,0,0,0,1,1H55v2H9V30H19a3.009,3.009,0,0,0,3-3V13A1.033,1.033,0,0,0,21.71,12.29ZM16,9.41,18.59,12H17a1,1,0,0,1-1-1ZM5,28a1,1,0,0,1-1-1V9A1,1,0,0,1,5,8h9v3a3.009,3.009,0,0,0,3,3h3V27a1,1,0,0,1-1,1ZM60,59a1,1,0,0,1-1,1H5a1,1,0,0,1-1-1V56H60Zm-.5-5H4.5L8.67,44H55.33ZM56,38V34H54v4H52V36H50v2H48V36H46v2H44V34H42v4H40V36H38v2H36V36H34v2H32V34H30v4H26V32H60v6Z"/>
      <path id="Trazado_905749" data-name="Trazado 905749" d="M44.66,17.57l-2.77-1.84A3.945,3.945,0,0,0,43,13V10a4,4,0,0,0-8,0v3a3.951,3.951,0,0,0,1.1,2.74l-2.76,1.83A3.006,3.006,0,0,0,32,20.07V23a1,1,0,0,0,1,1H45a1,1,0,0,0,1-1V20.07a3.006,3.006,0,0,0-1.34-2.5ZM37,10a2,2,0,0,1,3.94-.48l-.23-.23a1.008,1.008,0,0,0-1.42,0L37.88,10.7a1,1,0,0,1-.71.3H37Zm.17,3a3,3,0,0,0,2.13-.88l.7-.71,1,1V13a1.981,1.981,0,0,1-.67,1.49,2.034,2.034,0,0,1-2.66,0l-.08-.08A1.983,1.983,0,0,1,37,13Zm3.03,4-1.2.8L37.8,17l.22-.14a3.5,3.5,0,0,0,1.96,0ZM44,22H34V20.07a1,1,0,0,1,.45-.83L36,18.2l2.45,1.63a.975.975,0,0,0,1.1,0L42,18.2l1.55,1.04a1,1,0,0,1,.45.83Z"/>
      <path id="Trazado_905750" data-name="Trazado 905750" d="M6,16H18v2H6Z"/>
      <path id="Trazado_905751" data-name="Trazado 905751" d="M6,20H18v2H6Z"/>
      <path id="Trazado_905752" data-name="Trazado 905752" d="M6,24H18v2H6Z"/>
      <path id="Trazado_905753" data-name="Trazado 905753" d="M6,12h6v2H6Z"/>
    </g>
  </g>
</svg>
