<svg xmlns="http://www.w3.org/2000/svg" xmlns:xlink="http://www.w3.org/1999/xlink" width="108" height="108" viewBox="0 0 108 108">
  <defs>
    <filter id="Trazado_896985" x="0" y="0" width="108" height="108" filterUnits="userSpaceOnUse">
      <feOffset dy="3" input="SourceAlpha"/>
      <feGaussianBlur stdDeviation="3" result="blur"/>
      <feFlood flood-opacity="0.161"/>
      <feComposite operator="in" in2="blur"/>
      <feComposite in="SourceGraphic"/>
    </filter>
  </defs>
  <g id="Grupo_1179107" data-name="Grupo 1179107" transform="translate(-1219.051 -6590.265)">
    <g id="Grupo_1174752" data-name="Grupo 1174752" transform="translate(1228.051 6596.265)">
      <g id="Grupo_1109826" data-name="Grupo 1109826">
        <g id="Grupo_1098742" data-name="Grupo 1098742">
          <g transform="matrix(1, 0, 0, 1, -9, -6)" filter="url(#Trazado_896985)">
            <g id="Trazado_896985-2" data-name="Trazado 896985" transform="translate(9 6)" fill="#e0edd6" opacity="0.859">
              <path d="M 44.99993896484375 88.5 C 39.12682723999023 88.5 33.4301872253418 87.35007476806641 28.06826400756836 85.08217620849609 C 22.88850212097168 82.89132690429688 18.23627662658691 79.75461578369141 14.2408390045166 75.75916290283203 C 10.24540138244629 71.76372528076172 7.108676433563232 67.11151123046875 4.917826652526855 61.9317512512207 C 2.649926424026489 56.56982421875 1.500001430511475 50.87317657470703 1.500001430511475 45.00006103515625 C 1.500001430511475 39.12682342529297 2.649926424026489 33.4301872253418 4.917826652526855 28.06826210021973 C 7.108676433563232 22.88850021362305 10.24540138244629 18.23628807067871 14.2408390045166 14.24083709716797 C 18.23628807067871 10.24540042877197 22.88850212097168 7.108675003051758 28.06826400756836 4.917825222015381 C 33.4301872253418 2.649924993515015 39.12682723999023 1.5 44.99993896484375 1.5 C 50.87305068969727 1.5 56.5697021484375 2.649924993515015 61.93162536621094 4.917825222015381 C 67.11138916015625 7.108675003051758 71.76360321044922 10.24540042877197 75.75904083251953 14.24083709716797 C 79.75448608398438 18.23627471923828 82.89120483398438 22.88850021362305 85.08205413818359 28.06826210021973 C 87.34995269775391 33.4301872253418 88.4998779296875 39.12682342529297 88.4998779296875 44.99993896484375 C 88.4998779296875 50.87317657470703 87.34995269775391 56.56982421875 85.08205413818359 61.9317512512207 C 82.89120483398438 67.11151123046875 79.75448608398438 71.76372528076172 75.75904083251953 75.75916290283203 C 71.76360321044922 79.75461578369141 67.11138916015625 82.89132690429688 61.93162536621094 85.08217620849609 C 56.5697021484375 87.35007476806641 50.87305068969727 88.5 44.99993896484375 88.5 Z" stroke="none"/>
              <path d="M 44.99993896484375 3 C 39.32865142822266 3 33.82860946655273 4.110054016113281 28.65258026123047 6.299331665039062 C 23.65162658691406 8.414558410644531 19.15966796875 11.44332885742188 15.30149841308594 15.30149841308594 C 11.44332122802734 19.15966796875 8.41455078125 23.65162658691406 6.299324035644531 28.65258407592773 C 4.110054016113281 33.82861328125 2.999992370605469 39.32865524291992 2.999992370605469 45.00005722045898 C 2.999992370605469 50.67134475708008 4.110054016113281 56.17138671875 6.299324035644531 61.347412109375 C 8.41455078125 66.34837341308594 11.44332122802734 70.84033203125 15.30149841308594 74.69850158691406 C 19.15966796875 78.55667114257812 23.65162658691406 81.58544158935547 28.65258026123047 83.70066833496094 C 33.82860946655273 85.88994598388672 39.32865142822266 87 44.99993896484375 87 C 50.67122650146484 87 56.17126846313477 85.88994598388672 61.34729766845703 83.70066833496094 C 66.34825134277344 81.58544158935547 70.8402099609375 78.55667114257812 74.69837951660156 74.69850158691406 C 78.55654907226562 70.84033203125 81.5853271484375 66.34837341308594 83.70055389404297 61.347412109375 C 85.88982391357422 56.17138671875 86.9998779296875 50.67134475708008 86.9998779296875 44.99994277954102 C 86.9998779296875 39.32865524291992 85.88982391357422 33.82861328125 83.70055389404297 28.65258407592773 C 81.5853271484375 23.65162658691406 78.55654907226562 19.15966796875 74.69837951660156 15.30149841308594 C 70.8402099609375 11.44332885742188 66.34825134277344 8.414558410644531 61.34729766845703 6.299331665039062 C 56.17126846313477 4.110054016113281 50.67122650146484 3 44.99993896484375 3 M 44.99993896484375 0 C 69.85272216796875 0 89.99988555908203 20.14715576171875 89.99988555908203 44.99994277954102 L 89.99988555908203 45.00005722045898 C 89.99988555908203 69.85284423828125 69.85272216796875 90 44.99993896484375 90 C 20.14715576171875 90 -7.62939453125e-06 69.85284423828125 -7.62939453125e-06 45.00005722045898 L -7.62939453125e-06 44.99994277954102 C -7.62939453125e-06 20.14715576171875 20.14715576171875 0 44.99993896484375 0 Z" stroke="none" fill="#fff"/>
            </g>
          </g>
          <g id="Rectángulo_400907" data-name="Rectángulo 400907" transform="translate(0)" fill="none" stroke="#fff" stroke-width="3">
            <rect width="90" height="90" rx="45" stroke="none"/>
            <rect x="1.5" y="1.5" width="87" height="87" rx="43.5" fill="none"/>
          </g>
        </g>
      </g>
    </g>
    <g id="document_4277457" transform="translate(1217.679 6613.456)">
      <g id="Grupo_1179105" data-name="Grupo 1179105" transform="translate(30.823 0.815)">
        <g id="Grupo_1179104" data-name="Grupo 1179104" transform="translate(4.452)">
          <path id="Trazado_905839" data-name="Trazado 905839" d="M121.507,34.5c0,16.059-.81,26.287-.81,26.287s-1.192.111-3.448.246c-3.434.2-9.334.462-17.25.462-13.116,0-20.7-.707-20.7-.707s-.81-10.227-.81-26.287.81-26.287.81-26.287S86.883,7.5,100,7.5c4.909,0,9.042.1,12.293.223l.746.029a60.5,60.5,0,0,1,8.086,8.438c.2,4.536.382,10.584.382,18.3Z" transform="translate(-78.49 -7.502)" fill="#ffd07b"/>
          <path id="Trazado_905840" data-name="Trazado 905840" d="M398.493,18.02c.2,4.536.382,10.584.382,18.3,0,16.059-.81,26.287-.81,26.287s-1.192.111-3.448.245c.145-2.112.782-12.282.782-26.532,0-7.72-.187-13.443-.382-17.979a25.028,25.028,0,0,0-5.356-8.792l.746.029A60.5,60.5,0,0,1,398.493,18.02Z" transform="translate(-355.858 -9.329)" fill="#f6b95e"/>
          <path id="Trazado_905841" data-name="Trazado 905841" d="M403.549,18.26a28.011,28.011,0,0,1-3.48.31,30.38,30.38,0,0,1-4.606-.193,71.556,71.556,0,0,1-.046-7.78c.025-.5.046-.775.046-.775A60.5,60.5,0,0,1,403.549,18.26Z" transform="translate(-360.914 -9.57)" fill="#9696b8"/>
          <path id="Trazado_905842" data-name="Trazado 905842" d="M404.242,18.26a28.011,28.011,0,0,1-3.48.31A24,24,0,0,0,396.11,10.6c.025-.5.046-.775.046-.775A60.5,60.5,0,0,1,404.242,18.26Z" transform="translate(-361.607 -9.57)" fill="#7c7c96"/>
        </g>
        <path id="Trazado_905843" data-name="Trazado 905843" d="M71.8,257.007s-4.414,11.953-17.144,11.953a19.254,19.254,0,0,1-2.281-.134c-10.982-1.308-14.864-11.82-14.864-11.82s3.881-10.512,14.864-11.82a19.257,19.257,0,0,1,2.281-.134C67.385,245.054,71.8,257.007,71.8,257.007Z" transform="translate(-37.51 -219.249)" fill="#f4f2f1"/>
        <path id="Trazado_905844" data-name="Trazado 905844" d="M193.765,257.007s-4.414,11.953-17.144,11.953a19.254,19.254,0,0,1-2.281-.134c10.981-1.308,14.863-11.82,14.863-11.82s-3.881-10.512-14.863-11.82a19.257,19.257,0,0,1,2.281-.134C189.351,245.054,193.765,257.007,193.765,257.007Z" transform="translate(-159.476 -219.249)" fill="#ded6d4"/>
        <path id="Trazado_905845" data-name="Trazado 905845" d="M141.419,292.339l-3.293-3.251a7.357,7.357,0,1,0,3.293,3.251Z" transform="translate(-117.737 -257.821)" fill="#ff8d8d"/>
        <circle id="Elipse_11622" data-name="Elipse 11622" cx="2.336" cy="2.336" r="2.336" transform="translate(19.932 30.321)" fill="#fff"/>
        <circle id="Elipse_11623" data-name="Elipse 11623" cx="1.901" cy="1.901" r="1.901" transform="translate(15.261 35.861)" fill="#ff5b5b"/>
      </g>
      <g id="Grupo_1179106" data-name="Grupo 1179106" transform="translate(30.008 0)">
        <path id="Trazado_905846" data-name="Trazado 905846" d="M136.8,61.99c2.392.188,5.211.283,8.378.283a.815.815,0,1,0,0-1.629c-3.125,0-5.9-.093-8.251-.278a.815.815,0,0,0-.127,1.624Z" transform="translate(-124.534 -53.805)"/>
        <path id="Trazado_905847" data-name="Trazado 905847" d="M136.805,107.031a124.4,124.4,0,0,0,16.757,0,.815.815,0,0,0-.127-1.624,122.845,122.845,0,0,1-16.5,0,.815.815,0,0,0-.127,1.624Z" transform="translate(-124.535 -93.954)"/>
        <path id="Trazado_905848" data-name="Trazado 905848" d="M136.8,152.075c2.086.163,4.388.288,6.841.371a.815.815,0,1,0,.055-1.629c-2.429-.082-4.706-.205-6.768-.367a.815.815,0,0,0-.127,1.625Z" transform="translate(-124.533 -134.105)"/>
        <path id="Trazado_905849" data-name="Trazado 905849" d="M255.224,151.2a.814.814,0,0,0-.876-.749c-4.984.409-12.314.562-18.378.462a.815.815,0,1,0-.025,1.629c6.119.1,13.492-.053,18.53-.466A.815.815,0,0,0,255.224,151.2Z" transform="translate(-212.86 -134.104)"/>
        <path id="Trazado_905850" data-name="Trazado 905850" d="M136.8,193.04a223.283,223.283,0,0,0,25.453.248.815.815,0,1,0-.082-1.627,221.747,221.747,0,0,1-25.243-.245.815.815,0,0,0-.127,1.624Z" transform="translate(-124.534 -170.62)"/>
        <path id="Trazado_905851" data-name="Trazado 905851" d="M71.81,28.1h0a.815.815,0,0,0,.815-.814c.014-13.233.584-22.493.758-25.015,2.743-.431,24.23-.926,32.114-.427a71.721,71.721,0,0,0,.049,7.825.815.815,0,0,0,.7.755,29.56,29.56,0,0,0,3.743.218,31.121,31.121,0,0,0,3.679-.212c.18,4.431.288,8.822.327,13.391a.815.815,0,0,0,.815.808h.007a.815.815,0,0,0,.808-.822c-.042-4.9-.162-9.587-.366-14.341a.814.814,0,0,0-.18-.477A60.923,60.923,0,0,0,106.868.431a.815.815,0,0,0-.476-.178C102.289.085,97.89,0,93.319,0c-13,0-20.7.7-20.773.71a.815.815,0,0,0-.736.747c-.008.1-.8,10.22-.813,25.832A.815.815,0,0,0,71.81,28.1ZM112.877,8.88a31.835,31.835,0,0,1-5.744.006c-.128-2.446-.093-4.679-.042-6.115A64.507,64.507,0,0,1,112.877,8.88Z" transform="translate(-66.543 0)"/>
        <path id="Trazado_905852" data-name="Trazado 905852" d="M119.365,248.5a.815.815,0,0,0-.815.815c0,13.51-.582,22.978-.758,25.533-2.145.167-9.22.646-19.935.646s-17.791-.479-19.936-.647c-.047-.672-.121-1.82-.206-3.384a.815.815,0,0,0-1.627.088c.142,2.632.257,4.1.259,4.116a.815.815,0,0,0,.736.747c.076.007,7.77.71,20.773.71s20.7-.7,20.773-.71a.815.815,0,0,0,.736-.747c.008-.1.813-10.444.813-26.352A.814.814,0,0,0,119.365,248.5Z" transform="translate(-71.081 -221.506)"/>
        <path id="Trazado_905853" data-name="Trazado 905853" d="M54.982,262a.815.815,0,0,0-.609-1.511,17.118,17.118,0,0,1-19.108-4.465,20.662,20.662,0,0,1-3.563-5.475,20.662,20.662,0,0,1,3.563-5.475,17.078,17.078,0,0,1,25.4,0,20.667,20.667,0,0,1,3.563,5.475,20.153,20.153,0,0,1-6.693,8.231.815.815,0,0,0,.926,1.341,21.453,21.453,0,0,0,7.412-9.291.816.816,0,0,0,0-.564,21.358,21.358,0,0,0-3.958-6.24c-7.072-8.3-20.849-8.283-27.9,0a21.361,21.361,0,0,0-3.957,6.24.816.816,0,0,0,0,.564c3.34,8.478,13.38,15.588,24.924,11.168Z" transform="translate(-30.008 -211.972)"/>
        <path id="Trazado_905854" data-name="Trazado 905854" d="M133.271,278.954a3.141,3.141,0,0,0-2.093.8,8.185,8.185,0,0,0-7.217.547.815.815,0,1,0,.832,1.4,6.555,6.555,0,0,1,5.474-.551,3.166,3.166,0,0,0,4,3.954,6.54,6.54,0,1,1-11.784-1.094.815.815,0,1,0-1.4-.83,8.169,8.169,0,1,0,14.571,1A3.163,3.163,0,0,0,133.271,278.954Zm-1.525,3.155a1.525,1.525,0,1,1,1.525,1.525A1.527,1.527,0,0,1,131.746,282.109Z" transform="translate(-110.174 -248.652)"/>
        <path id="Trazado_905855" data-name="Trazado 905855" d="M175.716,332.621a2.739,2.739,0,1,0-2.739,2.739A2.742,2.742,0,0,0,175.716,332.621Zm-3.848,0a1.11,1.11,0,1,1,1.11,1.11A1.111,1.111,0,0,1,171.868,332.621Z" transform="translate(-155.018 -294.048)"/>
      </g>
    </g>
  </g>
</svg>
