<svg xmlns="http://www.w3.org/2000/svg" xmlns:xlink="http://www.w3.org/1999/xlink" width="548.051" height="361.409" viewBox="0 0 548.051 361.409">
  <defs>
    <clipPath id="clip-path">
      <rect id="Rectángulo_405227" data-name="Rectángulo 405227" width="548.051" height="361.409" transform="translate(914.051 7110.189)" fill="#12263f" stroke="#707070" stroke-width="1" opacity="0.7"/>
    </clipPath>
    <clipPath id="clip-path-2">
      <rect id="Rectángulo_405177" data-name="Rectángulo 405177" width="548.051" height="361.409" transform="translate(915 7108.293)" fill="#12263f" stroke="#707070" stroke-width="1" opacity="0.7"/>
    </clipPath>
    <clipPath id="clip-path-3">
      <rect id="Rectángulo_405128" data-name="Rectángulo 405128" width="548" height="475" transform="translate(0.051)" fill="none"/>
    </clipPath>
    <clipPath id="clip-path-4">
      <rect id="Rectángulo_405127" data-name="Rectángulo 405127" width="548" height="475" transform="translate(0.051)" fill="#e0cf5d"/>
    </clipPath>
    <clipPath id="clip-path-5">
      <rect id="Rectángulo_405126" data-name="Rectángulo 405126" width="22.835" height="8.28" fill="#e0cf5d"/>
    </clipPath>
    <linearGradient id="linear-gradient" y1="0.484" x2="1" y2="0.485" gradientUnits="objectBoundingBox">
      <stop offset="0" stop-color="#fcf7d4"/>
      <stop offset="1" stop-color="#fcf7d4" stop-opacity="0"/>
    </linearGradient>
    <clipPath id="clip-path-6">
      <rect id="Rectángulo_405193" data-name="Rectángulo 405193" width="200.212" height="274.74" fill="none"/>
    </clipPath>
    <clipPath id="clip-path-8">
      <rect id="Rectángulo_405179" data-name="Rectángulo 405179" width="155.599" height="172.035" fill="none"/>
    </clipPath>
    <clipPath id="clip-path-10">
      <rect id="Rectángulo_405183" data-name="Rectángulo 405183" width="135.596" height="148.941" fill="none"/>
    </clipPath>
    <clipPath id="clip-path-12">
      <rect id="Rectángulo_405186" data-name="Rectángulo 405186" width="84.891" height="141.273" fill="none"/>
    </clipPath>
    <clipPath id="clip-path-13">
      <rect id="Rectángulo_405188" data-name="Rectángulo 405188" width="110.803" height="151.432" fill="none"/>
    </clipPath>
    <clipPath id="clip-path-14">
      <rect id="Rectángulo_405190" data-name="Rectángulo 405190" width="17.686" height="7.402" fill="none"/>
    </clipPath>
    <clipPath id="clip-path-15">
      <rect id="Rectángulo_405191" data-name="Rectángulo 405191" width="18.54" height="9.195" fill="none"/>
    </clipPath>
    <clipPath id="clip-path-16">
      <rect id="Rectángulo_405197" data-name="Rectángulo 405197" width="279.592" height="162.414" fill="none"/>
    </clipPath>
    <clipPath id="clip-path-18">
      <rect id="Rectángulo_405194" data-name="Rectángulo 405194" width="268.934" height="144.406" transform="translate(10.658 2.102)" fill="none"/>
    </clipPath>
    <clipPath id="clip-path-19">
      <rect id="Rectángulo_405195" data-name="Rectángulo 405195" width="276.134" height="146.922" transform="translate(0 15.492)" fill="none"/>
    </clipPath>
    <clipPath id="clip-path-20">
      <rect id="Rectángulo_405203" data-name="Rectángulo 405203" width="92.398" height="95.507" fill="none"/>
    </clipPath>
    <clipPath id="clip-path-22">
      <rect id="Rectángulo_405199" data-name="Rectángulo 405199" width="91.952" height="93.724" fill="none"/>
    </clipPath>
    <clipPath id="clip-path-23">
      <rect id="Rectángulo_405211" data-name="Rectángulo 405211" width="87.986" height="89.811" fill="none"/>
    </clipPath>
    <clipPath id="clip-path-25">
      <rect id="Rectángulo_405205" data-name="Rectángulo 405205" width="87.074" height="87.074" fill="none"/>
    </clipPath>
    <clipPath id="clip-path-27">
      <rect id="Rectángulo_405242" data-name="Rectángulo 405242" width="70.071" height="72.19" fill="none"/>
    </clipPath>
    <clipPath id="clip-path-30">
      <rect id="Rectángulo_405213" data-name="Rectángulo 405213" width="70.071" height="70.071" fill="none"/>
    </clipPath>
    <clipPath id="clip-path-32">
      <rect id="Rectángulo_405226" data-name="Rectángulo 405226" width="144.769" height="142.18" fill="none"/>
    </clipPath>
    <filter id="Trazado_905564" x="65.391" y="186.958" width="115.582" height="137.333" filterUnits="userSpaceOnUse">
      <feOffset dy="3" input="SourceAlpha"/>
      <feGaussianBlur stdDeviation="3" result="blur"/>
      <feFlood flood-opacity="0.161"/>
      <feComposite operator="in" in2="blur"/>
      <feComposite in="SourceGraphic"/>
    </filter>
    <clipPath id="clip-path-33">
      <rect id="Rectángulo_405238" data-name="Rectángulo 405238" width="120.438" height="127.418" fill="none"/>
    </clipPath>
    <clipPath id="clip-path-35">
      <rect id="Rectángulo_405228" data-name="Rectángulo 405228" width="20.395" height="31.626" transform="translate(40.402 15.895)" fill="none"/>
    </clipPath>
    <clipPath id="clip-path-36">
      <rect id="Rectángulo_405229" data-name="Rectángulo 405229" width="25.912" height="40.369" transform="translate(29.52 11.654)" fill="none"/>
    </clipPath>
    <clipPath id="clip-path-37">
      <rect id="Rectángulo_405230" data-name="Rectángulo 405230" width="18.831" height="29.147" transform="translate(15.689 51.303)" fill="none"/>
    </clipPath>
    <clipPath id="clip-path-38">
      <rect id="Rectángulo_405231" data-name="Rectángulo 405231" width="20.395" height="31.626" transform="translate(63.407 30.409)" fill="none"/>
    </clipPath>
    <clipPath id="clip-path-39">
      <rect id="Rectángulo_405232" data-name="Rectángulo 405232" width="25.912" height="40.369" transform="translate(52.525 26.168)" fill="none"/>
    </clipPath>
    <clipPath id="clip-path-40">
      <rect id="Rectángulo_405233" data-name="Rectángulo 405233" width="18.831" height="29.147" transform="translate(38.694 65.817)" fill="none"/>
    </clipPath>
    <clipPath id="clip-path-41">
      <rect id="Rectángulo_405234" data-name="Rectángulo 405234" width="20.395" height="31.626" transform="translate(86.404 44.927)" fill="none"/>
    </clipPath>
    <clipPath id="clip-path-42">
      <rect id="Rectángulo_405235" data-name="Rectángulo 405235" width="25.912" height="40.369" transform="translate(75.522 40.686)" fill="none"/>
    </clipPath>
    <clipPath id="clip-path-43">
      <rect id="Rectángulo_405236" data-name="Rectángulo 405236" width="18.831" height="29.147" transform="translate(61.691 80.335)" fill="none"/>
    </clipPath>
  </defs>
  <g id="Enmascarar_grupo_1098703" data-name="Enmascarar grupo 1098703" transform="translate(-914.051 -7110.189)" clip-path="url(#clip-path)">
    <path id="Trazado_905424" data-name="Trazado 905424" d="M0,0H548V361.75H0Z" transform="translate(915.051 7108)" fill="#fff"/>
    <g id="Grupo_1178894" data-name="Grupo 1178894">
      <g id="Enmascarar_grupo_1098702" data-name="Enmascarar grupo 1098702" transform="translate(0 -0.047)" clip-path="url(#clip-path-2)">
        <g id="Grupo_1178819" data-name="Grupo 1178819" transform="translate(914.793 7108)" opacity="0.47">
          <g id="Grupo_1178818" data-name="Grupo 1178818" transform="translate(0.207)" clip-path="url(#clip-path-3)">
            <path id="Trazado_905259" data-name="Trazado 905259" d="M0,0H548V475H0Z" transform="translate(0.051)" fill="#fcf7d4" opacity="0.71"/>
            <g id="Grupo_1178817" data-name="Grupo 1178817">
              <g id="Grupo_1178816" data-name="Grupo 1178816" clip-path="url(#clip-path-4)">
                <path id="Trazado_905260" data-name="Trazado 905260" d="M548.216,0V226.74C485.464,146.8,386.035,95.162,274.112,95.162S62.753,146.8,0,226.74V0Z" transform="translate(-0.227)" fill="#e0cf5d" opacity="0.36"/>
                <path id="Trazado_905261" data-name="Trazado 905261" d="M548.216,0V111.233c-74.145-60.049-169.749-96.2-274.1-96.2S74.145,51.184,0,111.233V0Z" transform="translate(-0.227)" fill="#e0cf5d" opacity="0.32"/>
                <g id="Grupo_1178815" data-name="Grupo 1178815" transform="translate(250.068 424.965)" opacity="0.1">
                  <g id="Grupo_1178814" data-name="Grupo 1178814">
                    <g id="Grupo_1178813" data-name="Grupo 1178813" clip-path="url(#clip-path-5)">
                      <path id="Trazado_905262" data-name="Trazado 905262" d="M182.624,358.885l.426-.982,22.408,7.315-.419.965Z" transform="translate(-182.624 -357.904)" fill="#e0cf5d"/>
                    </g>
                  </g>
                </g>
              </g>
            </g>
          </g>
        </g>
      </g>
      <rect id="Rectángulo_405178" data-name="Rectángulo 405178" width="103" height="362" transform="translate(914.051 7108)" fill="url(#linear-gradient)"/>
    </g>
    <g id="Grupo_1178920" data-name="Grupo 1178920" transform="translate(1130.504 7264.626)">
      <g id="Grupo_1178919" data-name="Grupo 1178919" clip-path="url(#clip-path-6)">
        <g id="Grupo_1178899" data-name="Grupo 1178899">
          <g id="Grupo_1178898" data-name="Grupo 1178898" clip-path="url(#clip-path-6)">
            <g id="Grupo_1178897" data-name="Grupo 1178897" transform="translate(3.861 3.904)" opacity="0.2">
              <g id="Grupo_1178896" data-name="Grupo 1178896">
                <g id="Grupo_1178895" data-name="Grupo 1178895" clip-path="url(#clip-path-8)">
                  <path id="Trazado_905425" data-name="Trazado 905425" d="M105.633,3.678,81.262,13.729a8.221,8.221,0,0,0-8.169-1.074l-4.607,1.9a7.139,7.139,0,0,1-7.735-1.409A10.927,10.927,0,0,0,42.144,20.8a7.183,7.183,0,0,1-4.514,6.483l-4.587,1.892a8.221,8.221,0,0,0-5.036,6.521L3.637,45.744l53.6,129.969,102-42.066Z" transform="translate(-3.637 -3.678)" fill="#100f0c"/>
                </g>
              </g>
            </g>
          </g>
        </g>
        <rect id="Rectángulo_405181" data-name="Rectángulo 405181" width="110.33" height="140.588" transform="matrix(0.924, -0.381, 0.381, 0.924, 4.976, 42.067)" fill="#4f494a"/>
        <g id="Grupo_1178904" data-name="Grupo 1178904">
          <g id="Grupo_1178903" data-name="Grupo 1178903" clip-path="url(#clip-path-6)">
            <g id="Grupo_1178902" data-name="Grupo 1178902" transform="translate(13.701 10.124)" opacity="0.2">
              <g id="Grupo_1178901" data-name="Grupo 1178901">
                <g id="Grupo_1178900" data-name="Grupo 1178900" clip-path="url(#clip-path-10)">
                  <rect id="Rectángulo_405182" data-name="Rectángulo 405182" width="96.672" height="121.24" transform="matrix(0.924, -0.381, 0.381, 0.924, 0, 36.86)" fill="#100f0c"/>
                </g>
              </g>
            </g>
          </g>
        </g>
        <rect id="Rectángulo_405185" data-name="Rectángulo 405185" width="96.672" height="121.24" transform="matrix(0.924, -0.381, 0.381, 0.924, 13.701, 45.31)" fill="#fffbe1"/>
        <g id="Grupo_1178918" data-name="Grupo 1178918">
          <g id="Grupo_1178917" data-name="Grupo 1178917" clip-path="url(#clip-path-6)">
            <path id="Trazado_905426" data-name="Trazado 905426" d="M72.735,8.611l-4.607,1.9A7.139,7.139,0,0,1,60.393,9.1a10.927,10.927,0,0,0-18.608,7.652,7.183,7.183,0,0,1-4.514,6.483l-4.587,1.892a8.051,8.051,0,0,0-4.811,9.509A7.909,7.909,0,0,0,38.48,39.806l40.492-16.7a7.908,7.908,0,0,0,3.879-11.141A8.05,8.05,0,0,0,72.735,8.611" transform="translate(1.698 0.366)" fill="#34312f"/>
            <path id="Trazado_905427" data-name="Trazado 905427" d="M76.082,46.234,42.542,60.067a.558.558,0,0,1-.425-1.032L75.656,45.2a.558.558,0,1,1,.426,1.031" transform="translate(2.571 2.78)" fill="#cec7b0"/>
            <path id="Trazado_905428" data-name="Trazado 905428" d="M36.181,61.385a1.794,1.794,0,1,1-2.343-.975,1.794,1.794,0,0,1,2.343.975" transform="translate(2.015 3.71)" fill="#cec7b0"/>
            <path id="Trazado_905429" data-name="Trazado 905429" d="M66.183,61.351l-19.635,8.1a.557.557,0,1,1-.425-1.031l19.634-8.1a.558.558,0,1,1,.426,1.031" transform="translate(2.818 3.711)" fill="#cec7b0"/>
            <path id="Trazado_905430" data-name="Trazado 905430" d="M40.188,71.1a1.794,1.794,0,1,1-2.343-.975,1.794,1.794,0,0,1,2.343.975" transform="translate(2.261 4.308)" fill="#cec7b0"/>
            <path id="Trazado_905431" data-name="Trazado 905431" d="M90.466,62.757l-21.9,9.031a.558.558,0,0,1-.425-1.032l21.895-9.03a.558.558,0,1,1,.426,1.031" transform="translate(4.174 3.797)" fill="#cec7b0"/>
            <path id="Trazado_905432" data-name="Trazado 905432" d="M44.194,80.815a1.794,1.794,0,1,1-2.343-.975,1.794,1.794,0,0,1,2.343.975" transform="translate(2.508 4.906)" fill="#cec7b0"/>
            <path id="Trazado_905433" data-name="Trazado 905433" d="M91.536,74.044,54.563,89.294a.558.558,0,1,1-.426-1.032L91.11,73.013a.558.558,0,1,1,.426,1.031" transform="translate(3.311 4.492)" fill="#cec7b0"/>
            <path id="Trazado_905434" data-name="Trazado 905434" d="M48.2,90.53a1.794,1.794,0,1,1-2.343-.975,1.794,1.794,0,0,1,2.343.975" transform="translate(2.755 5.504)" fill="#cec7b0"/>
            <path id="Trazado_905435" data-name="Trazado 905435" d="M85.138,87.8,58.569,98.76a.558.558,0,0,1-.426-1.032L84.713,86.77a.558.558,0,0,1,.426,1.031" transform="translate(3.558 5.339)" fill="#cec7b0"/>
            <path id="Trazado_905436" data-name="Trazado 905436" d="M52.208,100.245a1.794,1.794,0,1,1-2.343-.975,1.794,1.794,0,0,1,2.343.975" transform="translate(3.001 6.103)" fill="#cec7b0"/>
            <path id="Trazado_905437" data-name="Trazado 905437" d="M115.547,75.3l-28.2,11.631A.558.558,0,0,1,86.92,85.9l28.2-11.63a.558.558,0,0,1,.426,1.031" transform="translate(5.329 4.569)" fill="#cec7b0"/>
            <path id="Trazado_905438" data-name="Trazado 905438" d="M110.933,65.584,93.2,72.9a.557.557,0,1,1-.425-1.031l17.729-7.313a.558.558,0,0,1,.426,1.032" transform="translate(5.69 3.971)" fill="#cec7b0"/>
            <path id="Trazado_905439" data-name="Trazado 905439" d="M65.872,72.743,50.556,79.061a.558.558,0,0,1-.426-1.032l15.316-6.316a.558.558,0,1,1,.426,1.031" transform="translate(3.065 4.412)" fill="#cec7b0"/>
            <path id="Trazado_905440" data-name="Trazado 905440" d="M106.716,55.869l-14.1,5.815a.558.558,0,1,1-.426-1.031l14.1-5.815a.558.558,0,0,1,.427,1.031" transform="translate(5.654 3.373)" fill="#cec7b0"/>
            <path id="Trazado_905441" data-name="Trazado 905441" d="M103.947,46.154,68.5,60.772a.557.557,0,1,1-.425-1.031l35.442-14.618a.558.558,0,1,1,.426,1.031" transform="translate(4.17 2.775)" fill="#cec7b0"/>
            <path id="Trazado_905442" data-name="Trazado 905442" d="M56.215,109.96a1.794,1.794,0,1,1-2.343-.975,1.794,1.794,0,0,1,2.343.975" transform="translate(3.248 6.701)" fill="#cec7b0"/>
            <path id="Trazado_905443" data-name="Trazado 905443" d="M60.221,119.675a1.794,1.794,0,1,1-2.343-.975,1.794,1.794,0,0,1,2.343.975" transform="translate(3.495 7.299)" fill="#cec7b0"/>
            <path id="Trazado_905444" data-name="Trazado 905444" d="M99.114,36.439l-21.2,8.743a.558.558,0,0,1-.425-1.032l21.2-8.742a.558.558,0,1,1,.426,1.031" transform="translate(4.749 2.177)" fill="#cec7b0"/>
            <path id="Trazado_905445" data-name="Trazado 905445" d="M82.21,100.21l-19.635,8.1a.557.557,0,1,1-.425-1.031l19.634-8.1a.558.558,0,0,1,.426,1.031" transform="translate(3.805 6.103)" fill="#cec7b0"/>
            <g id="Grupo_1178907" data-name="Grupo 1178907" transform="translate(0.558 133.467)" opacity="0.2">
              <g id="Grupo_1178906" data-name="Grupo 1178906">
                <g id="Grupo_1178905" data-name="Grupo 1178905" clip-path="url(#clip-path-12)">
                  <path id="Trazado_905446" data-name="Trazado 905446" d="M84.425,141.238c2.531-4.505-2.159-7.174-5.163-2.883C76.2,142.73,70.5,152.887,65.969,159.312a.786.786,0,0,1-1.362-.77c3.2-7.26,8.658-20.6,10.8-25.5,1.713-3.925-2.731-7.617-5.8-2.463-2.748,4.62-9.658,17.775-13.156,24.182a.5.5,0,0,1-.918-.4c2.393-7,5.572-19.158,7.329-24.136,1.515-4.292-3.737-6.678-6.071-1.722-2.034,4.319-6.078,14.825-9.144,21.18a.648.648,0,0,1-1.212-.441c1.4-5.571,2.666-14.506,3.572-18.051.581-2.273-3.641-3.864-5.058-.776-3.891,8.479-6.555,17.756-8.98,25.372a26,26,0,0,0-.364,14.468l.653,2.495a13.925,13.925,0,0,1-.437,8.427l-1.361,3.621-2.61-.981-2.1,5.577L.525,252.031,37.778,267l15.17-69.012,2-5.495-3.219-1.21,1.582-3.921a6.662,6.662,0,0,1,5.471-4.275,28.641,28.641,0,0,0,18.66-10.044c2.635-3.14,5.312-6.337,6.764-8.092,3.662-4.424-1.775-9.925-5.788-5.11-1.152,1.383-3.287,3.95-5.352,6.436a.714.714,0,0,1-1.169-.812c4.328-7.486,9.757-19.292,12.529-24.226" transform="translate(-0.525 -125.727)" fill="#100f0c"/>
                </g>
              </g>
            </g>
            <path id="Trazado_905447" data-name="Trazado 905447" d="M31.624,258.649,0,246.763l29.228-62.641,22.584,8.488Z" transform="translate(0 11.334)" fill="#cdcbcc"/>
            <rect id="Rectángulo_405187" data-name="Rectángulo 405187" width="5.958" height="24.125" transform="matrix(0.352, -0.936, 0.936, 0.352, 29.228, 195.457)" fill="#43403e"/>
            <path id="Trazado_905448" data-name="Trazado 905448" d="M75.925,158.229c-1.152,1.382-3.287,3.95-5.352,6.435a.714.714,0,0,1-1.169-.811c4.328-7.486,10.8-18.7,13.569-23.638,2.531-4.505-2.159-7.174-5.163-2.884-3.063,4.376-9.8,13.944-14.334,20.369a.786.786,0,0,1-1.362-.771c3.206-7.259,9.428-19.9,11.569-24.8,1.712-3.926-2.732-7.618-5.8-2.464-2.748,4.62-10.427,17.076-13.926,23.485a.5.5,0,0,1-.917-.4c2.393-7,6.376-18.544,8.133-23.522,1.515-4.293-3.737-6.678-6.071-1.722-2.034,4.318-6.882,14.21-9.948,20.566a.648.648,0,0,1-1.212-.439c1.4-5.571,3.379-13.42,4.284-16.964.581-2.273-3.641-3.864-5.057-.777a218.667,218.667,0,0,0-9.693,24.285,25.991,25.991,0,0,0-.364,14.469l.653,2.494a13.933,13.933,0,0,1-.437,8.427l-1.361,3.622,17.362,6.524,1.487-3.957a6.663,6.663,0,0,1,5.472-4.274,28.653,28.653,0,0,0,18.66-10.044c2.635-3.14,5.311-6.337,6.764-8.093,3.661-4.423-1.775-9.923-5.788-5.109" transform="translate(1.968 7.678)" fill="#f2a777"/>
            <g id="Grupo_1178910" data-name="Grupo 1178910" transform="translate(88.851 104.258)" opacity="0.2">
              <g id="Grupo_1178909" data-name="Grupo 1178909">
                <g id="Grupo_1178908" data-name="Grupo 1178908" clip-path="url(#clip-path-13)">
                  <path id="Trazado_905449" data-name="Trazado 905449" d="M86.286,102.459l-2.431-3.033a.718.718,0,0,1-.152-.381.739.739,0,0,1,1.086-.738l10.522,6.482,7.768,6.488a4.389,4.389,0,0,1,4.727-7.111l13.35,4.917a24.442,24.442,0,0,1,10.315,7.271l6.744,8.076a32.72,32.72,0,0,1,6.991,14.673l1.723,8.791,6.081,5.077h0l3.018,2.519a.852.852,0,0,1,.262.9,6.612,6.612,0,0,1-3.479,4.166.852.852,0,0,1-.934-.1l-2.953-2.468a37.134,37.134,0,0,0,2.521,7.455l1.37,2.965,1.852-.855,2.5,5.409L194.5,242.892l-41.584,6.752-18.462-66.235-2.485-5.37,2.649-1.223-1.341-2.9a23.154,23.154,0,0,0-5.2-7.2l-7.971-7.461a42.038,42.038,0,0,1-8.669-11.489L105.7,136.578c-.123.008-.246.016-.37.025-5.776.439-6.239-5.24-2.824-6.262-.028-.057-.053-.116-.08-.174-3.925-.641-4.032-7.151,1.1-7.347-4.315-.066-5.5-4.076-4.141-5.913l-7.99-7.474Z" transform="translate(-83.699 -98.212)" fill="#100f0c"/>
                </g>
              </g>
            </g>
            <path id="Trazado_905450" data-name="Trazado 905450" d="M120.374,117.392a42.193,42.193,0,0,0-19.609-2.979c-3.133.3-3.046,6.779,2.392,6.862-5.382.206-5,7.369-.49,7.4-3.978.565-3.763,6.842,2.3,6.381,6.818-.519,13.358-.186,19.993,3.363l1.571-21.662Z" transform="translate(6.074 7.032)" fill="#d59165"/>
            <path id="Trazado_905451" data-name="Trazado 905451" d="M192.037,238.032,157.9,242.541l-25.1-64.321,21.9-10.112Z" transform="translate(8.175 10.348)" fill="#cdcbcc"/>
            <rect id="Rectángulo_405189" data-name="Rectángulo 405189" width="24.126" height="5.958" transform="translate(138.476 183.159) rotate(-24.781)" fill="#43403e"/>
            <path id="Trazado_905452" data-name="Trazado 905452" d="M132.749,173.056l1.341,2.9,18.2-8.4-1.369-2.966a37.145,37.145,0,0,1-2.726-8.419l-3.515-17.927a32.716,32.716,0,0,0-6.991-14.672l-6.744-8.077a24.444,24.444,0,0,0-10.315-7.271l-13.35-4.917a4.389,4.389,0,0,0-3.4,8.084l11.917,5.653a10.662,10.662,0,0,1,5.518,6.184l1.755,5.133a5.635,5.635,0,0,1-.791,5.159l-.891,1.212a3.43,3.43,0,0,1-5.773-.383l-5.263-9.608a4.622,4.622,0,0,0-6.23-1.857,5.013,5.013,0,0,0-2.1,6.711l8.885,17.309a42.027,42.027,0,0,0,8.669,11.489l7.971,7.461a23.17,23.17,0,0,1,5.2,7.2" transform="translate(6.24 6.343)" fill="#f2a777"/>
            <path id="Trazado_905453" data-name="Trazado 905453" d="M95.4,103.885l57.7,48.181a6.723,6.723,0,0,1-4.149,4.968l-57.7-48.181a6.744,6.744,0,0,0,4.149-4.968" transform="translate(5.618 6.395)" fill="#a5596a"/>
            <path id="Trazado_905454" data-name="Trazado 905454" d="M84.726,98.2l11.147,6.04a6.733,6.733,0,0,1-4.151,4.971l-7.93-9.895a.742.742,0,0,1,.933-1.117" transform="translate(5.148 6.039)" fill="#cdb1a5"/>
            <path id="Trazado_905455" data-name="Trazado 905455" d="M149.56,156.858a6.612,6.612,0,0,0,3.479-4.166.852.852,0,0,0-.262-.9l-3.018-2.518a6.724,6.724,0,0,1-4.149,4.968l3.017,2.52a.85.85,0,0,0,.933.1" transform="translate(8.963 9.189)" fill="#7c444e"/>
            <path id="Trazado_905456" data-name="Trazado 905456" d="M84.726,98.2l3.417,1.851a6.324,6.324,0,0,1-1.919,2.3l-2.431-3.032a.743.743,0,0,1,.933-1.118" transform="translate(5.148 6.039)" fill="#817c6a"/>
            <path id="Trazado_905457" data-name="Trazado 905457" d="M116.351,121.375l35.465,29.612a6.715,6.715,0,0,1-4.151,4.971L112.2,126.343a6.736,6.736,0,0,0,4.149-4.968" transform="translate(6.907 7.472)" fill="#a5596a"/>
            <path id="Trazado_905458" data-name="Trazado 905458" d="M110.745,124.891l-4.479-3.661a4.961,4.961,0,0,1,3.786,2.392Z" transform="translate(6.542 7.463)" fill="#f2a777"/>
            <g id="Grupo_1178913" data-name="Grupo 1178913" transform="translate(33.935 189.983)" opacity="0.1">
              <g id="Grupo_1178912" data-name="Grupo 1178912">
                <g id="Grupo_1178911" data-name="Grupo 1178911" clip-path="url(#clip-path-14)">
                  <path id="Trazado_905459" data-name="Trazado 905459" d="M31.967,179.844l.33-.878,17.356,6.54-.325.863Z" transform="translate(-31.967 -178.967)" fill="#100f0c"/>
                </g>
              </g>
            </g>
            <g id="Grupo_1178916" data-name="Grupo 1178916" transform="translate(139.988 173.109)" opacity="0.1">
              <g id="Grupo_1178915" data-name="Grupo 1178915">
                <g id="Grupo_1178914" data-name="Grupo 1178914" clip-path="url(#clip-path-15)">
                  <path id="Trazado_905460" data-name="Trazado 905460" d="M132.212,172.266l-.342-.741,18.173-8.453.367.793Z" transform="translate(-131.87 -163.071)" fill="#100f0c"/>
                </g>
              </g>
            </g>
          </g>
        </g>
      </g>
    </g>
    <g id="Grupo_1178930" data-name="Grupo 1178930" transform="translate(940.726 7117.586)">
      <g id="Grupo_1178929" data-name="Grupo 1178929" clip-path="url(#clip-path-16)">
        <g id="Grupo_1178928" data-name="Grupo 1178928">
          <g id="Grupo_1178927" data-name="Grupo 1178927" clip-path="url(#clip-path-16)">
            <g id="Grupo_1178923" data-name="Grupo 1178923" opacity="0.2">
              <g id="Grupo_1178922" data-name="Grupo 1178922">
                <g id="Grupo_1178921" data-name="Grupo 1178921" clip-path="url(#clip-path-18)">
                  <path id="Trazado_905461" data-name="Trazado 905461" d="M272.789,75.747,39.551,146.1a9.562,9.562,0,0,1-11.916-6.393L11.068,84.778a9.561,9.561,0,0,1,6.393-11.915L250.7,2.512A9.562,9.562,0,0,1,262.615,8.9l16.567,54.926a9.562,9.562,0,0,1-6.393,11.916" fill="#100f0c"/>
                </g>
              </g>
            </g>
            <path id="Trazado_905462" data-name="Trazado 905462" d="M272.789,73.645,39.551,144A9.562,9.562,0,0,1,27.635,137.6L11.068,82.676a9.561,9.561,0,0,1,6.393-11.915L250.7.41A9.562,9.562,0,0,1,262.615,6.8l16.567,54.926a9.562,9.562,0,0,1-6.393,11.916" fill="#cfcdd7"/>
            <path id="Trazado_905463" data-name="Trazado 905463" d="M270.221,69.209,39.238,138.88a6.305,6.305,0,0,1-7.857-4.216L15.814,83.054A6.3,6.3,0,0,1,20.03,75.2L251.012,5.526a6.307,6.307,0,0,1,7.858,4.216l15.567,51.61a6.306,6.306,0,0,1-4.216,7.857" fill="#4b331d"/>
            <g id="Grupo_1178926" data-name="Grupo 1178926" opacity="0.2">
              <g id="Grupo_1178925" data-name="Grupo 1178925">
                <g id="Grupo_1178924" data-name="Grupo 1178924" clip-path="url(#clip-path-19)">
                  <path id="Trazado_905464" data-name="Trazado 905464" d="M276.049,95.7a51.188,51.188,0,0,0-5.786-21.138,51.782,51.782,0,0,0-13.985-16.89,56.12,56.12,0,0,0-10.584-6.585,59.514,59.514,0,0,0-6.526-2.653,51.67,51.67,0,0,0-5.062-1.468,2.912,2.912,0,0,0,.057-.5c.358-.007.713-.016,1.07-.022a31.392,31.392,0,0,0,3.62-.264,31.758,31.758,0,0,0,16.628-7.473,31.354,31.354,0,0,0,10.6-18.9,24.145,24.145,0,0,0,.338-3.583.529.529,0,0,0-.469-.543,24.2,24.2,0,0,0-3.6-.184,31.389,31.389,0,0,0-20.237,7.749,31.648,31.648,0,0,0-10.59,18.912c-.069.423-.117.871-.155,1.329a2.9,2.9,0,0,0-1.307.249c-.439-.908-.906-1.745-1.364-2.607A44.488,44.488,0,0,0,175.659,19.46a33.855,33.855,0,0,0-4.706,1.861.743.743,0,0,0-.381.933,33.923,33.923,0,0,0,2.061,4.622,44,44,0,0,0,8.608,11.4,44.041,44.041,0,0,0,14,9.013,44.646,44.646,0,0,0,25.509,2.485,44.366,44.366,0,0,0,4.94-1.274,27.553,27.553,0,0,0,2.82-1.1,2.972,2.972,0,0,0,.145.335,2.9,2.9,0,0,0,1.545,1.378c-.674,1.671-1.2,3.264-1.656,4.823a59.467,59.467,0,0,0-1.6,6.861,56.069,56.069,0,0,0-.725,12.444,51.786,51.786,0,0,0,5.731,21.167,51.192,51.192,0,0,0,13.93,16.918,55.59,55.59,0,0,0,10.592,6.58,58.938,58.938,0,0,0,6.544,2.645,47.9,47.9,0,0,0,6.867,1.829,1.243,1.243,0,0,0,1.345-.7,47.882,47.882,0,0,0,2.466-6.666,59.053,59.053,0,0,0,1.614-6.87,55.553,55.553,0,0,0,.734-12.448" fill="#100f0c"/>
                  <path id="Trazado_905465" data-name="Trazado 905465" d="M202.295,71.9a44.811,44.811,0,0,0-45.137-6.5A44.326,44.326,0,0,0,145,72.886a27.3,27.3,0,0,0-2.167,2.129,3.162,3.162,0,0,0-.258-.26,2.894,2.894,0,0,0-1.962-.65c-.038-1.805-.183-3.478-.375-5.094a59.54,59.54,0,0,0-1.231-6.936,56.141,56.141,0,0,0-4.228-11.726,51.8,51.8,0,0,0-13.6-17.206,51.2,51.2,0,0,0-19.463-10.074A55.626,55.626,0,0,0,89.4,21.186a59.06,59.06,0,0,0-7.056.143,47.8,47.8,0,0,0-7.034,1.02,1.241,1.241,0,0,0-.962,1.168,47.72,47.72,0,0,0,.355,7.1,58.973,58.973,0,0,0,1.218,6.952A55.636,55.636,0,0,0,80.141,49.3,51.184,51.184,0,0,0,93.776,66.458a51.781,51.781,0,0,0,19.5,10.027,56.108,56.108,0,0,0,12.321,1.89,59.358,59.358,0,0,0,7.043-.128,51.348,51.348,0,0,0,5.243-.644,2.927,2.927,0,0,0,.146.481c-.33.149-.656.3-.987.447a31.64,31.64,0,0,0-17.882,36.626,24.242,24.242,0,0,0,1.1,3.428.53.53,0,0,0,.645.314,24.072,24.072,0,0,0,3.377-1.245,31.4,31.4,0,0,0,15.558-15.085,31.657,31.657,0,0,0,2.3-21.554c-.1-.419-.237-.852-.383-1.292a2.88,2.88,0,0,0,1.1-.739c.762.664,1.524,1.252,2.286,1.866A44.482,44.482,0,0,0,202.43,79.9a33.958,33.958,0,0,0,3.6-3.562.745.745,0,0,0-.017-1.008,33.973,33.973,0,0,0-3.713-3.438" fill="#100f0c"/>
                  <path id="Trazado_905466" data-name="Trazado 905466" d="M98.822,118.429a31.4,31.4,0,0,0-14.058-16.493A31.651,31.651,0,0,0,63.4,98.263c-.425.076-.866.182-1.314.3a2.887,2.887,0,0,0-.667-1.145c.711-.719,1.347-1.441,2.009-2.162A44.6,44.6,0,0,0,75.155,67.129a44.079,44.079,0,0,0-9-29.107,33.793,33.793,0,0,0-3.324-3.816.744.744,0,0,0-1.007-.048,34.067,34.067,0,0,0-3.669,3.485,44.144,44.144,0,0,0-11.7,28.129A44.48,44.48,0,0,0,55.475,94.88a27.253,27.253,0,0,0,1.985,2.3,2.965,2.965,0,0,0-.275.241,2.893,2.893,0,0,0-.776,1.916c-1.8-.078-3.482-.04-5.107.048a59.461,59.461,0,0,0-7,.784,56.111,56.111,0,0,0-11.974,3.468A51.786,51.786,0,0,0,14.286,116.1a51.19,51.19,0,0,0-11.3,18.777A55.515,55.515,0,0,0,.316,147.058a58.909,58.909,0,0,0-.31,7.05,47.651,47.651,0,0,0,.567,7.085,1.239,1.239,0,0,0,1.1,1.035,47.875,47.875,0,0,0,7.106.1,59.082,59.082,0,0,0,7.015-.77,55.671,55.671,0,0,0,11.98-3.462,51.194,51.194,0,0,0,18-12.507,51.781,51.781,0,0,0,11.256-18.819A56.119,56.119,0,0,0,59.708,114.6a59.47,59.47,0,0,0,.324-7.037,51.3,51.3,0,0,0-.307-5.273,2.88,2.88,0,0,0,.49-.115c.127.339.256.674.383,1.014a31.7,31.7,0,0,0,14.048,16.506A31.353,31.353,0,0,0,96,123.379a24.17,24.17,0,0,0,3.493-.876.529.529,0,0,0,.354-.623,24.211,24.211,0,0,0-1.025-3.451" fill="#100f0c"/>
                </g>
              </g>
            </g>
            <path id="Trazado_905467" data-name="Trazado 905467" d="M231.393,44.33a46.879,46.879,0,0,1,7.774,2.006,59.434,59.434,0,0,1,6.526,2.653,56.055,56.055,0,0,1,10.584,6.585,51.769,51.769,0,0,1,13.985,16.89A51.183,51.183,0,0,1,276.048,93.6a55.61,55.61,0,0,1-.733,12.448,59.07,59.07,0,0,1-1.615,6.87,47.889,47.889,0,0,1-2.466,6.666,1.242,1.242,0,0,1-1.344.7,47.879,47.879,0,0,1-6.868-1.829,59.133,59.133,0,0,1-6.544-2.644,55.6,55.6,0,0,1-10.591-6.581A51.183,51.183,0,0,1,231.956,92.31a51.786,51.786,0,0,1-5.731-21.167,56.132,56.132,0,0,1,.726-12.444,59.258,59.258,0,0,1,1.6-6.861,46.849,46.849,0,0,1,2.845-7.508" fill="#9eaa10"/>
            <path id="Trazado_905468" data-name="Trazado 905468" d="M231.275,44.215a25.433,25.433,0,0,1,.254-4.159A31.643,31.643,0,0,1,262.356,13.4a24.063,24.063,0,0,1,3.6.184.529.529,0,0,1,.469.542,24.141,24.141,0,0,1-.339,3.584,31.4,31.4,0,0,1-10.6,18.9,31.644,31.644,0,0,1-20.248,7.737,21.88,21.88,0,0,1-3.958-.128" fill="#9eaa10"/>
            <path id="Trazado_905469" data-name="Trazado 905469" d="M231.364,44.345a65.125,65.125,0,0,1,6.253,6.719c1.913,2.329,3.687,4.729,5.384,7.169a139.926,139.926,0,0,1,9.1,15.2,138.328,138.328,0,0,1,7.181,16.2c1.016,2.793,1.953,5.627,2.75,8.534a71.046,71.046,0,0,1,1.683,7.626.485.485,0,0,1-.818.424,70.971,70.971,0,0,1-5.259-5.774c-1.914-2.327-3.689-4.728-5.385-7.169a138.159,138.159,0,0,1-9.089-15.208A140.091,140.091,0,0,1,236,61.862c-1.015-2.794-1.952-5.628-2.751-8.534a65.072,65.072,0,0,1-1.882-8.983" fill="#64791d"/>
            <path id="Trazado_905470" data-name="Trazado 905470" d="M231.259,44.223a40.483,40.483,0,0,1,2.8-4.132c1.018-1.273,2.083-2.489,3.176-3.674a87.1,87.1,0,0,1,6.934-6.673,85.875,85.875,0,0,1,7.6-5.9c1.33-.911,2.688-1.789,4.1-2.61,1.205-.7,2.428-1.371,3.725-1.96a.223.223,0,0,1,.286.331c-.771,1.2-1.616,2.31-2.479,3.4-1.017,1.273-2.082,2.489-3.176,3.674a85.89,85.89,0,0,1-6.938,6.668,86.938,86.938,0,0,1-7.608,5.893c-1.331.91-2.688,1.788-4.094,2.611a39.124,39.124,0,0,1-4.327,2.368" fill="#64791d"/>
            <path id="Trazado_905471" data-name="Trazado 905471" d="M231.066,44.068a35.806,35.806,0,0,1-5.373,2.334,44.309,44.309,0,0,1-4.94,1.274,44.576,44.576,0,0,1-9.181.834,44.53,44.53,0,0,1-16.328-3.319,44.041,44.041,0,0,1-14-9.013,43.95,43.95,0,0,1-8.608-11.4,34.045,34.045,0,0,1-2.061-4.622.744.744,0,0,1,.381-.933,33.854,33.854,0,0,1,4.706-1.861A44.654,44.654,0,0,1,228.7,39.027a30.824,30.824,0,0,1,2.363,5.041" fill="#9eaa10"/>
            <path id="Trazado_905472" data-name="Trazado 905472" d="M231.087,44.081a56.885,56.885,0,0,1-6.964-.876c-2.243-.464-4.446-1.024-6.628-1.637a122.5,122.5,0,0,1-12.782-4.433,120.977,120.977,0,0,1-12.239-5.767c-1.988-1.087-3.954-2.228-5.88-3.467-1.64-1.067-3.266-2.168-4.831-3.419a.312.312,0,0,1,.232-.568c1.993.2,3.925.552,5.843.936,2.243.463,4.447,1.023,6.628,1.637a120.96,120.96,0,0,1,12.779,4.441A122.506,122.506,0,0,1,219.48,36.7c1.988,1.087,3.954,2.229,5.881,3.466a55.115,55.115,0,0,1,5.726,3.911" fill="#64791d"/>
            <path id="Trazado_905473" data-name="Trazado 905473" d="M228.659,45.637a2.916,2.916,0,1,1,3.93,1.248,2.915,2.915,0,0,1-3.93-1.248" fill="#64791d"/>
            <path id="Trazado_905474" data-name="Trazado 905474" d="M140.579,74.931a46.9,46.9,0,0,1-7.937,1.214,59.356,59.356,0,0,1-7.043.128,56.109,56.109,0,0,1-12.321-1.89,51.781,51.781,0,0,1-19.5-10.027A51.184,51.184,0,0,1,80.141,47.2a55.581,55.581,0,0,1-4.222-11.732A59.138,59.138,0,0,1,74.7,28.514a47.862,47.862,0,0,1-.354-7.1,1.241,1.241,0,0,1,.962-1.168,47.783,47.783,0,0,1,7.034-1.02,59.044,59.044,0,0,1,7.055-.143,55.626,55.626,0,0,1,12.327,1.883,51.2,51.2,0,0,1,19.463,10.074,51.772,51.772,0,0,1,13.6,17.206,56.142,56.142,0,0,1,4.229,11.726,59.333,59.333,0,0,1,1.23,6.936,46.8,46.8,0,0,1,.338,8.022" fill="#9eaa10"/>
            <path id="Trazado_905475" data-name="Trazado 905475" d="M140.733,74.99a25.512,25.512,0,0,1,1.4,3.923,31.639,31.639,0,0,1-17.854,36.639A24.085,24.085,0,0,1,120.9,116.8a.529.529,0,0,1-.644-.314,24.113,24.113,0,0,1-1.1-3.428,31.388,31.388,0,0,1,2.31-21.547,31.653,31.653,0,0,1,15.572-15.079,21.9,21.9,0,0,1,3.689-1.439" fill="#9eaa10"/>
            <path id="Trazado_905476" data-name="Trazado 905476" d="M140.6,74.906a64.977,64.977,0,0,1-8.392-3.718c-2.675-1.388-5.25-2.9-7.771-4.472a140.278,140.278,0,0,1-14.348-10.4A138.292,138.292,0,0,1,97.116,44.254c-2.033-2.169-4.009-4.406-5.885-6.765a70.73,70.73,0,0,1-4.548-6.348.485.485,0,0,1,.586-.712,70.7,70.7,0,0,1,7.105,3.24c2.676,1.386,5.252,2.9,7.771,4.472a138.3,138.3,0,0,1,14.34,10.406A140.288,140.288,0,0,1,129.45,60.624c2.031,2.169,4.008,4.406,5.885,6.763a65.1,65.1,0,0,1,5.265,7.519" fill="#64791d"/>
            <path id="Trazado_905477" data-name="Trazado 905477" d="M140.744,74.976a40.732,40.732,0,0,1-.95,4.9c-.435,1.569-.937,3.107-1.475,4.626a87.133,87.133,0,0,1-3.75,8.863,86.029,86.029,0,0,1-4.67,8.414c-.865,1.36-1.768,2.7-2.738,4.01-.835,1.114-1.694,2.216-2.655,3.267a.222.222,0,0,1-.392-.191c.237-1.4.576-2.76.94-4.1.434-1.57.935-3.108,1.475-4.627a86.037,86.037,0,0,1,3.755-8.86,87.116,87.116,0,0,1,4.676-8.411c.866-1.36,1.769-2.7,2.738-4.011a39.085,39.085,0,0,1,3.046-3.879" fill="#64791d"/>
            <path id="Trazado_905478" data-name="Trazado 905478" d="M140.982,75.043A35.786,35.786,0,0,1,145,70.784a44.484,44.484,0,0,1,57.291-.99,33.874,33.874,0,0,1,3.713,3.438.745.745,0,0,1,.017,1.008,33.96,33.96,0,0,1-3.6,3.562,44.149,44.149,0,0,1-28.47,10.843,44.488,44.488,0,0,1-28.821-9.9,30.782,30.782,0,0,1-4.156-3.705" fill="#9eaa10"/>
            <path id="Trazado_905479" data-name="Trazado 905479" d="M140.958,75.039a57.1,57.1,0,0,1,6.747-1.934c2.245-.456,4.491-.808,6.738-1.1a122.519,122.519,0,0,1,13.5-.953,121.077,121.077,0,0,1,13.521.487c2.255.217,4.512.493,6.77.874,1.928.336,3.855.71,5.786,1.243a.312.312,0,0,1,.01.614c-1.911.6-3.825,1.037-5.74,1.438-2.244.457-4.49.809-6.737,1.1a120.83,120.83,0,0,1-13.5.944,122.516,122.516,0,0,1-13.52-.5c-2.256-.218-4.513-.494-6.771-.874a54.876,54.876,0,0,1-6.8-1.343" fill="#64791d"/>
            <path id="Trazado_905480" data-name="Trazado 905480" d="M142.579,72.654a2.916,2.916,0,1,1-4.1.4,2.916,2.916,0,0,1,4.1-.4" fill="#64791d"/>
            <path id="Trazado_905481" data-name="Trazado 905481" d="M59.329,97.46a47,47,0,0,1,.7,8,59.45,59.45,0,0,1-.324,7.037,56.141,56.141,0,0,1-2.676,12.175,51.789,51.789,0,0,1-11.256,18.819,51.207,51.207,0,0,1-18,12.507A55.6,55.6,0,0,1,15.8,159.457a59.091,59.091,0,0,1-7.016.771,47.885,47.885,0,0,1-7.106-.1,1.241,1.241,0,0,1-1.1-1.034,47.8,47.8,0,0,1-.567-7.085,59.126,59.126,0,0,1,.31-7.051,55.55,55.55,0,0,1,2.669-12.18A51.184,51.184,0,0,1,14.287,114a51.77,51.77,0,0,1,18.041-12.465A56.085,56.085,0,0,1,44.3,98.066a59.257,59.257,0,0,1,7-.783,46.811,46.811,0,0,1,8.027.177" fill="#9eaa10"/>
            <path id="Trazado_905482" data-name="Trazado 905482" d="M59.4,97.31A25.411,25.411,0,0,1,63.4,96.162,31.739,31.739,0,0,1,97.369,113a30.98,30.98,0,0,1,1.452,3.332,23.975,23.975,0,0,1,1.026,3.45.53.53,0,0,1-.355.623,24.181,24.181,0,0,1-3.491.876,31.765,31.765,0,0,1-35.4-20.193,21.863,21.863,0,0,1-1.2-3.774" fill="#9eaa10"/>
            <path id="Trazado_905483" data-name="Trazado 905483" d="M59.305,97.437a65.08,65.08,0,0,1-4.248,8.136c-1.557,2.581-3.228,5.054-4.962,7.468A140.07,140.07,0,0,1,38.8,126.693a138.238,138.238,0,0,1-12.873,12.174c-2.294,1.889-4.653,3.718-7.128,5.439a70.522,70.522,0,0,1-6.627,4.131.485.485,0,0,1-.672-.63,70.834,70.834,0,0,1,3.688-6.883c1.555-2.582,3.226-5.055,4.961-7.468a138.236,138.236,0,0,1,11.3-13.643,139.95,139.95,0,0,1,12.884-12.164c2.295-1.889,4.654-3.718,7.126-5.44a65.177,65.177,0,0,1,7.841-4.772" fill="#64791d"/>
            <path id="Trazado_905484" data-name="Trazado 905484" d="M59.384,97.3a40.471,40.471,0,0,1,4.831,1.263c1.538.534,3.04,1.133,4.522,1.768a87.229,87.229,0,0,1,8.605,4.31,86.248,86.248,0,0,1,8.1,5.2c1.3.951,2.582,1.938,3.826,2.99,1.058.9,2.1,1.832,3.09,2.858a.222.222,0,0,1-.216.38c-1.387-.327-2.717-.753-4.034-1.2-1.539-.534-3.042-1.132-4.523-1.768a86.118,86.118,0,0,1-8.6-4.315,87.21,87.21,0,0,1-8.094-5.206c-1.3-.951-2.582-1.938-3.827-2.99A39.038,39.038,0,0,1,59.384,97.3" fill="#64791d"/>
            <path id="Trazado_905485" data-name="Trazado 905485" d="M59.467,97.064a35.893,35.893,0,0,1-3.993-4.286,44.491,44.491,0,0,1,2.685-57.237,34.068,34.068,0,0,1,3.669-3.485.744.744,0,0,1,1.007.048,33.9,33.9,0,0,1,3.324,3.816,44.147,44.147,0,0,1,9,29.107A44.489,44.489,0,0,1,63.431,93.154a30.712,30.712,0,0,1-3.964,3.91" fill="#9eaa10"/>
            <path id="Trazado_905486" data-name="Trazado 905486" d="M59.46,97.088a57.053,57.053,0,0,1-1.5-6.858c-.311-2.268-.518-4.533-.667-6.794a122.4,122.4,0,0,1-.086-13.529,120.962,120.962,0,0,1,1.353-13.461c.361-2.237.781-4.471,1.306-6.7.459-1.9.955-3.8,1.611-5.695a.313.313,0,0,1,.614.029c.475,1.946.789,3.885,1.066,5.821.313,2.269.52,4.533.669,6.794A120.948,120.948,0,0,1,63.9,70.224a122.385,122.385,0,0,1-1.362,13.46c-.362,2.237-.782,4.472-1.305,6.7a55.015,55.015,0,0,1-1.777,6.7" fill="#64791d"/>
            <path id="Trazado_905487" data-name="Trazado 905487" d="M57.184,95.318a2.916,2.916,0,1,1,.135,4.121,2.915,2.915,0,0,1-.135-4.121" fill="#64791d"/>
          </g>
        </g>
      </g>
    </g>
    <g id="Grupo_1178937" data-name="Grupo 1178937" transform="translate(1238.318 7189.195)">
      <g id="Grupo_1178936" data-name="Grupo 1178936" clip-path="url(#clip-path-20)">
        <g id="Grupo_1178935" data-name="Grupo 1178935">
          <g id="Grupo_1178934" data-name="Grupo 1178934" clip-path="url(#clip-path-20)">
            <g id="Grupo_1178933" data-name="Grupo 1178933" transform="translate(0.446 1.783)" opacity="0.2">
              <g id="Grupo_1178932" data-name="Grupo 1178932">
                <g id="Grupo_1178931" data-name="Grupo 1178931" clip-path="url(#clip-path-22)">
                  <rect id="Rectángulo_405198" data-name="Rectángulo 405198" width="70.205" height="64.884" transform="matrix(0.521, -0.854, 0.854, 0.521, 0, 59.933)" fill="#100f0c"/>
                </g>
              </g>
            </g>
          </g>
        </g>
        <rect id="Rectángulo_405201" data-name="Rectángulo 405201" width="70.205" height="64.884" transform="translate(0 59.933) rotate(-58.614)" fill="#00396a"/>
        <rect id="Rectángulo_405202" data-name="Rectángulo 405202" width="10.71" height="55.01" transform="translate(33.282 14.855) rotate(-58.614)" fill="#0a2846"/>
      </g>
    </g>
    <g id="Grupo_1178946" data-name="Grupo 1178946" transform="translate(1310.716 7326.079)">
      <g id="Grupo_1178945" data-name="Grupo 1178945" clip-path="url(#clip-path-23)">
        <g id="Grupo_1178942" data-name="Grupo 1178942" transform="translate(0 0)">
          <g id="Grupo_1178941" data-name="Grupo 1178941" clip-path="url(#clip-path-23)">
            <g id="Grupo_1178940" data-name="Grupo 1178940" transform="translate(0 2.737)" opacity="0.2">
              <g id="Grupo_1178939" data-name="Grupo 1178939">
                <g id="Grupo_1178938" data-name="Grupo 1178938" clip-path="url(#clip-path-25)">
                  <rect id="Rectángulo_405204" data-name="Rectángulo 405204" width="64.233" height="64.234" transform="translate(0 30.594) rotate(-28.444)" fill="#100f0c"/>
                </g>
              </g>
            </g>
          </g>
        </g>
        <rect id="Rectángulo_405207" data-name="Rectángulo 405207" width="64.233" height="64.234" transform="matrix(0.879, -0.476, 0.476, 0.879, 0.912, 30.595)" fill="#fff"/>
        <rect id="Rectángulo_405208" data-name="Rectángulo 405208" width="48.055" height="48.054" transform="matrix(0.879, -0.476, 0.476, 0.879, 11.878, 33.855)" fill="#0e7fbc"/>
        <rect id="Rectángulo_405209" data-name="Rectángulo 405209" width="48.054" height="13.193" transform="translate(28.484 64.51) rotate(-28.448)" fill="#868380"/>
        <g id="Grupo_1179111" data-name="Grupo 1179111" transform="translate(-7184.302 -1511.356) rotate(-69)">
          <rect id="Rectángulo_405240" data-name="Rectángulo 405240" width="37.211" height="37.211" transform="matrix(0.642, -0.766, 0.766, 0.642, 1111.709, 7308.268)" fill="#1b90d2"/>
          <rect id="Rectángulo_405241" data-name="Rectángulo 405241" width="9.47" height="3.086" transform="matrix(0.642, -0.766, 0.766, 0.642, 1123.784, 7313.474)" fill="#4b331d"/>
          <g id="Grupo_1179111-2" data-name="Grupo 1179111" transform="translate(1102.885 7270.925)" clip-path="url(#clip-path-27)">
            <path id="Trazado_905867" data-name="Trazado 905867" d="M30.836,31.338a3.475,3.475,0,0,0,.8-2.047,3.475,3.475,0,0,0,3.15-4.011,3.457,3.457,0,0,0,.663-.6,3.475,3.475,0,0,0-1.854-5.634A3.485,3.485,0,1,0,26.721,17.9a3.358,3.358,0,0,0-1.862,1.567,3.487,3.487,0,0,0-2.4,1.238c-.07.083-.118.176-.179.263a3.488,3.488,0,0,0-3.008,4.509,3.539,3.539,0,0,0-.407.4A3.5,3.5,0,0,0,19.3,30.8a3.464,3.464,0,0,0,2.249.8,3.483,3.483,0,0,0,6.85.973,3.483,3.483,0,0,0,2.436-1.237" transform="translate(6.214 5.161)" fill="#9eaa10"/>
            <path id="Trazado_905868" data-name="Trazado 905868" d="M35.084,52.422,6.565,28.519l2.42-2.886A107.676,107.676,0,0,1,37.5,49.535Z" transform="translate(2.26 8.824)" fill="#9eaa10"/>
            <path id="Trazado_905869" data-name="Trazado 905869" d="M42.521,29.689a5.135,5.135,0,1,1-.637-7.234,5.134,5.134,0,0,1,.637,7.234" transform="translate(11.516 7.317)" fill="#ffec7d"/>
          </g>
        </g>
      </g>
    </g>
    <g id="Grupo_1178955" data-name="Grupo 1178955" transform="translate(1072.885 7236.948)">
      <g id="Grupo_1178954" data-name="Grupo 1178954" clip-path="url(#clip-path-27)">
        <g id="Grupo_1178951" data-name="Grupo 1178951" transform="translate(0 0)">
          <g id="Grupo_1178950" data-name="Grupo 1178950" clip-path="url(#clip-path-27)">
            <g id="Grupo_1178949" data-name="Grupo 1178949" transform="translate(0 2.119)" opacity="0.2">
              <g id="Grupo_1178948" data-name="Grupo 1178948">
                <g id="Grupo_1178947" data-name="Grupo 1178947" clip-path="url(#clip-path-30)">
                  <rect id="Rectángulo_405212" data-name="Rectángulo 405212" width="49.74" height="49.74" transform="translate(0 38.121) rotate(-50.032)" fill="#100f0c"/>
                </g>
              </g>
            </g>
          </g>
        </g>
        <rect id="Rectángulo_405215" data-name="Rectángulo 405215" width="49.74" height="49.739" transform="translate(0 38.121) rotate(-50.032)" fill="#fff"/>
        <rect id="Rectángulo_405216" data-name="Rectángulo 405216" width="37.211" height="37.211" transform="matrix(0.642, -0.766, 0.766, 0.642, 8.825, 37.344)" fill="#1b90d2"/>
        <rect id="Rectángulo_405217" data-name="Rectángulo 405217" width="9.47" height="3.086" transform="matrix(0.642, -0.766, 0.766, 0.642, 20.899, 42.55)" fill="#4b331d"/>
        <g id="Grupo_1178953" data-name="Grupo 1178953" transform="translate(0 0)">
          <g id="Grupo_1178952" data-name="Grupo 1178952" clip-path="url(#clip-path-27)">
            <path id="Trazado_905492" data-name="Trazado 905492" d="M30.836,31.338a3.475,3.475,0,0,0,.8-2.047,3.475,3.475,0,0,0,3.15-4.011,3.457,3.457,0,0,0,.663-.6,3.475,3.475,0,0,0-1.854-5.634A3.485,3.485,0,1,0,26.721,17.9a3.358,3.358,0,0,0-1.862,1.567,3.487,3.487,0,0,0-2.4,1.238c-.07.083-.118.176-.179.263a3.488,3.488,0,0,0-3.008,4.509,3.539,3.539,0,0,0-.407.4A3.5,3.5,0,0,0,19.3,30.8a3.464,3.464,0,0,0,2.249.8,3.483,3.483,0,0,0,6.85.973,3.483,3.483,0,0,0,2.436-1.237" transform="translate(6.214 5.161)" fill="#9eaa10"/>
            <path id="Trazado_905493" data-name="Trazado 905493" d="M35.084,52.422,6.565,28.519l2.42-2.886A107.676,107.676,0,0,1,37.5,49.535Z" transform="translate(2.26 8.824)" fill="#9eaa10"/>
            <path id="Trazado_905494" data-name="Trazado 905494" d="M42.521,29.689a5.135,5.135,0,1,1-.637-7.234,5.134,5.134,0,0,1,.637,7.234" transform="translate(11.516 7.317)" fill="#ffec7d"/>
          </g>
        </g>
      </g>
    </g>
    <g id="Grupo_1178958" data-name="Grupo 1178958" transform="translate(941.255 7299.894)">
      <rect id="Rectángulo_405220" data-name="Rectángulo 405220" width="91.066" height="114.21" transform="matrix(0.905, -0.426, 0.426, 0.905, 0, 38.867)" fill="#e2e3e3"/>
      <g id="Grupo_1178957" data-name="Grupo 1178957">
        <g id="Grupo_1178956" data-name="Grupo 1178956" clip-path="url(#clip-path-32)">
          <path id="Trazado_905495" data-name="Trazado 905495" d="M63.523,44.1,32.607,58.665a.526.526,0,0,1-.448-.951L63.075,43.145a.526.526,0,0,1,.448.951" fill="#8d8f90"/>
          <path id="Trazado_905496" data-name="Trazado 905496" d="M26.2,61.1a1.69,1.69,0,1,1-2.249-.808A1.691,1.691,0,0,1,26.2,61.1" fill="#8d8f90"/>
          <path id="Trazado_905497" data-name="Trazado 905497" d="M55.186,59.642l-18.1,8.529a.526.526,0,0,1-.449-.951l18.1-8.529a.526.526,0,0,1,.449.951" fill="#8d8f90"/>
          <path id="Trazado_905498" data-name="Trazado 905498" d="M30.683,70.608a1.69,1.69,0,1,1-2.25-.809,1.691,1.691,0,0,1,2.25.809" fill="#8d8f90"/>
          <path id="Trazado_905499" data-name="Trazado 905499" d="M79.377,59.859,59.195,69.37a.526.526,0,1,1-.448-.951l20.182-9.511a.526.526,0,0,1,.448.951" fill="#8d8f90"/>
          <path id="Trazado_905500" data-name="Trazado 905500" d="M35.163,80.114a1.69,1.69,0,1,1-2.249-.809,1.691,1.691,0,0,1,2.249.809" fill="#8d8f90"/>
          <path id="Trazado_905501" data-name="Trazado 905501" d="M80.127,71.123,46.046,87.183a.525.525,0,1,1-.448-.95L79.679,70.172a.526.526,0,0,1,.448.951" fill="#8d8f90"/>
          <path id="Trazado_905502" data-name="Trazado 905502" d="M39.642,89.62a1.69,1.69,0,1,1-2.25-.809,1.689,1.689,0,0,1,2.25.809" fill="#8d8f90"/>
          <path id="Trazado_905503" data-name="Trazado 905503" d="M75.018,85.148,50.527,96.689a.525.525,0,1,1-.448-.95L74.569,84.2a.526.526,0,0,1,.449.951" fill="#8d8f90"/>
          <path id="Trazado_905504" data-name="Trazado 905504" d="M44.122,99.126a1.69,1.69,0,1,1-2.25-.809,1.691,1.691,0,0,1,2.25.809" fill="#8d8f90"/>
          <path id="Trazado_905505" data-name="Trazado 905505" d="M104.679,71.17l-26,12.25a.526.526,0,0,1-.448-.951l26-12.25a.526.526,0,0,1,.448.951" fill="#8d8f90"/>
          <path id="Trazado_905506" data-name="Trazado 905506" d="M100.2,61.664l-16.343,7.7a.525.525,0,1,1-.448-.95l16.343-7.7a.526.526,0,0,1,.448.951" fill="#8d8f90"/>
          <path id="Trazado_905507" data-name="Trazado 905507" d="M55.685,71.024,41.567,77.677a.526.526,0,0,1-.448-.951l14.118-6.653a.526.526,0,0,1,.448.951" fill="#8d8f90"/>
          <path id="Trazado_905508" data-name="Trazado 905508" d="M95.72,52.158l-13,6.125a.525.525,0,1,1-.447-.951l13-6.125a.526.526,0,0,1,.448.951" fill="#8d8f90"/>
          <path id="Trazado_905509" data-name="Trazado 905509" d="M91.24,42.652l-32.67,15.4a.526.526,0,1,1-.448-.951l32.67-15.4a.526.526,0,0,1,.448.951" fill="#8d8f90"/>
          <path id="Trazado_905510" data-name="Trazado 905510" d="M48.6,108.632a1.691,1.691,0,1,1-2.249-.809,1.69,1.69,0,0,1,2.249.809" fill="#8d8f90"/>
          <path id="Trazado_905511" data-name="Trazado 905511" d="M53.081,118.138a1.69,1.69,0,1,1-2.25-.809,1.689,1.689,0,0,1,2.25.809" fill="#8d8f90"/>
          <path id="Trazado_905512" data-name="Trazado 905512" d="M86.761,33.146,67.222,42.354a.526.526,0,1,1-.448-.951l19.539-9.208a.526.526,0,0,1,.448.951" fill="#8d8f90"/>
          <path id="Trazado_905513" data-name="Trazado 905513" d="M73.1,97.666l-18.1,8.529a.526.526,0,1,1-.448-.951l18.1-8.529a.526.526,0,0,1,.448.951" fill="#8d8f90"/>
          <path id="Trazado_905514" data-name="Trazado 905514" d="M97.3,97.883l-20.182,9.511a.526.526,0,1,1-.448-.951l20.182-9.511a.526.526,0,0,1,.448.951" fill="#8d8f90"/>
          <path id="Trazado_905515" data-name="Trazado 905515" d="M73.6,109.048,59.486,115.7a.526.526,0,1,1-.449-.951L73.155,108.1a.526.526,0,0,1,.449.951" fill="#8d8f90"/>
          <path id="Trazado_905516" data-name="Trazado 905516" d="M113.638,90.182l-13,6.125a.525.525,0,1,1-.447-.951l13-6.125a.526.526,0,0,1,.448.951" fill="#8d8f90"/>
          <path id="Trazado_905517" data-name="Trazado 905517" d="M109.173,80.67,76.965,95.848a.526.526,0,1,1-.448-.951l32.208-15.178a.526.526,0,0,1,.448.951" fill="#8d8f90"/>
          <rect id="Rectángulo_405221" data-name="Rectángulo 405221" width="70.603" height="11.675" transform="matrix(0.905, -0.426, 0.426, 0.905, 13.524, 42.124)" fill="#8d8f90"/>
          <rect id="Rectángulo_405222" data-name="Rectángulo 405222" width="91.066" height="114.209" transform="translate(21.403 16.956) rotate(-10.731)" fill="#d5d3d4"/>
          <path id="Trazado_905518" data-name="Trazado 905518" d="M81.593,37.924,48.014,44.287a.525.525,0,1,1-.195-1.032L81.4,36.891a.526.526,0,0,1,.2,1.033" fill="#8d8f90"/>
          <path id="Trazado_905519" data-name="Trazado 905519" d="M41.2,45.043A1.69,1.69,0,1,1,39.228,43.7,1.691,1.691,0,0,1,41.2,45.043" fill="#8d8f90"/>
          <path id="Trazado_905520" data-name="Trazado 905520" d="M69.628,50.887,49.971,54.612a.525.525,0,1,1-.2-1.032l19.657-3.726a.526.526,0,0,1,.2,1.033" fill="#8d8f90"/>
          <path id="Trazado_905521" data-name="Trazado 905521" d="M43.16,55.368a1.691,1.691,0,1,1-1.975-1.346,1.69,1.69,0,0,1,1.975,1.346" fill="#8d8f90"/>
          <path id="Trazado_905522" data-name="Trazado 905522" d="M93,57.155,71.074,61.309a.525.525,0,1,1-.2-1.032L92.8,56.122a.526.526,0,0,1,.2,1.033" fill="#8d8f90"/>
          <path id="Trazado_905523" data-name="Trazado 905523" d="M45.117,65.693a1.691,1.691,0,1,1-1.975-1.346,1.691,1.691,0,0,1,1.975,1.346" fill="#8d8f90"/>
          <path id="Trazado_905524" data-name="Trazado 905524" d="M90.9,68.248,53.883,75.263a.526.526,0,1,1-.195-1.033L90.7,67.215a.526.526,0,0,1,.2,1.033" fill="#8d8f90"/>
          <path id="Trazado_905525" data-name="Trazado 905525" d="M47.073,76.018A1.691,1.691,0,1,1,45.1,74.672a1.69,1.69,0,0,1,1.976,1.346" fill="#8d8f90"/>
          <path id="Trazado_905526" data-name="Trazado 905526" d="M82.441,80.546l-26.6,5.041a.526.526,0,0,1-.2-1.033l26.6-5.041a.526.526,0,0,1,.2,1.033" fill="#8d8f90"/>
          <path id="Trazado_905527" data-name="Trazado 905527" d="M49.03,86.343A1.69,1.69,0,1,1,47.055,85a1.691,1.691,0,0,1,1.975,1.346" fill="#8d8f90"/>
          <path id="Trazado_905528" data-name="Trazado 905528" d="M114.658,74.441,86.424,79.792a.526.526,0,0,1-.2-1.033l28.234-5.351a.526.526,0,0,1,.2,1.033" fill="#8d8f90"/>
          <path id="Trazado_905529" data-name="Trazado 905529" d="M112.7,64.116,94.952,67.48a.526.526,0,1,1-.2-1.033l17.75-3.364a.526.526,0,1,1,.2,1.033" fill="#8d8f90"/>
          <path id="Trazado_905530" data-name="Trazado 905530" d="M67.261,62.031,51.927,64.938a.526.526,0,0,1-.2-1.034L67.065,61a.526.526,0,0,1,.2,1.033" fill="#8d8f90"/>
          <path id="Trazado_905531" data-name="Trazado 905531" d="M110.745,53.791,96.628,56.466a.525.525,0,0,1-.2-1.032l14.117-2.676a.526.526,0,0,1,.2,1.033" fill="#8d8f90"/>
          <path id="Trazado_905532" data-name="Trazado 905532" d="M108.788,43.466,73.3,50.19a.525.525,0,1,1-.2-1.032l35.484-6.725a.526.526,0,0,1,.2,1.033" fill="#8d8f90"/>
          <path id="Trazado_905533" data-name="Trazado 905533" d="M50.986,96.668a1.69,1.69,0,1,1-1.975-1.346,1.69,1.69,0,0,1,1.975,1.346" fill="#8d8f90"/>
          <path id="Trazado_905534" data-name="Trazado 905534" d="M52.943,106.993a1.691,1.691,0,1,1-1.975-1.346,1.69,1.69,0,0,1,1.975,1.346" fill="#8d8f90"/>
          <path id="Trazado_905535" data-name="Trazado 905535" d="M106.832,33.141,85.609,37.163a.526.526,0,0,1-.195-1.033l21.222-4.021a.525.525,0,0,1,.2,1.032" fill="#8d8f90"/>
          <path id="Trazado_905536" data-name="Trazado 905536" d="M77.454,92.187,57.8,95.912a.525.525,0,1,1-.2-1.032l19.657-3.726a.526.526,0,0,1,.2,1.033" fill="#8d8f90"/>
          <path id="Trazado_905537" data-name="Trazado 905537" d="M100.821,98.455,78.9,102.609a.525.525,0,1,1-.2-1.032l21.921-4.155a.526.526,0,0,1,.2,1.033" fill="#8d8f90"/>
          <path id="Trazado_905538" data-name="Trazado 905538" d="M75.088,103.331l-15.334,2.906a.526.526,0,0,1-.2-1.033l15.334-2.9a.525.525,0,1,1,.2,1.032" fill="#8d8f90"/>
          <path id="Trazado_905539" data-name="Trazado 905539" d="M118.571,95.091l-14.117,2.675a.525.525,0,1,1-.2-1.032l14.117-2.676a.526.526,0,0,1,.2,1.033" fill="#8d8f90"/>
          <path id="Trazado_905540" data-name="Trazado 905540" d="M116.63,84.763,81.647,91.392a.525.525,0,1,1-.195-1.032l34.982-6.63a.526.526,0,0,1,.2,1.033" fill="#8d8f90"/>
          <rect id="Rectángulo_405223" data-name="Rectángulo 405223" width="70.602" height="11.675" transform="translate(33.68 23.495) rotate(-10.73)" fill="#8d8f90"/>
          <g transform="matrix(1, 0, 0, 1, -27.2, -189.7)" filter="url(#Trazado_905564)">
            <path id="Trazado_905564-2" data-name="Trazado 905564" d="M0,0H91.066V114.209H0Z" transform="translate(74.39 198.28) rotate(-3.35)" fill="#f5fbff"/>
          </g>
          <path id="Trazado_905541" data-name="Trazado 905541" d="M104.184,37.1l-34.118,2A.525.525,0,0,1,70,38.047l34.118-2a.525.525,0,1,1,.061,1.049" fill="#8d8f90"/>
          <path id="Trazado_905542" data-name="Trazado 905542" d="M63.215,38.971a1.69,1.69,0,1,1-1.786-1.589,1.69,1.69,0,0,1,1.786,1.589" fill="#8d8f90"/>
          <path id="Trazado_905543" data-name="Trazado 905543" d="M90.653,48.419,70.68,49.588a.525.525,0,1,1-.061-1.049L90.592,47.37a.525.525,0,1,1,.061,1.049" fill="#8d8f90"/>
          <path id="Trazado_905544" data-name="Trazado 905544" d="M63.829,49.462a1.69,1.69,0,1,1-1.786-1.589,1.69,1.69,0,0,1,1.786,1.589" fill="#8d8f90"/>
          <path id="Trazado_905545" data-name="Trazado 905545" d="M113.021,57.637l-22.273,1.3a.525.525,0,0,1-.061-1.049l22.273-1.3a.525.525,0,0,1,.061,1.049" fill="#8d8f90"/>
          <path id="Trazado_905546" data-name="Trazado 905546" d="M64.443,59.952a1.69,1.69,0,1,1-1.786-1.589,1.69,1.69,0,0,1,1.786,1.589" fill="#8d8f90"/>
          <path id="Trazado_905547" data-name="Trazado 905547" d="M109.519,68.368l-37.611,2.2a.526.526,0,0,1-.061-1.05l37.611-2.2a.525.525,0,1,1,.061,1.049" fill="#8d8f90"/>
          <path id="Trazado_905548" data-name="Trazado 905548" d="M65.057,70.443a1.69,1.69,0,1,1-1.786-1.589,1.691,1.691,0,0,1,1.786,1.589" fill="#8d8f90"/>
          <path id="Trazado_905549" data-name="Trazado 905549" d="M99.549,79.478,72.521,81.059a.525.525,0,0,1-.061-1.049l27.028-1.581a.525.525,0,1,1,.061,1.049" fill="#8d8f90"/>
          <path id="Trazado_905550" data-name="Trazado 905550" d="M65.67,80.934a1.69,1.69,0,1,1-1.786-1.589,1.69,1.69,0,0,1,1.786,1.589" fill="#8d8f90"/>
          <path id="Trazado_905551" data-name="Trazado 905551" d="M132.284,77.563,103.6,79.242a.526.526,0,0,1-.061-1.05l28.688-1.678a.525.525,0,0,1,.061,1.049" fill="#8d8f90"/>
          <path id="Trazado_905552" data-name="Trazado 905552" d="M131.67,67.072l-18.036,1.055a.525.525,0,1,1-.061-1.049l18.036-1.055a.525.525,0,1,1,.061,1.049" fill="#8d8f90"/>
          <path id="Trazado_905553" data-name="Trazado 905553" d="M86.874,59.166l-15.58.912a.525.525,0,1,1-.062-1.048l15.581-.912a.525.525,0,1,1,.061,1.048" fill="#8d8f90"/>
          <path id="Trazado_905554" data-name="Trazado 905554" d="M131.056,56.581l-14.344.839a.525.525,0,1,1-.061-1.049l14.344-.839a.525.525,0,1,1,.061,1.049" fill="#8d8f90"/>
          <path id="Trazado_905555" data-name="Trazado 905555" d="M130.443,46.091,94.389,48.2a.525.525,0,1,1-.062-1.048l36.055-2.11a.525.525,0,0,1,.061,1.049" fill="#8d8f90"/>
          <path id="Trazado_905556" data-name="Trazado 905556" d="M66.284,91.425A1.69,1.69,0,1,1,64.5,89.836a1.69,1.69,0,0,1,1.786,1.589" fill="#8d8f90"/>
          <path id="Trazado_905557" data-name="Trazado 905557" d="M66.9,101.915a1.69,1.69,0,1,1-1.786-1.589,1.69,1.69,0,0,1,1.786,1.589" fill="#8d8f90"/>
          <path id="Trazado_905558" data-name="Trazado 905558" d="M129.829,35.6l-21.563,1.262a.525.525,0,1,1-.062-1.049l21.564-1.262a.525.525,0,0,1,.061,1.049" fill="#8d8f90"/>
          <path id="Trazado_905559" data-name="Trazado 905559" d="M93.108,90.382,73.135,91.551a.525.525,0,0,1-.061-1.049l19.973-1.169a.525.525,0,0,1,.061,1.049" fill="#8d8f90"/>
          <path id="Trazado_905560" data-name="Trazado 905560" d="M115.476,99.6,93.2,100.9a.525.525,0,0,1-.061-1.049l22.273-1.3a.525.525,0,1,1,.061,1.049" fill="#8d8f90"/>
          <path id="Trazado_905561" data-name="Trazado 905561" d="M89.329,101.129l-15.58.912a.525.525,0,1,1-.062-1.049l15.581-.912a.525.525,0,1,1,.061,1.049" fill="#8d8f90"/>
          <path id="Trazado_905562" data-name="Trazado 905562" d="M133.511,98.544l-14.344.839a.525.525,0,1,1-.061-1.049L133.45,97.5a.525.525,0,1,1,.061,1.049" fill="#8d8f90"/>
          <path id="Trazado_905563" data-name="Trazado 905563" d="M132.913,88.053l-35.545,2.08a.525.525,0,0,1-.061-1.049L132.852,87a.525.525,0,0,1,.061,1.049" fill="#8d8f90"/>
          <rect id="Rectángulo_405225" data-name="Rectángulo 405225" width="70.603" height="11.675" transform="translate(58.522 16.636) rotate(-3.349)" fill="#8d8f90"/>
        </g>
      </g>
    </g>
    <g id="Grupo_1178989" data-name="Grupo 1178989" transform="translate(1330.716 7132.632)">
      <g id="Grupo_1178988" data-name="Grupo 1178988" clip-path="url(#clip-path-33)">
        <g id="Grupo_1178987" data-name="Grupo 1178987">
          <g id="Grupo_1178986" data-name="Grupo 1178986" clip-path="url(#clip-path-33)">
            <path id="Trazado_905565" data-name="Trazado 905565" d="M69.476,15.637A24.361,24.361,0,0,1,52.553,4.958L10.38,71.789a7.191,7.191,0,0,0,2.244,9.919l4.76,3A7.191,7.191,0,0,0,27.3,82.468Z" fill="#dedcdc"/>
            <g id="Grupo_1178961" data-name="Grupo 1178961" opacity="0.2">
              <g id="Grupo_1178960" data-name="Grupo 1178960">
                <g id="Grupo_1178959" data-name="Grupo 1178959" clip-path="url(#clip-path-35)">
                  <path id="Trazado_905566" data-name="Trazado 905566" d="M40.422,47.08a.587.587,0,0,1,.072-.468L59.7,16.171a.593.593,0,0,1,1,.633L41.5,47.245a.593.593,0,0,1-1.074-.165" fill="#100f0c"/>
                </g>
              </g>
            </g>
            <g id="Grupo_1178964" data-name="Grupo 1178964" opacity="0.2">
              <g id="Grupo_1178963" data-name="Grupo 1178963">
                <g id="Grupo_1178962" data-name="Grupo 1178962" clip-path="url(#clip-path-36)">
                  <path id="Trazado_905567" data-name="Trazado 905567" d="M29.54,51.581a.585.585,0,0,1,.072-.467L54.338,11.93a.593.593,0,0,1,1,.633L30.614,51.746a.592.592,0,0,1-1.074-.165" fill="#100f0c"/>
                </g>
              </g>
            </g>
            <g id="Grupo_1178967" data-name="Grupo 1178967" opacity="0.2">
              <g id="Grupo_1178966" data-name="Grupo 1178966">
                <g id="Grupo_1178965" data-name="Grupo 1178965" clip-path="url(#clip-path-37)">
                  <path id="Trazado_905568" data-name="Trazado 905568" d="M15.709,80.009a.587.587,0,0,1,.072-.468L33.426,51.579a.593.593,0,0,1,1,.633L16.783,80.174a.593.593,0,0,1-1.074-.165" fill="#100f0c"/>
                </g>
              </g>
            </g>
            <path id="Trazado_905569" data-name="Trazado 905569" d="M15.127,88.555l-5-3.154A10.644,10.644,0,0,1,6.807,70.717L51.431,0l1.754,3.952L10.379,71.787a7.19,7.19,0,0,0,2.248,9.92l4.757,3A7.188,7.188,0,0,0,27.3,82.466L70.108,14.632l4.329-.115L29.81,85.233a10.643,10.643,0,0,1-14.683,3.322" fill="#0a2846"/>
            <path id="Trazado_905570" data-name="Trazado 905570" d="M9.934,96.738,4.976,93.61A10.672,10.672,0,0,1,1.647,78.892l5.159-8.176A10.646,10.646,0,0,0,10.128,85.4l5,3.154a10.646,10.646,0,0,0,14.685-3.322l-5.16,8.176A10.67,10.67,0,0,1,9.934,96.738" fill="#00396a"/>
            <path id="Trazado_905571" data-name="Trazado 905571" d="M92.481,30.151A24.365,24.365,0,0,1,75.558,19.472L33.385,86.3a7.191,7.191,0,0,0,2.244,9.919l4.759,3a7.193,7.193,0,0,0,9.92-2.244Z" fill="#dedcdc"/>
            <g id="Grupo_1178970" data-name="Grupo 1178970" opacity="0.2">
              <g id="Grupo_1178969" data-name="Grupo 1178969">
                <g id="Grupo_1178968" data-name="Grupo 1178968" clip-path="url(#clip-path-38)">
                  <path id="Trazado_905572" data-name="Trazado 905572" d="M63.427,61.594a.587.587,0,0,1,.072-.468L82.708,30.685a.593.593,0,1,1,1,.633L64.5,61.759a.593.593,0,0,1-1.074-.165" fill="#100f0c"/>
                </g>
              </g>
            </g>
            <g id="Grupo_1178973" data-name="Grupo 1178973" opacity="0.2">
              <g id="Grupo_1178972" data-name="Grupo 1178972">
                <g id="Grupo_1178971" data-name="Grupo 1178971" clip-path="url(#clip-path-39)">
                  <path id="Trazado_905573" data-name="Trazado 905573" d="M52.545,66.1a.587.587,0,0,1,.072-.468L77.343,26.444a.593.593,0,1,1,1,.633L53.619,66.26a.593.593,0,0,1-1.074-.165" fill="#100f0c"/>
                </g>
              </g>
            </g>
            <g id="Grupo_1178976" data-name="Grupo 1178976" opacity="0.2">
              <g id="Grupo_1178975" data-name="Grupo 1178975">
                <g id="Grupo_1178974" data-name="Grupo 1178974" clip-path="url(#clip-path-40)">
                  <path id="Trazado_905574" data-name="Trazado 905574" d="M38.714,94.523a.587.587,0,0,1,.072-.468L56.431,66.093a.593.593,0,1,1,1,.633L39.788,94.688a.593.593,0,0,1-1.074-.165" fill="#100f0c"/>
                </g>
              </g>
            </g>
            <path id="Trazado_905575" data-name="Trazado 905575" d="M38.131,103.069l-5-3.154a10.645,10.645,0,0,1-3.322-14.684L74.437,14.514l1.753,3.952L33.384,86.3a7.191,7.191,0,0,0,2.248,9.921l4.757,3a7.189,7.189,0,0,0,9.918-2.243L93.113,29.146l4.328-.115L52.815,99.747a10.644,10.644,0,0,1-14.684,3.322" fill="#4d3b33"/>
            <path id="Trazado_905576" data-name="Trazado 905576" d="M32.939,111.252l-4.958-3.129a10.671,10.671,0,0,1-3.329-14.717l5.16-8.176a10.645,10.645,0,0,0,3.321,14.685l5,3.154a10.646,10.646,0,0,0,14.685-3.322l-5.16,8.176a10.67,10.67,0,0,1-14.717,3.329" fill="#6a5149"/>
            <path id="Trazado_905577" data-name="Trazado 905577" d="M115.477,44.669A24.361,24.361,0,0,1,98.554,33.99L56.381,100.821a7.191,7.191,0,0,0,2.244,9.919l4.76,3A7.191,7.191,0,0,0,73.3,111.5Z" fill="#dedcdc"/>
            <g id="Grupo_1178979" data-name="Grupo 1178979" opacity="0.2">
              <g id="Grupo_1178978" data-name="Grupo 1178978">
                <g id="Grupo_1178977" data-name="Grupo 1178977" clip-path="url(#clip-path-41)">
                  <path id="Trazado_905578" data-name="Trazado 905578" d="M86.424,76.112a.583.583,0,0,1,.071-.468L105.7,45.2a.593.593,0,0,1,1,.633L87.5,76.277a.592.592,0,0,1-1.073-.165" fill="#100f0c"/>
                </g>
              </g>
            </g>
            <g id="Grupo_1178982" data-name="Grupo 1178982" opacity="0.2">
              <g id="Grupo_1178981" data-name="Grupo 1178981">
                <g id="Grupo_1178980" data-name="Grupo 1178980" clip-path="url(#clip-path-42)">
                  <path id="Trazado_905579" data-name="Trazado 905579" d="M75.542,80.614a.587.587,0,0,1,.072-.468L100.34,40.963a.593.593,0,0,1,1,.633L76.616,80.779a.593.593,0,0,1-1.074-.165" fill="#100f0c"/>
                </g>
              </g>
            </g>
            <g id="Grupo_1178985" data-name="Grupo 1178985" opacity="0.2">
              <g id="Grupo_1178984" data-name="Grupo 1178984">
                <g id="Grupo_1178983" data-name="Grupo 1178983" clip-path="url(#clip-path-43)">
                  <path id="Trazado_905580" data-name="Trazado 905580" d="M61.711,109.041a.587.587,0,0,1,.072-.468L79.428,80.611a.593.593,0,1,1,1,.633L62.785,109.206a.593.593,0,0,1-1.074-.165" fill="#100f0c"/>
                </g>
              </g>
            </g>
            <path id="Trazado_905581" data-name="Trazado 905581" d="M61.128,117.587l-5-3.154a10.645,10.645,0,0,1-3.322-14.684L97.434,29.032l1.753,3.952L56.381,100.819a7.19,7.19,0,0,0,2.248,9.92l4.757,3A7.189,7.189,0,0,0,73.3,111.5l42.807-67.834,4.327-.115L75.812,114.265a10.644,10.644,0,0,1-14.684,3.322" fill="#a5591f"/>
            <path id="Trazado_905582" data-name="Trazado 905582" d="M55.936,125.771l-4.958-3.129a10.67,10.67,0,0,1-3.329-14.717l5.159-8.176a10.646,10.646,0,0,0,3.322,14.685l5,3.154a10.644,10.644,0,0,0,14.684-3.322l-5.159,8.176a10.67,10.67,0,0,1-14.717,3.329" fill="#f28530"/>
          </g>
        </g>
      </g>
    </g>
  </g>
</svg>
