<svg xmlns="http://www.w3.org/2000/svg" width="64" height="68" viewBox="0 0 64 68">
  <g id="Grupo_1179126" data-name="Grupo 1179126" transform="translate(-180 -1872.137)">
    <rect id="Rectángulo_401315" data-name="Rectángulo 401315" width="30" height="66" rx="15" transform="translate(180 1872.137)" fill="#65a532"/>
    <g id="biology_4802164" transform="translate(182 1878.137)">
      <g id="Grupo_1099379" data-name="Grupo 1099379">
        <g id="Grupo_1099354" data-name="Grupo 1099354">
          <path id="Trazado_873227" data-name="Trazado 873227" d="M40.32,37.68a16.048,16.048,0,0,0-7.38-4.19l-.68,5.42L32,41a6.835,6.835,0,0,0-4.83-2H27l-2,6-2-6h-.17A6.835,6.835,0,0,0,18,41l-.94-7.51a16.288,16.288,0,0,0-4.89,2.16A8.006,8.006,0,0,1,11,50.75V53a2,2,0,1,1,2,2,2.006,2.006,0,0,1-2-2v6H37V57h8V49a15.987,15.987,0,0,0-4.68-11.32Z" fill="#fcd770"/>
        </g>
        <g id="Grupo_1099355" data-name="Grupo 1099355">
          <path id="Trazado_873228" data-name="Trazado 873228" d="M39,57H53v4H37V57Z" fill="#cf9e76"/>
        </g>
        <g id="Grupo_1099356" data-name="Grupo 1099356">
          <path id="Trazado_873229" data-name="Trazado 873229" d="M27.67,37,27,39l-2,6-2-6-.67-2Z" fill="#e6e9ed"/>
        </g>
        <g id="Grupo_1099357" data-name="Grupo 1099357">
          <path id="Trazado_873230" data-name="Trazado 873230" d="M27.67,37,29,33a15.988,15.988,0,0,1,3.94.49l-.68,5.42L32,41a6.835,6.835,0,0,0-4.83-2H27Z" fill="#ffc729"/>
        </g>
        <g id="Grupo_1099358" data-name="Grupo 1099358">
          <path id="Trazado_873231" data-name="Trazado 873231" d="M22.33,37,23,39h-.17A6.835,6.835,0,0,0,18,41l-.94-7.51A15.988,15.988,0,0,1,21,33Z" fill="#ffc729"/>
        </g>
        <g id="Grupo_1099359" data-name="Grupo 1099359">
          <path id="Trazado_873232" data-name="Trazado 873232" d="M45,36V49A15.988,15.988,0,0,0,29,33V30a7.188,7.188,0,0,0,6-7h2a3.995,3.995,0,0,0,4-4v3a3.968,3.968,0,0,0,1.5,3.12l.01.01A7,7,0,0,0,41,29.47a6.929,6.929,0,0,0,.75,3.15,7.125,7.125,0,0,0,2.07,2.5Z" fill="#b27946"/>
        </g>
        <g id="Grupo_1099360" data-name="Grupo 1099360">
          <path id="Trazado_873233" data-name="Trazado 873233" d="M19.44,11.23A2.331,2.331,0,0,1,17.18,13H16a1,1,0,0,0-1,1v1H13a3.995,3.995,0,0,0-4,4V13A11.984,11.984,0,0,1,21,1a8.579,8.579,0,0,1,3.79.89L25,2l.21-.11A8.579,8.579,0,0,1,29,1,12,12,0,0,1,41,13v6a4,4,0,0,0-4-4H35V14a1,1,0,0,0-1-1H32.82a2.331,2.331,0,0,1-2.26-1.77A2.947,2.947,0,0,0,27.7,9a3.012,3.012,0,0,0-1.32.31L25,10l-1.38-.69A3.012,3.012,0,0,0,22.3,9a2.947,2.947,0,0,0-2.86,2.23Z" fill="#b27946"/>
        </g>
        <g id="Grupo_1099361" data-name="Grupo 1099361">
          <path id="Trazado_873234" data-name="Trazado 873234" d="M21,30v3a15.988,15.988,0,0,0-3.94.49,16.288,16.288,0,0,0-4.89,2.16A7.986,7.986,0,0,0,9,35a8.428,8.428,0,0,0-1.6.16A5.963,5.963,0,0,1,7,33l-.72-.72a4.373,4.373,0,0,1,.47-6.59l.65-.49A4,4,0,0,0,9,22V19a4,4,0,0,0,4,4h2a7.174,7.174,0,0,0,6,7Z" fill="#b27946"/>
        </g>
        <g id="Grupo_1099362" data-name="Grupo 1099362">
          <path id="Trazado_873235" data-name="Trazado 873235" d="M57,12v4l-4,2-4-2V12l4-2Z" fill="#fcd770"/>
        </g>
        <g id="Grupo_1099363" data-name="Grupo 1099363">
          <path id="Trazado_873236" data-name="Trazado 873236" d="M53,6v4l-4,2-4-2V6l4-2Z" fill="#fcd770"/>
        </g>
        <g id="Grupo_1099364" data-name="Grupo 1099364">
          <path id="Trazado_873237" data-name="Trazado 873237" d="M49,12v4l-4,2-4-2V12l4-2Z" fill="#fcd770"/>
        </g>
        <g id="Grupo_1099365" data-name="Grupo 1099365">
          <path id="Trazado_873238" data-name="Trazado 873238" d="M49,45V43a6,6,0,0,1,6-6h2v2a6,6,0,0,1-6,6Z" fill="#b4dd7f"/>
        </g>
        <g id="Grupo_1099366" data-name="Grupo 1099366">
          <path id="Trazado_873239" data-name="Trazado 873239" d="M41,47H39a6,6,0,0,1-6-6V39h2a6,6,0,0,1,6,6Z" fill="#b4dd7f"/>
        </g>
        <g id="Grupo_1099367" data-name="Grupo 1099367">
          <path id="Trazado_873240" data-name="Trazado 873240" d="M49,29.47a6.929,6.929,0,0,1-.75,3.15,7.125,7.125,0,0,1-2.07,2.5L45,36V22l2.45,3.07A7.046,7.046,0,0,1,49,29.47Z" fill="#b4dd7f"/>
        </g>
        <g id="Grupo_1099368" data-name="Grupo 1099368">
          <path id="Trazado_873241" data-name="Trazado 873241" d="M45,22V36l-1.18-.88a7.125,7.125,0,0,1-2.07-2.5A6.929,6.929,0,0,1,41,29.47a7,7,0,0,1,1.51-4.34.209.209,0,0,1,.04-.06Z" fill="#b4dd7f"/>
        </g>
        <g id="Grupo_1099369" data-name="Grupo 1099369">
          <path id="Trazado_873242" data-name="Trazado 873242" d="M17.18,13H34a1,1,0,0,1,1,1v7H15V14a1,1,0,0,1,1-1Z" fill="#69d6f4"/>
        </g>
        <g id="Grupo_1099370" data-name="Grupo 1099370">
          <path id="Trazado_873243" data-name="Trazado 873243" d="M9,51a8.239,8.239,0,0,0,2-.25V59a2.015,2.015,0,0,1-2,2,2.006,2.006,0,0,1-2-2V50.75A8.239,8.239,0,0,0,9,51Z" fill="#969faa"/>
        </g>
        <g id="Grupo_1099371" data-name="Grupo 1099371">
          <path id="Trazado_873244" data-name="Trazado 873244" d="M37,15a4,4,0,1,1,0,8H35V15Z" fill="#f0d0b4"/>
        </g>
        <g id="Grupo_1099372" data-name="Grupo 1099372">
          <path id="Trazado_873245" data-name="Trazado 873245" d="M9,19a3.995,3.995,0,0,1,4-4h2v8H13A4,4,0,0,1,9,19Z" fill="#f0d0b4"/>
        </g>
        <g id="Grupo_1099373" data-name="Grupo 1099373">
          <path id="Trazado_873246" data-name="Trazado 873246" d="M25,10l1.38-.69A3.012,3.012,0,0,1,27.7,9a2.947,2.947,0,0,1,2.86,2.23A2.331,2.331,0,0,0,32.82,13H17.18a2.331,2.331,0,0,0,2.26-1.77A2.947,2.947,0,0,1,22.3,9a3.012,3.012,0,0,1,1.32.31Z" fill="#f0d0b4"/>
        </g>
        <g id="Grupo_1099374" data-name="Grupo 1099374">
          <path id="Trazado_873247" data-name="Trazado 873247" d="M35,21v2a7.188,7.188,0,0,1-6,7v3l-1.33,4H22.33L21,33V30a7.174,7.174,0,0,1-6-7V21Z" fill="#f0d0b4"/>
        </g>
        <g id="Grupo_1099375" data-name="Grupo 1099375">
          <circle id="Elipse_11507" data-name="Elipse 11507" cx="2" cy="2" r="2" transform="translate(11 51)" fill="#f0d0b4"/>
        </g>
        <g id="Grupo_1099376" data-name="Grupo 1099376">
          <path id="Trazado_873248" data-name="Trazado 873248" d="M7,53v4a2.006,2.006,0,0,1-2,2,2.015,2.015,0,0,1-2-2V53a2.006,2.006,0,0,1,2-2,2.015,2.015,0,0,1,2,2Z" fill="#f0d0b4"/>
        </g>
        <g id="Grupo_1099377" data-name="Grupo 1099377">
          <path id="Trazado_873249" data-name="Trazado 873249" d="M12.17,35.65A8.006,8.006,0,0,1,11,50.75a8.125,8.125,0,0,1-4,0,8,8,0,0,1,.4-15.59A8.428,8.428,0,0,1,9,35,7.986,7.986,0,0,1,12.17,35.65Z" fill="#ccd1d9"/>
        </g>
        <g id="Grupo_1099378" data-name="Grupo 1099378">
          <circle id="Elipse_11508" data-name="Elipse 11508" cx="4" cy="4" r="4" transform="translate(5 39)" fill="#69d6f4"/>
        </g>
      </g>
      <g id="Grupo_1099380" data-name="Grupo 1099380">
        <path id="Trazado_873250" data-name="Trazado 873250" d="M25,28a4.212,4.212,0,0,0,3.789-2.342l.1-.211-1.789-.9-.1.212a2.236,2.236,0,0,1-4,0l-.1-.211-1.789.9.1.211A4.213,4.213,0,0,0,25,28Z"/>
        <circle id="Elipse_11509" data-name="Elipse 11509" cx="1" cy="1" r="1" transform="translate(20 16)"/>
        <circle id="Elipse_11510" data-name="Elipse 11510" cx="1" cy="1" r="1" transform="translate(28 16)"/>
        <circle id="Elipse_11511" data-name="Elipse 11511" cx="1" cy="1" r="1" transform="translate(28 46)"/>
        <circle id="Elipse_11512" data-name="Elipse 11512" cx="1" cy="1" r="1" transform="translate(28 50)"/>
        <circle id="Elipse_11513" data-name="Elipse 11513" cx="1" cy="1" r="1" transform="translate(28 54)"/>
        <path id="Trazado_873251" data-name="Trazado 873251" d="M9,48a5,5,0,1,0-5-5A5.006,5.006,0,0,0,9,48Zm0-8a3,3,0,1,1-3,3A3,3,0,0,1,9,40Z"/>
        <path id="Trazado_873252" data-name="Trazado 873252" d="M48,43v1.586l-2,2V36.5l.779-.585a8.05,8.05,0,0,0,1.456-11.471L46,21.65V18.619l3-1.5,3,1.5V22h2V18.618l3-1.5,3.553,1.776.9-1.789L58,15.382V12.618l3.447-1.724-.9-1.789L57,10.882l-3-1.5v-4l-4-2V0H48V3.382l-3,1.5L41.447,3.106l-.9,1.789L44,6.618V9.382l-2.246,1.123A12.981,12.981,0,0,0,38.22,3.847c-.009-.01-.016-.022-.025-.032l0,0A12.961,12.961,0,0,0,29,0a9.535,9.535,0,0,0-4,.886A9.535,9.535,0,0,0,21,0a12.957,12.957,0,0,0-9.192,3.817l0,0c-.009.01-.016.022-.025.032A12.954,12.954,0,0,0,8,13v9a3.017,3.017,0,0,1-1.2,2.4l-.65.488A5.4,5.4,0,0,0,4,29.188a5.34,5.34,0,0,0,1.574,3.8l.438.438a6.97,6.97,0,0,0,.143,1.041A8.982,8.982,0,0,0,3.739,50.287,3,3,0,0,0,2,53v4a2.99,2.99,0,0,0,4.116,2.78,2.983,2.983,0,0,0,5.7.22H36v2H54V56H46V49.414L49.414,46H51a7.008,7.008,0,0,0,7-7V36H55A7.008,7.008,0,0,0,48,43Zm4-3.974v1.56l-1.953,1.953A4.967,4.967,0,0,1,52,39.026ZM12,55.816A2.966,2.966,0,0,0,13,56a2.994,2.994,0,0,0,1.261-5.713A8.985,8.985,0,0,0,18,43c0-.188-.017-.372-.028-.558l.735-.735a5.789,5.789,0,0,1,3.581-1.681L24,45.162V58H12ZM13,52a1,1,0,1,1-1,1A1,1,0,0,1,13,52Zm0-30a3,3,0,0,1,0-6h1v2.132l-1.445-.964-1.109,1.664L14,20.535V22Zm21-8v6H16V14ZM20.233,12a3.356,3.356,0,0,0,.179-.523,1.95,1.95,0,0,1,2.764-1.271L25,11.118l1.825-.913a1.951,1.951,0,0,1,2.763,1.273,3.244,3.244,0,0,0,.179.522ZM40,13v2.026a4.952,4.952,0,0,0-2.238-.949,7.616,7.616,0,0,0,1.978-3.434A11.04,11.04,0,0,1,40,13ZM30,32.029V30.8A8.142,8.142,0,0,0,35.922,24H37a4.949,4.949,0,0,0,3.088-1.1,4.944,4.944,0,0,0,1.118,2.347,8.036,8.036,0,0,0,2.015,10.668L44,36.5v4.52A17.02,17.02,0,0,0,30,32.029ZM37,22H36V20.535l2.555-1.7-1.109-1.664L36,18.132V16h1a3,3,0,0,1,0,6Zm5.172,6.129L44,29.5v4.459a6.078,6.078,0,0,1-2-4.486A5.963,5.963,0,0,1,42.172,28.129Zm.8-1.9a5.98,5.98,0,0,1,.357-.534L44,24.851V27ZM44,21.65l-1.536,1.92A2.973,2.973,0,0,1,42,22V17.618l2,1ZM16,22H34v.917a6.162,6.162,0,0,1-5.165,6.1L28,29.153v3.685L26.946,36H23.054L22,32.837V29.152l-.835-.139A6.16,6.16,0,0,1,16,22.917Zm4.288,12.026L21.645,38.1a7.722,7.722,0,0,0-2.87,1.034l-.607-4.852a15.11,15.11,0,0,1,2.12-.251Zm-4.072.763.437,3.5a9.048,9.048,0,0,0-2.477-2.638A15.117,15.117,0,0,1,16.216,34.789ZM25,41.838,23.721,38h2.558Zm4.709-7.8a15,15,0,0,1,2.124.241l-.607,4.852a7.746,7.746,0,0,0-2.87-1.034ZM34,41V40h1a5,5,0,0,1,1,.1V42H34.1A5,5,0,0,1,34,41Zm4,1.586v-1.56a4.967,4.967,0,0,1,1.953,3.514ZM36.586,44l1.953,1.953A4.967,4.967,0,0,1,35.026,44ZM35,38H33.383l.4-3.2A15.01,15.01,0,0,1,43.979,48.564L42,46.586V45A7.008,7.008,0,0,0,35,38Zm11-4.041V32.5l1.736-1.3A6.075,6.075,0,0,1,46,33.959Zm.674-8.266a6.071,6.071,0,0,1,1.248,2.866L46,30V24.85ZM56,15.382l-3,1.5-3-1.5V12.618l3-1.5,3,1.5ZM49,5.118l3,1.5V9.382l-3,1.5-3-1.5V6.618Zm-7,7.5,3-1.5,3,1.5v2.764l-3,1.5-3-1.5ZM24.342,2.789,25,3.118l.658-.329A7.512,7.512,0,0,1,29,2a10.962,10.962,0,0,1,7.715,3.171,5.549,5.549,0,0,1-.914,7.975,2,2,0,0,0-.321-.479A4.111,4.111,0,0,0,34.147,7.23L32.554,6.168,31.445,7.832l1.593,1.062A2.143,2.143,0,0,1,33.547,12h-.728a1.331,1.331,0,0,1-1.291-1.007,3.95,3.95,0,0,0-5.6-2.576L25,8.882l-.929-.464a3.949,3.949,0,0,0-5.6,2.574A1.329,1.329,0,0,1,17.181,12h-.728a2.143,2.143,0,0,1,.509-3.106l1.593-1.062L17.446,6.168,15.853,7.23a4.111,4.111,0,0,0-1.333,5.437,2,2,0,0,0-.321.479,5.549,5.549,0,0,1-.914-7.975A10.962,10.962,0,0,1,21,2,7.512,7.512,0,0,1,24.342,2.789ZM10.261,10.643a7.621,7.621,0,0,0,1.978,3.434A4.932,4.932,0,0,0,10,15.026V13A10.913,10.913,0,0,1,10.261,10.643ZM8,33v-.414L6.989,31.574A3.35,3.35,0,0,1,6,29.188a3.392,3.392,0,0,1,1.35-2.7L8,26a5.019,5.019,0,0,0,1.909-3.1A4.947,4.947,0,0,0,13,24h1.077A8.142,8.142,0,0,0,20,30.8V32.03a16.911,16.911,0,0,0-7.939,2.518A8.934,8.934,0,0,0,9,34c-.3,0-.59.016-.88.045A5,5,0,0,1,8,33ZM2,43a7,7,0,1,1,7,7A7.008,7.008,0,0,1,2,43ZM5,58a1,1,0,0,1-1-1V53a1,1,0,0,1,2,0v4A1,1,0,0,1,5,58Zm5,1a1,1,0,0,1-2,0V51.941a8.5,8.5,0,0,0,2,0Zm16-1V45.162l1.712-5.136a5.789,5.789,0,0,1,3.581,1.681l.9.9A6.991,6.991,0,0,0,34.111,46H32v2h6v8H36v2Zm26,2H38V58H52ZM40,56V48h.586L44,51.414V56ZM51.461,43.953,53.414,42h1.56A4.967,4.967,0,0,1,51.461,43.953ZM56,39a5,5,0,0,1-.1,1H54V38.1a5,5,0,0,1,1-.1h1Z"/>
        <path id="Trazado_873253" data-name="Trazado 873253" d="M52,24H62v2H52Z"/>
        <path id="Trazado_873254" data-name="Trazado 873254" d="M52,28H62v2H52Z"/>
        <path id="Trazado_873255" data-name="Trazado 873255" d="M52,32h2v2H52Z"/>
        <path id="Trazado_873256" data-name="Trazado 873256" d="M56,32h2v2H56Z"/>
        <path id="Trazado_873257" data-name="Trazado 873257" d="M60,32h2v2H60Z"/>
      </g>
    </g>
  </g>
</svg>
