<svg xmlns="http://www.w3.org/2000/svg" xmlns:xlink="http://www.w3.org/1999/xlink" width="108" height="108" viewBox="0 0 108 108">
  <defs>
    <filter id="Trazado_904820" x="0" y="0" width="108" height="108" filterUnits="userSpaceOnUse">
      <feOffset dy="3" input="SourceAlpha"/>
      <feGaussianBlur stdDeviation="3" result="blur"/>
      <feFlood flood-opacity="0.161"/>
      <feComposite operator="in" in2="blur"/>
      <feComposite in="SourceGraphic"/>
    </filter>
  </defs>
  <g id="Grupo_1179110" data-name="Grupo 1179110" transform="translate(-199.999 -5624.066)">
    <g id="Grupo_1174745" data-name="Grupo 1174745" transform="translate(208.999 5630.066)">
      <g id="Grupo_1173585" data-name="Grupo 1173585" transform="translate(0 0)">
        <g id="Grupo_1173428" data-name="Grupo 1173428">
          <g id="Grupo_1171958" data-name="Grupo 1171958">
            <g id="Grupo_1167341" data-name="Grupo 1167341">
              <g id="Grupo_1166792" data-name="Grupo 1166792">
                <g transform="matrix(1, 0, 0, 1, -9, -6)" filter="url(#Trazado_904820)">
                  <g id="Trazado_904820-2" data-name="Trazado 904820" transform="translate(9 6)" fill="#f4f9ff">
                    <path d="M 44.99999618530273 88.49995422363281 C 39.12687301635742 88.49995422363281 33.43022155761719 87.35002899169922 28.06829643249512 85.08213043212891 C 22.88852119445801 82.89126586914062 18.23629570007324 79.75455474853516 14.24084663391113 75.75910186767578 C 10.24540901184082 71.76364898681641 7.108683586120605 67.11144256591797 4.917821407318115 61.93166351318359 C 2.649921178817749 56.56974029541016 1.499996185302734 50.87310028076172 1.499996185302734 44.99997711181641 C 1.499996185302734 39.12685394287109 2.649921178817749 33.43021392822266 4.917821407318115 28.06828880310059 C 7.108683586120605 22.88851547241211 10.24540901184082 18.23630142211914 14.24084663391113 14.24085235595703 C 18.23629570007324 10.24540233612061 22.88852119445801 7.108689785003662 28.06829643249512 4.917827129364014 C 33.43022155761719 2.649927139282227 39.12687301635742 1.500002145767212 44.99999618530273 1.500002145767212 C 50.87311935424805 1.500002145767212 56.56977081298828 2.649927139282227 61.93169784545898 4.917827129364014 C 67.11147308349609 7.108689785003662 71.76369476318359 10.24540233612061 75.75914764404297 14.24085235595703 C 79.75458526611328 18.23630142211914 82.89131164550781 22.88851547241211 85.08216857910156 28.06828880310059 C 87.35007476806641 33.43021392822266 88.5 39.12685394287109 88.5 44.99997711181641 C 88.5 50.87310028076172 87.35007476806641 56.56974029541016 85.08216857910156 61.93166351318359 C 82.89131164550781 67.11144256591797 79.75458526611328 71.76364898681641 75.75914764404297 75.75910186767578 C 71.76369476318359 79.75455474853516 67.11147308349609 82.89126586914062 61.93169784545898 85.08213043212891 C 56.56977081298828 87.35002899169922 50.87311935424805 88.49995422363281 44.99999618530273 88.49995422363281 Z" stroke="none"/>
                    <path d="M 44.99999618530273 2.999992370605469 C 39.32870864868164 2.999992370605469 33.82865142822266 4.11004638671875 28.65262603759766 6.299331665039062 C 23.65165710449219 8.414566040039062 19.15968322753906 11.44333648681641 15.301513671875 15.30150604248047 C 11.44333648681641 19.15967559814453 8.414566040039062 23.65163421630859 6.299339294433594 28.65260696411133 C 4.110054016113281 33.82864761352539 2.999992370605469 39.32868957519531 2.999992370605469 44.99997711181641 C 2.999992370605469 50.6712646484375 4.110054016113281 56.17130661010742 6.299339294433594 61.34733581542969 C 8.414566040039062 66.34830474853516 11.44333648681641 70.84026336669922 15.301513671875 74.69844818115234 C 19.15968322753906 78.55661773681641 23.65165710449219 81.58537292480469 28.65262603759766 83.70062255859375 C 33.82865142822266 85.889892578125 39.32870864868164 86.99994659423828 44.99999618530273 86.99994659423828 C 50.67128372192383 86.99994659423828 56.17134094238281 85.889892578125 61.34736633300781 83.70062255859375 C 66.34834289550781 81.58537292480469 70.84030914306641 78.55661773681641 74.69847869873047 74.69844818115234 C 78.55665588378906 70.84026336669922 81.58542633056641 66.34830474853516 83.70065307617188 61.34733581542969 C 85.88993835449219 56.17130661010742 87 50.6712646484375 87 44.99997711181641 C 87 39.32868957519531 85.88993835449219 33.82864761352539 83.70065307617188 28.65260696411133 C 81.58542633056641 23.65163421630859 78.55665588378906 19.15967559814453 74.69847869873047 15.30150604248047 C 70.84030914306641 11.44333648681641 66.34834289550781 8.414566040039062 61.34736633300781 6.299331665039062 C 56.17134094238281 4.11004638671875 50.67128372192383 2.999992370605469 44.99999618530273 2.999992370605469 M 44.99999618530273 -7.62939453125e-06 C 69.85281372070312 -7.62939453125e-06 90 20.14717864990234 90 44.99997711181641 C 90 69.85277557373047 69.85281372070312 89.99994659423828 44.99999618530273 89.99994659423828 C 20.14717864990234 89.99994659423828 -7.62939453125e-06 69.85277557373047 -7.62939453125e-06 44.99997711181641 C -7.62939453125e-06 20.14717864990234 20.14717864990234 -7.62939453125e-06 44.99999618530273 -7.62939453125e-06 Z" stroke="none" fill="#719acc"/>
                  </g>
                </g>
              </g>
            </g>
          </g>
        </g>
      </g>
    </g>
    <g id="planning_10988617" transform="translate(209.123 5632.491)">
      <g id="Grupo_1179109" data-name="Grupo 1179109" transform="translate(18.593 16.006)">
        <path id="Trazado_905856" data-name="Trazado 905856" d="M60.923,56.622h6.085a.707.707,0,0,1,.707.707v7.712a4.113,4.113,0,0,1-4.1,4.1H23.987a5.4,5.4,0,0,1-5.394-5.394V24.617a.706.706,0,0,1,.211-.5l7.9-7.9a.7.7,0,0,1,.5-.211H60.217a.707.707,0,0,1,.707.707V31.36L64.6,27a3.72,3.72,0,0,1,5.18-.5.713.713,0,0,1,.118.1,3.719,3.719,0,0,1,.39,5.187L60.924,42.9Z" transform="translate(-18.593 -16.006)" fill-rule="evenodd"/>
        <path id="Trazado_905857" data-name="Trazado 905857" d="M48.585,55.517a.707.707,0,1,1,0-1.414h14.1l8.171-9.7V28.782h-31.6v7.2a.707.707,0,0,1-.707.707h-7.2V75.112a3.988,3.988,0,0,0,3.979,3.98H71.865A4.084,4.084,0,0,1,70.856,76.4V55.942l-5.928,7.038a.7.7,0,0,1-.321.244L58.849,65.4a.707.707,0,0,1-.967-.783l.876-4.534c-5.163-.013-6.9,0-10.174,0a.707.707,0,0,1,0-1.414H58.723c.106,0,.132,0,.307.007a.813.813,0,0,1,.215-.493l2.25-2.67Zm17.8,15.32a.707.707,0,0,1,0,1.414h-17.8a.707.707,0,0,1,0-1.414Zm-17.8-3.156a.707.707,0,1,1,0-1.414h17.8a.707.707,0,0,1,0,1.414ZM44.379,54.45l.374-.278a.7.7,0,1,1,.84,1.133l-1.213.9v4.58a.707.707,0,0,1-.707.707H36.464a.707.707,0,0,1-.707-.707V53.4a.707.707,0,0,1,.707-.707h7.209a.707.707,0,0,1,.707.707Zm0,12.163.374-.278a.705.705,0,0,1,.84,1.133l-1.213.9v4.58a.707.707,0,0,1-.707.707H36.464a.707.707,0,0,1-.707-.707V65.566a.707.707,0,0,1,.707-.707h7.209a.707.707,0,0,1,.707.707ZM60.624,33.223q-.01,6.379-2.8,9.8-2.844,3.479-8.455,3.808c-.395.023-.791.033-1.186.033a11.145,11.145,0,0,0-.7,2.182A.7.7,0,0,1,46.1,48.76a12.621,12.621,0,0,1,.785-2.452,11.576,11.576,0,0,1-.021-1.588,12.209,12.209,0,0,1,3.754-8.682c2.173-1.907,5.236-2.973,9.2-3.575a.707.707,0,0,1,.809.76Z" transform="translate(-29.942 -27.368)" fill="#fff" fill-rule="evenodd"/>
        <path id="Trazado_905858" data-name="Trazado 905858" d="M193.606,84.009q2.312-2.829,2.475-8.128c-3.3.579-5.86,1.525-7.659,3.1a10.008,10.008,0,0,0-3.149,6.5,14.306,14.306,0,0,1,4.148-4.088.706.706,0,0,1,.718,1.215,12.77,12.77,0,0,0-3.666,3.622c-.245.351-.478.717-.695,1.093q.188-.007.384-.019Q191.152,87.01,193.606,84.009Z" transform="translate(-166.82 -69.252)" fill="#9ed342" fill-rule="evenodd"/>
        <path id="Trazado_905859" data-name="Trazado 905859" d="M84.692,260.523a.705.705,0,1,1,1.017-.978l1.321,1.378,2.649-1.971v-1.391H83.884v5.97h5.794V260.71l-2.29,1.7a.705.705,0,0,1-.946-.064Z" transform="translate(-76.656 -230.819)" fill="#80b524" fill-rule="evenodd"/>
        <path id="Trazado_905860" data-name="Trazado 905860" d="M296.788,186.542l3.534,2.976,11.7-13.887-3.533-2.976Z" transform="translate(-265.99 -155.313)" fill="#dc5800" fill-rule="evenodd"/>
        <path id="Trazado_905861" data-name="Trazado 905861" d="M403.626,405.352a2.7,2.7,0,0,0,2.689-2.689v-7h-5.377v7a2.7,2.7,0,0,0,2.689,2.689Z" transform="translate(-358.609 -353.628)" fill="#cccccd" fill-rule="evenodd"/>
        <path id="Trazado_905862" data-name="Trazado 905862" d="M45.874,37.814,40.385,43.3h5.489Z" transform="translate(-37.972 -35.4)" fill="#7a7a7b" fill-rule="evenodd"/>
        <path id="Trazado_905863" data-name="Trazado 905863" d="M286.368,310.711l-.705,3.651,3.478-1.316Z" transform="translate(-256.096 -278.085)" fill="#7a7a7b" fill-rule="evenodd"/>
      </g>
      <path id="Trazado_905864" data-name="Trazado 905864" d="M0,0H1.368V4.62H0Z" transform="matrix(0.644, -0.765, 0.765, 0.644, 61.987, 32.263)" fill="#efeff0"/>
      <path id="Trazado_905865" data-name="Trazado 905865" d="M426.777,119.163l3.533,2.976,1.847-2.193a2.328,2.328,0,0,0-.189-3.268.711.711,0,0,1-.091-.077,2.327,2.327,0,0,0-3.209.316Z" transform="translate(-362.995 -89.015)" fill="#eb5757" fill-rule="evenodd"/>
      <path id="Trazado_905866" data-name="Trazado 905866" d="M84.692,370.394a.705.705,0,1,1,1.017-.978l1.321,1.378,2.649-1.971v-1.391H83.884v5.97h5.794v-2.821l-2.29,1.7a.705.705,0,0,1-.946-.064Z" transform="translate(-58.063 -312.52)" fill="#80b524" fill-rule="evenodd"/>
    </g>
  </g>
</svg>
