<svg xmlns="http://www.w3.org/2000/svg" xmlns:xlink="http://www.w3.org/1999/xlink" width="117.999" height="118" viewBox="0 0 117.999 118">
  <defs>
    <filter id="Trazado_874925" x="0" y="0" width="117.999" height="118" filterUnits="userSpaceOnUse">
      <feOffset dy="3" input="SourceAlpha"/>
      <feGaussianBlur stdDeviation="3" result="blur"/>
      <feFlood flood-opacity="0.161"/>
      <feComposite operator="in" in2="blur"/>
      <feComposite in="SourceGraphic"/>
    </filter>
  </defs>
  <g id="Grupo_1179017" data-name="Grupo 1179017" transform="translate(-793.051 -6022.688)">
    <g id="Grupo_1178643" data-name="Grupo 1178643" transform="translate(-6.449 4076.478)">
      <g id="Grupo_1109835" data-name="Grupo 1109835" transform="translate(808.5 1952.211)">
        <g id="Grupo_1107913" data-name="Grupo 1107913" transform="translate(0 0)">
          <g transform="matrix(1, 0, 0, 1, -9, -6)" filter="url(#Trazado_874925)">
            <g id="Trazado_874925-2" data-name="Trazado 874925" transform="translate(9 6)" fill="#f3d82a" opacity="0.859">
              <path d="M 49.99972534179688 98.49999237060547 C 43.45164108276367 98.49999237060547 37.10022354125977 97.21788024902344 31.12189674377441 94.68926239013672 C 25.34676742553711 92.24658966064453 20.15985298156738 88.74936676025391 15.70523929595947 84.29476165771484 C 11.25062561035156 79.84014892578125 7.753411293029785 74.65323638916016 5.310725212097168 68.87808990478516 C 2.782111167907715 62.89977645874023 1.499996781349182 56.54836273193359 1.499996781349182 50.00027847290039 C 1.499996781349182 43.45162200927734 2.782111167907715 37.1002197265625 5.310725212097168 31.12189292907715 C 7.753411293029785 25.34676361083984 11.25062561035156 20.15984916687012 15.70523929595947 15.70523548126221 C 20.15985298156738 11.25063514709473 25.34676742553711 7.753406524658203 31.12189674377441 5.31073522567749 C 37.10022354125977 2.782120943069458 43.45164108276367 1.500006675720215 49.99972534179688 1.500006675720215 C 56.54780960083008 1.500006675720215 62.89922714233398 2.782120943069458 68.87755584716797 5.31073522567749 C 74.65267944335938 7.753406524658203 79.839599609375 11.25063514709473 84.29421234130859 15.70523548126221 C 88.74882507324219 20.15984916687012 92.24604034423828 25.34676361083984 94.68872833251953 31.12189292907715 C 97.21733856201172 37.1002197265625 98.49945068359375 43.45162200927734 98.49945068359375 49.99970626831055 C 98.49945068359375 56.54836273193359 97.21733856201172 62.89977645874023 94.68872833251953 68.87808990478516 C 92.24604034423828 74.65323638916016 88.74882507324219 79.84014892578125 84.29421234130859 84.29476165771484 C 79.839599609375 88.74936676025391 74.65267944335938 92.24658966064453 68.87755584716797 94.68926239013672 C 62.89922714233398 97.21788024902344 56.54780960083008 98.49999237060547 49.99972534179688 98.49999237060547 Z" stroke="none"/>
              <path d="M 49.99972534179688 2.999992370605469 C 43.65348052978516 2.999992370605469 37.49866485595703 4.242240905761719 31.70623016357422 6.692222595214844 C 26.10989379882812 9.059288024902344 21.08323669433594 12.44854736328125 16.76589202880859 16.76588439941406 C 12.44855499267578 21.08322143554688 9.059295654296875 26.10988616943359 6.692230224609375 31.70620727539062 C 4.24224853515625 37.49863815307617 3 43.6534538269043 3 50.00028610229492 C 3 56.34653091430664 4.24224853515625 62.50134658813477 6.692230224609375 68.29376220703125 C 9.059295654296875 73.89009857177734 12.44855499267578 78.916748046875 16.76589202880859 83.23408508300781 C 21.08323669433594 87.55142211914062 26.10989379882812 90.94070434570312 31.70623016357422 93.30774688720703 C 37.49866485595703 95.75772857666016 43.65348052978516 96.99997711181641 49.99972534179688 96.99997711181641 C 56.34597015380859 96.99997711181641 62.50078582763672 95.75772857666016 68.293212890625 93.30774688720703 C 73.88955688476562 90.94070434570312 78.91621398925781 87.55142211914062 83.23355865478516 83.23408508300781 C 87.55089569091797 78.916748046875 90.94015502929688 73.89009857177734 93.30722045898438 68.29376220703125 C 95.7572021484375 62.50134658813477 96.99945068359375 56.34653091430664 96.99945068359375 49.99969863891602 C 96.99945068359375 43.6534538269043 95.7572021484375 37.49863815307617 93.30722045898438 31.70620727539062 C 90.94015502929688 26.10988616943359 87.55089569091797 21.08322143554688 83.23355865478516 16.76588439941406 C 78.91621398925781 12.44854736328125 73.88955688476562 9.059288024902344 68.293212890625 6.692222595214844 C 62.50078582763672 4.242240905761719 56.34597015380859 2.999992370605469 49.99972534179688 2.999992370605469 M 49.99972534179688 -7.62939453125e-06 C 77.61381530761719 -7.62939453125e-06 99.99945068359375 22.3856201171875 99.99945068359375 49.99969863891602 L 99.99945068359375 50.00028610229492 C 99.99945068359375 77.61436462402344 77.61381530761719 99.99997711181641 49.99972534179688 99.99997711181641 C 22.38563537597656 99.99997711181641 0 77.61436462402344 0 50.00028610229492 L 0 49.99969863891602 C 0 22.3856201171875 22.38563537597656 -7.62939453125e-06 49.99972534179688 -7.62939453125e-06 Z" stroke="none" fill="#fff"/>
            </g>
          </g>
          <g id="Trazado_874923" data-name="Trazado 874923" transform="translate(0 0)" fill="none">
            <path d="M50,0a50,50,0,0,1,50,50h0A50,50,0,0,1,0,50H0A50,50,0,0,1,50,0Z" stroke="none"/>
            <path d="M 49.99972534179688 2.999992370605469 C 43.65348052978516 2.999992370605469 37.49866485595703 4.242240905761719 31.70623016357422 6.692222595214844 C 26.10989379882812 9.059288024902344 21.08323669433594 12.44854736328125 16.76589202880859 16.76588439941406 C 12.44855499267578 21.08322143554688 9.059295654296875 26.10988616943359 6.692230224609375 31.70620727539062 C 4.24224853515625 37.49863815307617 3 43.6534538269043 3 50.00028610229492 C 3 56.34653091430664 4.24224853515625 62.50134658813477 6.692230224609375 68.29376220703125 C 9.059295654296875 73.89009857177734 12.44855499267578 78.916748046875 16.76589202880859 83.23408508300781 C 21.08323669433594 87.55142211914062 26.10989379882812 90.94070434570312 31.70623016357422 93.30774688720703 C 37.49866485595703 95.75772857666016 43.65348052978516 96.99997711181641 49.99972534179688 96.99997711181641 C 56.34597015380859 96.99997711181641 62.50078582763672 95.75772857666016 68.293212890625 93.30774688720703 C 73.88955688476562 90.94070434570312 78.91621398925781 87.55142211914062 83.23355865478516 83.23408508300781 C 87.55089569091797 78.916748046875 90.94015502929688 73.89009857177734 93.30722045898438 68.29376220703125 C 95.7572021484375 62.50134658813477 96.99945068359375 56.34653091430664 96.99945068359375 49.99969863891602 C 96.99945068359375 43.6534538269043 95.7572021484375 37.49863815307617 93.30722045898438 31.70620727539062 C 90.94015502929688 26.10988616943359 87.55089569091797 21.08322143554688 83.23355865478516 16.76588439941406 C 78.91621398925781 12.44854736328125 73.88955688476562 9.059288024902344 68.293212890625 6.692222595214844 C 62.50078582763672 4.242240905761719 56.34597015380859 2.999992370605469 49.99972534179688 2.999992370605469 M 49.99972534179688 -7.62939453125e-06 C 77.61381530761719 -7.62939453125e-06 99.99945068359375 22.3856201171875 99.99945068359375 49.99969863891602 L 99.99945068359375 50.00028610229492 C 99.99945068359375 77.61436462402344 77.61381530761719 99.99997711181641 49.99972534179688 99.99997711181641 C 22.38563537597656 99.99997711181641 0 77.61436462402344 0 50.00028610229492 L 0 49.99969863891602 C 0 22.3856201171875 22.38563537597656 -7.62939453125e-06 49.99972534179688 -7.62939453125e-06 Z" stroke="none" fill="#fff"/>
          </g>
        </g>
      </g>
    </g>
    <g id="application_11501792" transform="translate(802.999 6041.908)">
      <g id="Grupo_1179015" data-name="Grupo 1179015" transform="translate(17.971 8.972)">
        <g id="Grupo_1178999" data-name="Grupo 1178999" transform="translate(10.623 0)">
          <g id="Grupo_1178992" data-name="Grupo 1178992" transform="translate(0 4.973)">
            <g id="Grupo_1178990" data-name="Grupo 1178990">
              <path id="Trazado_905584" data-name="Trazado 905584" d="M115.162,56.984a2.616,2.616,0,0,0-2.611,2.611V107.64a2.616,2.616,0,0,0,2.611,2.611h40.211a2.616,2.616,0,0,0,2.611-2.611V59.6a2.616,2.616,0,0,0-2.611-2.611Z" transform="translate(-112.551 -56.984)" fill="#eceff1" fill-rule="evenodd"/>
            </g>
            <g id="Grupo_1178991" data-name="Grupo 1178991">
              <path id="Trazado_905585" data-name="Trazado 905585" d="M115.162,56.984a2.616,2.616,0,0,0-2.611,2.611V107.64a2.616,2.616,0,0,0,2.611,2.611h2.427a2.616,2.616,0,0,1-2.611-2.611V59.6a2.616,2.616,0,0,1,2.611-2.611Z" transform="translate(-112.551 -56.984)" fill="#d1d1d6" fill-rule="evenodd"/>
            </g>
          </g>
          <g id="Grupo_1178995" data-name="Grupo 1178995" transform="translate(12.664)">
            <g id="Grupo_1178993" data-name="Grupo 1178993">
              <path id="Trazado_905586" data-name="Trazado 905586" d="M236.422,19.394h-4.677a.6.6,0,0,1-.574-.408,4.44,4.44,0,0,0-8.391,0,.6.6,0,0,1-.574.408H217.53a.608.608,0,0,0-.607.607v5.575a.608.608,0,0,0,.607.607h18.892a.608.608,0,0,0,.607-.607V20A.608.608,0,0,0,236.422,19.394Z" transform="translate(-216.923 -16)" fill="#e3a76f" fill-rule="evenodd"/>
            </g>
            <g id="Grupo_1178994" data-name="Grupo 1178994" transform="translate(0 3.394)">
              <path id="Trazado_905587" data-name="Trazado 905587" d="M218.137,43.976h-.606a.608.608,0,0,0-.607.607v5.575a.608.608,0,0,0,.607.607h18.892a.608.608,0,0,0,.607-.607v-.606H218.744a.608.608,0,0,1-.607-.607V43.976Z" transform="translate(-216.924 -43.976)" fill="#c48958" fill-rule="evenodd"/>
            </g>
          </g>
          <g id="Grupo_1178998" data-name="Grupo 1178998" transform="translate(13.508 13.586)">
            <g id="Grupo_1178996" data-name="Grupo 1178996" transform="translate(0)">
              <path id="Trazado_905588" data-name="Trazado 905588" d="M250.409,127.969H224.367a.487.487,0,0,0-.486.486v5.67a.487.487,0,0,0,.486.486h26.042a.487.487,0,0,0,.486-.486v-5.67A.487.487,0,0,0,250.409,127.969Z" transform="translate(-223.881 -127.969)" fill="#6cf5c2" fill-rule="evenodd"/>
            </g>
            <g id="Grupo_1178997" data-name="Grupo 1178997">
              <path id="Trazado_905589" data-name="Trazado 905589" d="M225.58,127.969h-1.213a.487.487,0,0,0-.486.486v5.67a.487.487,0,0,0,.486.486h1.213a.487.487,0,0,1-.486-.486v-5.67A.487.487,0,0,1,225.58,127.969Z" transform="translate(-223.881 -127.969)" fill="#00e499" fill-rule="evenodd"/>
            </g>
          </g>
        </g>
        <g id="Grupo_1179006" data-name="Grupo 1179006" transform="translate(47.5 23.964)">
          <g id="Grupo_1179000" data-name="Grupo 1179000">
            <path id="Trazado_905590" data-name="Trazado 905590" d="M422.056,239.432V215.825a2.328,2.328,0,0,0-2.324-2.323H418.8a2.328,2.328,0,0,0-2.324,2.323v23.607l2.788,4.829Z" transform="translate(-416.48 -213.502)" fill="#e3a76f" fill-rule="evenodd"/>
          </g>
          <g id="Grupo_1179001" data-name="Grupo 1179001" transform="translate(0 0)">
            <path id="Trazado_905591" data-name="Trazado 905591" d="M420.063,213.526a2.325,2.325,0,0,0-.33-.024H418.8a2.328,2.328,0,0,0-2.324,2.323v23.607l2.788,4.829.794-1.376-1.994-3.453V215.826A2.329,2.329,0,0,1,420.063,213.526Z" transform="translate(-416.481 -213.502)" fill="#c48958" fill-rule="evenodd"/>
          </g>
          <g id="Grupo_1179002" data-name="Grupo 1179002" transform="translate(0 25.93)">
            <path id="Trazado_905592" data-name="Trazado 905592" d="M419.269,432.039l2.788-4.829h-5.576Z" transform="translate(-416.481 -427.21)" fill="#837683" fill-rule="evenodd"/>
          </g>
          <g id="Grupo_1179003" data-name="Grupo 1179003" transform="translate(0 25.93)">
            <path id="Trazado_905593" data-name="Trazado 905593" d="M419.269,432.039l.794-1.376-1.994-3.453h-1.589Z" transform="translate(-416.481 -427.21)" fill="#685e68" fill-rule="evenodd"/>
          </g>
          <g id="Grupo_1179004" data-name="Grupo 1179004" transform="translate(0 0)">
            <path id="Trazado_905594" data-name="Trazado 905594" d="M422.057,217.776v-1.951a2.328,2.328,0,0,0-2.323-2.323H418.8a2.328,2.328,0,0,0-2.324,2.324v1.951h5.576Z" transform="translate(-416.481 -213.502)" fill="#837683" fill-rule="evenodd"/>
          </g>
          <g id="Grupo_1179005" data-name="Grupo 1179005" transform="translate(0 0)">
            <path id="Trazado_905595" data-name="Trazado 905595" d="M420.063,213.526a2.325,2.325,0,0,0-.33-.024H418.8a2.328,2.328,0,0,0-2.324,2.324v1.951h1.589v-1.951A2.329,2.329,0,0,1,420.063,213.526Z" transform="translate(-416.481 -213.502)" fill="#685e68" fill-rule="evenodd"/>
          </g>
        </g>
        <g id="Grupo_1179009" data-name="Grupo 1179009" transform="translate(0 10.13)">
          <g id="Grupo_1179007" data-name="Grupo 1179007">
            <path id="Trazado_905596" data-name="Trazado 905596" d="M44.822,99.486H25.6a.608.608,0,0,0-.607.607v19.219a.608.608,0,0,0,.607.607H44.822a.608.608,0,0,0,.607-.607V100.093A.608.608,0,0,0,44.822,99.486Z" transform="translate(-24.996 -99.486)" fill="#837683" fill-rule="evenodd"/>
          </g>
          <g id="Grupo_1179008" data-name="Grupo 1179008" transform="translate(0 0)">
            <path id="Trazado_905597" data-name="Trazado 905597" d="M26.209,99.486H25.6a.608.608,0,0,0-.607.607v19.219a.608.608,0,0,0,.607.607H44.822a.608.608,0,0,0,.607-.607v-.606H26.816a.608.608,0,0,1-.607-.607Z" transform="translate(-24.996 -99.486)" fill="#685e68" fill-rule="evenodd"/>
          </g>
        </g>
        <g id="Grupo_1179014" data-name="Grupo 1179014" transform="translate(3.221 13.058)">
          <g id="Grupo_1179010" data-name="Grupo 1179010" transform="translate(0 8.019)">
            <path id="Trazado_905598" data-name="Trazado 905598" d="M64.51,196.191H52.569a1.022,1.022,0,0,1-.979-1.317,7.259,7.259,0,0,1,13.9,0,1.022,1.022,0,0,1-.979,1.317Z" transform="translate(-51.544 -189.715)" fill="#8ac9fe" fill-rule="evenodd"/>
          </g>
          <g id="Grupo_1179011" data-name="Grupo 1179011" transform="translate(0 8.019)">
            <path id="Trazado_905599" data-name="Trazado 905599" d="M52.569,196.191a1.022,1.022,0,0,1-.979-1.317,7.265,7.265,0,0,1,7.971-5.087,7.265,7.265,0,0,0-5.927,5.087,1.022,1.022,0,0,0,.979,1.317Z" transform="translate(-51.543 -189.715)" fill="#60b7ff" fill-rule="evenodd"/>
          </g>
          <g id="Grupo_1179012" data-name="Grupo 1179012" transform="translate(3.253)">
            <circle id="Elipse_11616" data-name="Elipse 11616" cx="3.669" cy="3.669" r="3.669" transform="matrix(1, -0.022, 0.022, 1, 0, 0.161)" fill="#f6dccd"/>
          </g>
          <g id="Grupo_1179013" data-name="Grupo 1179013" transform="translate(3.326 0.08)">
            <path id="Trazado_905600" data-name="Trazado 905600" d="M82.624,124.281a3.669,3.669,0,1,0,.511,7.3,3.67,3.67,0,0,1,0-7.267A3.737,3.737,0,0,0,82.624,124.281Z" transform="translate(-78.955 -124.281)" fill="#f1cbbc" fill-rule="evenodd"/>
          </g>
        </g>
      </g>
      <g id="Grupo_1179016" data-name="Grupo 1179016" transform="translate(17.001 8.001)">
        <path id="Trazado_905601" data-name="Trazado 905601" d="M68.259,61.753l-1.106-1.917h2.213Zm-1.818-3.858V38.942h3.636V57.894Zm1.353-23.988h.93a1.354,1.354,0,0,1,1.353,1.351V37H66.441V35.258A1.354,1.354,0,0,1,67.794,33.907Zm.93-1.942h-.93A3.3,3.3,0,0,0,64.5,35.258V42.9H35.937a.971.971,0,0,0,0,1.941H64.5v2.912H35.937a.971.971,0,0,0,0,1.941H64.5v9.17a.974.974,0,0,0,.13.485l2.789,4.829a.971.971,0,0,0,1.681,0l2.789-4.829a.974.974,0,0,0,.13-.485V35.258a3.3,3.3,0,0,0-3.294-3.293Zm-46.9,3.589a6.607,6.607,0,0,1,12.72,0Zm6.36-12.474a2.859,2.859,0,1,1-2.859,2.858A2.861,2.861,0,0,1,28.188,23.08Zm3.272,6.365a8.518,8.518,0,0,1,5.222,6.977.971.971,0,0,1-.966,1.074H20.658a.969.969,0,0,1-.965-1.074,8.513,8.513,0,0,1,5.222-6.977,4.8,4.8,0,1,1,6.545,0Zm32.149,32.47a.972.972,0,0,1-.971.971H54.6a.971.971,0,1,1,0-1.942h8.042A.971.971,0,0,1,63.609,61.915Zm0-3.64a.972.972,0,0,1-.971.971H52.518a.971.971,0,0,1,0-1.941H62.638A.97.97,0,0,1,63.609,58.275Zm-2.191-3.726H35.937a.971.971,0,0,1,0-1.942h25.48a.971.971,0,0,1,0,1.942ZM41.2,39.018a.97.97,0,0,1,.971-.97H61.942a.971.971,0,0,1,0,1.941H42.167A.971.971,0,0,1,41.2,39.018Zm0-4.853a.97.97,0,0,1,.971-.97H58.411a.971.971,0,1,1,0,1.941H42.167A.972.972,0,0,1,41.2,34.165Zm1.877-10.637H68.146v4.7H43.073ZM42.1,30.169H69.116a.97.97,0,0,0,.971-.97V22.557a.971.971,0,0,0-.971-.971H42.1a.971.971,0,0,0-.971.971V29.2A.97.97,0,0,0,42.1,30.169ZM52.485,12.61a1.174,1.174,0,1,1-1.174-1.174A1.176,1.176,0,0,1,52.485,12.61ZM73.057,64.6V16.556a1.642,1.642,0,0,0-1.641-1.641H62.334v4.24a.97.97,0,0,1-.971.97H41.257a.971.971,0,0,1-.97-.97v-4.24H31.205a1.643,1.643,0,0,0-1.641,1.641v1.575H38.4a.97.97,0,0,1,.97.97V39.535a.97.97,0,0,1-.97.97h-8.84V64.6a1.643,1.643,0,0,0,1.641,1.64H71.416a1.642,1.642,0,0,0,1.641-1.64ZM18.942,20.072H37.433V38.564H18.942Zm23.286-6.736v4.848H60.393V13.337H55.626a.971.971,0,0,1-.944-.744,3.469,3.469,0,0,0-6.742,0,.97.97,0,0,1-.944.744Zm29.188-.363H62.335v-.608a.971.971,0,0,0-.971-.971h-5.03a5.413,5.413,0,0,0-10.045,0H41.257a.971.971,0,0,0-.97.971v.608H31.205a3.585,3.585,0,0,0-3.582,3.582v1.575H17.971a.97.97,0,0,0-.97.97V39.534a.97.97,0,0,0,.97.97h9.652V64.6a3.585,3.585,0,0,0,3.582,3.581H71.416A3.585,3.585,0,0,0,75,64.6V16.556a3.585,3.585,0,0,0-3.582-3.582Z" transform="translate(-17.001 -8.001)" fill="#242222" fill-rule="evenodd"/>
      </g>
    </g>
  </g>
</svg>
