<svg xmlns="http://www.w3.org/2000/svg" xmlns:xlink="http://www.w3.org/1999/xlink" width="118" height="118" viewBox="0 0 118 118">
  <defs>
    <filter id="Trazado_874925" x="0" y="0" width="117.999" height="118" filterUnits="userSpaceOnUse">
      <feOffset dy="3" input="SourceAlpha"/>
      <feGaussianBlur stdDeviation="3" result="blur"/>
      <feFlood flood-opacity="0.161"/>
      <feComposite operator="in" in2="blur"/>
      <feComposite in="SourceGraphic"/>
    </filter>
  </defs>
  <g id="Grupo_1179036" data-name="Grupo 1179036" transform="translate(-1108.051 -6022.688)">
    <g id="Grupo_1178644" data-name="Grupo 1178644" transform="translate(308.551 4076.478)">
      <g id="Grupo_1109835" data-name="Grupo 1109835" transform="translate(808.5 1952.211)">
        <g id="Grupo_1107913" data-name="Grupo 1107913" transform="translate(0 0)">
          <g transform="matrix(1, 0, 0, 1, -9, -6)" filter="url(#Trazado_874925)">
            <g id="Trazado_874925-2" data-name="Trazado 874925" transform="translate(9 6)" fill="#f3d82a" opacity="0.859">
              <path d="M 49.99972534179688 98.49999237060547 C 43.45164108276367 98.49999237060547 37.10022354125977 97.21788024902344 31.12189674377441 94.68926239013672 C 25.34676742553711 92.24658966064453 20.15985298156738 88.74936676025391 15.70523929595947 84.29476165771484 C 11.25062561035156 79.84014892578125 7.753411293029785 74.65323638916016 5.310725212097168 68.87808990478516 C 2.782111167907715 62.89977645874023 1.499996781349182 56.54836273193359 1.499996781349182 50.00027847290039 C 1.499996781349182 43.45162200927734 2.782111167907715 37.1002197265625 5.310725212097168 31.12189292907715 C 7.753411293029785 25.34676361083984 11.25062561035156 20.15984916687012 15.70523929595947 15.70523548126221 C 20.15985298156738 11.25063514709473 25.34676742553711 7.753406524658203 31.12189674377441 5.31073522567749 C 37.10022354125977 2.782120943069458 43.45164108276367 1.500006675720215 49.99972534179688 1.500006675720215 C 56.54780960083008 1.500006675720215 62.89922714233398 2.782120943069458 68.87755584716797 5.31073522567749 C 74.65267944335938 7.753406524658203 79.839599609375 11.25063514709473 84.29421234130859 15.70523548126221 C 88.74882507324219 20.15984916687012 92.24604034423828 25.34676361083984 94.68872833251953 31.12189292907715 C 97.21733856201172 37.1002197265625 98.49945068359375 43.45162200927734 98.49945068359375 49.99970626831055 C 98.49945068359375 56.54836273193359 97.21733856201172 62.89977645874023 94.68872833251953 68.87808990478516 C 92.24604034423828 74.65323638916016 88.74882507324219 79.84014892578125 84.29421234130859 84.29476165771484 C 79.839599609375 88.74936676025391 74.65267944335938 92.24658966064453 68.87755584716797 94.68926239013672 C 62.89922714233398 97.21788024902344 56.54780960083008 98.49999237060547 49.99972534179688 98.49999237060547 Z" stroke="none"/>
              <path d="M 49.99972534179688 2.999992370605469 C 43.65348052978516 2.999992370605469 37.49866485595703 4.242240905761719 31.70623016357422 6.692222595214844 C 26.10989379882812 9.059288024902344 21.08323669433594 12.44854736328125 16.76589202880859 16.76588439941406 C 12.44855499267578 21.08322143554688 9.059295654296875 26.10988616943359 6.692230224609375 31.70620727539062 C 4.24224853515625 37.49863815307617 3 43.6534538269043 3 50.00028610229492 C 3 56.34653091430664 4.24224853515625 62.50134658813477 6.692230224609375 68.29376220703125 C 9.059295654296875 73.89009857177734 12.44855499267578 78.916748046875 16.76589202880859 83.23408508300781 C 21.08323669433594 87.55142211914062 26.10989379882812 90.94070434570312 31.70623016357422 93.30774688720703 C 37.49866485595703 95.75772857666016 43.65348052978516 96.99997711181641 49.99972534179688 96.99997711181641 C 56.34597015380859 96.99997711181641 62.50078582763672 95.75772857666016 68.293212890625 93.30774688720703 C 73.88955688476562 90.94070434570312 78.91621398925781 87.55142211914062 83.23355865478516 83.23408508300781 C 87.55089569091797 78.916748046875 90.94015502929688 73.89009857177734 93.30722045898438 68.29376220703125 C 95.7572021484375 62.50134658813477 96.99945068359375 56.34653091430664 96.99945068359375 49.99969863891602 C 96.99945068359375 43.6534538269043 95.7572021484375 37.49863815307617 93.30722045898438 31.70620727539062 C 90.94015502929688 26.10988616943359 87.55089569091797 21.08322143554688 83.23355865478516 16.76588439941406 C 78.91621398925781 12.44854736328125 73.88955688476562 9.059288024902344 68.293212890625 6.692222595214844 C 62.50078582763672 4.242240905761719 56.34597015380859 2.999992370605469 49.99972534179688 2.999992370605469 M 49.99972534179688 -7.62939453125e-06 C 77.61381530761719 -7.62939453125e-06 99.99945068359375 22.3856201171875 99.99945068359375 49.99969863891602 L 99.99945068359375 50.00028610229492 C 99.99945068359375 77.61436462402344 77.61381530761719 99.99997711181641 49.99972534179688 99.99997711181641 C 22.38563537597656 99.99997711181641 0 77.61436462402344 0 50.00028610229492 L 0 49.99969863891602 C 0 22.3856201171875 22.38563537597656 -7.62939453125e-06 49.99972534179688 -7.62939453125e-06 Z" stroke="none" fill="#fff"/>
            </g>
          </g>
          <g id="Trazado_874923" data-name="Trazado 874923" transform="translate(0 0)" fill="none">
            <path d="M50,0a50,50,0,0,1,50,50h0A50,50,0,0,1,0,50H0A50,50,0,0,1,50,0Z" stroke="none"/>
            <path d="M 49.99972534179688 2.999992370605469 C 43.65348052978516 2.999992370605469 37.49866485595703 4.242240905761719 31.70623016357422 6.692222595214844 C 26.10989379882812 9.059288024902344 21.08323669433594 12.44854736328125 16.76589202880859 16.76588439941406 C 12.44855499267578 21.08322143554688 9.059295654296875 26.10988616943359 6.692230224609375 31.70620727539062 C 4.24224853515625 37.49863815307617 3 43.6534538269043 3 50.00028610229492 C 3 56.34653091430664 4.24224853515625 62.50134658813477 6.692230224609375 68.29376220703125 C 9.059295654296875 73.89009857177734 12.44855499267578 78.916748046875 16.76589202880859 83.23408508300781 C 21.08323669433594 87.55142211914062 26.10989379882812 90.94070434570312 31.70623016357422 93.30774688720703 C 37.49866485595703 95.75772857666016 43.65348052978516 96.99997711181641 49.99972534179688 96.99997711181641 C 56.34597015380859 96.99997711181641 62.50078582763672 95.75772857666016 68.293212890625 93.30774688720703 C 73.88955688476562 90.94070434570312 78.91621398925781 87.55142211914062 83.23355865478516 83.23408508300781 C 87.55089569091797 78.916748046875 90.94015502929688 73.89009857177734 93.30722045898438 68.29376220703125 C 95.7572021484375 62.50134658813477 96.99945068359375 56.34653091430664 96.99945068359375 49.99969863891602 C 96.99945068359375 43.6534538269043 95.7572021484375 37.49863815307617 93.30722045898438 31.70620727539062 C 90.94015502929688 26.10988616943359 87.55089569091797 21.08322143554688 83.23355865478516 16.76588439941406 C 78.91621398925781 12.44854736328125 73.88955688476562 9.059288024902344 68.293212890625 6.692222595214844 C 62.50078582763672 4.242240905761719 56.34597015380859 2.999992370605469 49.99972534179688 2.999992370605469 M 49.99972534179688 -7.62939453125e-06 C 77.61381530761719 -7.62939453125e-06 99.99945068359375 22.3856201171875 99.99945068359375 49.99969863891602 L 99.99945068359375 50.00028610229492 C 99.99945068359375 77.61436462402344 77.61381530761719 99.99997711181641 49.99972534179688 99.99997711181641 C 22.38563537597656 99.99997711181641 0 77.61436462402344 0 50.00028610229492 L 0 49.99969863891602 C 0 22.3856201171875 22.38563537597656 -7.62939453125e-06 49.99972534179688 -7.62939453125e-06 Z" stroke="none" fill="#fff"/>
          </g>
        </g>
      </g>
    </g>
    <g id="document_4335191" transform="translate(1138.051 6048)">
      <g id="Grupo_1179034" data-name="Grupo 1179034">
        <g id="Grupo_1179018" data-name="Grupo 1179018">
          <path id="Trazado_905602" data-name="Trazado 905602" d="M2,5H6A1,1,0,0,0,5,6V55H2a1,1,0,0,1-1-1V6A1,1,0,0,1,2,5Z" fill="#f0d0b4"/>
        </g>
        <g id="Grupo_1179019" data-name="Grupo 1179019">
          <path id="Trazado_905603" data-name="Trazado 905603" d="M45,57H6a1,1,0,0,1-1-1V5H44a1,1,0,0,1,1,1Z" fill="#e6e9ed"/>
        </g>
        <g id="Grupo_1179020" data-name="Grupo 1179020">
          <path id="Trazado_905604" data-name="Trazado 905604" d="M11.62,18.38a2.133,2.133,0,0,0,1.5.62h.76a2.116,2.116,0,0,0,2.11-2H22a1,1,0,0,1,1,1V34a1,1,0,0,1-1,1H10a1,1,0,0,1-1-1V18a1,1,0,0,1,1-1h1.01A2.252,2.252,0,0,0,11.62,18.38Z" fill="#fcd770"/>
        </g>
        <g id="Grupo_1179021" data-name="Grupo 1179021">
          <path id="Trazado_905605" data-name="Trazado 905605" d="M29,9h4v4H29Z" fill="#ff826e"/>
        </g>
        <g id="Grupo_1179022" data-name="Grupo 1179022">
          <path id="Trazado_905606" data-name="Trazado 905606" d="M41,10v2a1,1,0,0,1-1,1H37V9h3A1,1,0,0,1,41,10Z" fill="#ff826e"/>
        </g>
        <g id="Grupo_1179023" data-name="Grupo 1179023">
          <path id="Trazado_905607" data-name="Trazado 905607" d="M33,9h4v4H33Z" fill="#ff826e"/>
        </g>
        <g id="Grupo_1179024" data-name="Grupo 1179024">
          <path id="Trazado_905608" data-name="Trazado 905608" d="M29,9v4H26a1,1,0,0,1-1-1V10a1,1,0,0,1,1-1Z" fill="#ff826e"/>
        </g>
        <g id="Grupo_1179025" data-name="Grupo 1179025">
          <path id="Trazado_905609" data-name="Trazado 905609" d="M19,11a1,1,0,0,1-1,1H15.5L16,9h1.44A1.848,1.848,0,0,0,19,8.14Z" fill="#838f9b"/>
        </g>
        <g id="Grupo_1179026" data-name="Grupo 1179026">
          <path id="Trazado_905610" data-name="Trazado 905610" d="M11,9l.5,3H9a1,1,0,0,1-1-1V8.14A1.848,1.848,0,0,0,9.56,9Z" fill="#838f9b"/>
        </g>
        <g id="Grupo_1179027" data-name="Grupo 1179027">
          <path id="Trazado_905611" data-name="Trazado 905611" d="M20,2.85a1.526,1.526,0,0,1-.03.3L19.67,5l-.41,2.46a1.769,1.769,0,0,1-.26.67v.01A1.848,1.848,0,0,1,17.44,9H9.56A1.848,1.848,0,0,1,8,8.14V8.13a1.769,1.769,0,0,1-.26-.67L7.33,5l-.3-1.85A1.526,1.526,0,0,1,7,2.85,1.852,1.852,0,0,1,8.85,1h9.3A1.852,1.852,0,0,1,20,2.85Z" fill="#969faa"/>
        </g>
        <g id="Grupo_1179028" data-name="Grupo 1179028">
          <path id="Trazado_905612" data-name="Trazado 905612" d="M45,27.03A16.974,16.974,0,1,1,44,27C44.33,27,44.67,27.01,45,27.03Z" fill="#ffeaa7"/>
        </g>
        <g id="Grupo_1179029" data-name="Grupo 1179029">
          <path id="Trazado_905613" data-name="Trazado 905613" d="M52,53H36a1,1,0,0,1-1-1V36a1,1,0,0,1,1-1H52a1,1,0,0,1,1,1V52A1,1,0,0,1,52,53Z" fill="#b4dd7f"/>
        </g>
        <g id="Grupo_1179030" data-name="Grupo 1179030">
          <path id="Trazado_905614" data-name="Trazado 905614" d="M53,36v5H48a1,1,0,0,1-1-1V35h5A1,1,0,0,1,53,36Z" fill="#ff826e"/>
        </g>
        <g id="Grupo_1179031" data-name="Grupo 1179031">
          <path id="Trazado_905615" data-name="Trazado 905615" d="M53,47v5a1,1,0,0,1-1,1H47V48a1,1,0,0,1,1-1Z" fill="#ff826e"/>
        </g>
        <g id="Grupo_1179032" data-name="Grupo 1179032">
          <path id="Trazado_905616" data-name="Trazado 905616" d="M41,48v5H36a1,1,0,0,1-1-1V47h5A1,1,0,0,1,41,48Z" fill="#ff826e"/>
        </g>
        <g id="Grupo_1179033" data-name="Grupo 1179033">
          <path id="Trazado_905617" data-name="Trazado 905617" d="M41,35v5a1,1,0,0,1-1,1H35V36a1,1,0,0,1,1-1Z" fill="#ff826e"/>
        </g>
      </g>
      <g id="Grupo_1179035" data-name="Grupo 1179035">
        <path id="Trazado_905618" data-name="Trazado 905618" d="M52,34H36a2,2,0,0,0-2,2V52a2,2,0,0,0,2,2H52a2,2,0,0,0,2-2V36A2,2,0,0,0,52,34Zm0,6H48V36h4Zm-6,8v4H45V48H43v4H42V48a2,2,0,0,0-2-2H36V42h4a2,2,0,0,0,2-2V36h4v4a2,2,0,0,0,2,2h4v4H48A2,2,0,0,0,46,48ZM40,36v4H36V36ZM36,48h4v4H36Zm12,4V48h4v4Z"/>
        <path id="Trazado_905619" data-name="Trazado 905619" d="M37,37h2v2H37Z"/>
        <path id="Trazado_905620" data-name="Trazado 905620" d="M49,37h2v2H49Z"/>
        <path id="Trazado_905621" data-name="Trazado 905621" d="M37,49h2v2H37Z"/>
        <path id="Trazado_905622" data-name="Trazado 905622" d="M49,49h2v2H49Z"/>
        <path id="Trazado_905623" data-name="Trazado 905623" d="M43,47h2V45h2V43H43Z"/>
        <path id="Trazado_905624" data-name="Trazado 905624" d="M49,43h2v2H49Z"/>
        <path id="Trazado_905625" data-name="Trazado 905625" d="M37,43h4v2H37Z"/>
        <path id="Trazado_905626" data-name="Trazado 905626" d="M43,37h2v4H43Z"/>
        <path id="Trazado_905627" data-name="Trazado 905627" d="M46,26.118V6a2,2,0,0,0-2-2H20.847l.114-.687A2.911,2.911,0,0,0,21,2.847,2.85,2.85,0,0,0,18.153,0H8.847A2.85,2.85,0,0,0,6,2.847a2.955,2.955,0,0,0,.039.468L6.153,4H2A2,2,0,0,0,0,6V54a2,2,0,0,0,2,2H4a2,2,0,0,0,2,2H32.711A17.991,17.991,0,1,0,46,26.118ZM22,18V34H10V18h.217a3.12,3.12,0,0,0,2.9,2h.758a3.119,3.119,0,0,0,2.9-2ZM9,9.94a2.84,2.84,0,0,0,.564.06h.588l.167,1H9Zm5.672,6.146A1.121,1.121,0,0,1,13.879,18h-.758a1.121,1.121,0,0,1-.793-1.914l.743-.743L12.18,10h2.639l-.891,5.343ZM16.847,10h.588A2.84,2.84,0,0,0,18,9.94V11H16.68Zm-8-8h9.307A.848.848,0,0,1,19,2.847a.8.8,0,0,1-.012.139L18.27,7.292A.843.843,0,0,1,17.436,8H9.564a.845.845,0,0,1-.835-.708l-.717-4.3A.839.839,0,0,1,8,2.847.848.848,0,0,1,8.847,2ZM2,54V6H4V54ZM6,6h.487l.27,1.621A2.818,2.818,0,0,0,7,8.366V11a2,2,0,0,0,2,2h1.653l.276,1.657-.015.015A3.088,3.088,0,0,0,10.14,16H10a2,2,0,0,0-2,2V34a2,2,0,0,0,2,2H22a2,2,0,0,0,2-2V18a2,2,0,0,0-2-2H16.86a3.088,3.088,0,0,0-.774-1.328l-.015-.015L16.347,13H18a2,2,0,0,0,2-2V8.366a2.818,2.818,0,0,0,.243-.745L20.513,6H44V26A17.969,17.969,0,0,0,30.622,56H6ZM44,60A16,16,0,1,1,60,44,16.019,16.019,0,0,1,44,60Z"/>
        <path id="Trazado_905628" data-name="Trazado 905628" d="M40,14a2,2,0,0,0,2-2V10a2,2,0,0,0-2-2H26a2,2,0,0,0-2,2v2a2,2,0,0,0,2,2Zm-8-2H30V10h2Zm2-2h2v2H34Zm6,2H38V10h2ZM26,10h2v2H26Z"/>
        <path id="Trazado_905629" data-name="Trazado 905629" d="M26,16h4v2H26Z"/>
        <path id="Trazado_905630" data-name="Trazado 905630" d="M32,16H42v2H32Z"/>
        <path id="Trazado_905631" data-name="Trazado 905631" d="M26,20H42v2H26Z"/>
        <path id="Trazado_905632" data-name="Trazado 905632" d="M26,24H38v2H26Z"/>
        <path id="Trazado_905633" data-name="Trazado 905633" d="M26,28h2v2H26Z"/>
        <path id="Trazado_905634" data-name="Trazado 905634" d="M30,28h2v2H30Z"/>
        <path id="Trazado_905635" data-name="Trazado 905635" d="M8,38h4v2H8Z"/>
        <path id="Trazado_905636" data-name="Trazado 905636" d="M14,38H24v2H14Z"/>
        <path id="Trazado_905637" data-name="Trazado 905637" d="M8,42H24v2H8Z"/>
        <path id="Trazado_905638" data-name="Trazado 905638" d="M8,46H22v2H8Z"/>
        <path id="Trazado_905639" data-name="Trazado 905639" d="M8,50h2v2H8Z"/>
        <path id="Trazado_905640" data-name="Trazado 905640" d="M12,50h2v2H12Z"/>
        <path id="Trazado_905641" data-name="Trazado 905641" d="M16,50h2v2H16Z"/>
      </g>
    </g>
  </g>
</svg>
