<svg xmlns="http://www.w3.org/2000/svg" xmlns:xlink="http://www.w3.org/1999/xlink" width="118" height="118" viewBox="0 0 118 118">
  <defs>
    <filter id="Trazado_874925" x="0" y="0" width="118" height="118" filterUnits="userSpaceOnUse">
      <feOffset dy="3" input="SourceAlpha"/>
      <feGaussianBlur stdDeviation="3" result="blur"/>
      <feFlood flood-opacity="0.161"/>
      <feComposite operator="in" in2="blur"/>
      <feComposite in="SourceGraphic"/>
    </filter>
  </defs>
  <g id="Grupo_1179038" data-name="Grupo 1179038" transform="translate(6873 5585.312)">
    <g id="Grupo_1178645" data-name="Grupo 1178645" transform="translate(-7672.5 -7531.522)">
      <g id="Grupo_1109835" data-name="Grupo 1109835" transform="translate(808.5 1952.211)">
        <g id="Grupo_1107913" data-name="Grupo 1107913" transform="translate(0 0)">
          <g transform="matrix(1, 0, 0, 1, -9, -6)" filter="url(#Trazado_874925)">
            <g id="Trazado_874925-2" data-name="Trazado 874925" transform="translate(9 6)" fill="#f3d82a" opacity="0.859">
              <path d="M 49.99972534179688 98.49999237060547 C 43.45164108276367 98.49999237060547 37.10022354125977 97.21788024902344 31.12189674377441 94.68926239013672 C 25.34676742553711 92.24658966064453 20.15985298156738 88.74936676025391 15.70523929595947 84.29476165771484 C 11.25062561035156 79.84014892578125 7.753411293029785 74.65323638916016 5.310725212097168 68.87808990478516 C 2.782111167907715 62.89977645874023 1.499996781349182 56.54836273193359 1.499996781349182 50.00027847290039 C 1.499996781349182 43.45162200927734 2.782111167907715 37.1002197265625 5.310725212097168 31.12189292907715 C 7.753411293029785 25.34676361083984 11.25062561035156 20.15984916687012 15.70523929595947 15.70523548126221 C 20.15985298156738 11.25063514709473 25.34676742553711 7.753406524658203 31.12189674377441 5.31073522567749 C 37.10022354125977 2.782120943069458 43.45164108276367 1.500006675720215 49.99972534179688 1.500006675720215 C 56.54780960083008 1.500006675720215 62.89922714233398 2.782120943069458 68.87755584716797 5.31073522567749 C 74.65267944335938 7.753406524658203 79.839599609375 11.25063514709473 84.29421234130859 15.70523548126221 C 88.74882507324219 20.15984916687012 92.24604034423828 25.34676361083984 94.68872833251953 31.12189292907715 C 97.21733856201172 37.1002197265625 98.49945068359375 43.45162200927734 98.49945068359375 49.99970626831055 C 98.49945068359375 56.54836273193359 97.21733856201172 62.89977645874023 94.68872833251953 68.87808990478516 C 92.24604034423828 74.65323638916016 88.74882507324219 79.84014892578125 84.29421234130859 84.29476165771484 C 79.839599609375 88.74936676025391 74.65267944335938 92.24658966064453 68.87755584716797 94.68926239013672 C 62.89922714233398 97.21788024902344 56.54780960083008 98.49999237060547 49.99972534179688 98.49999237060547 Z" stroke="none"/>
              <path d="M 49.99972534179688 2.999992370605469 C 43.65348052978516 2.999992370605469 37.49866485595703 4.242240905761719 31.70623016357422 6.692222595214844 C 26.10989379882812 9.059288024902344 21.08323669433594 12.44854736328125 16.76589202880859 16.76588439941406 C 12.44855499267578 21.08322143554688 9.059295654296875 26.10988616943359 6.692230224609375 31.70620727539062 C 4.24224853515625 37.49863815307617 3 43.6534538269043 3 50.00028610229492 C 3 56.34653091430664 4.24224853515625 62.50134658813477 6.692230224609375 68.29376220703125 C 9.059295654296875 73.89009857177734 12.44855499267578 78.916748046875 16.76589202880859 83.23408508300781 C 21.08323669433594 87.55142211914062 26.10989379882812 90.94070434570312 31.70623016357422 93.30774688720703 C 37.49866485595703 95.75772857666016 43.65348052978516 96.99997711181641 49.99972534179688 96.99997711181641 C 56.34597015380859 96.99997711181641 62.50078582763672 95.75772857666016 68.293212890625 93.30774688720703 C 73.88955688476562 90.94070434570312 78.91621398925781 87.55142211914062 83.23355865478516 83.23408508300781 C 87.55089569091797 78.916748046875 90.94015502929688 73.89009857177734 93.30722045898438 68.29376220703125 C 95.7572021484375 62.50134658813477 96.99945068359375 56.34653091430664 96.99945068359375 49.99969863891602 C 96.99945068359375 43.6534538269043 95.7572021484375 37.49863815307617 93.30722045898438 31.70620727539062 C 90.94015502929688 26.10988616943359 87.55089569091797 21.08322143554688 83.23355865478516 16.76588439941406 C 78.91621398925781 12.44854736328125 73.88955688476562 9.059288024902344 68.293212890625 6.692222595214844 C 62.50078582763672 4.242240905761719 56.34597015380859 2.999992370605469 49.99972534179688 2.999992370605469 M 49.99972534179688 -7.62939453125e-06 C 77.61381530761719 -7.62939453125e-06 99.99945068359375 22.3856201171875 99.99945068359375 49.99969863891602 L 99.99945068359375 50.00028610229492 C 99.99945068359375 77.61436462402344 77.61381530761719 99.99997711181641 49.99972534179688 99.99997711181641 C 22.38563537597656 99.99997711181641 0 77.61436462402344 0 50.00028610229492 L 0 49.99969863891602 C 0 22.3856201171875 22.38563537597656 -7.62939453125e-06 49.99972534179688 -7.62939453125e-06 Z" stroke="none" fill="#fff"/>
            </g>
          </g>
          <g id="Trazado_874923" data-name="Trazado 874923" transform="translate(0 0)" fill="none">
            <path d="M50,0a50,50,0,0,1,50,50h0A50,50,0,0,1,0,50H0A50,50,0,0,1,50,0Z" stroke="none"/>
            <path d="M 49.99972534179688 2.999992370605469 C 43.65348052978516 2.999992370605469 37.49866485595703 4.242240905761719 31.70623016357422 6.692222595214844 C 26.10989379882812 9.059288024902344 21.08323669433594 12.44854736328125 16.76589202880859 16.76588439941406 C 12.44855499267578 21.08322143554688 9.059295654296875 26.10988616943359 6.692230224609375 31.70620727539062 C 4.24224853515625 37.49863815307617 3 43.6534538269043 3 50.00028610229492 C 3 56.34653091430664 4.24224853515625 62.50134658813477 6.692230224609375 68.29376220703125 C 9.059295654296875 73.89009857177734 12.44855499267578 78.916748046875 16.76589202880859 83.23408508300781 C 21.08323669433594 87.55142211914062 26.10989379882812 90.94070434570312 31.70623016357422 93.30774688720703 C 37.49866485595703 95.75772857666016 43.65348052978516 96.99997711181641 49.99972534179688 96.99997711181641 C 56.34597015380859 96.99997711181641 62.50078582763672 95.75772857666016 68.293212890625 93.30774688720703 C 73.88955688476562 90.94070434570312 78.91621398925781 87.55142211914062 83.23355865478516 83.23408508300781 C 87.55089569091797 78.916748046875 90.94015502929688 73.89009857177734 93.30722045898438 68.29376220703125 C 95.7572021484375 62.50134658813477 96.99945068359375 56.34653091430664 96.99945068359375 49.99969863891602 C 96.99945068359375 43.6534538269043 95.7572021484375 37.49863815307617 93.30722045898438 31.70620727539062 C 90.94015502929688 26.10988616943359 87.55089569091797 21.08322143554688 83.23355865478516 16.76588439941406 C 78.91621398925781 12.44854736328125 73.88955688476562 9.059288024902344 68.293212890625 6.692222595214844 C 62.50078582763672 4.242240905761719 56.34597015380859 2.999992370605469 49.99972534179688 2.999992370605469 M 49.99972534179688 -7.62939453125e-06 C 77.61381530761719 -7.62939453125e-06 99.99945068359375 22.3856201171875 99.99945068359375 49.99969863891602 L 99.99945068359375 50.00028610229492 C 99.99945068359375 77.61436462402344 77.61381530761719 99.99997711181641 49.99972534179688 99.99997711181641 C 22.38563537597656 99.99997711181641 0 77.61436462402344 0 50.00028610229492 L 0 49.99969863891602 C 0 22.3856201171875 22.38563537597656 -7.62939453125e-06 49.99972534179688 -7.62939453125e-06 Z" stroke="none" fill="#fff"/>
          </g>
        </g>
      </g>
    </g>
    <g id="_20-location" data-name="20-location" transform="translate(-6845.927 -5561.298)">
      <path id="Trazado_905642" data-name="Trazado 905642" d="M38.45,45.06,46,63H32V49a5.725,5.725,0,0,0,3.69-1.35,36.123,36.123,0,0,0,2.76-2.59Z" fill="#006837"/>
      <path id="Trazado_905643" data-name="Trazado 905643" d="M32,49V63H18l7.55-17.94a36.123,36.123,0,0,0,2.76,2.59A5.725,5.725,0,0,0,32,49Z" fill="#39b54a"/>
      <path id="Trazado_905644" data-name="Trazado 905644" d="M25.55,45.06,18,63H4L17,41h5.19a34.4,34.4,0,0,0,3.36,4.06Z" fill="#006837"/>
      <path id="Trazado_905645" data-name="Trazado 905645" d="M17,41,4,63H1V48l8-7Z" fill="#39b54a"/>
      <path id="Trazado_905646" data-name="Trazado 905646" d="M9,41,1,48V41Z" fill="#006837"/>
      <path id="Trazado_905647" data-name="Trazado 905647" d="M22.19,41H1V37H19.7a35.428,35.428,0,0,0,2.49,4Z" fill="#8cc63f"/>
      <path id="Trazado_905648" data-name="Trazado 905648" d="M40,16v7H36V18H28v5H24V16l8-6Z" fill="#a67c52"/>
      <path id="Trazado_905649" data-name="Trazado 905649" d="M28,18h8v5H28Z" fill="#914336"/>
      <path id="Trazado_905650" data-name="Trazado 905650" d="M49,18a39.979,39.979,0,0,1-4.7,19,35.427,35.427,0,0,1-2.49,4,34.4,34.4,0,0,1-3.36,4.06,36.123,36.123,0,0,1-2.76,2.59,5.718,5.718,0,0,1-7.38,0,36.122,36.122,0,0,1-2.76-2.59A34.4,34.4,0,0,1,22.19,41a35.428,35.428,0,0,1-2.49-4A39.979,39.979,0,0,1,15,18a17,17,0,0,1,34,0Zm-4,0A13,13,0,1,0,32,31,13,13,0,0,0,45,18Z" fill="#ea3d53"/>
      <path id="Trazado_905651" data-name="Trazado 905651" d="M49,18A17,17,0,0,0,32,1c-.5,0-1,.032-1.494.075A16.993,16.993,0,0,1,46.012,18a39.979,39.979,0,0,1-4.7,19,35.429,35.429,0,0,1-2.49,4,34.4,34.4,0,0,1-3.36,4.06,36.124,36.124,0,0,1-2.76,2.59,5.7,5.7,0,0,1-2.2,1.128A5.655,5.655,0,0,0,32,49a5.725,5.725,0,0,0,3.69-1.35,36.123,36.123,0,0,0,2.76-2.59A34.4,34.4,0,0,0,41.81,41a35.427,35.427,0,0,0,2.49-4A39.979,39.979,0,0,0,49,18Z" fill="#b02e3e"/>
      <path id="Trazado_905652" data-name="Trazado 905652" d="M15,18A17,17,0,0,1,32,1c.5,0,1,.032,1.494.075A16.993,16.993,0,0,0,17.988,18a39.979,39.979,0,0,0,4.7,19,35.427,35.427,0,0,0,2.49,4,34.4,34.4,0,0,0,3.36,4.06,36.122,36.122,0,0,0,2.76,2.59,5.7,5.7,0,0,0,2.2,1.128A5.655,5.655,0,0,1,32,49a5.725,5.725,0,0,1-3.69-1.35,36.123,36.123,0,0,1-2.76-2.59A34.4,34.4,0,0,1,22.19,41a35.429,35.429,0,0,1-2.49-4A39.979,39.979,0,0,1,15,18Z" fill="#ee6475"/>
      <path id="Trazado_905653" data-name="Trazado 905653" d="M63,37v4H41.81a35.429,35.429,0,0,0,2.49-4Z" fill="#8cc63f"/>
      <path id="Trazado_905654" data-name="Trazado 905654" d="M63,41v7l-8-7Z" fill="#39b54a"/>
      <path id="Trazado_905655" data-name="Trazado 905655" d="M63,48V63H60L47,41h8Z" fill="#006837"/>
      <path id="Trazado_905656" data-name="Trazado 905656" d="M47,41,60,63H46L38.45,45.06A34.4,34.4,0,0,0,41.81,41Z" fill="#39b54a"/>
      <g id="Grupo_1179037" data-name="Grupo 1179037">
        <path id="Trazado_905657" data-name="Trazado 905657" d="M40,24a1,1,0,0,0,1-1V16a1,1,0,0,0-.4-.8l-8-6a1,1,0,0,0-1.2,0l-8,6a1,1,0,0,0-.4.8v7a1,1,0,0,0,1,1Zm-5-2H29V19h6ZM25,16.5l7-5.25,7,5.25V22H37V18a1,1,0,0,0-1-1H28a1,1,0,0,0-1,1v4H25Z" fill="#202020"/>
        <path id="Trazado_905658" data-name="Trazado 905658" d="M32,32A14,14,0,1,0,18,18,14,14,0,0,0,32,32ZM32,6A12,12,0,1,1,20,18,12,12,0,0,1,32,6Z" fill="#202020"/>
        <path id="Trazado_905659" data-name="Trazado 905659" d="M63,36H45.92A40.546,40.546,0,0,0,50,18a18,18,0,1,0-36-.053A40.577,40.577,0,0,0,18.08,36H1a1,1,0,0,0-1,1V63a1,1,0,0,0,1,1H63a1,1,0,0,0,1-1V37A1,1,0,0,0,63,36Zm-1,9.8L57.662,42H62ZM62,40H43.683q.628-.981,1.194-2H62ZM46.664,62,39.622,45.266A35.413,35.413,0,0,0,42.317,42h4.112L58.248,62ZM5.752,62,17.571,42H21.7a35.661,35.661,0,0,0,2.686,3.254L17.336,62ZM25.9,46.811c.556.534,1.134,1.066,1.767,1.6A6.721,6.721,0,0,0,31,49.911V62H19.506Zm7.1,3.1a6.725,6.725,0,0,0,3.337-1.5c.632-.537,1.21-1.068,1.765-1.6L44.494,62H33ZM16,18a16,16,0,1,1,32,.053,39.2,39.2,0,0,1-4.583,18.475,34.352,34.352,0,0,1-2.425,3.9,33.628,33.628,0,0,1-3.265,3.944,34.737,34.737,0,0,1-2.682,2.517,4.841,4.841,0,0,1-6.087,0,34.694,34.694,0,0,1-2.688-2.522A33.626,33.626,0,0,1,23,40.416a34.32,34.32,0,0,1-2.42-3.888A39.362,39.362,0,0,1,16,18ZM2,38H19.123q.567,1.02,1.2,2H2Zm0,4H6.338L2,45.8Zm0,6.454L9.376,42h5.872L3.429,62H2ZM60.571,62,48.752,42h5.872L62,48.454V62Z" fill="#202020"/>
      </g>
    </g>
  </g>
</svg>
