<svg xmlns="http://www.w3.org/2000/svg" xmlns:xlink="http://www.w3.org/1999/xlink" width="118" height="118" viewBox="0 0 118 118">
  <defs>
    <filter id="Trazado_874925" x="0" y="0" width="118" height="118" filterUnits="userSpaceOnUse">
      <feOffset dy="3" input="SourceAlpha"/>
      <feGaussianBlur stdDeviation="3" result="blur"/>
      <feFlood flood-opacity="0.161"/>
      <feComposite operator="in" in2="blur"/>
      <feComposite in="SourceGraphic"/>
    </filter>
  </defs>
  <g id="Grupo_1179048" data-name="Grupo 1179048" transform="translate(6539 5585.312)">
    <g id="Grupo_1178646" data-name="Grupo 1178646" transform="translate(-7338.5 -7531.522)">
      <g id="Grupo_1109835" data-name="Grupo 1109835" transform="translate(808.5 1952.211)">
        <g id="Grupo_1107913" data-name="Grupo 1107913" transform="translate(0 0)">
          <g transform="matrix(1, 0, 0, 1, -9, -6)" filter="url(#Trazado_874925)">
            <g id="Trazado_874925-2" data-name="Trazado 874925" transform="translate(9 6)" fill="#f3d82a" opacity="0.859">
              <path d="M 49.99972534179688 98.49999237060547 C 43.45164108276367 98.49999237060547 37.10022354125977 97.21788024902344 31.12189674377441 94.68926239013672 C 25.34676742553711 92.24658966064453 20.15985298156738 88.74936676025391 15.70523929595947 84.29476165771484 C 11.25062561035156 79.84014892578125 7.753411293029785 74.65323638916016 5.310725212097168 68.87808990478516 C 2.782111167907715 62.89977645874023 1.499996781349182 56.54836273193359 1.499996781349182 50.00027847290039 C 1.499996781349182 43.45162200927734 2.782111167907715 37.1002197265625 5.310725212097168 31.12189292907715 C 7.753411293029785 25.34676361083984 11.25062561035156 20.15984916687012 15.70523929595947 15.70523548126221 C 20.15985298156738 11.25063514709473 25.34676742553711 7.753406524658203 31.12189674377441 5.31073522567749 C 37.10022354125977 2.782120943069458 43.45164108276367 1.500006675720215 49.99972534179688 1.500006675720215 C 56.54780960083008 1.500006675720215 62.89922714233398 2.782120943069458 68.87755584716797 5.31073522567749 C 74.65267944335938 7.753406524658203 79.839599609375 11.25063514709473 84.29421234130859 15.70523548126221 C 88.74882507324219 20.15984916687012 92.24604034423828 25.34676361083984 94.68872833251953 31.12189292907715 C 97.21733856201172 37.1002197265625 98.49945068359375 43.45162200927734 98.49945068359375 49.99970626831055 C 98.49945068359375 56.54836273193359 97.21733856201172 62.89977645874023 94.68872833251953 68.87808990478516 C 92.24604034423828 74.65323638916016 88.74882507324219 79.84014892578125 84.29421234130859 84.29476165771484 C 79.839599609375 88.74936676025391 74.65267944335938 92.24658966064453 68.87755584716797 94.68926239013672 C 62.89922714233398 97.21788024902344 56.54780960083008 98.49999237060547 49.99972534179688 98.49999237060547 Z" stroke="none"/>
              <path d="M 49.99972534179688 2.999992370605469 C 43.65348052978516 2.999992370605469 37.49866485595703 4.242240905761719 31.70623016357422 6.692222595214844 C 26.10989379882812 9.059288024902344 21.08323669433594 12.44854736328125 16.76589202880859 16.76588439941406 C 12.44855499267578 21.08322143554688 9.059295654296875 26.10988616943359 6.692230224609375 31.70620727539062 C 4.24224853515625 37.49863815307617 3 43.6534538269043 3 50.00028610229492 C 3 56.34653091430664 4.24224853515625 62.50134658813477 6.692230224609375 68.29376220703125 C 9.059295654296875 73.89009857177734 12.44855499267578 78.916748046875 16.76589202880859 83.23408508300781 C 21.08323669433594 87.55142211914062 26.10989379882812 90.94070434570312 31.70623016357422 93.30774688720703 C 37.49866485595703 95.75772857666016 43.65348052978516 96.99997711181641 49.99972534179688 96.99997711181641 C 56.34597015380859 96.99997711181641 62.50078582763672 95.75772857666016 68.293212890625 93.30774688720703 C 73.88955688476562 90.94070434570312 78.91621398925781 87.55142211914062 83.23355865478516 83.23408508300781 C 87.55089569091797 78.916748046875 90.94015502929688 73.89009857177734 93.30722045898438 68.29376220703125 C 95.7572021484375 62.50134658813477 96.99945068359375 56.34653091430664 96.99945068359375 49.99969863891602 C 96.99945068359375 43.6534538269043 95.7572021484375 37.49863815307617 93.30722045898438 31.70620727539062 C 90.94015502929688 26.10988616943359 87.55089569091797 21.08322143554688 83.23355865478516 16.76588439941406 C 78.91621398925781 12.44854736328125 73.88955688476562 9.059288024902344 68.293212890625 6.692222595214844 C 62.50078582763672 4.242240905761719 56.34597015380859 2.999992370605469 49.99972534179688 2.999992370605469 M 49.99972534179688 -7.62939453125e-06 C 77.61381530761719 -7.62939453125e-06 99.99945068359375 22.3856201171875 99.99945068359375 49.99969863891602 L 99.99945068359375 50.00028610229492 C 99.99945068359375 77.61436462402344 77.61381530761719 99.99997711181641 49.99972534179688 99.99997711181641 C 22.38563537597656 99.99997711181641 0 77.61436462402344 0 50.00028610229492 L 0 49.99969863891602 C 0 22.3856201171875 22.38563537597656 -7.62939453125e-06 49.99972534179688 -7.62939453125e-06 Z" stroke="none" fill="#fff"/>
            </g>
          </g>
          <g id="Trazado_874923" data-name="Trazado 874923" transform="translate(0 0)" fill="none">
            <path d="M50,0a50,50,0,0,1,50,50h0A50,50,0,0,1,0,50H0A50,50,0,0,1,50,0Z" stroke="none"/>
            <path d="M 49.99972534179688 2.999992370605469 C 43.65348052978516 2.999992370605469 37.49866485595703 4.242240905761719 31.70623016357422 6.692222595214844 C 26.10989379882812 9.059288024902344 21.08323669433594 12.44854736328125 16.76589202880859 16.76588439941406 C 12.44855499267578 21.08322143554688 9.059295654296875 26.10988616943359 6.692230224609375 31.70620727539062 C 4.24224853515625 37.49863815307617 3 43.6534538269043 3 50.00028610229492 C 3 56.34653091430664 4.24224853515625 62.50134658813477 6.692230224609375 68.29376220703125 C 9.059295654296875 73.89009857177734 12.44855499267578 78.916748046875 16.76589202880859 83.23408508300781 C 21.08323669433594 87.55142211914062 26.10989379882812 90.94070434570312 31.70623016357422 93.30774688720703 C 37.49866485595703 95.75772857666016 43.65348052978516 96.99997711181641 49.99972534179688 96.99997711181641 C 56.34597015380859 96.99997711181641 62.50078582763672 95.75772857666016 68.293212890625 93.30774688720703 C 73.88955688476562 90.94070434570312 78.91621398925781 87.55142211914062 83.23355865478516 83.23408508300781 C 87.55089569091797 78.916748046875 90.94015502929688 73.89009857177734 93.30722045898438 68.29376220703125 C 95.7572021484375 62.50134658813477 96.99945068359375 56.34653091430664 96.99945068359375 49.99969863891602 C 96.99945068359375 43.6534538269043 95.7572021484375 37.49863815307617 93.30722045898438 31.70620727539062 C 90.94015502929688 26.10988616943359 87.55089569091797 21.08322143554688 83.23355865478516 16.76588439941406 C 78.91621398925781 12.44854736328125 73.88955688476562 9.059288024902344 68.293212890625 6.692222595214844 C 62.50078582763672 4.242240905761719 56.34597015380859 2.999992370605469 49.99972534179688 2.999992370605469 M 49.99972534179688 -7.62939453125e-06 C 77.61381530761719 -7.62939453125e-06 99.99945068359375 22.3856201171875 99.99945068359375 49.99969863891602 L 99.99945068359375 50.00028610229492 C 99.99945068359375 77.61436462402344 77.61381530761719 99.99997711181641 49.99972534179688 99.99997711181641 C 22.38563537597656 99.99997711181641 0 77.61436462402344 0 50.00028610229492 L 0 49.99969863891602 C 0 22.3856201171875 22.38563537597656 -7.62939453125e-06 49.99972534179688 -7.62939453125e-06 Z" stroke="none" fill="#fff"/>
          </g>
        </g>
      </g>
    </g>
    <g id="add-task_12692379" transform="translate(-6567.79 -5566.829)">
      <g id="Grupo_1179045" data-name="Grupo 1179045" transform="translate(64.06 7.5)">
        <g id="Grupo_1179044" data-name="Grupo 1179044" transform="translate(0 0)">
          <g id="Grupo_1179042" data-name="Grupo 1179042">
            <path id="Trazado_905660" data-name="Trazado 905660" d="M90.071,80.373a11.656,11.656,0,0,1,17.451-10.118V34.4a3.221,3.221,0,0,0-3.221-3.221H67.281A3.221,3.221,0,0,0,64.06,34.4V85.311a3.221,3.221,0,0,0,3.221,3.221H93.409A11.621,11.621,0,0,1,90.071,80.373Z" transform="translate(-64.06 -28.127)" fill="#e2dee2"/>
            <path id="Trazado_905661" data-name="Trazado 905661" d="M342.358,31.178h-5.033v37.8a11.653,11.653,0,0,1,8.254,1.28V34.4A3.221,3.221,0,0,0,342.358,31.178Z" transform="translate(-302.117 -28.127)" fill="#cbc4cc"/>
            <g id="Grupo_1179039" data-name="Grupo 1179039" transform="translate(0 51.601)">
              <path id="Trazado_905662" data-name="Trazado 905662" d="M90.089,408H64.06v5.582a3.221,3.221,0,0,0,3.221,3.221H93.409a11.621,11.621,0,0,1-3.339-8.159C90.071,408.428,90.077,408.213,90.089,408Z" transform="translate(-64.06 -408)" fill="#cbc4cc"/>
            </g>
            <path id="Trazado_905663" data-name="Trazado 905663" d="M122.158,112.46a11.673,11.673,0,0,1,11.66-11.66c.352,0,.7.017,1.045.047V68.655a.644.644,0,0,0-.644-.644H101.537a.644.644,0,0,0-.644.644v46.574a.644.644,0,0,0,.644.644h21.131A11.624,11.624,0,0,1,122.158,112.46Z" transform="translate(-96.147 -60.215)" fill="#fff"/>
            <g id="Grupo_1179041" data-name="Grupo 1179041" transform="translate(4.746 7.796)">
              <g id="Grupo_1179040" data-name="Grupo 1179040">
                <path id="Trazado_905664" data-name="Trazado 905664" d="M340.188,68.011h-2.864v33.051a11.658,11.658,0,0,1,2.463-.263c.352,0,.7.017,1.045.047V68.655A.644.644,0,0,0,340.188,68.011Z" transform="translate(-306.862 -68.011)" fill="#f3f0f3"/>
                <path id="Trazado_905665" data-name="Trazado 905665" d="M122.176,408H100.893v3.414a.644.644,0,0,0,.644.644h21.131a11.621,11.621,0,0,1-.51-3.414C122.158,408.428,122.164,408.213,122.176,408Z" transform="translate(-100.893 -364.195)" fill="#f3f0f3"/>
              </g>
            </g>
            <path id="Trazado_905666" data-name="Trazado 905666" d="M204.632,15.425V12.376A4.876,4.876,0,0,0,199.756,7.5h0a4.876,4.876,0,0,0-4.876,4.876v3.049Z" transform="translate(-178.025 -7.5)" fill="#ffd15b"/>
            <path id="Trazado_905667" data-name="Trazado 905667" d="M201.724,10.721v3.323a1.288,1.288,0,0,1-1.288,1.288H194.88v2.9h9.752V15.182A4.876,4.876,0,0,0,201.724,10.721Z" transform="translate(-178.025 -10.306)" fill="#ffc344"/>
            <path id="Trazado_905668" data-name="Trazado 905668" d="M176.752,73.706H160.346a1.288,1.288,0,0,1-1.288-1.288V68.011H178.04v4.406A1.288,1.288,0,0,1,176.752,73.706Z" transform="translate(-146.818 -60.215)" fill="#ffe177"/>
            <path id="Trazado_905669" data-name="Trazado 905669" d="M175.2,68.011v2.215a.644.644,0,0,1-.644.644h-15.5v1.548a1.288,1.288,0,0,0,1.288,1.288h16.405a1.288,1.288,0,0,0,1.288-1.288V68.011Z" transform="translate(-146.817 -60.215)" fill="#ffd15b"/>
            <path id="Trazado_905670" data-name="Trazado 905670" d="M156.265,167.877h-6.033a.644.644,0,0,1-.644-.644V161.2a.644.644,0,0,1,.644-.644h6.033a.644.644,0,0,1,.644.644v6.033A.644.644,0,0,1,156.265,167.877Z" transform="translate(-138.568 -140.835)" fill="#fe646f"/>
            <path id="Trazado_905671" data-name="Trazado 905671" d="M156.264,160.554H154.02v3.794a.644.644,0,0,1-.644.644h-3.79v2.24a.644.644,0,0,0,.644.644h6.033a.644.644,0,0,0,.644-.644V161.2A.644.644,0,0,0,156.264,160.554Z" transform="translate(-138.567 -140.834)" fill="#fd4755"/>
          </g>
          <g id="Grupo_1179043" data-name="Grupo 1179043" transform="translate(25.882 40.456)">
            <circle id="Elipse_11617" data-name="Elipse 11617" cx="11.789" cy="11.789" r="11.789" fill="#26a6fe"/>
            <path id="Trazado_905672" data-name="Trazado 905672" d="M304.558,325.777a11.792,11.792,0,0,1-11.772,19.706,11.79,11.79,0,1,0,11.772-19.706Z" transform="translate(-289.198 -325.226)" fill="#0593fc"/>
          </g>
        </g>
      </g>
      <g id="Grupo_1179047" data-name="Grupo 1179047" transform="translate(64.06 7.5)">
        <path id="Trazado_905673" data-name="Trazado 905673" d="M81.27,31.178H67.281A3.221,3.221,0,0,0,64.06,34.4V69.808" transform="translate(-64.06 -28.127)" fill="none" stroke="#000" stroke-linecap="round" stroke-linejoin="round" stroke-miterlimit="10" stroke-width="1"/>
        <path id="Trazado_905674" data-name="Trazado 905674" d="M285.025,70.1V34.4a3.221,3.221,0,0,0-3.221-3.221H267.815" transform="translate(-241.563 -28.127)" fill="none" stroke="#000" stroke-linejoin="round" stroke-miterlimit="10" stroke-width="1"/>
        <path id="Trazado_905675" data-name="Trazado 905675" d="M64.06,366v10.994a3.221,3.221,0,0,0,3.221,3.221H93.222" transform="translate(-64.06 -319.81)" fill="none" stroke="#000" stroke-linecap="round" stroke-linejoin="round" stroke-miterlimit="10" stroke-width="1"/>
        <path id="Trazado_905676" data-name="Trazado 905676" d="M204.632,15.3V12.376A4.876,4.876,0,0,0,199.756,7.5h0a4.876,4.876,0,0,0-4.876,4.876V15.3Z" transform="translate(-178.025 -7.5)" fill="none" stroke="#000" stroke-linecap="round" stroke-linejoin="round" stroke-miterlimit="10" stroke-width="1"/>
        <path id="Trazado_905677" data-name="Trazado 905677" d="M176.752,73.706H160.346a1.288,1.288,0,0,1-1.288-1.288V68.011H178.04v4.406A1.288,1.288,0,0,1,176.752,73.706Z" transform="translate(-146.818 -60.215)" fill="none" stroke="#000" stroke-linecap="round" stroke-linejoin="round" stroke-miterlimit="10" stroke-width="1"/>
        <line id="Línea_567" data-name="Línea 567" x2="9.627" transform="translate(22.951 20.872)" fill="none" stroke="#000" stroke-linecap="round" stroke-linejoin="round" stroke-miterlimit="10" stroke-width="1"/>
        <line id="Línea_568" data-name="Línea 568" x2="9.627" transform="translate(22.951 25.889)" fill="none" stroke="#000" stroke-linecap="round" stroke-linejoin="round" stroke-miterlimit="10" stroke-width="1"/>
        <line id="Línea_569" data-name="Línea 569" x2="21.559" transform="translate(11.019 36.224)" fill="none" stroke="#000" stroke-linecap="round" stroke-linejoin="round" stroke-miterlimit="10" stroke-width="1"/>
        <line id="Línea_570" data-name="Línea 570" x2="14.741" transform="translate(11.019 41.241)" fill="none" stroke="#000" stroke-linecap="round" stroke-linejoin="round" stroke-miterlimit="10" stroke-width="1"/>
        <line id="Línea_571" data-name="Línea 571" x2="11.932" transform="translate(11.019 46.257)" fill="none" stroke="#000" stroke-linecap="round" stroke-linejoin="round" stroke-miterlimit="10" stroke-width="1"/>
        <path id="Trazado_905678" data-name="Trazado 905678" d="M266.776,326.968a11.79,11.79,0,1,0,3.1-3.275" transform="translate(-239.058 -281.044)" fill="none" stroke="#000" stroke-linecap="round" stroke-linejoin="round" stroke-miterlimit="10" stroke-width="1"/>
        <g id="Grupo_1179046" data-name="Grupo 1179046" transform="translate(32.253 46.828)">
          <line id="Línea_572" data-name="Línea 572" y2="10.835" transform="translate(5.417)" fill="none" stroke="#000" stroke-linecap="round" stroke-linejoin="round" stroke-miterlimit="10" stroke-width="1"/>
          <line id="Línea_573" data-name="Línea 573" x1="10.835" transform="translate(0 5.417)" fill="none" stroke="#000" stroke-linecap="round" stroke-linejoin="round" stroke-miterlimit="10" stroke-width="1"/>
        </g>
        <path id="Trazado_905679" data-name="Trazado 905679" d="M156.265,167.877h-6.033a.644.644,0,0,1-.644-.644V161.2a.644.644,0,0,1,.644-.644h6.033a.644.644,0,0,1,.644.644v6.033A.644.644,0,0,1,156.265,167.877Z" transform="translate(-138.568 -140.835)" fill="none" stroke="#000" stroke-linecap="round" stroke-linejoin="round" stroke-miterlimit="10" stroke-width="1"/>
        <path id="Trazado_905680" data-name="Trazado 905680" d="M134.863,80.765V68.655a.644.644,0,0,0-.644-.644H101.537a.644.644,0,0,0-.644.644v46.574a.644.644,0,0,0,.644.644h20.995" transform="translate(-96.147 -60.215)" fill="none" stroke="#000" stroke-linecap="round" stroke-linejoin="round" stroke-miterlimit="10" stroke-width="1"/>
        <line id="Línea_574" data-name="Línea 574" y1="15.443" transform="translate(38.716 25.06)" fill="none" stroke="#000" stroke-linecap="round" stroke-linejoin="round" stroke-miterlimit="10" stroke-width="1"/>
        <line id="Línea_575" data-name="Línea 575" x2="21.559" transform="translate(11.019 31.207)" fill="none" stroke="#000" stroke-linecap="round" stroke-linejoin="round" stroke-miterlimit="10" stroke-width="1"/>
      </g>
    </g>
  </g>
</svg>
