<svg xmlns="http://www.w3.org/2000/svg" xmlns:xlink="http://www.w3.org/1999/xlink" width="118" height="118" viewBox="0 0 118 118">
  <defs>
    <filter id="Trazado_874925" x="0" y="0" width="118" height="118" filterUnits="userSpaceOnUse">
      <feOffset dy="3" input="SourceAlpha"/>
      <feGaussianBlur stdDeviation="3" result="blur"/>
      <feFlood flood-opacity="0.161"/>
      <feComposite operator="in" in2="blur"/>
      <feComposite in="SourceGraphic"/>
    </filter>
  </defs>
  <g id="Grupo_1179050" data-name="Grupo 1179050" transform="translate(6873 5180.312)">
    <g id="Grupo_1178647" data-name="Grupo 1178647" transform="translate(-7672.5 -7126.522)">
      <g id="Grupo_1109835" data-name="Grupo 1109835" transform="translate(808.5 1952.211)">
        <g id="Grupo_1107913" data-name="Grupo 1107913" transform="translate(0 0)">
          <g transform="matrix(1, 0, 0, 1, -9, -6)" filter="url(#Trazado_874925)">
            <g id="Trazado_874925-2" data-name="Trazado 874925" transform="translate(9 6)" fill="#f3d82a" opacity="0.859">
              <path d="M 49.99972534179688 98.49999237060547 C 43.45164108276367 98.49999237060547 37.10022354125977 97.21788024902344 31.12189674377441 94.68926239013672 C 25.34676742553711 92.24658966064453 20.15985298156738 88.74936676025391 15.70523929595947 84.29476165771484 C 11.25062561035156 79.84014892578125 7.753411293029785 74.65323638916016 5.310725212097168 68.87808990478516 C 2.782111167907715 62.89977645874023 1.499996781349182 56.54836273193359 1.499996781349182 50.00027847290039 C 1.499996781349182 43.45162200927734 2.782111167907715 37.1002197265625 5.310725212097168 31.12189292907715 C 7.753411293029785 25.34676361083984 11.25062561035156 20.15984916687012 15.70523929595947 15.70523548126221 C 20.15985298156738 11.25063514709473 25.34676742553711 7.753406524658203 31.12189674377441 5.31073522567749 C 37.10022354125977 2.782120943069458 43.45164108276367 1.500006675720215 49.99972534179688 1.500006675720215 C 56.54780960083008 1.500006675720215 62.89922714233398 2.782120943069458 68.87755584716797 5.31073522567749 C 74.65267944335938 7.753406524658203 79.839599609375 11.25063514709473 84.29421234130859 15.70523548126221 C 88.74882507324219 20.15984916687012 92.24604034423828 25.34676361083984 94.68872833251953 31.12189292907715 C 97.21733856201172 37.1002197265625 98.49945068359375 43.45162200927734 98.49945068359375 49.99970626831055 C 98.49945068359375 56.54836273193359 97.21733856201172 62.89977645874023 94.68872833251953 68.87808990478516 C 92.24604034423828 74.65323638916016 88.74882507324219 79.84014892578125 84.29421234130859 84.29476165771484 C 79.839599609375 88.74936676025391 74.65267944335938 92.24658966064453 68.87755584716797 94.68926239013672 C 62.89922714233398 97.21788024902344 56.54780960083008 98.49999237060547 49.99972534179688 98.49999237060547 Z" stroke="none"/>
              <path d="M 49.99972534179688 2.999992370605469 C 43.65348052978516 2.999992370605469 37.49866485595703 4.242240905761719 31.70623016357422 6.692222595214844 C 26.10989379882812 9.059288024902344 21.08323669433594 12.44854736328125 16.76589202880859 16.76588439941406 C 12.44855499267578 21.08322143554688 9.059295654296875 26.10988616943359 6.692230224609375 31.70620727539062 C 4.24224853515625 37.49863815307617 3 43.6534538269043 3 50.00028610229492 C 3 56.34653091430664 4.24224853515625 62.50134658813477 6.692230224609375 68.29376220703125 C 9.059295654296875 73.89009857177734 12.44855499267578 78.916748046875 16.76589202880859 83.23408508300781 C 21.08323669433594 87.55142211914062 26.10989379882812 90.94070434570312 31.70623016357422 93.30774688720703 C 37.49866485595703 95.75772857666016 43.65348052978516 96.99997711181641 49.99972534179688 96.99997711181641 C 56.34597015380859 96.99997711181641 62.50078582763672 95.75772857666016 68.293212890625 93.30774688720703 C 73.88955688476562 90.94070434570312 78.91621398925781 87.55142211914062 83.23355865478516 83.23408508300781 C 87.55089569091797 78.916748046875 90.94015502929688 73.89009857177734 93.30722045898438 68.29376220703125 C 95.7572021484375 62.50134658813477 96.99945068359375 56.34653091430664 96.99945068359375 49.99969863891602 C 96.99945068359375 43.6534538269043 95.7572021484375 37.49863815307617 93.30722045898438 31.70620727539062 C 90.94015502929688 26.10988616943359 87.55089569091797 21.08322143554688 83.23355865478516 16.76588439941406 C 78.91621398925781 12.44854736328125 73.88955688476562 9.059288024902344 68.293212890625 6.692222595214844 C 62.50078582763672 4.242240905761719 56.34597015380859 2.999992370605469 49.99972534179688 2.999992370605469 M 49.99972534179688 -7.62939453125e-06 C 77.61381530761719 -7.62939453125e-06 99.99945068359375 22.3856201171875 99.99945068359375 49.99969863891602 L 99.99945068359375 50.00028610229492 C 99.99945068359375 77.61436462402344 77.61381530761719 99.99997711181641 49.99972534179688 99.99997711181641 C 22.38563537597656 99.99997711181641 0 77.61436462402344 0 50.00028610229492 L 0 49.99969863891602 C 0 22.3856201171875 22.38563537597656 -7.62939453125e-06 49.99972534179688 -7.62939453125e-06 Z" stroke="none" fill="#fff"/>
            </g>
          </g>
          <g id="Trazado_874923" data-name="Trazado 874923" transform="translate(0 0)" fill="none">
            <path d="M50,0a50,50,0,0,1,50,50h0A50,50,0,0,1,0,50H0A50,50,0,0,1,50,0Z" stroke="none"/>
            <path d="M 49.99972534179688 2.999992370605469 C 43.65348052978516 2.999992370605469 37.49866485595703 4.242240905761719 31.70623016357422 6.692222595214844 C 26.10989379882812 9.059288024902344 21.08323669433594 12.44854736328125 16.76589202880859 16.76588439941406 C 12.44855499267578 21.08322143554688 9.059295654296875 26.10988616943359 6.692230224609375 31.70620727539062 C 4.24224853515625 37.49863815307617 3 43.6534538269043 3 50.00028610229492 C 3 56.34653091430664 4.24224853515625 62.50134658813477 6.692230224609375 68.29376220703125 C 9.059295654296875 73.89009857177734 12.44855499267578 78.916748046875 16.76589202880859 83.23408508300781 C 21.08323669433594 87.55142211914062 26.10989379882812 90.94070434570312 31.70623016357422 93.30774688720703 C 37.49866485595703 95.75772857666016 43.65348052978516 96.99997711181641 49.99972534179688 96.99997711181641 C 56.34597015380859 96.99997711181641 62.50078582763672 95.75772857666016 68.293212890625 93.30774688720703 C 73.88955688476562 90.94070434570312 78.91621398925781 87.55142211914062 83.23355865478516 83.23408508300781 C 87.55089569091797 78.916748046875 90.94015502929688 73.89009857177734 93.30722045898438 68.29376220703125 C 95.7572021484375 62.50134658813477 96.99945068359375 56.34653091430664 96.99945068359375 49.99969863891602 C 96.99945068359375 43.6534538269043 95.7572021484375 37.49863815307617 93.30722045898438 31.70620727539062 C 90.94015502929688 26.10988616943359 87.55089569091797 21.08322143554688 83.23355865478516 16.76588439941406 C 78.91621398925781 12.44854736328125 73.88955688476562 9.059288024902344 68.293212890625 6.692222595214844 C 62.50078582763672 4.242240905761719 56.34597015380859 2.999992370605469 49.99972534179688 2.999992370605469 M 49.99972534179688 -7.62939453125e-06 C 77.61381530761719 -7.62939453125e-06 99.99945068359375 22.3856201171875 99.99945068359375 49.99969863891602 L 99.99945068359375 50.00028610229492 C 99.99945068359375 77.61436462402344 77.61381530761719 99.99997711181641 49.99972534179688 99.99997711181641 C 22.38563537597656 99.99997711181641 0 77.61436462402344 0 50.00028610229492 L 0 49.99969863891602 C 0 22.3856201171875 22.38563537597656 -7.62939453125e-06 49.99972534179688 -7.62939453125e-06 Z" stroke="none" fill="#fff"/>
          </g>
        </g>
      </g>
    </g>
    <g id="calendar_7538436" transform="translate(-6846 -5154.321)">
      <circle id="Elipse_11618" data-name="Elipse 11618" cx="22" cy="22" r="22" transform="translate(6 6)" fill="#64dcff"/>
      <path id="Trazado_905681" data-name="Trazado 905681" d="M31,9A22,22,0,0,0,14.016,44.984,22,22,0,0,0,44.984,14.016,21.907,21.907,0,0,0,31,9Z" fill="#82f0ff"/>
      <circle id="Elipse_11619" data-name="Elipse 11619" cx="2" cy="2" r="2" transform="translate(26 26)" fill="#5a6978"/>
      <path id="Trazado_905682" data-name="Trazado 905682" d="M28,2A26,26,0,1,0,54,28,26,26,0,0,0,28,2Zm0,48A22,22,0,1,1,50,28,22,22,0,0,1,28,50Z" fill="#5a6978"/>
      <path id="Trazado_905683" data-name="Trazado 905683" d="M30,4A26,26,0,0,0,10.645,47.355a26,26,0,0,0,36.71-36.71A25.9,25.9,0,0,0,30,4ZM28,50A22,22,0,1,1,50,28,22,22,0,0,1,28,50Z" fill="#4a5660"/>
      <path id="Trazado_905684" data-name="Trazado 905684" d="M37,36H59a3,3,0,0,1,3,3v3H34V39A3,3,0,0,1,37,36Z" fill="#ff786e"/>
      <path id="Trazado_905685" data-name="Trazado 905685" d="M34,42H62V59a3,3,0,0,1-3,3H37a3,3,0,0,1-3-3Z" fill="#f5faff"/>
      <path id="Trazado_905686" data-name="Trazado 905686" d="M61.816,38H39a2,2,0,0,0-2,2v2H62V39a2.962,2.962,0,0,0-.184-1Z" fill="#ff5050"/>
      <path id="Trazado_905687" data-name="Trazado 905687" d="M62,59V42H37V59a3,3,0,0,0,3,3H59a3,3,0,0,0,3-3Z" fill="#e6f0ff"/>
      <g id="Grupo_1179049" data-name="Grupo 1179049">
        <path id="Trazado_905688" data-name="Trazado 905688" d="M38,46h4v4H38Z" fill="#ffbe37"/>
        <path id="Trazado_905689" data-name="Trazado 905689" d="M46,46h4v4H46Z" fill="#ffbe37"/>
        <path id="Trazado_905690" data-name="Trazado 905690" d="M54,46h4v4H54Z" fill="#ffbe37"/>
        <path id="Trazado_905691" data-name="Trazado 905691" d="M38,54h4v4H38Z" fill="#ffbe37"/>
        <path id="Trazado_905692" data-name="Trazado 905692" d="M46,54h4v4H46Z" fill="#ffbe37"/>
        <path id="Trazado_905693" data-name="Trazado 905693" d="M54,54h4v4H54Z" fill="#ffbe37"/>
      </g>
      <path id="Trazado_905694" data-name="Trazado 905694" d="M37.707,30.707l2-2a1,1,0,0,0,0-1.414l-2-2a1,1,0,1,0-1.414,1.414l.293.293h-5.77A3,3,0,0,0,29,25.184v-9.77l.293.293a1,1,0,1,0,1.414-1.414l-2-2a1,1,0,0,0-1.414,0l-2,2a1,1,0,1,0,1.414,1.414L27,15.414v9.77A2.993,2.993,0,1,0,30.816,29h5.77l-.293.293a1,1,0,1,0,1.414,1.414ZM28,29a1,1,0,1,1,1-1A1,1,0,0,1,28,29Z"/>
      <path id="Trazado_905695" data-name="Trazado 905695" d="M59,35H54.06A27.086,27.086,0,1,0,33,54.519V59a4,4,0,0,0,4,4H59a4,4,0,0,0,4-4V39A4,4,0,0,0,59,35ZM33,52.483A25.11,25.11,0,1,1,51.975,35H49.886A23.057,23.057,0,1,0,33,50.437ZM33,39v9.363a20.914,20.914,0,0,1-4,.586V47a1,1,0,0,0-2,0v1.949a20.824,20.824,0,0,1-8.612-2.3l.978-1.7a1,1,0,0,0-1.732-.995l-.977,1.692a21.139,21.139,0,0,1-6.3-6.3l1.692-.977a1,1,0,0,0-1-1.735l-1.7.978A20.824,20.824,0,0,1,7.051,29H9a1,1,0,0,0,0-2H7.051a20.824,20.824,0,0,1,2.3-8.612l1.7.978a1,1,0,0,0,1-1.732l-1.692-.977a21.139,21.139,0,0,1,6.3-6.3l.977,1.692a1,1,0,0,0,1.735-1l-.978-1.7A20.824,20.824,0,0,1,27,7.051V9a1,1,0,0,0,2,0V7.051a20.824,20.824,0,0,1,8.612,2.3l-.978,1.7a1,1,0,0,0,1.732.995l.977-1.692a21.139,21.139,0,0,1,6.3,6.3l-1.692.977a1,1,0,0,0,1,1.735l1.7-.978A20.824,20.824,0,0,1,48.949,27H47a1,1,0,1,0,0,2h1.949a20.835,20.835,0,0,1-1.2,6H37a4,4,0,0,0-4,4ZM61,59a2,2,0,0,1-2,2H37a2,2,0,0,1-2-2V43H61Zm0-18H35V39a2,2,0,0,1,2-2H59a2,2,0,0,1,2,2Z"/>
      <path id="Trazado_905696" data-name="Trazado 905696" d="M38,51h4a1,1,0,0,0,1-1V46a1,1,0,0,0-1-1H38a1,1,0,0,0-1,1v4A1,1,0,0,0,38,51Zm1-4h2v2H39Z"/>
      <path id="Trazado_905697" data-name="Trazado 905697" d="M46,51h4a1,1,0,0,0,1-1V46a1,1,0,0,0-1-1H46a1,1,0,0,0-1,1v4A1,1,0,0,0,46,51Zm1-4h2v2H47Z"/>
      <path id="Trazado_905698" data-name="Trazado 905698" d="M54,51h4a1,1,0,0,0,1-1V46a1,1,0,0,0-1-1H54a1,1,0,0,0-1,1v4A1,1,0,0,0,54,51Zm1-4h2v2H55Z"/>
      <path id="Trazado_905699" data-name="Trazado 905699" d="M38,59h4a1,1,0,0,0,1-1V54a1,1,0,0,0-1-1H38a1,1,0,0,0-1,1v4A1,1,0,0,0,38,59Zm1-4h2v2H39Z"/>
      <path id="Trazado_905700" data-name="Trazado 905700" d="M46,59h4a1,1,0,0,0,1-1V54a1,1,0,0,0-1-1H46a1,1,0,0,0-1,1v4A1,1,0,0,0,46,59Zm1-4h2v2H47Z"/>
      <path id="Trazado_905701" data-name="Trazado 905701" d="M54,59h4a1,1,0,0,0,1-1V54a1,1,0,0,0-1-1H54a1,1,0,0,0-1,1v4A1,1,0,0,0,54,59Zm1-4h2v2H55Z"/>
    </g>
  </g>
</svg>
