<svg xmlns="http://www.w3.org/2000/svg" xmlns:xlink="http://www.w3.org/1999/xlink" width="118" height="118" viewBox="0 0 118 118">
  <defs>
    <filter id="Trazado_874925" x="0" y="0" width="118" height="118" filterUnits="userSpaceOnUse">
      <feOffset dy="3" input="SourceAlpha"/>
      <feGaussianBlur stdDeviation="3" result="blur"/>
      <feFlood flood-opacity="0.161"/>
      <feComposite operator="in" in2="blur"/>
      <feComposite in="SourceGraphic"/>
    </filter>
  </defs>
  <g id="Grupo_1179051" data-name="Grupo 1179051" transform="translate(6539 5180.312)">
    <g id="Grupo_1178648" data-name="Grupo 1178648" transform="translate(-7338.5 -7126.522)">
      <g id="Grupo_1109835" data-name="Grupo 1109835" transform="translate(808.5 1952.211)">
        <g id="Grupo_1107913" data-name="Grupo 1107913" transform="translate(0 0)">
          <g transform="matrix(1, 0, 0, 1, -9, -6)" filter="url(#Trazado_874925)">
            <g id="Trazado_874925-2" data-name="Trazado 874925" transform="translate(9 6)" fill="#f3d82a" opacity="0.859">
              <path d="M 49.99972534179688 98.49999237060547 C 43.45164108276367 98.49999237060547 37.10022354125977 97.21788024902344 31.12189674377441 94.68926239013672 C 25.34676742553711 92.24658966064453 20.15985298156738 88.74936676025391 15.70523929595947 84.29476165771484 C 11.25062561035156 79.84014892578125 7.753411293029785 74.65323638916016 5.310725212097168 68.87808990478516 C 2.782111167907715 62.89977645874023 1.499996781349182 56.54836273193359 1.499996781349182 50.00027847290039 C 1.499996781349182 43.45162200927734 2.782111167907715 37.1002197265625 5.310725212097168 31.12189292907715 C 7.753411293029785 25.34676361083984 11.25062561035156 20.15984916687012 15.70523929595947 15.70523548126221 C 20.15985298156738 11.25063514709473 25.34676742553711 7.753406524658203 31.12189674377441 5.31073522567749 C 37.10022354125977 2.782120943069458 43.45164108276367 1.500006675720215 49.99972534179688 1.500006675720215 C 56.54780960083008 1.500006675720215 62.89922714233398 2.782120943069458 68.87755584716797 5.31073522567749 C 74.65267944335938 7.753406524658203 79.839599609375 11.25063514709473 84.29421234130859 15.70523548126221 C 88.74882507324219 20.15984916687012 92.24604034423828 25.34676361083984 94.68872833251953 31.12189292907715 C 97.21733856201172 37.1002197265625 98.49945068359375 43.45162200927734 98.49945068359375 49.99970626831055 C 98.49945068359375 56.54836273193359 97.21733856201172 62.89977645874023 94.68872833251953 68.87808990478516 C 92.24604034423828 74.65323638916016 88.74882507324219 79.84014892578125 84.29421234130859 84.29476165771484 C 79.839599609375 88.74936676025391 74.65267944335938 92.24658966064453 68.87755584716797 94.68926239013672 C 62.89922714233398 97.21788024902344 56.54780960083008 98.49999237060547 49.99972534179688 98.49999237060547 Z" stroke="none"/>
              <path d="M 49.99972534179688 2.999992370605469 C 43.65348052978516 2.999992370605469 37.49866485595703 4.242240905761719 31.70623016357422 6.692222595214844 C 26.10989379882812 9.059288024902344 21.08323669433594 12.44854736328125 16.76589202880859 16.76588439941406 C 12.44855499267578 21.08322143554688 9.059295654296875 26.10988616943359 6.692230224609375 31.70620727539062 C 4.24224853515625 37.49863815307617 3 43.6534538269043 3 50.00028610229492 C 3 56.34653091430664 4.24224853515625 62.50134658813477 6.692230224609375 68.29376220703125 C 9.059295654296875 73.89009857177734 12.44855499267578 78.916748046875 16.76589202880859 83.23408508300781 C 21.08323669433594 87.55142211914062 26.10989379882812 90.94070434570312 31.70623016357422 93.30774688720703 C 37.49866485595703 95.75772857666016 43.65348052978516 96.99997711181641 49.99972534179688 96.99997711181641 C 56.34597015380859 96.99997711181641 62.50078582763672 95.75772857666016 68.293212890625 93.30774688720703 C 73.88955688476562 90.94070434570312 78.91621398925781 87.55142211914062 83.23355865478516 83.23408508300781 C 87.55089569091797 78.916748046875 90.94015502929688 73.89009857177734 93.30722045898438 68.29376220703125 C 95.7572021484375 62.50134658813477 96.99945068359375 56.34653091430664 96.99945068359375 49.99969863891602 C 96.99945068359375 43.6534538269043 95.7572021484375 37.49863815307617 93.30722045898438 31.70620727539062 C 90.94015502929688 26.10988616943359 87.55089569091797 21.08322143554688 83.23355865478516 16.76588439941406 C 78.91621398925781 12.44854736328125 73.88955688476562 9.059288024902344 68.293212890625 6.692222595214844 C 62.50078582763672 4.242240905761719 56.34597015380859 2.999992370605469 49.99972534179688 2.999992370605469 M 49.99972534179688 -7.62939453125e-06 C 77.61381530761719 -7.62939453125e-06 99.99945068359375 22.3856201171875 99.99945068359375 49.99969863891602 L 99.99945068359375 50.00028610229492 C 99.99945068359375 77.61436462402344 77.61381530761719 99.99997711181641 49.99972534179688 99.99997711181641 C 22.38563537597656 99.99997711181641 0 77.61436462402344 0 50.00028610229492 L 0 49.99969863891602 C 0 22.3856201171875 22.38563537597656 -7.62939453125e-06 49.99972534179688 -7.62939453125e-06 Z" stroke="none" fill="#fff"/>
            </g>
          </g>
          <g id="Trazado_874923" data-name="Trazado 874923" transform="translate(0 0)" fill="none">
            <path d="M50,0a50,50,0,0,1,50,50h0A50,50,0,0,1,0,50H0A50,50,0,0,1,50,0Z" stroke="none"/>
            <path d="M 49.99972534179688 2.999992370605469 C 43.65348052978516 2.999992370605469 37.49866485595703 4.242240905761719 31.70623016357422 6.692222595214844 C 26.10989379882812 9.059288024902344 21.08323669433594 12.44854736328125 16.76589202880859 16.76588439941406 C 12.44855499267578 21.08322143554688 9.059295654296875 26.10988616943359 6.692230224609375 31.70620727539062 C 4.24224853515625 37.49863815307617 3 43.6534538269043 3 50.00028610229492 C 3 56.34653091430664 4.24224853515625 62.50134658813477 6.692230224609375 68.29376220703125 C 9.059295654296875 73.89009857177734 12.44855499267578 78.916748046875 16.76589202880859 83.23408508300781 C 21.08323669433594 87.55142211914062 26.10989379882812 90.94070434570312 31.70623016357422 93.30774688720703 C 37.49866485595703 95.75772857666016 43.65348052978516 96.99997711181641 49.99972534179688 96.99997711181641 C 56.34597015380859 96.99997711181641 62.50078582763672 95.75772857666016 68.293212890625 93.30774688720703 C 73.88955688476562 90.94070434570312 78.91621398925781 87.55142211914062 83.23355865478516 83.23408508300781 C 87.55089569091797 78.916748046875 90.94015502929688 73.89009857177734 93.30722045898438 68.29376220703125 C 95.7572021484375 62.50134658813477 96.99945068359375 56.34653091430664 96.99945068359375 49.99969863891602 C 96.99945068359375 43.6534538269043 95.7572021484375 37.49863815307617 93.30722045898438 31.70620727539062 C 90.94015502929688 26.10988616943359 87.55089569091797 21.08322143554688 83.23355865478516 16.76588439941406 C 78.91621398925781 12.44854736328125 73.88955688476562 9.059288024902344 68.293212890625 6.692222595214844 C 62.50078582763672 4.242240905761719 56.34597015380859 2.999992370605469 49.99972534179688 2.999992370605469 M 49.99972534179688 -7.62939453125e-06 C 77.61381530761719 -7.62939453125e-06 99.99945068359375 22.3856201171875 99.99945068359375 49.99969863891602 L 99.99945068359375 50.00028610229492 C 99.99945068359375 77.61436462402344 77.61381530761719 99.99997711181641 49.99972534179688 99.99997711181641 C 22.38563537597656 99.99997711181641 0 77.61436462402344 0 50.00028610229492 L 0 49.99969863891602 C 0 22.3856201171875 22.38563537597656 -7.62939453125e-06 49.99972534179688 -7.62939453125e-06 Z" stroke="none" fill="#fff"/>
          </g>
        </g>
      </g>
    </g>
    <g id="nurturing_11279997" transform="translate(-6528.009 -5177.062)">
      <path id="Trazado_905702" data-name="Trazado 905702" d="M91.49,34.18h39.15V76.3H91.49Z" transform="translate(-62.603 -7.078)" fill="#f1f1f2" fill-rule="evenodd"/>
      <path id="Trazado_905703" data-name="Trazado 905703" d="M58.877,191.755a.231.231,0,0,0,.231.231H98.72a.231.231,0,0,0,.231-.231V164.42l.537.09a3.944,3.944,0,0,1,3.284,3.884v26.9H55.15v-26.9a3.944,3.944,0,0,1,3.177-3.864l.55-.108Z" transform="translate(-30.452 -122.305)" fill="#968996" fill-rule="evenodd"/>
      <path id="Trazado_905704" data-name="Trazado 905704" d="M82.444,436.25v2.5a2.452,2.452,0,0,1-2.452,2.451H31.182a2.452,2.452,0,0,1-2.452-2.451v-2.5Z" transform="translate(-7.078 -362.8)" fill="#968996" fill-rule="evenodd"/>
      <path id="Trazado_905705" data-name="Trazado 905705" d="M120.19,66.22h14.063V83.958H120.19Z" transform="translate(-87.995 -35.424)" fill="#87d4ed" fill-rule="evenodd"/>
      <path id="Trazado_905706" data-name="Trazado 905706" d="M131.212,62.451a.23.23,0,0,0-.231-.231H116.461a.227.227,0,0,0-.231.231v18.2a.228.228,0,0,0,.231.231h14.521a.23.23,0,0,0,.231-.231Z" transform="translate(-84.491 -31.886)" fill="#ffd064" fill-rule="evenodd"/>
      <path id="Trazado_905707" data-name="Trazado 905707" d="M298.718,165.988a.858.858,0,0,1,.129-1.6.226.226,0,0,0,.166-.163,1.291,1.291,0,0,1,.043-.134.242.242,0,0,0-.006-.135,1.41,1.41,0,0,1-.09-.506,1.479,1.479,0,0,1,2.293-1.23.228.228,0,0,0,.141.04c.112-.008.224-.008.332-.007h.063a.229.229,0,0,0,.219-.153,1.1,1.1,0,0,1,2.088.02.237.237,0,0,0,.19.154l.081.01h.009a.224.224,0,0,0,.225-.1.991.991,0,1,1,1.644,1.105.23.23,0,0,0-.015.24.225.225,0,0,0,.2.124.934.934,0,0,1,.936.933c0,.8-.929,1.206-1.559,1.437a2.647,2.647,0,0,1-1.447.116c-.114-.025-.227-.055-.339-.085a1.685,1.685,0,0,0-1.637.138l-.081.059-.1.021a2.818,2.818,0,0,1-1.105-.076,2.7,2.7,0,0,0-.806-.08h-.249a4.239,4.239,0,0,1-1.269-.1l-.054-.021Z" transform="translate(-245.503 -119.597)" fill="#87d4ed" fill-rule="evenodd"/>
      <path id="Trazado_905708" data-name="Trazado 905708" d="M278.734,77.745a1,1,0,0,0,.013-.175,1.454,1.454,0,0,0-2.168-1.263l-.307.174-.248-.25a1.552,1.552,0,0,0-.684-.406l-.35-.1.157-3.556.691.492a3.81,3.81,0,0,0,2.222.76,4.089,4.089,0,0,0,2.515-.954,6.727,6.727,0,0,0,2.18-3.225,5.323,5.323,0,0,0-.01-3.546.234.234,0,0,0-.2-.143,8.225,8.225,0,0,0-4.082.915,7.053,7.053,0,0,0-2.924,2.595l-.4.7-.4-.7a7.767,7.767,0,0,0-3.24-2.9,9.116,9.116,0,0,0-4.542-1.022.232.232,0,0,0-.2.143,5.911,5.911,0,0,0-.012,3.928,7.435,7.435,0,0,0,2.412,3.568,4.51,4.51,0,0,0,2.779,1.054,4.063,4.063,0,0,0,2-.546l.723-.4-.129,2.9-.257.116a1.636,1.636,0,0,0-.627.5l-.223.3-.337-.152a1.935,1.935,0,0,0-2.727,1.766,1.707,1.707,0,0,0,.014.231l.04.284-.236.163a1.326,1.326,0,0,0,.293,2.319,4.518,4.518,0,0,0,1.439.134,3.856,3.856,0,0,1,.875.044l.013,0,.013,0a3.341,3.341,0,0,0,.931.13,1.348,1.348,0,0,0,.738-.166c.428-.333.8-.226,1.284-.095.119.032.237.063.357.091a3.125,3.125,0,0,0,1.711-.134c.844-.311,1.855-.831,1.855-1.871a1.394,1.394,0,0,0-.715-1.218l-.285-.159Z" transform="translate(-217.36 -34.459)" fill="#87d4ed" fill-rule="evenodd"/>
      <path id="Trazado_905709" data-name="Trazado 905709" d="M165.2,105.582a2.433,2.433,0,1,1-2.433-2.432A2.435,2.435,0,0,1,165.2,105.582Z" transform="translate(-123.508 -68.097)" fill="#f6dccd" fill-rule="evenodd"/>
      <path id="Trazado_905710" data-name="Trazado 905710" d="M154.143,149.95a1.943,1.943,0,0,1,1.943,1.941v1.94h-7.6v-1.94a1.943,1.943,0,0,1,1.943-1.941Z" transform="translate(-113.033 -109.503)" fill="#87d4ed" fill-rule="evenodd"/>
      <path id="Trazado_905711" data-name="Trazado 905711" d="M276.827,76.551a3.733,3.733,0,0,1-3.905-.648,6.963,6.963,0,0,1-2.149-3.014,5.836,5.836,0,0,1-.271-3.473l.092-.346.357,0a8.743,8.743,0,0,1,4.318,1.258,6.88,6.88,0,0,1,2.712,2.756,2.687,2.687,0,0,1,.106,2.3L277.81,76l-4.358-4.435a.231.231,0,0,0-.331.323l4.32,4.4Z" transform="translate(-220.843 -37.946)" fill="#00da92" fill-rule="evenodd"/>
      <path id="Trazado_905712" data-name="Trazado 905712" d="M343.811,78.925a.477.477,0,0,1-.161-.356v-.189l3.084-3.131a.232.232,0,0,0-.006-.329.228.228,0,0,0-.322,0l-3.466,3.517.309-1.52a3.009,3.009,0,0,1,.232-.677,6.149,6.149,0,0,1,2.409-2.459,7.859,7.859,0,0,1,3.836-1.138l.368-.007.089.357a5.3,5.3,0,0,1-.272,3.084A6.228,6.228,0,0,1,348,78.748a3.266,3.266,0,0,1-4.139.212l-.024-.017Z" transform="translate(-285.068 -41.104)" fill="#00da92" fill-rule="evenodd"/>
      <path id="Trazado_905713" data-name="Trazado 905713" d="M45.8,48.073H32.657V31.257H45.8Zm1.383.692v-18.2a.691.691,0,0,0-.692-.692H31.969a.689.689,0,0,0-.692.692v18.2a.689.689,0,0,0,.692.692H46.49A.692.692,0,0,0,47.182,48.764ZM62.643,37.282a2.826,2.826,0,0,1-3.591.2s-.009-.009-.009-.014l2.951-3a.691.691,0,0,0-.983-.972l-2.377,2.412a2.525,2.525,0,0,1,.2-.573A6.962,6.962,0,0,1,64.667,32a5.59,5.59,0,0,1-2.024,5.277Zm-3.916,5.849.07.009a.68.68,0,0,0,.687-.312.53.53,0,0,1,.979.282.516.516,0,0,1-.1.308.694.694,0,0,0-.052.719.686.686,0,0,0,.612.376.472.472,0,0,1,.475.471c0,.37-.4.689-1.256,1.005a2.171,2.171,0,0,1-1.186.1c-.113-.024-.217-.053-.32-.081a2.14,2.14,0,0,0-2.029.211,2.491,2.491,0,0,1-.856-.059,2.974,2.974,0,0,0-.96-.106h-.254a4.338,4.338,0,0,1-1.1-.071.046.046,0,0,0-.018-.008.4.4,0,0,1,.033-.741.689.689,0,0,0,.5-.491.652.652,0,0,1,.033-.1.691.691,0,0,0-.009-.447.955.955,0,0,1-.061-.346A1.017,1.017,0,0,1,55.5,43a.685.685,0,0,0,.429.115c.095-.007.188-.007.3-.006h.066a.7.7,0,0,0,.655-.461.643.643,0,0,1,.607-.429.636.636,0,0,1,.607.439.692.692,0,0,0,.572.468ZM52.364,37.6A6.264,6.264,0,0,1,50.1,31.59c2.942.032,5.752,1.9,6.618,3.749a2.212,2.212,0,0,1,.1,1.914L52.938,33.3a.692.692,0,1,0-.988.969l3.85,3.917A3.316,3.316,0,0,1,52.364,37.6Zm12.844-6.964a8.556,8.556,0,0,0-7.432,3.739,9.409,9.409,0,0,0-8.209-4.152.689.689,0,0,0-.6.429c-1.026,2.515.113,6.119,2.542,8.033a4.945,4.945,0,0,0,3.064,1.153,4.515,4.515,0,0,0,2.226-.605l-.08,1.788a2.085,2.085,0,0,0-.8.646,2.374,2.374,0,0,0-.979-.21,2.4,2.4,0,0,0-2.4,2.4,2.119,2.119,0,0,0,.018.3,1.788,1.788,0,0,0,.4,3.132,4.669,4.669,0,0,0,1.6.161,4.716,4.716,0,0,1,.744.025,3.854,3.854,0,0,0,1.082.156,1.694,1.694,0,0,0,1.021-.263c.221-.171.357-.156.881-.014.118.032.24.065.377.1a3.574,3.574,0,0,0,1.972-.151c.536-.2,2.156-.8,2.156-2.3a1.854,1.854,0,0,0-.951-1.621,1.546,1.546,0,0,0,.018-.254,1.915,1.915,0,0,0-2.858-1.665,2.026,2.026,0,0,0-.885-.524l.1-2.345a4.263,4.263,0,0,0,2.49.845,4.519,4.519,0,0,0,2.8-1.054c2.207-1.741,3.243-5.018,2.311-7.307a.7.7,0,0,0-.6-.429Zm-4.894,33.6a.692.692,0,0,1-.692.692H35.089a.692.692,0,0,1,0-1.383H59.621A.693.693,0,0,1,60.313,64.228Zm0-5.118a.692.692,0,0,1-.692.692H35.089a.692.692,0,0,1,0-1.383H59.621A.692.692,0,0,1,60.313,59.11Zm0-5.119a.691.691,0,0,1-.692.692H41A.692.692,0,1,1,41,53.3H59.622A.693.693,0,0,1,60.313,53.991Zm-24.4-11.6v1.479h6.674V42.388a1.482,1.482,0,0,0-1.482-1.48H37.4a1.482,1.482,0,0,0-1.482,1.48Zm3.337-6.875a1.971,1.971,0,1,0,1.972,1.971,1.974,1.974,0,0,0-1.972-1.971Zm-4.029,9.737h8.058a.691.691,0,0,0,.692-.692V42.388a2.869,2.869,0,0,0-2.137-2.77,3.356,3.356,0,1,0-5.167,0,2.869,2.869,0,0,0-2.137,2.77v2.171a.691.691,0,0,0,.692.692ZM74.9,75.948a1.99,1.99,0,0,1-1.991,1.99H24.1a1.99,1.99,0,0,1-1.991-1.99V73.911H74.9ZM25.159,46.089V72.528h46.7V46.089a3.483,3.483,0,0,0-2.9-3.429V69.45a.692.692,0,0,1-.692.692H28.656a.692.692,0,0,1-.692-.692V42.677a3.484,3.484,0,0,0-2.806,3.412Zm4.189-18.525V68.758H67.576V27.563ZM75.6,72.528H73.242V46.089a4.865,4.865,0,0,0-4.284-4.825V26.872a.691.691,0,0,0-.692-.692H28.656a.691.691,0,0,0-.692.692v14.4a4.869,4.869,0,0,0-4.189,4.814V72.528H21.422a.692.692,0,0,0-.692.692v2.729a3.376,3.376,0,0,0,3.375,3.373H72.914a3.376,3.376,0,0,0,3.375-3.373V73.219a.694.694,0,0,0-.693-.692Z" fill-rule="evenodd"/>
    </g>
  </g>
</svg>
