<svg xmlns="http://www.w3.org/2000/svg" xmlns:xlink="http://www.w3.org/1999/xlink" width="49.665" height="49.665" viewBox="0 0 49.665 49.665">
  <defs>
    <clipPath id="clip-path">
      <path id="path5025" d="M0-682.665H49.665V-633H0Z" transform="translate(0 682.665)"/>
    </clipPath>
  </defs>
  <g id="g5019" transform="translate(0 682.665)">
    <g id="g5021" transform="translate(0 -682.665)">
      <g id="g5023" clip-path="url(#clip-path)">
        <g id="g5029" transform="translate(6.51 0.72)">
          <path id="path5031" d="M-357.913,0h2.993l5.57,6.207V46.089a2.136,2.136,0,0,1-2.136,2.136h-32.373A2.136,2.136,0,0,1-386,46.089V2.136A2.136,2.136,0,0,1-383.859,0h22.607" transform="translate(385.995)" fill="none" stroke="#3d631e" stroke-linecap="round" stroke-linejoin="round" stroke-miterlimit="10" stroke-width="1.5"/>
        </g>
        <g id="g5033" transform="translate(37.585 0.72)">
          <path id="path5035" d="M0,0V5.537a.67.67,0,0,0,.67.67h4.9Z" fill="none" stroke="#3d631e" stroke-linecap="round" stroke-linejoin="round" stroke-miterlimit="10" stroke-width="1.5"/>
        </g>
        <g id="g5037" transform="translate(11.592 20.953)">
          <path id="path5039" d="M0,0H26.48" transform="translate(0 0)" fill="none" stroke="#3d631e" stroke-linecap="round" stroke-linejoin="round" stroke-miterlimit="10" stroke-width="1.5"/>
        </g>
        <g id="g5041" transform="translate(13.558 9.825)">
          <path id="path5043" d="M-64.943-141.823h-5.1v-10.743a.384.384,0,0,1,.384-.384h4.327a.384.384,0,0,1,.384.384Z" transform="translate(70.038 152.95)" fill="none" stroke="#3d631e" stroke-linecap="round" stroke-linejoin="round" stroke-miterlimit="10" stroke-width="1.5"/>
        </g>
        <g id="g5045" transform="translate(22.285 6.108)">
          <path id="path5047" d="M-64.943-189.194h-5.1v-14.46a.384.384,0,0,1,.384-.384h4.327a.384.384,0,0,1,.384.384Z" transform="translate(70.038 204.038)" fill="none" stroke="#3d631e" stroke-linecap="round" stroke-linejoin="round" stroke-miterlimit="10" stroke-width="1.5"/>
        </g>
        <g id="g5049" transform="translate(31.011 13.53)">
          <path id="path5051" d="M-64.943-94.6h-5.1v-7.038a.384.384,0,0,1,.384-.384h4.327a.384.384,0,0,1,.384.384Z" transform="translate(70.038 102.02)" fill="none" stroke="#3d631e" stroke-linecap="round" stroke-linejoin="round" stroke-miterlimit="10" stroke-width="1.5"/>
        </g>
        <g id="g5053" transform="translate(11.592 24.48)">
          <path id="path5055" d="M-136.279-99.077v10.259a1.044,1.044,0,0,1-1.045,1.044h-8.6a1.044,1.044,0,0,1-1.045-1.044v-16.988a1.045,1.045,0,0,1,1.045-1.045h8.6a1.044,1.044,0,0,1,1.045,1.045v3.382" transform="translate(146.972 106.85)" fill="none" stroke="#3d631e" stroke-linecap="round" stroke-linejoin="round" stroke-miterlimit="10" stroke-width="1.5"/>
        </g>
        <g id="g5057" transform="translate(25.706 24.48)">
          <path id="path5059" d="M0,0H12.367" transform="translate(0 0)" fill="none" stroke="#3d631e" stroke-linecap="round" stroke-linejoin="round" stroke-miterlimit="10" stroke-width="1.5"/>
        </g>
        <g id="g5061" transform="translate(25.706 27.659)">
          <path id="path5063" d="M0,0H12.367" transform="translate(0 0)" fill="none" stroke="#3d631e" stroke-linecap="round" stroke-linejoin="round" stroke-miterlimit="10" stroke-width="1.5"/>
        </g>
        <g id="g5065" transform="translate(25.706 30.839)">
          <path id="path5067" d="M0,0H8.342" transform="translate(0 0)" fill="none" stroke="#3d631e" stroke-linecap="round" stroke-linejoin="round" stroke-miterlimit="10" stroke-width="1.5"/>
        </g>
        <g id="g5069" transform="translate(25.706 34.018)">
          <path id="path5071" d="M0,0H12.367" fill="none" stroke="#3d631e" stroke-linecap="round" stroke-linejoin="round" stroke-miterlimit="10" stroke-width="1.5"/>
        </g>
        <g id="g5073" transform="translate(25.706 37.198)">
          <path id="path5075" d="M0,0H12.367" transform="translate(0 0)" fill="none" stroke="#3d631e" stroke-linecap="round" stroke-linejoin="round" stroke-miterlimit="10" stroke-width="1.5"/>
        </g>
        <g id="g5077" transform="translate(25.706 40.377)">
          <path id="path5079" d="M0,0H8.342" transform="translate(0 0)" fill="none" stroke="#3d631e" stroke-linecap="round" stroke-linejoin="round" stroke-miterlimit="10" stroke-width="1.5"/>
        </g>
        <g id="g5081" transform="translate(25.706 43.557)">
          <path id="path5083" d="M0,0H12.367" fill="none" stroke="#3d631e" stroke-linecap="round" stroke-linejoin="round" stroke-miterlimit="10" stroke-width="1.5"/>
        </g>
      </g>
    </g>
  </g>
</svg>
