<svg xmlns="http://www.w3.org/2000/svg" xmlns:xlink="http://www.w3.org/1999/xlink" width="118" height="118" viewBox="0 0 118 118">
  <defs>
    <filter id="Trazado_874925" x="0" y="0" width="118" height="118" filterUnits="userSpaceOnUse">
      <feOffset dy="3" input="SourceAlpha"/>
      <feGaussianBlur stdDeviation="3" result="blur"/>
      <feFlood flood-opacity="0.161"/>
      <feComposite operator="in" in2="blur"/>
      <feComposite in="SourceGraphic"/>
    </filter>
  </defs>
  <g id="Grupo_1179071" data-name="Grupo 1179071" transform="translate(6539 4769.312)">
    <g id="Grupo_1178650" data-name="Grupo 1178650" transform="translate(-7338.5 -6715.522)">
      <g id="Grupo_1109835" data-name="Grupo 1109835" transform="translate(808.5 1952.211)">
        <g id="Grupo_1107913" data-name="Grupo 1107913" transform="translate(0 0)">
          <g transform="matrix(1, 0, 0, 1, -9, -6)" filter="url(#Trazado_874925)">
            <g id="Trazado_874925-2" data-name="Trazado 874925" transform="translate(9 6)" fill="#f3d82a" opacity="0.859">
              <path d="M 49.99972534179688 98.49999237060547 C 43.45164108276367 98.49999237060547 37.10022354125977 97.21788024902344 31.12189674377441 94.68926239013672 C 25.34676742553711 92.24658966064453 20.15985298156738 88.74936676025391 15.70523929595947 84.29476165771484 C 11.25062561035156 79.84014892578125 7.753411293029785 74.65323638916016 5.310725212097168 68.87808990478516 C 2.782111167907715 62.89977645874023 1.499996781349182 56.54836273193359 1.499996781349182 50.00027847290039 C 1.499996781349182 43.45162200927734 2.782111167907715 37.1002197265625 5.310725212097168 31.12189292907715 C 7.753411293029785 25.34676361083984 11.25062561035156 20.15984916687012 15.70523929595947 15.70523548126221 C 20.15985298156738 11.25063514709473 25.34676742553711 7.753406524658203 31.12189674377441 5.31073522567749 C 37.10022354125977 2.782120943069458 43.45164108276367 1.500006675720215 49.99972534179688 1.500006675720215 C 56.54780960083008 1.500006675720215 62.89922714233398 2.782120943069458 68.87755584716797 5.31073522567749 C 74.65267944335938 7.753406524658203 79.839599609375 11.25063514709473 84.29421234130859 15.70523548126221 C 88.74882507324219 20.15984916687012 92.24604034423828 25.34676361083984 94.68872833251953 31.12189292907715 C 97.21733856201172 37.1002197265625 98.49945068359375 43.45162200927734 98.49945068359375 49.99970626831055 C 98.49945068359375 56.54836273193359 97.21733856201172 62.89977645874023 94.68872833251953 68.87808990478516 C 92.24604034423828 74.65323638916016 88.74882507324219 79.84014892578125 84.29421234130859 84.29476165771484 C 79.839599609375 88.74936676025391 74.65267944335938 92.24658966064453 68.87755584716797 94.68926239013672 C 62.89922714233398 97.21788024902344 56.54780960083008 98.49999237060547 49.99972534179688 98.49999237060547 Z" stroke="none"/>
              <path d="M 49.99972534179688 2.999992370605469 C 43.65348052978516 2.999992370605469 37.49866485595703 4.242240905761719 31.70623016357422 6.692222595214844 C 26.10989379882812 9.059288024902344 21.08323669433594 12.44854736328125 16.76589202880859 16.76588439941406 C 12.44855499267578 21.08322143554688 9.059295654296875 26.10988616943359 6.692230224609375 31.70620727539062 C 4.24224853515625 37.49863815307617 3 43.6534538269043 3 50.00028610229492 C 3 56.34653091430664 4.24224853515625 62.50134658813477 6.692230224609375 68.29376220703125 C 9.059295654296875 73.89009857177734 12.44855499267578 78.916748046875 16.76589202880859 83.23408508300781 C 21.08323669433594 87.55142211914062 26.10989379882812 90.94070434570312 31.70623016357422 93.30774688720703 C 37.49866485595703 95.75772857666016 43.65348052978516 96.99997711181641 49.99972534179688 96.99997711181641 C 56.34597015380859 96.99997711181641 62.50078582763672 95.75772857666016 68.293212890625 93.30774688720703 C 73.88955688476562 90.94070434570312 78.91621398925781 87.55142211914062 83.23355865478516 83.23408508300781 C 87.55089569091797 78.916748046875 90.94015502929688 73.89009857177734 93.30722045898438 68.29376220703125 C 95.7572021484375 62.50134658813477 96.99945068359375 56.34653091430664 96.99945068359375 49.99969863891602 C 96.99945068359375 43.6534538269043 95.7572021484375 37.49863815307617 93.30722045898438 31.70620727539062 C 90.94015502929688 26.10988616943359 87.55089569091797 21.08322143554688 83.23355865478516 16.76588439941406 C 78.91621398925781 12.44854736328125 73.88955688476562 9.059288024902344 68.293212890625 6.692222595214844 C 62.50078582763672 4.242240905761719 56.34597015380859 2.999992370605469 49.99972534179688 2.999992370605469 M 49.99972534179688 -7.62939453125e-06 C 77.61381530761719 -7.62939453125e-06 99.99945068359375 22.3856201171875 99.99945068359375 49.99969863891602 L 99.99945068359375 50.00028610229492 C 99.99945068359375 77.61436462402344 77.61381530761719 99.99997711181641 49.99972534179688 99.99997711181641 C 22.38563537597656 99.99997711181641 0 77.61436462402344 0 50.00028610229492 L 0 49.99969863891602 C 0 22.3856201171875 22.38563537597656 -7.62939453125e-06 49.99972534179688 -7.62939453125e-06 Z" stroke="none" fill="#fff"/>
            </g>
          </g>
          <g id="Trazado_874923" data-name="Trazado 874923" transform="translate(0 0)" fill="none">
            <path d="M50,0a50,50,0,0,1,50,50h0A50,50,0,0,1,0,50H0A50,50,0,0,1,50,0Z" stroke="none"/>
            <path d="M 49.99972534179688 2.999992370605469 C 43.65348052978516 2.999992370605469 37.49866485595703 4.242240905761719 31.70623016357422 6.692222595214844 C 26.10989379882812 9.059288024902344 21.08323669433594 12.44854736328125 16.76589202880859 16.76588439941406 C 12.44855499267578 21.08322143554688 9.059295654296875 26.10988616943359 6.692230224609375 31.70620727539062 C 4.24224853515625 37.49863815307617 3 43.6534538269043 3 50.00028610229492 C 3 56.34653091430664 4.24224853515625 62.50134658813477 6.692230224609375 68.29376220703125 C 9.059295654296875 73.89009857177734 12.44855499267578 78.916748046875 16.76589202880859 83.23408508300781 C 21.08323669433594 87.55142211914062 26.10989379882812 90.94070434570312 31.70623016357422 93.30774688720703 C 37.49866485595703 95.75772857666016 43.65348052978516 96.99997711181641 49.99972534179688 96.99997711181641 C 56.34597015380859 96.99997711181641 62.50078582763672 95.75772857666016 68.293212890625 93.30774688720703 C 73.88955688476562 90.94070434570312 78.91621398925781 87.55142211914062 83.23355865478516 83.23408508300781 C 87.55089569091797 78.916748046875 90.94015502929688 73.89009857177734 93.30722045898438 68.29376220703125 C 95.7572021484375 62.50134658813477 96.99945068359375 56.34653091430664 96.99945068359375 49.99969863891602 C 96.99945068359375 43.6534538269043 95.7572021484375 37.49863815307617 93.30722045898438 31.70620727539062 C 90.94015502929688 26.10988616943359 87.55089569091797 21.08322143554688 83.23355865478516 16.76588439941406 C 78.91621398925781 12.44854736328125 73.88955688476562 9.059288024902344 68.293212890625 6.692222595214844 C 62.50078582763672 4.242240905761719 56.34597015380859 2.999992370605469 49.99972534179688 2.999992370605469 M 49.99972534179688 -7.62939453125e-06 C 77.61381530761719 -7.62939453125e-06 99.99945068359375 22.3856201171875 99.99945068359375 49.99969863891602 L 99.99945068359375 50.00028610229492 C 99.99945068359375 77.61436462402344 77.61381530761719 99.99997711181641 49.99972534179688 99.99997711181641 C 22.38563537597656 99.99997711181641 0 77.61436462402344 0 50.00028610229492 L 0 49.99969863891602 C 0 22.3856201171875 22.38563537597656 -7.62939453125e-06 49.99972534179688 -7.62939453125e-06 Z" stroke="none" fill="#fff"/>
          </g>
        </g>
      </g>
    </g>
    <g id="eye-test_15756018" transform="translate(-6534.095 -4745.148)">
      <g id="Grupo_1179070" data-name="Grupo 1179070" transform="translate(27.367 1.436)">
        <g id="Grupo_1179053" data-name="Grupo 1179053" transform="translate(0 7.032)">
          <path id="Trazado_905754" data-name="Trazado 905754" d="M35.243,65.463H78.571a1.247,1.247,0,0,1,1.246,1.243v51.285a1.249,1.249,0,0,1-1.246,1.243H35.243A1.248,1.248,0,0,1,34,117.991V66.705A1.246,1.246,0,0,1,35.243,65.463Z" transform="translate(-34 -65.463)" fill="#9e5015" fill-rule="evenodd"/>
        </g>
        <g id="Grupo_1179054" data-name="Grupo 1179054" transform="translate(0 7.032)">
          <path id="Trazado_905755" data-name="Trazado 905755" d="M77.768,65.463h.8a1.247,1.247,0,0,1,1.246,1.243v51.285a1.249,1.249,0,0,1-1.246,1.243H35.243A1.248,1.248,0,0,1,34,117.991v-.4H76.526a1.247,1.247,0,0,0,1.243-1.246V65.463Z" transform="translate(-34 -65.463)" fill="#964a10" fill-rule="evenodd"/>
        </g>
        <g id="Grupo_1179055" data-name="Grupo 1179055" transform="translate(3.523 10.368)">
          <path id="Trazado_905756" data-name="Trazado 905756" d="M62.727,92.666H101.5v47.1H62.727Z" transform="translate(-62.727 -92.666)" fill="#e2f0fa" fill-rule="evenodd"/>
        </g>
        <path id="Trazado_905757" data-name="Trazado 905757" d="M161.932,12.545h-4.081a4.416,4.416,0,0,0-8.832,0h-4.081a.92.92,0,0,0-.919.917v6.324a.922.922,0,0,0,.919.916h16.993a.92.92,0,0,0,.917-.916V13.463A.919.919,0,0,0,161.932,12.545Z" transform="translate(-130.526 -8.13)" fill="#0fbebe" fill-rule="evenodd"/>
        <g id="Grupo_1179056" data-name="Grupo 1179056" transform="translate(13.495 4.415)">
          <path id="Trazado_905758" data-name="Trazado 905758" d="M161.511,44.129h.426a.919.919,0,0,1,.917.917v6.323a.921.921,0,0,1-.917.917H144.943a.921.921,0,0,1-.917-.917v-.426h16.568a.922.922,0,0,0,.917-.921V44.129Z" transform="translate(-144.026 -44.129)" fill="#0ab0b0" fill-rule="evenodd"/>
        </g>
        <g id="Grupo_1179057" data-name="Grupo 1179057" transform="translate(3.523 10.368)">
          <path id="Trazado_905759" data-name="Trazado 905759" d="M99.6,92.666H101.5v47.1H62.727v-1.772H99.6Z" transform="translate(-62.727 -92.666)" fill="#d0e4f2" fill-rule="evenodd"/>
        </g>
        <g id="Grupo_1179058" data-name="Grupo 1179058" transform="translate(27.73 14.801)">
          <path id="Trazado_905760" data-name="Trazado 905760" d="M286.551,133.069l-20.24,28.848-6.22,3.357,1.045-6.988,20.24-28.848a1.487,1.487,0,0,1,2.063-.36l2.748,1.928A1.485,1.485,0,0,1,286.551,133.069Z" transform="translate(-260.091 -128.811)" fill="#ffd54f" fill-rule="evenodd"/>
        </g>
        <g id="Grupo_1179059" data-name="Grupo 1179059" transform="translate(10.881 16.255)">
          <path id="Trazado_905761" data-name="Trazado 905761" d="M146.771,147.6a13.893,13.893,0,0,1-24.051,0,13.9,13.9,0,0,1,24.051,0Z" transform="translate(-122.72 -140.666)" fill="#ffdaaa" fill-rule="evenodd"/>
        </g>
        <g id="Grupo_1179060" data-name="Grupo 1179060" transform="translate(13.27 22.035)">
          <path id="Trazado_905762" data-name="Trazado 905762" d="M163.855,188.945a13.654,13.654,0,0,1-12.024,6.936,13.864,13.864,0,0,1-9.639-3.831,14.687,14.687,0,0,0,20.946-4.257A12.311,12.311,0,0,1,163.855,188.945Z" transform="translate(-142.192 -187.793)" fill="#ffc477" fill-rule="evenodd"/>
        </g>
        <g id="Grupo_1179061" data-name="Grupo 1179061" transform="translate(15.973 16.255)">
          <path id="Trazado_905763" data-name="Trazado 905763" d="M171.167,154.534a6.934,6.934,0,1,0-6.936-6.936A6.947,6.947,0,0,0,171.167,154.534Z" transform="translate(-164.231 -140.666)" fill="#0fbebe" fill-rule="evenodd"/>
        </g>
        <g id="Grupo_1179062" data-name="Grupo 1179062" transform="translate(20.195 20.474)">
          <path id="Trazado_905764" data-name="Trazado 905764" d="M201.371,180.492a2.713,2.713,0,1,0-2.713-2.713A2.718,2.718,0,0,0,201.371,180.492Z" transform="translate(-198.658 -175.065)" fill="#4a4d71" fill-rule="evenodd"/>
        </g>
        <g id="Grupo_1179063" data-name="Grupo 1179063" transform="translate(20.662 20.969)">
          <path id="Trazado_905765" data-name="Trazado 905765" d="M203.544,181.254a1.076,1.076,0,1,0-1.076-1.076A1.08,1.08,0,0,0,203.544,181.254Z" transform="translate(-202.468 -179.101)" fill="#e2f0fa" fill-rule="evenodd"/>
        </g>
        <g id="Grupo_1179064" data-name="Grupo 1179064" transform="translate(22.282 16.255)">
          <path id="Trazado_905766" data-name="Trazado 905766" d="M216.3,140.666a6.934,6.934,0,0,1,0,13.868c-.211,0-.419-.01-.626-.031a6.933,6.933,0,0,0,0-13.809C215.882,140.673,216.089,140.666,216.3,140.666Z" transform="translate(-215.674 -140.666)" fill="#0ab0b0" fill-rule="evenodd"/>
        </g>
        <g id="Grupo_1179065" data-name="Grupo 1179065" transform="translate(27.73 15.875)">
          <path id="Trazado_905767" data-name="Trazado 905767" d="M286.551,140.746l-20.24,28.848-6.22,3.357.325-2.163,4.292-2.319,20.24-28.844a1.487,1.487,0,0,0-.36-2.063l1.6,1.121A1.485,1.485,0,0,1,286.551,140.746Z" transform="translate(-260.091 -137.562)" fill="#ffc328" fill-rule="evenodd"/>
        </g>
        <g id="Grupo_1179066" data-name="Grupo 1179066" transform="translate(46.997 14.801)">
          <path id="Trazado_905768" data-name="Trazado 905768" d="M424.379,133.069l-2.018,2.873-5.174-3.631,2.018-2.873a1.487,1.487,0,0,1,2.063-.36l2.748,1.928A1.485,1.485,0,0,1,424.379,133.069Z" transform="translate(-417.187 -128.811)" fill="#df646e" fill-rule="evenodd"/>
        </g>
        <g id="Grupo_1179067" data-name="Grupo 1179067" transform="translate(50.572 15.875)">
          <path id="Trazado_905769" data-name="Trazado 905769" d="M449.954,140.746l-2.018,2.873-1.6-1.121,2.014-2.873a1.487,1.487,0,0,0-.36-2.063l1.6,1.121A1.485,1.485,0,0,1,449.954,140.746Z" transform="translate(-446.337 -137.562)" fill="#d82f3c" fill-rule="evenodd"/>
        </g>
        <g id="Grupo_1179068" data-name="Grupo 1179068" transform="translate(27.73 44.276)">
          <path id="Trazado_905770" data-name="Trazado 905770" d="M266.31,372.758l-5.174-3.63-1.045,6.988Z" transform="translate(-260.091 -369.128)" fill="#4a4d71" fill-rule="evenodd"/>
        </g>
        <g id="Grupo_1179069" data-name="Grupo 1179069" transform="translate(27.73 46.782)">
          <path id="Trazado_905771" data-name="Trazado 905771" d="M266.31,390.683l-1.6-1.125-4.292,2.319-.325,2.163Z" transform="translate(-260.091 -389.558)" fill="#414470" fill-rule="evenodd"/>
        </g>
      </g>
      <path id="Trazado_905772" data-name="Trazado 905772" d="M50.264,16.8a14.524,14.524,0,0,0-12.809,7.395.857.857,0,0,0,0,.825,14.785,14.785,0,0,0,25.615,0,.857.857,0,0,0,0-.825A14.52,14.52,0,0,0,50.264,16.8ZM39.2,24.605a12.4,12.4,0,0,1,4.668-4.466,7.782,7.782,0,0,0,0,8.933A12.412,12.412,0,0,1,39.2,24.605Zm11.069,6.1a6.095,6.095,0,1,1,6.093-6.1A6.1,6.1,0,0,1,50.264,30.7Zm6.4-1.628a7.785,7.785,0,0,0,0-8.934,12.405,12.405,0,0,1,4.668,4.466A12.412,12.412,0,0,1,56.662,29.073Zm-6.4-7.758a3.289,3.289,0,1,0,3.29,3.29,3.3,3.3,0,0,0-3.29-3.29Zm0,4.865a1.575,1.575,0,1,1,1.575-1.575A1.579,1.579,0,0,1,50.264,26.181Zm22.964,9.941a.857.857,0,0,0-.857.857V61.07a.394.394,0,0,1-.389.389H28.543a.394.394,0,0,1-.389-.389V9.654a.394.394,0,0,1,.389-.389H39.969V10.9H30.83a.857.857,0,0,0-.857.857V58.971a.857.857,0,0,0,.857.857H69.7a.857.857,0,0,0,.857-.857V42.534a.857.857,0,1,0-1.714,0v15.58H31.687V12.61h8.283v.434a1.779,1.779,0,0,0,1.777,1.777H58.783a1.779,1.779,0,0,0,1.777-1.777V12.61h8.282V21.1a.857.857,0,1,0,1.714,0V11.753A.857.857,0,0,0,69.7,10.9H60.56V9.265H71.982a.389.389,0,0,1,.389.389v6.558a.857.857,0,1,0,1.714,0V9.654a2.105,2.105,0,0,0-2.1-2.1H60.559V6.7a1.779,1.779,0,0,0-1.777-1.777h-3.3a5.287,5.287,0,0,0-10.434,0h-3.3A1.779,1.779,0,0,0,39.969,6.7v.847H28.543a2.105,2.105,0,0,0-2.1,2.1V61.07a2.105,2.105,0,0,0,2.1,2.1h43.44a2.105,2.105,0,0,0,2.1-2.1V36.979a.857.857,0,0,0-.857-.857ZM41.683,6.7a.064.064,0,0,1,.062-.063h4.088a.857.857,0,0,0,.857-.857,3.572,3.572,0,0,1,7.144,0,.857.857,0,0,0,.857.857h4.091a.064.064,0,0,1,.062.063v6.339a.067.067,0,0,1-.062.063H41.746a.067.067,0,0,1-.062-.063Zm7.507.151A1.517,1.517,0,1,1,51.336,4.71l0,0a1.523,1.523,0,0,1,0,2.141,1.5,1.5,0,0,1-1.066.446h-.005a1.509,1.509,0,0,1-1.074-.446ZM35.483,39.11a.857.857,0,0,1,.857-.857H50.264a.857.857,0,1,1,0,1.714H36.34A.857.857,0,0,1,35.483,39.11Zm0,7.3a.857.857,0,0,1,.857-.857H50.264a.857.857,0,1,1,0,1.714H36.34A.857.857,0,0,1,35.483,46.41Zm.857,8.154a.857.857,0,0,1,0-1.714H50.265a.857.857,0,0,1,0,1.714ZM82.714,19.21a2.323,2.323,0,0,0-.961-1.513L79,15.763a2.347,2.347,0,0,0-3.261.571l-2,2.85c-.008.01-.016.019-.023.03s-.013.021-.02.032l-11.018,15.7H36.34a.857.857,0,1,0,0,1.714H61.473l-3.917,5.583H36.34a.857.857,0,1,0,0,1.714H56.353l-.908,1.295a.858.858,0,0,0-.146.365l-.587,3.926H36.34a.857.857,0,1,0,0,1.714H54.455l-.2,1.365a.857.857,0,0,0,1.255.881l6.235-3.366a.859.859,0,0,0,.294-.262L82.327,20.959a2.322,2.322,0,0,0,.388-1.749ZM56.2,51.185l.589-3.939,2.918,2.046Zm4.925-2.992L57.34,45.538,74.626,20.9l3.784,2.655Zm19.8-28.22h0l-1.529,2.179L75.61,19.5l1.529-2.179a.63.63,0,0,1,.875-.152L80.77,19.1a.632.632,0,0,1,.154.873Z" transform="translate(0 0)"/>
    </g>
  </g>
</svg>
