<svg xmlns="http://www.w3.org/2000/svg" xmlns:xlink="http://www.w3.org/1999/xlink" width="108" height="108" viewBox="0 0 108 108">
  <defs>
    <filter id="Trazado_896985" x="0" y="0" width="108" height="108" filterUnits="userSpaceOnUse">
      <feOffset dy="3" input="SourceAlpha"/>
      <feGaussianBlur stdDeviation="3" result="blur"/>
      <feFlood flood-opacity="0.161"/>
      <feComposite operator="in" in2="blur"/>
      <feComposite in="SourceGraphic"/>
    </filter>
  </defs>
  <g id="Grupo_1179074" data-name="Grupo 1179074" transform="translate(-274.051 -6590.265)">
    <g id="Grupo_1174749" data-name="Grupo 1174749" transform="translate(283.051 6596.265)">
      <g id="Grupo_1109826" data-name="Grupo 1109826">
        <g id="Grupo_1098742" data-name="Grupo 1098742">
          <g transform="matrix(1, 0, 0, 1, -9, -6)" filter="url(#Trazado_896985)">
            <g id="Trazado_896985-2" data-name="Trazado 896985" transform="translate(9 6)" fill="#e8f2ff" opacity="0.859">
              <path d="M 44.99993896484375 88.5 C 39.12682723999023 88.5 33.4301872253418 87.35007476806641 28.06826400756836 85.08217620849609 C 22.88850212097168 82.89132690429688 18.23627662658691 79.75461578369141 14.2408390045166 75.75916290283203 C 10.24540138244629 71.76372528076172 7.108676433563232 67.11151123046875 4.917826652526855 61.9317512512207 C 2.649926424026489 56.56982421875 1.500001430511475 50.87317657470703 1.500001430511475 45.00006103515625 C 1.500001430511475 39.12682342529297 2.649926424026489 33.4301872253418 4.917826652526855 28.06826210021973 C 7.108676433563232 22.88850021362305 10.24540138244629 18.23628807067871 14.2408390045166 14.24083709716797 C 18.23628807067871 10.24540042877197 22.88850212097168 7.108675003051758 28.06826400756836 4.917825222015381 C 33.4301872253418 2.649924993515015 39.12682723999023 1.5 44.99993896484375 1.5 C 50.87305068969727 1.5 56.5697021484375 2.649924993515015 61.93162536621094 4.917825222015381 C 67.11138916015625 7.108675003051758 71.76360321044922 10.24540042877197 75.75904083251953 14.24083709716797 C 79.75448608398438 18.23627471923828 82.89120483398438 22.88850021362305 85.08205413818359 28.06826210021973 C 87.34995269775391 33.4301872253418 88.4998779296875 39.12682342529297 88.4998779296875 44.99993896484375 C 88.4998779296875 50.87317657470703 87.34995269775391 56.56982421875 85.08205413818359 61.9317512512207 C 82.89120483398438 67.11151123046875 79.75448608398438 71.76372528076172 75.75904083251953 75.75916290283203 C 71.76360321044922 79.75461578369141 67.11138916015625 82.89132690429688 61.93162536621094 85.08217620849609 C 56.5697021484375 87.35007476806641 50.87305068969727 88.5 44.99993896484375 88.5 Z" stroke="none"/>
              <path d="M 44.99993896484375 3 C 39.32865142822266 3 33.82860946655273 4.110054016113281 28.65258026123047 6.299331665039062 C 23.65162658691406 8.414558410644531 19.15966796875 11.44332885742188 15.30149841308594 15.30149841308594 C 11.44332122802734 19.15966796875 8.41455078125 23.65162658691406 6.299324035644531 28.65258407592773 C 4.110054016113281 33.82861328125 2.999992370605469 39.32865524291992 2.999992370605469 45.00005722045898 C 2.999992370605469 50.67134475708008 4.110054016113281 56.17138671875 6.299324035644531 61.347412109375 C 8.41455078125 66.34837341308594 11.44332122802734 70.84033203125 15.30149841308594 74.69850158691406 C 19.15966796875 78.55667114257812 23.65162658691406 81.58544158935547 28.65258026123047 83.70066833496094 C 33.82860946655273 85.88994598388672 39.32865142822266 87 44.99993896484375 87 C 50.67122650146484 87 56.17126846313477 85.88994598388672 61.34729766845703 83.70066833496094 C 66.34825134277344 81.58544158935547 70.8402099609375 78.55667114257812 74.69837951660156 74.69850158691406 C 78.55654907226562 70.84033203125 81.5853271484375 66.34837341308594 83.70055389404297 61.347412109375 C 85.88982391357422 56.17138671875 86.9998779296875 50.67134475708008 86.9998779296875 44.99994277954102 C 86.9998779296875 39.32865524291992 85.88982391357422 33.82861328125 83.70055389404297 28.65258407592773 C 81.5853271484375 23.65162658691406 78.55654907226562 19.15966796875 74.69837951660156 15.30149841308594 C 70.8402099609375 11.44332885742188 66.34825134277344 8.414558410644531 61.34729766845703 6.299331665039062 C 56.17126846313477 4.110054016113281 50.67122650146484 3 44.99993896484375 3 M 44.99993896484375 0 C 69.85272216796875 0 89.99988555908203 20.14715576171875 89.99988555908203 44.99994277954102 L 89.99988555908203 45.00005722045898 C 89.99988555908203 69.85284423828125 69.85272216796875 90 44.99993896484375 90 C 20.14715576171875 90 -7.62939453125e-06 69.85284423828125 -7.62939453125e-06 45.00005722045898 L -7.62939453125e-06 44.99994277954102 C -7.62939453125e-06 20.14715576171875 20.14715576171875 0 44.99993896484375 0 Z" stroke="none" fill="#fff"/>
            </g>
          </g>
          <g id="Rectángulo_400907" data-name="Rectángulo 400907" transform="translate(0)" fill="none" stroke="#fff" stroke-width="3">
            <rect width="90" height="90" rx="45" stroke="none"/>
            <rect x="1.5" y="1.5" width="87" height="87" rx="43.5" fill="none"/>
          </g>
        </g>
      </g>
    </g>
    <g id="transparency_12250003" transform="translate(269.678 6607.285)">
      <g id="Grupo_1179073" data-name="Grupo 1179073" transform="translate(32.401 4.714)">
        <path id="Trazado_905773" data-name="Trazado 905773" d="M82.538,55.059h35.516q.023-22.53.036-45.058H82.576Z" transform="translate(-77.202 -10.001)" fill="#ecba78" fill-rule="evenodd"/>
        <path id="Trazado_905774" data-name="Trazado 905774" d="M37.687,99.8H73.2V62.042l-7.32-7.32h-28.2Z" transform="translate(-37.687 -49.402)" fill="#f3f5fb" fill-rule="evenodd"/>
        <path id="Trazado_905775" data-name="Trazado 905775" d="M282.008,62.042l-7.32-7.32v7.32Z" transform="translate(-246.493 -49.402)" fill="#e5eaf1" fill-rule="evenodd"/>
        <path id="Trazado_905776" data-name="Trazado 905776" d="M0,0H2.809V5.344H0Z" transform="translate(40.91 49.493) rotate(-45)" fill="#5f7080"/>
        <path id="Trazado_905777" data-name="Trazado 905777" d="M0,0H1.4V5.344H0Z" transform="translate(41.903 48.499) rotate(-45)" fill="#77899b"/>
        <circle id="Elipse_11620" data-name="Elipse 11620" cx="11.004" cy="11.004" r="11.004" transform="translate(23.656 30.244)" fill="#4677d5"/>
        <path id="Trazado_905778" data-name="Trazado 905778" d="M261.172,286.448a11,11,0,1,0-6.919-3.189A10.961,10.961,0,0,0,261.172,286.448Z" transform="translate(-225.649 -234.23)" fill="#5c85da" fill-rule="evenodd"/>
        <path id="Trazado_905779" data-name="Trazado 905779" d="M418.988,444.688,417,446.674a.681.681,0,0,1-.96,0l-4.1-4.1a.681.681,0,0,1,0-.96l1.986-1.986a.681.681,0,0,1,.96,0l4.1,4.1a.681.681,0,0,1,0,.96Z" transform="translate(-367.242 -388.341)" fill="#4677d5" fill-rule="evenodd"/>
        <path id="Trazado_905780" data-name="Trazado 905780" d="M427.809,444.69l-.993.993-5.062-5.062.993-.993a.681.681,0,0,1,.96,0l4.1,4.1a.681.681,0,0,1,0,.96Z" transform="translate(-376.063 -388.343)" fill="#5c85da" fill-rule="evenodd"/>
        <circle id="Elipse_11621" data-name="Elipse 11621" cx="8.567" cy="8.567" r="8.567" transform="translate(26.093 32.681)" fill="#dbe2ec"/>
        <g id="Grupo_1179072" data-name="Grupo 1179072" transform="translate(4.392 10.646)">
          <path id="Trazado_905781" data-name="Trazado 905781" d="M279.221,302.121a8.567,8.567,0,1,0-5.2-2.466A8.532,8.532,0,0,0,279.221,302.121Z" transform="translate(-248.09 -262.996)" fill="#f3f5fb" fill-rule="evenodd"/>
          <path id="Trazado_905782" data-name="Trazado 905782" d="M291.629,327.081a1.19,1.19,0,1,1,1.92-1.407l1.413,1.921,3.24-4.407a1.19,1.19,0,1,1,1.92,1.408l-4.185,5.692a1.191,1.191,0,0,1-1.935.021Z" transform="translate(-265.607 -296.146)" fill="#4ac994" fill-rule="evenodd"/>
          <path id="Trazado_905783" data-name="Trazado 905783" d="M75.314,100.911a.711.711,0,1,1,0-1.422H94a.711.711,0,1,1,0,1.422Zm0,21.853a.711.711,0,1,1,0-1.422h12.83a.711.711,0,1,1,0,1.422Zm0,4.371a.711.711,0,1,1,0-1.422h12.83a.711.711,0,1,1,0,1.422H75.314Zm0,4.371a.711.711,0,1,1,0-1.422h12.83a.711.711,0,1,1,0,1.422H75.314Zm0,4.371a.711.711,0,1,1,0-1.422h12.83a.711.711,0,1,1,0,1.422Zm0-17.483a.711.711,0,1,1,0-1.422H91.438a.711.711,0,1,1,0,1.422Zm0-4.371a.711.711,0,1,1,0-1.422H91.438a.711.711,0,1,1,0,1.422Zm0-4.371a.711.711,0,1,1,0-1.422h25.31a.711.711,0,1,1,0,1.422H75.314Zm0-4.371a.711.711,0,1,1,0-1.422h25.31a.711.711,0,1,1,0,1.422H75.314Z" transform="translate(-74.603 -99.489)" fill="#77899b" fill-rule="evenodd"/>
          <path id="Trazado_905784" data-name="Trazado 905784" d="M360.4,269.588a5.9,5.9,0,0,0,4.7-4.7,5.9,5.9,0,0,0,4.7,4.7,5.9,5.9,0,0,0-4.7,4.7A5.9,5.9,0,0,0,360.4,269.588Z" transform="translate(-326.398 -245.212)" fill="#ffbd1c" fill-rule="evenodd"/>
          <path id="Trazado_905785" data-name="Trazado 905785" d="M256.8,215.118a.714.714,0,1,1,1.428,0v.981h.981a.714.714,0,0,1,0,1.428h-.981v.981a.714.714,0,1,1-1.428,0v-.981h-.981a.714.714,0,1,1,0-1.428h.981Zm20.522,15.7a.714.714,0,1,1,1.428,0v.981h.981a.714.714,0,1,1,0,1.428h-.981v.981a.714.714,0,1,1-1.428,0v-.981h-.981a.714.714,0,1,1,0-1.428h.981ZM275.3,214.315a.714.714,0,1,1,1.428,0v.981h.982a.714.714,0,0,1,0,1.428h-.982v.981a.714.714,0,1,1-1.428,0v-.981h-.981a.714.714,0,0,1,0-1.428h.981Z" transform="translate(-233.63 -200.025)" fill="#ffbd1c" fill-rule="evenodd"/>
        </g>
        <path id="Trazado_905786" data-name="Trazado 905786" d="M37.687,54.722h2.1V99.8h-2.1Z" transform="translate(-37.687 -49.402)" fill="#e5eaf1"/>
        <path id="Trazado_905787" data-name="Trazado 905787" d="M82.861,10h2.1v5.32h-2.1Z" transform="translate(-77.487 -10.001)" fill="#e3a76f"/>
      </g>
      <path id="Trazado_905788" data-name="Trazado 905788" d="M66.656,47.311a.713.713,0,0,1-1.087-.095l-1.4-1.9a.474.474,0,0,0-.765.56L65.77,49.09a.476.476,0,0,0,.78-.021L70.72,43.4a.474.474,0,0,0-.457-.747.469.469,0,0,0-.308.187l-3.22,4.38Zm13.828-1.155a.714.714,0,1,1,1.428,0v.981h.981a.714.714,0,0,1,0,1.428h-.981v.981a.714.714,0,1,1-1.428,0v-.981H79.5a.714.714,0,0,1,0-1.428h.981Zm-14.331-.551,2.655-3.611a1.9,1.9,0,1,1,3.062,2.245L67.7,49.912a1.9,1.9,0,0,1-3.077.021l-2.364-3.216a1.9,1.9,0,1,1,3.062-2.245l.833,1.133Zm6.4-10,.018-30.182H38.485l0,3.893H60.6a.71.71,0,0,1,.511.215l7.307,7.307a.711.711,0,0,1,.217.512v17A11.687,11.687,0,0,1,72.556,35.61ZM37.06,9.32V4.714A.714.714,0,0,1,37.775,4H73.288A.714.714,0,0,1,74,4.714L73.977,36.5l.152.113a5.589,5.589,0,0,0,.666-1.722.713.713,0,0,1,1.4.01,5.2,5.2,0,0,0,4.123,4.131.714.714,0,0,1-.012,1.407,5.023,5.023,0,0,0-2.371,1.137,11.751,11.751,0,0,1-1.222,11.036l2.516,2.515a1.388,1.388,0,0,1,1.324.367h0l4.1,4.1a1.388,1.388,0,0,1,.4.985h0a1.389,1.389,0,0,1-.407.985l-1.986,1.986a1.391,1.391,0,0,1-1.968,0h0l-4.1-4.1a1.4,1.4,0,0,1-.365-1.325L73.714,55.61a11.731,11.731,0,0,1-12.988.212H32.4a.714.714,0,0,1-.714-.714V10.034A.714.714,0,0,1,32.4,9.32H37.06ZM67.913,35.7a10.249,10.249,0,0,1,5.323,2.024,5.148,5.148,0,0,1-.836.642,9.293,9.293,0,1,0,3.816,6.085,5.549,5.549,0,0,1,.651-1.619,10.3,10.3,0,1,1-9.06-7.14.722.722,0,0,0,.106.008ZM67.2,34.247a11.715,11.715,0,0,0-8.278,20.147H33.115V10.748H59.882v6.607a.714.714,0,0,0,.714.714H67.2V34.247ZM66.193,16.641H61.31V11.757ZM37.5,38.635h12.83a.711.711,0,1,0,0-1.422H37.5a.711.711,0,1,0,0,1.422Zm0,4.371h12.83a.711.711,0,1,0,0-1.422H37.5a.711.711,0,1,0,0,1.422Zm0,4.371h12.83a.711.711,0,1,0,0-1.422H37.5a.711.711,0,1,0,0,1.422Zm0,4.371h12.83a.711.711,0,1,0,0-1.422H37.5a.711.711,0,1,0,0,1.422Zm0-17.483a.711.711,0,1,1,0-1.422H53.627a.711.711,0,1,1,0,1.422H37.5Zm0-4.371a.711.711,0,1,1,0-1.422H53.627a.711.711,0,0,1,0,1.422H37.5ZM78.076,56l-2.255-2.255-.977.976L77.1,56.976Zm3.6,6.519,1.937-1.937-4.052-4.052-1.937,1.937ZM70.741,39.02l-.059.011a.714.714,0,0,0-.012,1.407,5.2,5.2,0,0,1,4.123,4.131,7.919,7.919,0,0,1-.236,3.745,7.854,7.854,0,1,1-3.815-9.295ZM37.5,25.523a.711.711,0,1,1,0-1.422h25.31a.711.711,0,1,1,0,1.422Zm0-4.371a.711.711,0,0,1,0-1.422h25.31a.711.711,0,0,1,0,1.422Zm0-4.371a.711.711,0,0,1,0-1.422H56.191a.711.711,0,1,1,0,1.422ZM74.351,38.636a6.557,6.557,0,0,1-1.461,1.1,6.567,6.567,0,0,1,2.6,2.634,6.568,6.568,0,0,1,2.6-2.634,6.567,6.567,0,0,1-2.6-2.634A6.6,6.6,0,0,1,74.351,38.636Zm4.11-8.987v.981h-.981a.714.714,0,0,0,0,1.428h.981v.981a.714.714,0,0,0,1.428,0v-.981h.981a.714.714,0,0,0,0-1.428h-.981v-.981a.714.714,0,0,0-1.428,0Zm-18.5.8a.714.714,0,1,1,1.428,0v.981h.981a.714.714,0,1,1,0,1.428h-.981v.981a.714.714,0,1,1-1.428,0v-.981H58.98a.714.714,0,1,1,0-1.428h.981Z" transform="translate(0 0)" fill-rule="evenodd"/>
    </g>
  </g>
</svg>
