<svg xmlns="http://www.w3.org/2000/svg" xmlns:xlink="http://www.w3.org/1999/xlink" width="108" height="108" viewBox="0 0 108 108">
  <defs>
    <filter id="Trazado_896985" x="0" y="0" width="108" height="108" filterUnits="userSpaceOnUse">
      <feOffset dy="3" input="SourceAlpha"/>
      <feGaussianBlur stdDeviation="3" result="blur"/>
      <feFlood flood-opacity="0.161"/>
      <feComposite operator="in" in2="blur"/>
      <feComposite in="SourceGraphic"/>
    </filter>
  </defs>
  <g id="Grupo_1179101" data-name="Grupo 1179101" transform="translate(-589.051 -6590.265)">
    <g id="Grupo_1174750" data-name="Grupo 1174750" transform="translate(598.051 6596.265)">
      <g id="Grupo_1109826" data-name="Grupo 1109826">
        <g id="Grupo_1098742" data-name="Grupo 1098742">
          <g transform="matrix(1, 0, 0, 1, -9, -6)" filter="url(#Trazado_896985)">
            <g id="Trazado_896985-2" data-name="Trazado 896985" transform="translate(9 6)" fill="#e0edd6" opacity="0.859">
              <path d="M 44.99993896484375 88.5 C 39.12682723999023 88.5 33.4301872253418 87.35007476806641 28.06826400756836 85.08217620849609 C 22.88850212097168 82.89132690429688 18.23627662658691 79.75461578369141 14.2408390045166 75.75916290283203 C 10.24540138244629 71.76372528076172 7.108676433563232 67.11151123046875 4.917826652526855 61.9317512512207 C 2.649926424026489 56.56982421875 1.500001430511475 50.87317657470703 1.500001430511475 45.00006103515625 C 1.500001430511475 39.12682342529297 2.649926424026489 33.4301872253418 4.917826652526855 28.06826210021973 C 7.108676433563232 22.88850021362305 10.24540138244629 18.23628807067871 14.2408390045166 14.24083709716797 C 18.23628807067871 10.24540042877197 22.88850212097168 7.108675003051758 28.06826400756836 4.917825222015381 C 33.4301872253418 2.649924993515015 39.12682723999023 1.5 44.99993896484375 1.5 C 50.87305068969727 1.5 56.5697021484375 2.649924993515015 61.93162536621094 4.917825222015381 C 67.11138916015625 7.108675003051758 71.76360321044922 10.24540042877197 75.75904083251953 14.24083709716797 C 79.75448608398438 18.23627471923828 82.89120483398438 22.88850021362305 85.08205413818359 28.06826210021973 C 87.34995269775391 33.4301872253418 88.4998779296875 39.12682342529297 88.4998779296875 44.99993896484375 C 88.4998779296875 50.87317657470703 87.34995269775391 56.56982421875 85.08205413818359 61.9317512512207 C 82.89120483398438 67.11151123046875 79.75448608398438 71.76372528076172 75.75904083251953 75.75916290283203 C 71.76360321044922 79.75461578369141 67.11138916015625 82.89132690429688 61.93162536621094 85.08217620849609 C 56.5697021484375 87.35007476806641 50.87305068969727 88.5 44.99993896484375 88.5 Z" stroke="none"/>
              <path d="M 44.99993896484375 3 C 39.32865142822266 3 33.82860946655273 4.110054016113281 28.65258026123047 6.299331665039062 C 23.65162658691406 8.414558410644531 19.15966796875 11.44332885742188 15.30149841308594 15.30149841308594 C 11.44332122802734 19.15966796875 8.41455078125 23.65162658691406 6.299324035644531 28.65258407592773 C 4.110054016113281 33.82861328125 2.999992370605469 39.32865524291992 2.999992370605469 45.00005722045898 C 2.999992370605469 50.67134475708008 4.110054016113281 56.17138671875 6.299324035644531 61.347412109375 C 8.41455078125 66.34837341308594 11.44332122802734 70.84033203125 15.30149841308594 74.69850158691406 C 19.15966796875 78.55667114257812 23.65162658691406 81.58544158935547 28.65258026123047 83.70066833496094 C 33.82860946655273 85.88994598388672 39.32865142822266 87 44.99993896484375 87 C 50.67122650146484 87 56.17126846313477 85.88994598388672 61.34729766845703 83.70066833496094 C 66.34825134277344 81.58544158935547 70.8402099609375 78.55667114257812 74.69837951660156 74.69850158691406 C 78.55654907226562 70.84033203125 81.5853271484375 66.34837341308594 83.70055389404297 61.347412109375 C 85.88982391357422 56.17138671875 86.9998779296875 50.67134475708008 86.9998779296875 44.99994277954102 C 86.9998779296875 39.32865524291992 85.88982391357422 33.82861328125 83.70055389404297 28.65258407592773 C 81.5853271484375 23.65162658691406 78.55654907226562 19.15966796875 74.69837951660156 15.30149841308594 C 70.8402099609375 11.44332885742188 66.34825134277344 8.414558410644531 61.34729766845703 6.299331665039062 C 56.17126846313477 4.110054016113281 50.67122650146484 3 44.99993896484375 3 M 44.99993896484375 0 C 69.85272216796875 0 89.99988555908203 20.14715576171875 89.99988555908203 44.99994277954102 L 89.99988555908203 45.00005722045898 C 89.99988555908203 69.85284423828125 69.85272216796875 90 44.99993896484375 90 C 20.14715576171875 90 -7.62939453125e-06 69.85284423828125 -7.62939453125e-06 45.00005722045898 L -7.62939453125e-06 44.99994277954102 C -7.62939453125e-06 20.14715576171875 20.14715576171875 0 44.99993896484375 0 Z" stroke="none" fill="#fff"/>
            </g>
          </g>
          <g id="Rectángulo_400907" data-name="Rectángulo 400907" transform="translate(0)" fill="none" stroke="#fff" stroke-width="3">
            <rect width="90" height="90" rx="45" stroke="none"/>
            <rect x="1.5" y="1.5" width="87" height="87" rx="43.5" fill="none"/>
          </g>
        </g>
      </g>
    </g>
    <g id="checklist_4089401" transform="translate(615.594 6616.543)">
      <g id="Grupo_1179099" data-name="Grupo 1179099" transform="translate(0.886 0.886)">
        <g id="Grupo_1179075" data-name="Grupo 1179075" transform="translate(8.857 40.743)">
          <path id="Trazado_905789" data-name="Trazado 905789" d="M15.429,47l2.657,8.857H11L13.657,47Z" transform="translate(-11 -47)" fill="#ff826e"/>
        </g>
        <g id="Grupo_1179076" data-name="Grupo 1179076" transform="translate(10.283 37.2)">
          <path id="Trazado_905790" data-name="Trazado 905790" d="M16.844,44.692l-1.231,1.851H13.841L12.61,44.692,14.727,43Z" transform="translate(-12.61 -43)" fill="#fc6e51"/>
        </g>
        <g id="Grupo_1179077" data-name="Grupo 1179077" transform="translate(13.286 36.544)">
          <path id="Trazado_905791" data-name="Trazado 905791" d="M22.2,55.315H18.657L16,46.458l1.231-1.851,2.312,1.851.7-4.2a12.378,12.378,0,0,1,7.272,11.284v1.771Z" transform="translate(-16 -42.26)" fill="#e6e9ed"/>
        </g>
        <g id="Grupo_1179078" data-name="Grupo 1179078" transform="translate(0 36.544)">
          <path id="Trazado_905792" data-name="Trazado 905792" d="M12.514,46.458,9.857,55.315H1V53.544A12.378,12.378,0,0,1,8.272,42.26l.7,4.2,2.312-1.851Z" transform="translate(-1 -42.26)" fill="#e6e9ed"/>
        </g>
        <g id="Grupo_1179079" data-name="Grupo 1179079" transform="translate(12.4 36.332)">
          <path id="Trazado_905793" data-name="Trazado 905793" d="M16.771,42.888a6.948,6.948,0,0,0,3.392-.868l-.035.213-.7,4.2L17.117,44.58,15,42.888Z" transform="translate(-15 -42.02)" fill="#ccd1d9"/>
        </g>
        <g id="Grupo_1179080" data-name="Grupo 1179080" transform="translate(7.236 36.332)">
          <path id="Trazado_905794" data-name="Trazado 905794" d="M12.217,44.58,9.905,46.431l-.7-4.2L9.17,42.02a6.948,6.948,0,0,0,3.392.868h1.771Z" transform="translate(-9.17 -42.02)" fill="#ccd1d9"/>
        </g>
        <g id="Grupo_1179081" data-name="Grupo 1179081" transform="translate(14.171 3.543)">
          <path id="Trazado_905795" data-name="Trazado 905795" d="M17,5h3.543V8.543H17Z" transform="translate(-17 -5)" fill="#ff826e"/>
        </g>
        <g id="Grupo_1179082" data-name="Grupo 1179082" transform="translate(7.086 3.543)">
          <path id="Trazado_905796" data-name="Trazado 905796" d="M9,5h3.543V8.543H9Z" transform="translate(-9 -5)" fill="#ff826e"/>
        </g>
        <g id="Grupo_1179083" data-name="Grupo 1179083" transform="translate(0 3.543)">
          <path id="Trazado_905797" data-name="Trazado 905797" d="M1,5H4.543V8.543H1Z" transform="translate(-1 -5)" fill="#ff826e"/>
        </g>
        <g id="Grupo_1179084" data-name="Grupo 1179084" transform="translate(44.286 1.771)">
          <path id="Trazado_905798" data-name="Trazado 905798" d="M58.971,41.971H52.816a1.978,1.978,0,0,1,.39-1.47l-2.073-2.073h5.181V6.543H51V3h7.971a.888.888,0,0,1,.886.886v37.2a.888.888,0,0,1-.886.886Z" transform="translate(-51 -3)" fill="#cf9e76"/>
        </g>
        <g id="Grupo_1179085" data-name="Grupo 1179085" transform="translate(24.8 1.771)">
          <path id="Trazado_905799" data-name="Trazado 905799" d="M37.857,3V6.543H32.543V38.428h5.181L35.652,40.5a2.008,2.008,0,0,1,.407,1.222,2.334,2.334,0,0,1-.018.248H29.886A.888.888,0,0,1,29,41.086V3.886A.888.888,0,0,1,29.886,3Z" transform="translate(-29 -3)" fill="#cf9e76"/>
        </g>
        <g id="Grupo_1179086" data-name="Grupo 1179086" transform="translate(0 12.4)">
          <path id="Trazado_905800" data-name="Trazado 905800" d="M8.892,20.793,7.483,21.5a5.316,5.316,0,0,0-2.941,4.756V27.4H3.657a2.591,2.591,0,0,0-1.9.815l-.009-.009-.673-4.712A8.315,8.315,0,0,1,1,22.44,7.439,7.439,0,0,1,8.44,15h9.92a7.439,7.439,0,0,1,7.44,7.44,8.315,8.315,0,0,1-.071,1.054l-.673,4.712-.009.009a2.591,2.591,0,0,0-1.9-.815h-.886a5.318,5.318,0,0,0-5.314-5.314H11.629a3.555,3.555,0,0,1-2.737-1.293Z" transform="translate(-1 -15)" fill="#656d78"/>
        </g>
        <g id="Grupo_1179087" data-name="Grupo 1179087" transform="translate(33.657)">
          <path id="Trazado_905801" data-name="Trazado 905801" d="M49.629,2.771V6.314H39V1.886A.888.888,0,0,1,39.886,1h8.857a.888.888,0,0,1,.886.886Z" transform="translate(-39 -1)" fill="#b4dd7f"/>
        </g>
        <g id="Grupo_1179088" data-name="Grupo 1179088" transform="translate(28.343 5.314)">
          <path id="Trazado_905802" data-name="Trazado 905802" d="M48.943,7H33V38.886H54.257V7Z" transform="translate(-33 -7)" fill="#e6e9ed"/>
        </g>
        <g id="Grupo_1179089" data-name="Grupo 1179089" transform="translate(31.886 8.857)">
          <path id="Trazado_905803" data-name="Trazado 905803" d="M37,11H51.171V23.4H37Z" transform="translate(-37 -11)" fill="#ff826e"/>
        </g>
        <g id="Grupo_1179090" data-name="Grupo 1179090" transform="translate(30.114 35.428)">
          <path id="Trazado_905804" data-name="Trazado 905804" d="M38.543,49.857a5.314,5.314,0,1,0,5.314-5.314A5.318,5.318,0,0,0,38.543,49.857Zm1.771-7.13A2.027,2.027,0,0,0,42.086,41h3.543A2.027,2.027,0,0,0,47.4,42.727a2.335,2.335,0,0,0,.248.018,2.008,2.008,0,0,0,1.222-.407l.425.434H49.3l2.073,2.073a1.978,1.978,0,0,0-.39,1.47,2.018,2.018,0,0,0,1.727,1.771v3.543a2.04,2.04,0,0,0-1.337,3.242L48.87,57.377a2.04,2.04,0,0,0-3.242,1.337H42.086a2.04,2.04,0,0,0-3.242-1.337L36.337,54.87A2.04,2.04,0,0,0,35,51.629V48.086a2.018,2.018,0,0,0,1.727-1.771,2.335,2.335,0,0,0,.018-.248,2.008,2.008,0,0,0-.407-1.222l2.073-2.073h.009l.425-.434a2.008,2.008,0,0,0,1.222.407,2.334,2.334,0,0,0,.248-.018Z" transform="translate(-35 -41)" fill="#ffc729"/>
        </g>
        <g id="Grupo_1179091" data-name="Grupo 1179091" transform="translate(33.657 38.971)">
          <path id="Trazado_905805" data-name="Trazado 905805" d="M44.314,45A5.314,5.314,0,1,1,39,50.314,5.318,5.318,0,0,1,44.314,45Zm1.771,5.314a1.771,1.771,0,1,0-1.771,1.771A1.777,1.777,0,0,0,46.086,50.314Z" transform="translate(-39 -45)" fill="#fcd770"/>
        </g>
        <g id="Grupo_1179092" data-name="Grupo 1179092" transform="translate(21.257 24.8)">
          <path id="Trazado_905806" data-name="Trazado 905806" d="M25.886,29a2.676,2.676,0,0,1,2.657,2.657,2.661,2.661,0,0,1-2.657,2.657H25V29Z" transform="translate(-25 -29)" fill="#f0d0b4"/>
        </g>
        <g id="Grupo_1179093" data-name="Grupo 1179093" transform="translate(3.543 18.192)">
          <path id="Trazado_905807" data-name="Trazado 905807" d="M19.021,39.679a6.948,6.948,0,0,1-3.392.868H12.086a6.948,6.948,0,0,1-3.392-.868A7.06,7.06,0,0,1,5,33.462V27a5.316,5.316,0,0,1,2.941-4.756l1.408-.709a3.555,3.555,0,0,0,2.737,1.293H17.4a5.318,5.318,0,0,1,5.314,5.314v5.314A7.06,7.06,0,0,1,19.021,39.679Z" transform="translate(-5 -21.54)" fill="#f0d0b4"/>
        </g>
        <g id="Grupo_1179094" data-name="Grupo 1179094" transform="translate(0 24.8)">
          <path id="Trazado_905808" data-name="Trazado 905808" d="M4.543,29v5.314H3.657A2.661,2.661,0,0,1,1,31.657,2.676,2.676,0,0,1,3.657,29Z" transform="translate(-1 -29)" fill="#f0d0b4"/>
        </g>
        <g id="Grupo_1179095" data-name="Grupo 1179095" transform="translate(35.428 19.486)">
          <path id="Trazado_905809" data-name="Trazado 905809" d="M46.093,24.771l1.993,5.314H41l1.993-5.314.354-.939a1.275,1.275,0,0,1,2.391,0Z" transform="translate(-41 -23)" fill="#ccd1d9"/>
        </g>
        <g id="Grupo_1179096" data-name="Grupo 1179096" transform="translate(35.428 26.571)">
          <path id="Trazado_905810" data-name="Trazado 905810" d="M44.543,31v8.857H42.771A2.027,2.027,0,0,1,41,41.584V31Z" transform="translate(-41 -31)" fill="#b4dd7f"/>
        </g>
        <g id="Grupo_1179097" data-name="Grupo 1179097" transform="translate(38.971 26.571)">
          <path id="Trazado_905811" data-name="Trazado 905811" d="M48.543,31V41.584a2.027,2.027,0,0,1-1.771-1.727H45V31Z" transform="translate(-45 -31)" fill="#ff826e"/>
        </g>
      </g>
      <g id="Grupo_1179100" data-name="Grupo 1179100" transform="translate(0)">
        <path id="Trazado_905816" data-name="Trazado 905816" d="M5.314,4H0V9.314H5.314ZM3.543,7.543H1.771V5.771H3.543Z" transform="translate(0 -0.457)"/>
        <path id="Trazado_905817" data-name="Trazado 905817" d="M13.314,4H8V9.314h5.314ZM11.543,7.543H9.771V5.771h1.771Z" transform="translate(-0.914 -0.457)"/>
        <path id="Trazado_905818" data-name="Trazado 905818" d="M21.314,4H16V9.314h5.314ZM19.543,7.543H17.771V5.771h1.771Z" transform="translate(-1.829 -0.457)"/>
        <path id="Trazado_905819" data-name="Trazado 905819" d="M44.2,44a6.2,6.2,0,1,0,6.2,6.2A6.207,6.207,0,0,0,44.2,44Zm0,10.629A4.429,4.429,0,1,1,48.629,50.2,4.434,4.434,0,0,1,44.2,54.629Z" transform="translate(-4.343 -5.029)"/>
        <path id="Trazado_905820" data-name="Trazado 905820" d="M44.657,48a2.657,2.657,0,1,0,2.657,2.657A2.66,2.66,0,0,0,44.657,48Zm0,3.543a.886.886,0,1,1,.886-.886A.887.887,0,0,1,44.657,51.543Z" transform="translate(-4.8 -5.486)"/>
        <path id="Trazado_905821" data-name="Trazado 905821" d="M53.143,1.771H46.057A1.773,1.773,0,0,0,44.286,0H35.428a1.773,1.773,0,0,0-1.771,1.771H26.571A1.773,1.773,0,0,0,24.8,3.543V15.611A8.311,8.311,0,0,0,18.243,12.4H8.328A8.325,8.325,0,0,0,.084,21.905L.7,26.244a3.511,3.511,0,0,0-.7,2.1,3.546,3.546,0,0,0,3.543,3.543H3.6a7.962,7.962,0,0,0,2.988,5.366A13.313,13.313,0,0,0,0,48.714v2.657H26.571V48.714a13.314,13.314,0,0,0-6.583-11.463,7.965,7.965,0,0,0,2.988-5.366h.051a3.506,3.506,0,0,0,1.771-.492v9.35a1.773,1.773,0,0,0,1.771,1.771h4.336c-.011,0-.02.007-.032.009l-.761.109v5.079l.761.109a1.151,1.151,0,0,1,.758,1.831l-.461.614,3.592,3.592.615-.461a1.152,1.152,0,0,1,1.831.759l.109.761H42.4l.109-.76a1.152,1.152,0,0,1,1.831-.759l.615.461,3.592-3.592-.461-.614a1.151,1.151,0,0,1,.758-1.831l.761-.11V42.632l-.761-.109c-.012,0-.02-.007-.032-.009h4.336a1.773,1.773,0,0,0,1.771-1.771V3.543a1.773,1.773,0,0,0-1.771-1.771ZM44.95,36.486l-.615.461c-.016.012-.034.018-.05.028V27.3l-1.6-4.267h5.143V8.857H31.886V23.028h5.143l-1.6,4.267v9.68c-.016-.011-.035-.017-.05-.028l-.615-.461-.713.714H30.114V7.086H49.6V37.2H45.664ZM38.971,18.967l7.086-7.086v9.376H42.021l-.137-.367a2.164,2.164,0,0,0-4.053,0l-.137.368H33.657V10.629H44.8l-5.833,5.833L36.94,14.431l-1.252,1.252Zm1.822,4.062H38.922l.569-1.517a.409.409,0,0,1,.734,0ZM38.256,24.8h3.2l.664,1.771h-4.53ZM37.2,28.343h1.771v7.086H37.318l-.109.76c0,.012-.007.021-.009.033Zm3.543,0h1.771v7.879c0-.012-.007-.021-.009-.033l-.109-.761H40.743ZM44.286,1.771V5.314H35.428V1.771ZM8.328,14.171h9.915A6.564,6.564,0,0,1,24.8,20.727a6.634,6.634,0,0,1-.066.927l-.482,3.375a3.519,3.519,0,0,0-1.224-.23h-.071a6.2,6.2,0,0,0-6.129-5.314H11.514a2.66,2.66,0,0,1-2.657-2.657v-.886H7.086v.886a4.406,4.406,0,0,0,.427,1.9L6.971,19a6.168,6.168,0,0,0-3.428,5.545V24.8a3.49,3.49,0,0,0-1.223.231l-.482-3.375a6.554,6.554,0,0,1,6.49-7.484ZM1.771,28.343a1.773,1.773,0,0,1,1.771-1.771v3.543A1.773,1.773,0,0,1,1.771,28.343ZM13.059,42.514h.453L15.638,49.6h-4.7Zm.639-1.771h-.824l-.519-.779.931-.744.931.745Zm2.068-1.808a7.98,7.98,0,0,0,1.527-.289l-.214,1.34ZM9.492,39.986l-.214-1.34a7.846,7.846,0,0,0,1.527.289ZM1.771,48.714A11.541,11.541,0,0,1,7.5,38.763l.719,4.507,2.745-2.2.465.7L9.084,49.6h-2V44.286H5.314V49.6H1.771Zm23.028,0V49.6H21.257V44.286H19.486V49.6h-2l-2.348-7.827.465-.7,2.745,2.2.719-4.507A11.541,11.541,0,0,1,24.8,48.714ZM21.257,31a6.207,6.207,0,0,1-6.2,6.2H11.514a6.207,6.207,0,0,1-6.2-6.2V24.541A4.406,4.406,0,0,1,7.762,20.58l.839-.42a4.407,4.407,0,0,0,2.913,1.1h5.314a4.434,4.434,0,0,1,4.429,4.429Zm1.771-.886V26.571a1.771,1.771,0,0,1,0,3.543ZM26.571,3.543h7.086V5.314H28.343V38.971h3.935l-1.106,1.106.461.614c.012.016.018.035.029.051H26.571ZM47.828,46.28a2.933,2.933,0,0,0-1.551,3.745l-1.569,1.568a2.93,2.93,0,0,0-3.744,1.551H38.747A2.93,2.93,0,0,0,35,51.593l-1.569-1.568a2.933,2.933,0,0,0-1.551-3.745V44.062a2.933,2.933,0,0,0,1.551-3.745L35,38.75A2.93,2.93,0,0,0,38.747,37.2h2.218a2.93,2.93,0,0,0,3.744,1.551l1.569,1.568a2.933,2.933,0,0,0,1.551,3.745Zm5.314-5.537H48.052c.012-.017.017-.035.029-.051l.461-.614-1.106-1.106h3.935V5.314H46.057V3.543h7.086Z" transform="translate(0)"/>
      </g>
    </g>
  </g>
</svg>
