<svg xmlns="http://www.w3.org/2000/svg" xmlns:xlink="http://www.w3.org/1999/xlink" width="108" height="108" viewBox="0 0 108 108">
  <defs>
    <filter id="Trazado_896985" x="0" y="0" width="108" height="108" filterUnits="userSpaceOnUse">
      <feOffset dy="3" input="SourceAlpha"/>
      <feGaussianBlur stdDeviation="3" result="blur"/>
      <feFlood flood-opacity="0.161"/>
      <feComposite operator="in" in2="blur"/>
      <feComposite in="SourceGraphic"/>
    </filter>
  </defs>
  <g id="Grupo_1179103" data-name="Grupo 1179103" transform="translate(-904.051 -6590.265)">
    <g id="Grupo_1174751" data-name="Grupo 1174751" transform="translate(913.051 6596.265)">
      <g id="Grupo_1109826" data-name="Grupo 1109826">
        <g id="Grupo_1098742" data-name="Grupo 1098742">
          <g transform="matrix(1, 0, 0, 1, -9, -6)" filter="url(#Trazado_896985)">
            <g id="Trazado_896985-2" data-name="Trazado 896985" transform="translate(9 6)" fill="#e0edd6" opacity="0.859">
              <path d="M 44.99993896484375 88.5 C 39.12682723999023 88.5 33.4301872253418 87.35007476806641 28.06826400756836 85.08217620849609 C 22.88850212097168 82.89132690429688 18.23627662658691 79.75461578369141 14.2408390045166 75.75916290283203 C 10.24540138244629 71.76372528076172 7.108676433563232 67.11151123046875 4.917826652526855 61.9317512512207 C 2.649926424026489 56.56982421875 1.500001430511475 50.87317657470703 1.500001430511475 45.00006103515625 C 1.500001430511475 39.12682342529297 2.649926424026489 33.4301872253418 4.917826652526855 28.06826210021973 C 7.108676433563232 22.88850021362305 10.24540138244629 18.23628807067871 14.2408390045166 14.24083709716797 C 18.23628807067871 10.24540042877197 22.88850212097168 7.108675003051758 28.06826400756836 4.917825222015381 C 33.4301872253418 2.649924993515015 39.12682723999023 1.5 44.99993896484375 1.5 C 50.87305068969727 1.5 56.5697021484375 2.649924993515015 61.93162536621094 4.917825222015381 C 67.11138916015625 7.108675003051758 71.76360321044922 10.24540042877197 75.75904083251953 14.24083709716797 C 79.75448608398438 18.23627471923828 82.89120483398438 22.88850021362305 85.08205413818359 28.06826210021973 C 87.34995269775391 33.4301872253418 88.4998779296875 39.12682342529297 88.4998779296875 44.99993896484375 C 88.4998779296875 50.87317657470703 87.34995269775391 56.56982421875 85.08205413818359 61.9317512512207 C 82.89120483398438 67.11151123046875 79.75448608398438 71.76372528076172 75.75904083251953 75.75916290283203 C 71.76360321044922 79.75461578369141 67.11138916015625 82.89132690429688 61.93162536621094 85.08217620849609 C 56.5697021484375 87.35007476806641 50.87305068969727 88.5 44.99993896484375 88.5 Z" stroke="none"/>
              <path d="M 44.99993896484375 3 C 39.32865142822266 3 33.82860946655273 4.110054016113281 28.65258026123047 6.299331665039062 C 23.65162658691406 8.414558410644531 19.15966796875 11.44332885742188 15.30149841308594 15.30149841308594 C 11.44332122802734 19.15966796875 8.41455078125 23.65162658691406 6.299324035644531 28.65258407592773 C 4.110054016113281 33.82861328125 2.999992370605469 39.32865524291992 2.999992370605469 45.00005722045898 C 2.999992370605469 50.67134475708008 4.110054016113281 56.17138671875 6.299324035644531 61.347412109375 C 8.41455078125 66.34837341308594 11.44332122802734 70.84033203125 15.30149841308594 74.69850158691406 C 19.15966796875 78.55667114257812 23.65162658691406 81.58544158935547 28.65258026123047 83.70066833496094 C 33.82860946655273 85.88994598388672 39.32865142822266 87 44.99993896484375 87 C 50.67122650146484 87 56.17126846313477 85.88994598388672 61.34729766845703 83.70066833496094 C 66.34825134277344 81.58544158935547 70.8402099609375 78.55667114257812 74.69837951660156 74.69850158691406 C 78.55654907226562 70.84033203125 81.5853271484375 66.34837341308594 83.70055389404297 61.347412109375 C 85.88982391357422 56.17138671875 86.9998779296875 50.67134475708008 86.9998779296875 44.99994277954102 C 86.9998779296875 39.32865524291992 85.88982391357422 33.82861328125 83.70055389404297 28.65258407592773 C 81.5853271484375 23.65162658691406 78.55654907226562 19.15966796875 74.69837951660156 15.30149841308594 C 70.8402099609375 11.44332885742188 66.34825134277344 8.414558410644531 61.34729766845703 6.299331665039062 C 56.17126846313477 4.110054016113281 50.67122650146484 3 44.99993896484375 3 M 44.99993896484375 0 C 69.85272216796875 0 89.99988555908203 20.14715576171875 89.99988555908203 44.99994277954102 L 89.99988555908203 45.00005722045898 C 89.99988555908203 69.85284423828125 69.85272216796875 90 44.99993896484375 90 C 20.14715576171875 90 -7.62939453125e-06 69.85284423828125 -7.62939453125e-06 45.00005722045898 L -7.62939453125e-06 44.99994277954102 C -7.62939453125e-06 20.14715576171875 20.14715576171875 0 44.99993896484375 0 Z" stroke="none" fill="#fff"/>
            </g>
          </g>
          <g id="Rectángulo_400907" data-name="Rectángulo 400907" transform="translate(0)" fill="none" stroke="#fff" stroke-width="3">
            <rect width="90" height="90" rx="45" stroke="none"/>
            <rect x="1.5" y="1.5" width="87" height="87" rx="43.5" fill="none"/>
          </g>
        </g>
      </g>
    </g>
    <g id="weather_16227730" transform="translate(931.045 6614.259)">
      <path id="Trazado_905822" data-name="Trazado 905822" d="M3.731,52.333H50.708a1.677,1.677,0,0,0,1.678-1.678V3.678A1.677,1.677,0,0,0,50.708,2H3.731A1.677,1.677,0,0,0,2.053,3.678V50.655a1.678,1.678,0,0,0,1.678,1.678Z" transform="translate(-0.17 -0.161)" fill="#d4d4d5"/>
      <path id="Trazado_905823" data-name="Trazado 905823" d="M51.505,2H7V40.034a8.943,8.943,0,0,0,8.943,8.943h37.24V3.678A1.677,1.677,0,0,0,51.505,2Z" transform="translate(-0.967 -0.161)" fill="#e9edf5"/>
      <path id="Trazado_905824" data-name="Trazado 905824" d="M53.98,3.678A1.677,1.677,0,0,0,52.3,2H11.947V36.679a8.943,8.943,0,0,0,8.943,8.943H53.98Z" transform="translate(-1.764 -0.161)" fill="#f2f6fc"/>
      <path id="Trazado_905825" data-name="Trazado 905825" d="M16.281,35.332V10.517a2.517,2.517,0,0,0-5.033,0V35.332a6.711,6.711,0,1,0,5.033,0Z" transform="translate(-0.975 -1.128)" fill="#ea5b70"/>
      <path id="Trazado_905826" data-name="Trazado 905826" d="M16.764,35.4V10.584a2.506,2.506,0,0,0-1.258-2.168,2.506,2.506,0,0,0-1.258,2.168V35.4a6.71,6.71,0,0,0,1.258,12.812A6.71,6.71,0,0,0,16.764,35.4Z" transform="translate(-1.459 -1.195)" fill="#ff8e9e"/>
      <path id="Trazado_905827" data-name="Trazado 905827" d="M17.086,10.517a2.517,2.517,0,1,0-5.033,0V26.455h5.033Z" transform="translate(-1.781 -1.128)" fill="#c4e2ff"/>
      <path id="Trazado_905828" data-name="Trazado 905828" d="M16.311,8.416a2.506,2.506,0,0,0-1.258,2.168V26.522H17.57V10.584A2.506,2.506,0,0,0,16.311,8.416Z" transform="translate(-2.264 -1.195)" fill="#e6f1ff"/>
      <path id="Trazado_905829" data-name="Trazado 905829" d="M43.12,33.166H38.086a5.033,5.033,0,0,1-5.033-5.033v-15.1A5.033,5.033,0,0,1,38.086,8H43.12a5.033,5.033,0,0,1,5.033,5.033v3.356a.839.839,0,0,1-.839.839H43.958a.839.839,0,0,1-.839-.839V14.711a1.677,1.677,0,0,0-1.678-1.678H39.764a1.677,1.677,0,0,0-1.678,1.678V26.455a1.677,1.677,0,0,0,1.678,1.678h1.678a1.677,1.677,0,0,0,1.678-1.678V24.778a.839.839,0,0,1,.839-.839h3.356a.839.839,0,0,1,.839.839v3.356A5.033,5.033,0,0,1,43.12,33.166Z" transform="translate(-5.164 -1.128)" fill="#ffb357"/>
      <path id="Trazado_905830" data-name="Trazado 905830" d="M47.636,23.939H44.281a.839.839,0,0,0-.839.839v1.678a1.677,1.677,0,0,1-1.678,1.678H40.086a1.677,1.677,0,0,1-1.678-1.678V14.711a1.677,1.677,0,0,1,1.678-1.678h1.678a1.677,1.677,0,0,1,1.678,1.678v1.678a.839.839,0,0,0,.839.839h3.356a.839.839,0,0,0,.839-.839V13.033A5.033,5.033,0,0,0,43.442,8H38.409a5.007,5.007,0,0,0-2.616.739,5.007,5.007,0,0,0-.739,2.616v15.1a5.033,5.033,0,0,0,5.033,5.033H45.12a5.007,5.007,0,0,0,2.616-.739,5.007,5.007,0,0,0,.739-2.616V24.778A.839.839,0,0,0,47.636,23.939Z" transform="translate(-5.487 -1.128)" fill="#ffce71"/>
      <g id="Grupo_1179102" data-name="Grupo 1179102" transform="translate(1 1)">
        <path id="Trazado_905831" data-name="Trazado 905831" d="M52.172,6.1a.839.839,0,0,0,.839-.839V3.517A2.52,2.52,0,0,0,50.494,1H3.517A2.52,2.52,0,0,0,1,3.517V50.494a2.52,2.52,0,0,0,2.517,2.517H6.033a.839.839,0,1,0,0-1.678H3.517a.84.84,0,0,1-.839-.839V3.517a.84.84,0,0,1,.839-.839H22.811V51.333H9.363a.839.839,0,1,0,0,1.678H50.494a2.52,2.52,0,0,0,2.517-2.517V8.547a.839.839,0,1,0-1.678,0V36.233H24.489V2.678H50.494a.84.84,0,0,1,.839.839V5.26A.839.839,0,0,0,52.172,6.1Zm-.839,31.812V50.494a.84.84,0,0,1-.839.839H24.489V37.911Z" transform="translate(-1 -1)"/>
        <path id="Trazado_905832" data-name="Trazado 905832" d="M43.744,17.905H47.1a1.679,1.679,0,0,0,1.678-1.678V12.872A5.879,5.879,0,0,0,42.905,7H37.872A5.879,5.879,0,0,0,32,12.872v15.1a5.879,5.879,0,0,0,5.872,5.872h5.033a5.879,5.879,0,0,0,5.872-5.872V24.617A1.679,1.679,0,0,0,47.1,22.939H43.744a1.679,1.679,0,0,0-1.678,1.678v1.678a.84.84,0,0,1-.839.839H39.55a.84.84,0,0,1-.839-.839V14.55a.84.84,0,0,1,.839-.839h1.678a.84.84,0,0,1,.839.839v1.678A1.679,1.679,0,0,0,43.744,17.905Zm-2.517-5.872H39.55a2.52,2.52,0,0,0-2.517,2.517V26.294a2.52,2.52,0,0,0,2.517,2.517h1.678a2.52,2.52,0,0,0,2.517-2.517V24.617H47.1v3.356a4.2,4.2,0,0,1-4.194,4.194H37.872a4.2,4.2,0,0,1-4.194-4.194v-15.1a4.2,4.2,0,0,1,4.194-4.194h5.033A4.2,4.2,0,0,1,47.1,12.872v3.356H43.744V14.55A2.52,2.52,0,0,0,41.228,12.033Z" transform="translate(-5.995 -1.967)"/>
        <path id="Trazado_905833" data-name="Trazado 905833" d="M53,8.517A2.517,2.517,0,1,0,55.517,6,2.52,2.52,0,0,0,53,8.517Zm3.356,0a.839.839,0,1,1-.839-.839A.84.84,0,0,1,56.356,8.517Z" transform="translate(-9.378 -1.806)"/>
        <path id="Trazado_905834" data-name="Trazado 905834" d="M48.617,56H31.839a.839.839,0,0,0,0,1.678H48.617a.839.839,0,1,0,0-1.678Z" transform="translate(-5.834 -9.861)"/>
        <path id="Trazado_905835" data-name="Trazado 905835" d="M31.839,53.678H53.65a.839.839,0,0,0,0-1.678H31.839a.839.839,0,0,0,0,1.678Z" transform="translate(-5.834 -9.217)"/>
        <path id="Trazado_905836" data-name="Trazado 905836" d="M31.839,49.678H53.65a.839.839,0,0,0,0-1.678H31.839a.839.839,0,0,0,0,1.678Z" transform="translate(-5.834 -8.573)"/>
        <path id="Trazado_905837" data-name="Trazado 905837" d="M57.517,56H55.839a.839.839,0,1,0,0,1.678h1.678a.839.839,0,0,0,0-1.678Z" transform="translate(-9.7 -9.861)"/>
        <path id="Trazado_905838" data-name="Trazado 905838" d="M16.067,12.872a.839.839,0,0,0,.839-.839V10.356a3.356,3.356,0,1,0-6.711,0V34.629a7.55,7.55,0,1,0,6.711,0V15.358a.839.839,0,0,0-1.678,0v10.1H11.872v-15.1a1.678,1.678,0,1,1,3.356,0v1.678A.839.839,0,0,0,16.067,12.872Zm-.839,14.261v8.038a.839.839,0,0,0,.524.778,5.852,5.852,0,0,1,3.106,2.929h-4.47a.839.839,0,1,0,0,1.678h4.97a5.667,5.667,0,0,1,.029,1.466H12.711a.839.839,0,1,0,0,1.678H18.95a5.872,5.872,0,1,1-7.6-7.75.839.839,0,0,0,.524-.778V27.133Z" transform="translate(-1.806 -1.967)"/>
      </g>
    </g>
  </g>
</svg>
