<svg xmlns="http://www.w3.org/2000/svg" xmlns:xlink="http://www.w3.org/1999/xlink" width="108" height="108" viewBox="0 0 108 108">
  <defs>
    <filter id="Trazado_904820" x="0" y="0" width="108" height="108" filterUnits="userSpaceOnUse">
      <feOffset dy="3" input="SourceAlpha"/>
      <feGaussianBlur stdDeviation="3" result="blur"/>
      <feFlood flood-opacity="0.161"/>
      <feComposite operator="in" in2="blur"/>
      <feComposite in="SourceGraphic"/>
    </filter>
    <clipPath id="clip-path">
      <path id="path6450" d="M0-682.665H55.911v55.911H0Z" transform="translate(0 682.665)"/>
    </clipPath>
  </defs>
  <g id="Grupo_1179108" data-name="Grupo 1179108" transform="translate(-199.999 -2820.855)">
    <g id="Grupo_1178589" data-name="Grupo 1178589" transform="translate(208.999 2826.855)">
      <g id="Grupo_1173585" data-name="Grupo 1173585" transform="translate(0 0)">
        <g id="Grupo_1173428" data-name="Grupo 1173428">
          <g id="Grupo_1171958" data-name="Grupo 1171958">
            <g id="Grupo_1167341" data-name="Grupo 1167341">
              <g id="Grupo_1166792" data-name="Grupo 1166792">
                <g transform="matrix(1, 0, 0, 1, -9, -6)" filter="url(#Trazado_904820)">
                  <g id="Trazado_904820-2" data-name="Trazado 904820" transform="translate(9 6)" fill="#f4f9ff">
                    <path d="M 44.99999618530273 88.49994659423828 C 39.12687301635742 88.49994659423828 33.43022155761719 87.35002136230469 28.06829643249512 85.08212280273438 C 22.88852119445801 82.89125823974609 18.23629570007324 79.75454711914062 14.24084663391113 75.75910186767578 C 10.24540901184082 71.76364898681641 7.108683586120605 67.11143493652344 4.917821407318115 61.93165969848633 C 2.649921178817749 56.56973648071289 1.499996185302734 50.87309646606445 1.499996185302734 44.99997329711914 C 1.499996185302734 39.12685012817383 2.649921178817749 33.43021011352539 4.917821407318115 28.06828498840332 C 7.108683586120605 22.88851165771484 10.24540901184082 18.23629760742188 14.24084663391113 14.24084854125977 C 18.23629570007324 10.24539852142334 22.88852119445801 7.108685970306396 28.06829643249512 4.917823314666748 C 33.43022155761719 2.649923324584961 39.12687301635742 1.499998331069946 44.99999618530273 1.499998331069946 C 50.87311935424805 1.499998331069946 56.56977081298828 2.649923324584961 61.93169784545898 4.917823314666748 C 67.11147308349609 7.108685970306396 71.76369476318359 10.24539852142334 75.75914764404297 14.24084854125977 C 79.75458526611328 18.23629760742188 82.89131164550781 22.88851165771484 85.08216857910156 28.06828498840332 C 87.35007476806641 33.43021011352539 88.5 39.12685012817383 88.5 44.99997329711914 C 88.5 50.87309646606445 87.35007476806641 56.56973648071289 85.08216857910156 61.93165969848633 C 82.89131164550781 67.11143493652344 79.75458526611328 71.76364898681641 75.75914764404297 75.75910186767578 C 71.76369476318359 79.75454711914062 67.11147308349609 82.89125823974609 61.93169784545898 85.08212280273438 C 56.56977081298828 87.35002136230469 50.87311935424805 88.49994659423828 44.99999618530273 88.49994659423828 Z" stroke="none"/>
                    <path d="M 44.99999618530273 3 C 39.32870864868164 3 33.82865142822266 4.110061645507812 28.65262603759766 6.299331665039062 C 23.65165710449219 8.414573669433594 19.15968322753906 11.44332885742188 15.301513671875 15.30149841308594 C 11.44333648681641 19.15969085693359 8.414566040039062 23.65164184570312 6.299339294433594 28.65261459350586 C 4.110054016113281 33.82864379882812 2.999992370605469 39.32868576049805 2.999992370605469 44.99997329711914 C 2.999992370605469 50.67126083374023 4.110054016113281 56.17130279541016 6.299339294433594 61.34732818603516 C 8.414566040039062 66.34829711914062 11.44333648681641 70.84025573730469 15.301513671875 74.69844055175781 C 19.15968322753906 78.55661773681641 23.65165710449219 81.58537292480469 28.65262603759766 83.70061492919922 C 33.82865142822266 85.88988494873047 39.32870864868164 86.99994659423828 44.99999618530273 86.99994659423828 C 50.67128372192383 86.99994659423828 56.17134094238281 85.88988494873047 61.34736633300781 83.70061492919922 C 66.34834289550781 81.58537292480469 70.84030914306641 78.55661773681641 74.69847869873047 74.69844055175781 C 78.55665588378906 70.84025573730469 81.58542633056641 66.34829711914062 83.70065307617188 61.34732818603516 C 85.88993835449219 56.17130279541016 87 50.67126083374023 87 44.99997329711914 C 87 39.32868576049805 85.88993835449219 33.82864379882812 83.70065307617188 28.65261459350586 C 81.58542633056641 23.65164184570312 78.55665588378906 19.15969085693359 74.69847869873047 15.30149841308594 C 70.84030914306641 11.44332885742188 66.34834289550781 8.414573669433594 61.34736633300781 6.299331665039062 C 56.17134094238281 4.110061645507812 50.67128372192383 3 44.99999618530273 3 M 44.99999618530273 0 C 69.85281372070312 0 90 20.14717102050781 90 44.99997329711914 C 90 69.85277557373047 69.85281372070312 89.99994659423828 44.99999618530273 89.99994659423828 C 20.14717864990234 89.99994659423828 -7.62939453125e-06 69.85277557373047 -7.62939453125e-06 44.99997329711914 C -7.62939453125e-06 20.14717102050781 20.14717864990234 0 44.99999618530273 0 Z" stroke="none" fill="#8dc0ff"/>
                  </g>
                </g>
              </g>
            </g>
          </g>
        </g>
      </g>
    </g>
    <g id="g6444" transform="translate(227.043 3526.565)">
      <g id="g6446" transform="translate(0 -682.665)">
        <g id="g6448" clip-path="url(#clip-path)">
          <g id="g6454" transform="translate(1.037 0.819)">
            <path id="path6456" d="M-429.67-193.718v-15.213A2.075,2.075,0,0,0-431.741-211h-27.084L-468-202.294v43.5a2.072,2.072,0,0,0,2.068,2.068h34.191a2.075,2.075,0,0,0,2.071-2.068Z" transform="translate(468 210.999)" fill="#e6e6e6" fill-rule="evenodd"/>
          </g>
          <g id="g6458" transform="translate(1.037 0.819)">
            <path id="path6460" d="M-429.636-392.452a0,0,0,0,0,0,0v-32.939a2.075,2.075,0,0,0-2.071-2.068h-4.215c-1.138,0,2.071.929,2.071,2.068v11.975l.022,2.575c-2.883,3.27-3.914,9.207-1.173,13.133.66.945.926,1.548-.549.986-15.464-6.521-17.29,11.652,1.608,16.222-.187.955.076.977-.33,1.05a8.183,8.183,0,0,0-5.1,2.838l-28.59,0v1.357a2.072,2.072,0,0,0,2.068,2.068H-431.7a2.075,2.075,0,0,0,2.071-2.068c0-17.151,0-1.874,0-17.192" transform="translate(467.963 427.462)" fill="#ccc" fill-rule="evenodd"/>
          </g>
          <g id="g6462" transform="translate(23.843 32.591)">
            <path id="path6464" d="M-173.99-61.4c-1.04-1.313-1.135-1.782-4.3-3.638s-9.406-2.829-10.852-.361,1.538,6.907,5.61,9.3,7.4,2.654,9.543,1.567v-2.61Z" transform="translate(189.511 66.873)" fill="#62b553" fill-rule="evenodd"/>
          </g>
          <g id="g6466" transform="translate(39.364 32.591)">
            <path id="path6468" d="M-106.831-120.767c4.072-2.388,7.056-6.828,5.607-9.3s-7.688-1.494-10.853.361-3.244,2.325-4.285,3.638l0,4.253v2.61c2.144,1.088,5.455.824,9.527-1.567" transform="translate(116.361 131.54)" fill="#62b553" fill-rule="evenodd"/>
          </g>
          <g id="g6470" transform="translate(39.367 34.094)">
            <path id="path6472" d="M-106.8-103.919c4.056-2.379,7.037-6.8,5.623-9.27a13.4,13.4,0,0,1-5.626,6.1c-3.7,2.172-6.774,2.588-8.912,1.827a5.067,5.067,0,0,1-.612-.263v3.172c2.144,1.088,5.455.824,9.527-1.567" transform="translate(116.322 113.189)" fill="#5aa64c" fill-rule="evenodd"/>
          </g>
          <g id="g6474" transform="translate(23.843 34.094)">
            <path id="path6476" d="M-174.025-92.221v-.561a4.958,4.958,0,0,1-.622.267c-2.144.758-5.227.339-8.924-1.83a13.382,13.382,0,0,1-5.623-6.1c-1.411,2.474,1.567,6.892,5.626,9.27s7.4,2.654,9.543,1.567Z" transform="translate(189.55 100.448)" fill="#5aa64c" fill-rule="evenodd"/>
          </g>
          <g id="g6478" transform="translate(39.364 32.591)">
            <path id="path6480" d="M-.034-138.329c2.144,1.088,5.455.825,9.527-1.567s7.056-6.828,5.607-9.3-7.688-1.494-10.853.362S1-146.505-.037-145.193" transform="translate(0.037 150.669)" fill="none" stroke="#000" stroke-linecap="round" stroke-linejoin="round" stroke-miterlimit="10" stroke-width="1.5"/>
          </g>
          <g id="g6482" transform="translate(23.843 32.591)">
            <path id="path6484" d="M-174.025-138.329c-2.144,1.088-5.474.825-9.543-1.567s-7.06-6.828-5.61-9.3,7.688-1.494,10.853.362,3.257,2.325,4.3,3.638" transform="translate(189.55 150.669)" fill="none" stroke="#000" stroke-linecap="round" stroke-linejoin="round" stroke-miterlimit="10" stroke-width="1.5"/>
          </g>
          <g id="g6486" transform="translate(32.745 39.086)">
            <path id="path6488" d="M-74.125-36.336l-6.612-3.241" transform="translate(80.737 39.577)" fill="none" stroke="#000" stroke-linecap="round" stroke-linejoin="round" stroke-miterlimit="10" stroke-width="1.5"/>
          </g>
          <g id="g6490" transform="translate(39.358 39.086)">
            <path id="path6492" d="M0-36.336l6.612-3.241" transform="translate(0 39.577)" fill="none" stroke="#000" stroke-linecap="round" stroke-linejoin="round" stroke-miterlimit="10" stroke-width="1.5"/>
          </g>
          <g id="g6494" transform="translate(34.851 17.482)">
            <path id="path6496" d="M-101.215-84.685c0-4.174-2.02-7.555-4.513-7.555s-4.516,3.381-4.516,7.555,2.023,7.554,4.516,7.554,4.513-3.384,4.513-7.554" transform="translate(110.244 92.24)" fill="#62b553" fill-rule="evenodd"/>
          </g>
          <g id="g6498" transform="translate(37.968 17.482)">
            <path id="path6500" d="M-66.268-84.685c0-4.174-2.02-7.555-4.513-7.555a2.927,2.927,0,0,0-1.4.368c1.808.987,3.118,3.831,3.118,7.187a10.032,10.032,0,0,1-1.719,5.931,4.457,4.457,0,0,1-1.4,1.253,2.893,2.893,0,0,0,1.4.371c2.493,0,4.513-3.384,4.513-7.554" transform="translate(72.18 92.24)" fill="#5aa64c" fill-rule="evenodd"/>
          </g>
          <g id="g6502" transform="translate(34.851 17.482)">
            <path id="path6504" d="M-50.624,0c2.493,0,4.513,3.381,4.513,7.555s-2.02,7.554-4.513,7.554-4.516-3.384-4.516-7.554S-53.117,0-50.624,0Z" transform="translate(55.14)" fill="none" stroke="#000" stroke-linecap="round" stroke-linejoin="round" stroke-miterlimit="10" stroke-width="1.5"/>
          </g>
          <g id="g6506" transform="translate(1.037 0.819)">
            <path id="path6508" d="M-102.85-74.373v-6.635l-9.175,8.706h7.1a2.078,2.078,0,0,0,2.071-2.071" transform="translate(112.025 81.008)" fill="#ccc" fill-rule="evenodd"/>
          </g>
          <g id="g6510" transform="translate(30.165 50.446)">
            <path id="path6512" d="M-177.206-17.03a14.346,14.346,0,0,0-6.606-1.519,13.993,13.993,0,0,0-7.218,1.865c-.051.032-.1.063-.149.092a8.668,8.668,0,0,0-1.437,1.11c-.828.812-.2,1.583.412,1.579l1.481,0H-176.9l1.478,0c.615,0,1.24-.768.412-1.579a8.341,8.341,0,0,0-1.268-1c-.1-.067-.209-.133-.317-.2-.2-.12-.4-.235-.609-.346M-191.18-16.593Z" transform="translate(193.015 18.549)" fill="#a8652d" fill-rule="evenodd"/>
          </g>
          <g id="g6514" transform="translate(37.639 50.446)">
            <path id="path6516" d="M-19.376,0A16.556,16.556,0,0,0-21.1.092a12.319,12.319,0,0,1,7.075,2.975c.8.783.244,1.529-.349,1.576l3.39,0c.615,0,1.24-.767.412-1.579a8.346,8.346,0,0,0-1.268-1c-.1-.067-.209-.133-.317-.2A13.98,13.98,0,0,0-19.376,0" transform="translate(21.104)" fill="#914f18" fill-rule="evenodd"/>
          </g>
          <g id="g6518" transform="translate(30.165 50.446)">
            <path id="path6520" d="M-62.339-4.728A15.724,15.724,0,0,1-58.7-5.149a13.981,13.981,0,0,1,7.215,1.865,8.737,8.737,0,0,1,1.586,1.2c.828.812.2,1.583-.412,1.579l-1.478,0H-65.609l-1.481,0c-.615,0-1.24-.768-.412-1.579a8.848,8.848,0,0,1,1.586-1.2" transform="translate(67.9 5.149)" fill="none" stroke="#000" stroke-linecap="round" stroke-linejoin="round" stroke-miterlimit="10" stroke-width="1.5"/>
          </g>
          <g id="g6522" transform="translate(1.037 0.819)">
            <path id="path6524" d="M0-97.589H7.1A2.078,2.078,0,0,0,9.175-99.66v-6.635" transform="translate(0 106.294)" fill="none" stroke="#000" stroke-linecap="round" stroke-linejoin="round" stroke-miterlimit="10" stroke-width="1.5"/>
          </g>
          <g id="g6526" transform="translate(39.367 12.287)">
            <path id="path6528" d="M-.034,0l0,5.195" transform="translate(0.037)" fill="none" stroke="#000" stroke-linecap="round" stroke-linejoin="round" stroke-miterlimit="10" stroke-width="1.5"/>
          </g>
          <g id="g6530" transform="translate(16 14.875)">
            <path id="path6532" d="M0-.073,12.232-.08" transform="translate(0 0.08)" fill="none" stroke="#000" stroke-linecap="round" stroke-linejoin="round" stroke-miterlimit="10" stroke-width="1.5"/>
          </g>
          <g id="g6534" transform="translate(9.308 14.881)">
            <path id="path6536" d="M0-.033l2.908,0" transform="translate(0 0.036)" fill="none" stroke="#000" stroke-linecap="round" stroke-linejoin="round" stroke-miterlimit="10" stroke-width="1.5"/>
          </g>
          <g id="g6538" transform="translate(16 19.35)">
            <path id="path6540" d="M0-.073,12.232-.08" transform="translate(0 0.08)" fill="none" stroke="#000" stroke-linecap="round" stroke-linejoin="round" stroke-miterlimit="10" stroke-width="1.5"/>
          </g>
          <g id="g6542" transform="translate(9.308 19.356)">
            <path id="path6544" d="M0-.034l2.908,0" transform="translate(0 0.037)" fill="none" stroke="#000" stroke-linecap="round" stroke-linejoin="round" stroke-miterlimit="10" stroke-width="1.5"/>
          </g>
          <g id="g6546" transform="translate(9.308 24.383)">
            <path id="path6548" d="M0-.106l18.924-.01" transform="translate(0 0.116)" fill="none" stroke="#000" stroke-linecap="round" stroke-linejoin="round" stroke-miterlimit="10" stroke-width="1.5"/>
          </g>
          <g id="g6550" transform="translate(9.308 28.861)">
            <path id="path6552" d="M0-.072,10.152-.079" transform="translate(0 0.079)" fill="none" stroke="#000" stroke-linecap="round" stroke-linejoin="round" stroke-miterlimit="10" stroke-width="1.5"/>
          </g>
          <g id="g6554" transform="translate(9.308 34.728)">
            <path id="path6556" d="M-86.887-134.386v-10.869a1.123,1.123,0,0,0-1.12-1.12h-5.515a1.121,1.121,0,0,0-1.116,1.12v10.869a1.118,1.118,0,0,0,1.116,1.116h5.515a1.121,1.121,0,0,0,1.12-1.116" transform="translate(94.638 146.374)" fill="#ffd970" fill-rule="evenodd"/>
          </g>
          <g id="g6558" transform="translate(14.024 34.728)">
            <path id="path6560" d="M-34.022-134.386v-10.869a1.123,1.123,0,0,0-1.12-1.12h-1.916a1.121,1.121,0,0,1,1.12,1.12v10.869a1.119,1.119,0,0,1-1.12,1.116h1.916a1.121,1.121,0,0,0,1.12-1.116" transform="translate(37.057 146.374)" fill="#edc351" fill-rule="evenodd"/>
          </g>
          <g id="g6562" transform="translate(9.308 34.728)">
            <path id="path6564" d="M-12.515,0H-7a1.123,1.123,0,0,1,1.12,1.12V11.988A1.121,1.121,0,0,1-7,13.1h-5.515a1.118,1.118,0,0,1-1.116-1.116V1.12A1.121,1.121,0,0,1-12.515,0Z" transform="translate(13.632)" fill="none" stroke="#000" stroke-linecap="round" stroke-linejoin="round" stroke-miterlimit="10" stroke-width="1.5"/>
          </g>
          <g id="g6566" transform="translate(1.037 0.819)">
            <path id="path6568" d="M-334.857-608.356h-27.8a2.072,2.072,0,0,1-2.068-2.068v-43.5l9.175-8.706h27.084a2.075,2.075,0,0,1,2.071,2.068l0,5.528m0,19.841V-613" transform="translate(364.728 662.626)" fill="none" stroke="#000" stroke-linecap="round" stroke-linejoin="round" stroke-miterlimit="10" stroke-width="1.5"/>
          </g>
        </g>
      </g>
    </g>
  </g>
</svg>
