<svg xmlns="http://www.w3.org/2000/svg" xmlns:xlink="http://www.w3.org/1999/xlink" width="108" height="108" viewBox="0 0 108 108">
  <defs>
    <filter id="Trazado_896985" x="0" y="0" width="108" height="108" filterUnits="userSpaceOnUse">
      <feOffset dy="3" input="SourceAlpha"/>
      <feGaussianBlur stdDeviation="3" result="blur"/>
      <feFlood flood-opacity="0.161"/>
      <feComposite operator="in" in2="blur"/>
      <feComposite in="SourceGraphic"/>
    </filter>
  </defs>
  <g id="Grupo_1178617" data-name="Grupo 1178617" transform="translate(-274.051 -2070.995)">
    <g id="Grupo_1111351" data-name="Grupo 1111351" transform="translate(283.051 2076.995)">
      <g id="Grupo_1109826" data-name="Grupo 1109826">
        <g id="Grupo_1098742" data-name="Grupo 1098742">
          <g transform="matrix(1, 0, 0, 1, -9, -6)" filter="url(#Trazado_896985)">
            <g id="Trazado_896985-2" data-name="Trazado 896985" transform="translate(9 6)" fill="#e8f2ff" opacity="0.859">
              <path d="M 44.99993896484375 88.5 C 39.12682723999023 88.5 33.4301872253418 87.35007476806641 28.06826400756836 85.08217620849609 C 22.88850212097168 82.89132690429688 18.23627662658691 79.75461578369141 14.2408390045166 75.75916290283203 C 10.24540138244629 71.76372528076172 7.108676433563232 67.11151123046875 4.917826652526855 61.9317512512207 C 2.649926424026489 56.56982421875 1.500001430511475 50.87317657470703 1.500001430511475 45.00006103515625 C 1.500001430511475 39.12682342529297 2.649926424026489 33.4301872253418 4.917826652526855 28.06826210021973 C 7.108676433563232 22.88850021362305 10.24540138244629 18.23628807067871 14.2408390045166 14.24083709716797 C 18.23628807067871 10.24540042877197 22.88850212097168 7.108675003051758 28.06826400756836 4.917825222015381 C 33.4301872253418 2.649924993515015 39.12682723999023 1.5 44.99993896484375 1.5 C 50.87305068969727 1.5 56.5697021484375 2.649924993515015 61.93162536621094 4.917825222015381 C 67.11138916015625 7.108675003051758 71.76360321044922 10.24540042877197 75.75904083251953 14.24083709716797 C 79.75448608398438 18.23627471923828 82.89120483398438 22.88850021362305 85.08205413818359 28.06826210021973 C 87.34995269775391 33.4301872253418 88.4998779296875 39.12682342529297 88.4998779296875 44.99993896484375 C 88.4998779296875 50.87317657470703 87.34995269775391 56.56982421875 85.08205413818359 61.9317512512207 C 82.89120483398438 67.11151123046875 79.75448608398438 71.76372528076172 75.75904083251953 75.75916290283203 C 71.76360321044922 79.75461578369141 67.11138916015625 82.89132690429688 61.93162536621094 85.08217620849609 C 56.5697021484375 87.35007476806641 50.87305068969727 88.5 44.99993896484375 88.5 Z" stroke="none"/>
              <path d="M 44.99993896484375 3 C 39.32865142822266 3 33.82860946655273 4.110054016113281 28.65258026123047 6.299331665039062 C 23.65162658691406 8.414558410644531 19.15966796875 11.44332885742188 15.30149841308594 15.30149841308594 C 11.44332122802734 19.15966796875 8.41455078125 23.65162658691406 6.299324035644531 28.65258407592773 C 4.110054016113281 33.82861328125 2.999992370605469 39.32865524291992 2.999992370605469 45.00005722045898 C 2.999992370605469 50.67134475708008 4.110054016113281 56.17138671875 6.299324035644531 61.347412109375 C 8.41455078125 66.34837341308594 11.44332122802734 70.84033203125 15.30149841308594 74.69850158691406 C 19.15966796875 78.55667114257812 23.65162658691406 81.58544158935547 28.65258026123047 83.70066833496094 C 33.82860946655273 85.88994598388672 39.32865142822266 87 44.99993896484375 87 C 50.67122650146484 87 56.17126846313477 85.88994598388672 61.34729766845703 83.70066833496094 C 66.34825134277344 81.58544158935547 70.8402099609375 78.55667114257812 74.69837951660156 74.69850158691406 C 78.55654907226562 70.84033203125 81.5853271484375 66.34837341308594 83.70055389404297 61.347412109375 C 85.88982391357422 56.17138671875 86.9998779296875 50.67134475708008 86.9998779296875 44.99994277954102 C 86.9998779296875 39.32865524291992 85.88982391357422 33.82861328125 83.70055389404297 28.65258407592773 C 81.5853271484375 23.65162658691406 78.55654907226562 19.15966796875 74.69837951660156 15.30149841308594 C 70.8402099609375 11.44332885742188 66.34825134277344 8.414558410644531 61.34729766845703 6.299331665039062 C 56.17126846313477 4.110054016113281 50.67122650146484 3 44.99993896484375 3 M 44.99993896484375 0 C 69.85272216796875 0 89.99988555908203 20.14715576171875 89.99988555908203 44.99994277954102 L 89.99988555908203 45.00005722045898 C 89.99988555908203 69.85284423828125 69.85272216796875 90 44.99993896484375 90 C 20.14715576171875 90 -7.62939453125e-06 69.85284423828125 -7.62939453125e-06 45.00005722045898 L -7.62939453125e-06 44.99994277954102 C -7.62939453125e-06 20.14715576171875 20.14715576171875 0 44.99993896484375 0 Z" stroke="none" fill="#fff"/>
            </g>
          </g>
          <g id="Rectángulo_400907" data-name="Rectángulo 400907" transform="translate(0)" fill="none" stroke="#fff" stroke-width="3">
            <rect width="90" height="90" rx="45" stroke="none"/>
            <rect x="1.5" y="1.5" width="87" height="87" rx="43.5" fill="none"/>
          </g>
        </g>
      </g>
    </g>
    <g id="smart-farm_1143928" transform="translate(300.293 2093.554)">
      <path id="Trazado_904861" data-name="Trazado 904861" d="M60.844,256.245h4.669v-4.192a4.252,4.252,0,0,0-4.252-4.252.417.417,0,0,0-.418.418Zm0,0" transform="translate(-54.082 -220.266)" fill="#5be167"/>
      <path id="Trazado_904862" data-name="Trazado 904862" d="M174.986,273.745V267.6a.418.418,0,0,0-.418-.418,4.252,4.252,0,0,0-4.252,4.252v2.31Zm0,0" transform="translate(-151.391 -237.495)" fill="#5be167"/>
      <path id="Trazado_904863" data-name="Trazado 904863" d="M61.346,320.336v16.682a1.111,1.111,0,0,1-1.111,1.111H8.611A1.111,1.111,0,0,1,7.5,337.018V320.336a3,3,0,0,1,3-3H58.342a3,3,0,0,1,3,3Zm0,0" transform="translate(-6.666 -282.071)" fill="#e29c6d"/>
      <path id="Trazado_904864" data-name="Trazado 904864" d="M60.235,390.747H8.611A1.111,1.111,0,0,1,7.5,389.636V376.527H61.346v13.109A1.111,1.111,0,0,1,60.235,390.747Zm0,0" transform="translate(-6.666 -334.688)" fill="#fedfc5"/>
      <path id="Trazado_904865" data-name="Trazado 904865" d="M60.235,459.747H8.611A1.111,1.111,0,0,1,7.5,458.636v-4.483H61.346v4.483A1.111,1.111,0,0,1,60.235,459.747Zm0,0" transform="translate(-6.666 -403.688)" fill="#618baa"/>
      <path id="Trazado_904866" data-name="Trazado 904866" d="M65.863,101.375V97.729A4.725,4.725,0,0,0,61.138,93H57.493a.9.9,0,0,0-.9.9v3.645a4.725,4.725,0,0,0,4.725,4.725h3.645A.9.9,0,0,0,65.863,101.375Zm0,0" transform="translate(-50.308 -82.669)" fill="#5be167"/>
      <path id="Trazado_904867" data-name="Trazado 904867" d="M112.937,345.61a3.865,3.865,0,1,1-3.865-3.865A3.865,3.865,0,0,1,112.937,345.61Zm0,0" transform="translate(-93.516 -303.772)" fill="#19aa60"/>
      <path id="Trazado_904868" data-name="Trazado 904868" d="M128.485,363.381a1.643,1.643,0,1,1-1.643-1.643A1.643,1.643,0,0,1,128.485,363.381Zm0,0" transform="translate(-111.286 -321.543)" fill="#fdb659"/>
      <path id="Trazado_904869" data-name="Trazado 904869" d="M139.988,138.28v-3.645a4.725,4.725,0,0,1,4.725-4.725h3.646a.9.9,0,0,1,.9.9v3.645a4.725,4.725,0,0,1-4.725,4.725h-3.645A.9.9,0,0,1,139.988,138.28Zm0,0" transform="translate(-124.432 -115.474)" fill="#1fc974"/>
      <path id="Trazado_904870" data-name="Trazado 904870" d="M121.689,13.775a2.614,2.614,0,1,1-5.228,0c0-1.444,1.171-5.045,2.614-5.045S121.689,12.332,121.689,13.775Zm0,0" transform="translate(-103.52 -7.76)" fill="#19aa60"/>
      <path id="Trazado_904871" data-name="Trazado 904871" d="M369.4,36.224H358.052A1.123,1.123,0,0,1,356.93,35.1V14.362a1.123,1.123,0,0,1,1.123-1.123H369.4a1.123,1.123,0,0,1,1.123,1.123V35.1A1.123,1.123,0,0,1,369.4,36.224Zm0,0" transform="translate(-317.268 -11.768)" fill="#fdb659"/>
      <path id="Trazado_904872" data-name="Trazado 904872" d="M51.676,35.521H36.989a.833.833,0,1,0,0,1.667H51.676a2.173,2.173,0,0,1,2.17,2.17V42.1H20.178a4.709,4.709,0,0,0-3.79-3.789V37.188h16.8a.833.833,0,0,0,0-1.667H24.429V31.2a1.253,1.253,0,0,0-1.251-1.251,5.091,5.091,0,0,0-5.086,5.086v.487h-1.7v-9.9c.021,0,.041,0,.062,0H20.1a5.565,5.565,0,0,0,5.558-5.558V16.424A1.73,1.73,0,0,0,23.926,14.7H20.281a5.539,5.539,0,0,0-3.892,1.595V10.454A3.453,3.453,0,0,0,19,7.109c0-1.51-1.185-5.878-3.447-5.878S12.108,5.6,12.108,7.109a3.453,3.453,0,0,0,2.614,3.345V12.19a5.537,5.537,0,0,0-3.892-1.6H7.185a1.731,1.731,0,0,0-1.729,1.729v3.645a5.565,5.565,0,0,0,5.559,5.559H14.66c.021,0,.041,0,.062,0v14H12.264V32.88A5.091,5.091,0,0,0,7.179,27.8a1.252,1.252,0,0,0-1.251,1.251v6.475H3.838A3.841,3.841,0,0,0,0,39.358V56.041a1.947,1.947,0,0,0,1.945,1.945H39.192a.833.833,0,0,0,0-1.667H1.945a.278.278,0,0,1-.278-.278v-3.65H53.847v3.65a.278.278,0,0,1-.278.278H42.99a.833.833,0,1,0,0,1.667H53.569a1.947,1.947,0,0,0,1.945-1.945V39.358a3.841,3.841,0,0,0-3.837-3.837Zm-31.917-.487a3.424,3.424,0,0,1,3-3.394v3.88h-3Zm.522-18.672h3.646a.062.062,0,0,1,.062.062V20.07A3.9,3.9,0,0,1,20.1,23.961H17.52l3.234-3.235a.833.833,0,1,0-1.178-1.178l-3.186,3.186V20.254a3.9,3.9,0,0,1,3.892-3.892ZM13.775,7.109a8.15,8.15,0,0,1,.7-2.73C15,3.161,15.469,2.9,15.556,2.9s.552.264,1.085,1.482a8.15,8.15,0,0,1,.7,2.73,1.781,1.781,0,1,1-3.562,0Zm-6.652,8.86V12.324a.062.062,0,0,1,.062-.062H10.83a3.9,3.9,0,0,1,3.892,3.892v2.48l-3.186-3.186a.833.833,0,0,0-1.178,1.178l3.234,3.235H11.015A3.9,3.9,0,0,1,7.123,15.969ZM18.587,42.932a3.031,3.031,0,1,1-3.865-2.914V40.6a2.476,2.476,0,1,0,1.667,0v-.582A3.037,3.037,0,0,1,18.587,42.932Zm-3.031-.81a.81.81,0,1,1-.81.81A.81.81,0,0,1,15.556,42.122ZM7.595,29.487a3.423,3.423,0,0,1,3,3.393v2.641h-3Zm-3.757,7.7H14.722V38.31a4.709,4.709,0,0,0-3.79,3.789H1.668V39.358a2.173,2.173,0,0,1,2.17-2.17ZM1.668,50.724V43.765h9.265a4.7,4.7,0,0,0,9.246,0H53.847v6.959Zm0,0" transform="translate(0 -1.093)"/>
      <path id="Trazado_904873" data-name="Trazado 904873" d="M444.258,468.563a.833.833,0,0,0-.833-.833h-.011a.829.829,0,0,0-.828.833.836.836,0,0,0,1.672,0Zm0,0" transform="translate(-393.407 -415.757)"/>
      <path id="Trazado_904874" data-name="Trazado 904874" d="M418.644,473.495a.833.833,0,0,0,0-1.667h-.015a.828.828,0,0,0-.824.837.838.838,0,0,0,.839.829Zm0,0" transform="translate(-371.376 -419.4)"/>
      <path id="Trazado_904875" data-name="Trazado 904875" d="M275.453,338.934a.829.829,0,0,0-.828.833.836.836,0,1,0,.839-.833Zm0,0" transform="translate(-244.109 -301.273)"/>
      <path id="Trazado_904876" data-name="Trazado 904876" d="M250.668,338.934a.829.829,0,0,0-.828.833.836.836,0,1,0,.839-.833Zm0,0" transform="translate(-222.078 -301.273)"/>
      <path id="Trazado_904877" data-name="Trazado 904877" d="M193.652,476.84a.829.829,0,0,0-.828.833.836.836,0,1,0,.839-.833Zm0,0" transform="translate(-171.397 -423.855)"/>
      <path id="Trazado_904878" data-name="Trazado 904878" d="M123.621,467.73a.829.829,0,0,0-.828.833.836.836,0,1,0,.839-.833Zm0,0" transform="translate(-109.148 -415.757)"/>
      <path id="Trazado_904879" data-name="Trazado 904879" d="M261.825,25.928h4.212a.833.833,0,0,0,.833-.833V13.8h3.949v9.536a1.959,1.959,0,0,0,1.956,1.956h3.519a.833.833,0,1,0,0-1.667h-3.519a.29.29,0,0,1-.289-.29V2.594a.29.29,0,0,1,.289-.29h11.343a.29.29,0,0,1,.29.29v20.74a.29.29,0,0,1-.29.29h-4.026a.833.833,0,1,0,0,1.667h4.026a1.959,1.959,0,0,0,1.956-1.956V2.594A1.959,1.959,0,0,0,284.118.638H272.775a1.959,1.959,0,0,0-1.956,1.956v9.536H266.87V.834A.833.833,0,0,0,266.037,0h-4.212a.833.833,0,1,0,0,1.667H265.2V24.261h-3.378a.833.833,0,1,0,0,1.667Zm0,0" transform="translate(-231.991)"/>
      <path id="Trazado_904880" data-name="Trazado 904880" d="M261.825,44.311h1.51a.833.833,0,1,0,0-1.667h-1.51a.833.833,0,1,0,0,1.667Zm0,0" transform="translate(-231.991 -37.906)"/>
      <path id="Trazado_904881" data-name="Trazado 904881" d="M261.825,88.659h1.51a.833.833,0,1,0,0-1.667h-1.51a.833.833,0,1,0,0,1.667Zm0,0" transform="translate(-231.991 -77.325)"/>
      <path id="Trazado_904882" data-name="Trazado 904882" d="M261.825,133.011h1.51a.833.833,0,0,0,0-1.667h-1.51a.833.833,0,0,0,0,1.667Zm0,0" transform="translate(-231.991 -116.749)"/>
      <path id="Trazado_904883" data-name="Trazado 904883" d="M261.825,177.358h1.51a.833.833,0,0,0,0-1.667h-1.51a.833.833,0,1,0,0,1.667Zm0,0" transform="translate(-231.991 -156.168)"/>
      <path id="Trazado_904884" data-name="Trazado 904884" d="M382.606,51.628h1.935a.833.833,0,1,0,0-1.667h-1.935a.833.833,0,1,0,0,1.667Zm0,0" transform="translate(-339.351 -44.409)"/>
      <path id="Trazado_904885" data-name="Trazado 904885" d="M382.606,92.206h6.752a.833.833,0,0,0,0-1.667h-6.752a.833.833,0,0,0,0,1.667Zm0,0" transform="translate(-339.351 -80.478)"/>
      <path id="Trazado_904886" data-name="Trazado 904886" d="M382.606,118.151h6.752a.833.833,0,1,0,0-1.667h-6.752a.833.833,0,1,0,0,1.667Zm0,0" transform="translate(-339.351 -103.54)"/>
      <path id="Trazado_904887" data-name="Trazado 904887" d="M382.606,144.1h6.752a.833.833,0,0,0,0-1.667h-6.752a.833.833,0,0,0,0,1.667Zm0,0" transform="translate(-339.351 -126.603)"/>
      <path id="Trazado_904888" data-name="Trazado 904888" d="M382.606,170.042h6.752a.833.833,0,1,0,0-1.667h-6.752a.833.833,0,1,0,0,1.667Zm0,0" transform="translate(-339.351 -149.665)"/>
    </g>
  </g>
</svg>
