<svg xmlns="http://www.w3.org/2000/svg" xmlns:xlink="http://www.w3.org/1999/xlink" width="108" height="108" viewBox="0 0 108 108">
  <defs>
    <filter id="Trazado_896985" x="0" y="0" width="108" height="108" filterUnits="userSpaceOnUse">
      <feOffset dy="3" input="SourceAlpha"/>
      <feGaussianBlur stdDeviation="3" result="blur"/>
      <feFlood flood-opacity="0.161"/>
      <feComposite operator="in" in2="blur"/>
      <feComposite in="SourceGraphic"/>
    </filter>
  </defs>
  <g id="Grupo_1111352" data-name="Grupo 1111352" transform="translate(9 6)">
    <g id="Grupo_1109826" data-name="Grupo 1109826">
      <g id="Grupo_1098742" data-name="Grupo 1098742">
        <g transform="matrix(1, 0, 0, 1, -9, -6)" filter="url(#Trazado_896985)">
          <g id="Trazado_896985-2" data-name="Trazado 896985" transform="translate(9 6)" fill="#e0edd6" opacity="0.859">
            <path d="M 44.99993896484375 88.5 C 39.12682723999023 88.5 33.4301872253418 87.35007476806641 28.06826400756836 85.08217620849609 C 22.88850212097168 82.89132690429688 18.23627662658691 79.75461578369141 14.2408390045166 75.75916290283203 C 10.24540138244629 71.76372528076172 7.108676433563232 67.11151123046875 4.917826652526855 61.9317512512207 C 2.649926424026489 56.56982421875 1.500001430511475 50.87317657470703 1.500001430511475 45.00006103515625 C 1.500001430511475 39.12682342529297 2.649926424026489 33.4301872253418 4.917826652526855 28.06826210021973 C 7.108676433563232 22.88850021362305 10.24540138244629 18.23628807067871 14.2408390045166 14.24083709716797 C 18.23628807067871 10.24540042877197 22.88850212097168 7.108675003051758 28.06826400756836 4.917825222015381 C 33.4301872253418 2.649924993515015 39.12682723999023 1.5 44.99993896484375 1.5 C 50.87305068969727 1.5 56.5697021484375 2.649924993515015 61.93162536621094 4.917825222015381 C 67.11138916015625 7.108675003051758 71.76360321044922 10.24540042877197 75.75904083251953 14.24083709716797 C 79.75448608398438 18.23627471923828 82.89120483398438 22.88850021362305 85.08205413818359 28.06826210021973 C 87.34995269775391 33.4301872253418 88.4998779296875 39.12682342529297 88.4998779296875 44.99993896484375 C 88.4998779296875 50.87317657470703 87.34995269775391 56.56982421875 85.08205413818359 61.9317512512207 C 82.89120483398438 67.11151123046875 79.75448608398438 71.76372528076172 75.75904083251953 75.75916290283203 C 71.76360321044922 79.75461578369141 67.11138916015625 82.89132690429688 61.93162536621094 85.08217620849609 C 56.5697021484375 87.35007476806641 50.87305068969727 88.5 44.99993896484375 88.5 Z" stroke="none"/>
            <path d="M 44.99993896484375 3 C 39.32865142822266 3 33.82860946655273 4.110054016113281 28.65258026123047 6.299331665039062 C 23.65162658691406 8.414558410644531 19.15966796875 11.44332885742188 15.30149841308594 15.30149841308594 C 11.44332122802734 19.15966796875 8.41455078125 23.65162658691406 6.299324035644531 28.65258407592773 C 4.110054016113281 33.82861328125 2.999992370605469 39.32865524291992 2.999992370605469 45.00005722045898 C 2.999992370605469 50.67134475708008 4.110054016113281 56.17138671875 6.299324035644531 61.347412109375 C 8.41455078125 66.34837341308594 11.44332122802734 70.84033203125 15.30149841308594 74.69850158691406 C 19.15966796875 78.55667114257812 23.65162658691406 81.58544158935547 28.65258026123047 83.70066833496094 C 33.82860946655273 85.88994598388672 39.32865142822266 87 44.99993896484375 87 C 50.67122650146484 87 56.17126846313477 85.88994598388672 61.34729766845703 83.70066833496094 C 66.34825134277344 81.58544158935547 70.8402099609375 78.55667114257812 74.69837951660156 74.69850158691406 C 78.55654907226562 70.84033203125 81.5853271484375 66.34837341308594 83.70055389404297 61.347412109375 C 85.88982391357422 56.17138671875 86.9998779296875 50.67134475708008 86.9998779296875 44.99994277954102 C 86.9998779296875 39.32865524291992 85.88982391357422 33.82861328125 83.70055389404297 28.65258407592773 C 81.5853271484375 23.65162658691406 78.55654907226562 19.15966796875 74.69837951660156 15.30149841308594 C 70.8402099609375 11.44332885742188 66.34825134277344 8.414558410644531 61.34729766845703 6.299331665039062 C 56.17126846313477 4.110054016113281 50.67122650146484 3 44.99993896484375 3 M 44.99993896484375 0 C 69.85272216796875 0 89.99988555908203 20.14715576171875 89.99988555908203 44.99994277954102 L 89.99988555908203 45.00005722045898 C 89.99988555908203 69.85284423828125 69.85272216796875 90 44.99993896484375 90 C 20.14715576171875 90 -7.62939453125e-06 69.85284423828125 -7.62939453125e-06 45.00005722045898 L -7.62939453125e-06 44.99994277954102 C -7.62939453125e-06 20.14715576171875 20.14715576171875 0 44.99993896484375 0 Z" stroke="none" fill="#fff"/>
          </g>
        </g>
        <g id="Rectángulo_400907" data-name="Rectángulo 400907" transform="translate(0)" fill="none" stroke="#fff" stroke-width="3">
          <rect width="90" height="90" rx="45" stroke="none"/>
          <rect x="1.5" y="1.5" width="87" height="87" rx="43.5" fill="none"/>
        </g>
      </g>
    </g>
    <g id="non-toxic_18493541" transform="translate(13.294 13.515)">
      <g id="Grupo_1178618" data-name="Grupo 1178618" transform="translate(7.241 6.996)">
        <path id="Trazado_904889" data-name="Trazado 904889" d="M129.191,15.973c-2.257,6.9-8.424,12.907-11.646,19.559-4.822,9.957-.352,21.394,11.646,21.394s16.468-11.438,11.646-21.394c-3.222-6.652-9.389-12.659-11.646-19.559Z" transform="translate(-105.491 -15.973)" fill="#85caff" fill-rule="evenodd"/>
        <path id="Trazado_904890" data-name="Trazado 904890" d="M203.981,213.536c6.267,10.7-2.52,21.06-13.582,15.444C189.721,217.513,202.042,221.764,203.981,213.536Z" transform="translate(-172.602 -193.379)" fill="#adffad" fill-rule="evenodd"/>
        <path id="Trazado_904891" data-name="Trazado 904891" d="M24.321,15.973C22.97,20.1,19.278,23.7,17.35,27.681c-2.886,5.96-.211,12.806,6.971,12.806s9.857-6.846,6.971-12.806c-1.928-3.982-5.62-7.577-6.971-11.708Z" transform="translate(-16.208 -15.973)" fill="#85f5ff" fill-rule="evenodd"/>
      </g>
      <circle id="Elipse_11612" data-name="Elipse 11612" cx="7.704" cy="7.704" r="7.704" transform="translate(40.762 6.996)" fill="#adffad"/>
      <path id="Trazado_904892" data-name="Trazado 904892" d="M17.02,29.026a1.035,1.035,0,0,0,.374-.07,5.737,5.737,0,0,0,3.588-4.815,1.019,1.019,0,1,0-2.025-.236,3.687,3.687,0,0,1-2.31,3.151,1.021,1.021,0,0,0,.374,1.97ZM46.565,18.3a.921.921,0,0,0,.133.009,1.018,1.018,0,0,0,.722-.3l5.171-5.169a1.021,1.021,0,0,0-1.445-1.443l-4.227,4.228-1.411-2.436a1.019,1.019,0,1,0-1.764,1.02l2.069,3.588a1.028,1.028,0,0,0,.752.5Zm-4.782-3.6a6.684,6.684,0,1,1,6.684,6.684A6.692,6.692,0,0,1,41.782,14.7Zm-2.04,0a8.724,8.724,0,1,1,8.724,8.725A8.733,8.733,0,0,1,39.742,14.7ZM9.338,27.482A8.732,8.732,0,0,1,9.3,19.149a35.388,35.388,0,0,1,3.042-4.833A41.878,41.878,0,0,0,15.354,9.6a41.243,41.243,0,0,0,3.013,4.72,35.871,35.871,0,0,1,3.042,4.833,8.718,8.718,0,0,1-.039,8.333,6.762,6.762,0,0,1-6.016,3.008,6.762,6.762,0,0,1-6.016-3.008Zm-1.73,1.085a10.791,10.791,0,0,1-.143-10.308,38.178,38.178,0,0,1,3.21-5.118,25.955,25.955,0,0,0,3.711-6.462,1.022,1.022,0,0,1,1.941,0,25.777,25.777,0,0,0,3.706,6.462,37.689,37.689,0,0,1,3.21,5.118A10.764,10.764,0,0,1,23.1,28.567a8.731,8.731,0,0,1-7.746,3.963A8.731,8.731,0,0,1,7.608,28.567Zm18.446,12.46a26.916,26.916,0,0,0,6.788-4.675,1.019,1.019,0,1,1,1.4,1.484,28.95,28.95,0,0,1-6.665,4.712c3.78,1.232,7.392.541,9.761-1.973,2.566-2.724,3.042-6.854,1.386-10.929-1.46,2.462-4.035,3.526-6.365,4.488-3.219,1.33-6.041,2.494-6.3,6.891Zm-2.035,1.631a1.025,1.025,0,0,0,.555.85A14.649,14.649,0,0,0,31.166,45.2a10.292,10.292,0,0,0,7.653-3.221c3.618-3.842,3.888-9.863.683-15.336a1.02,1.02,0,0,0-1.873.282c-.742,3.135-3.2,4.152-6.055,5.331a15.079,15.079,0,0,0-5.313,3.1c-1.7,1.747-2.428,4.136-2.241,7.3Zm.231-24.034A1.02,1.02,0,0,1,24,17.2c2.684-3.817,4.827-7.014,5.972-10.523a1.018,1.018,0,0,1,1.936,0c1.248,3.8,3.809,7.449,6.291,10.977a62.914,62.914,0,0,1,5.308,8.455,19.557,19.557,0,0,1,2.005,8.707,15.106,15.106,0,0,1-2.212,7.85c-2.546,4.064-6.935,6.3-12.361,6.3a14.432,14.432,0,0,1-10.666-4.141,14.638,14.638,0,0,1-3.9-10.773,1.02,1.02,0,1,1,2.04.061,12.6,12.6,0,0,0,3.327,9.29,12.444,12.444,0,0,0,9.2,3.522c4.7,0,8.473-1.9,10.631-5.345,2.492-3.974,2.531-9.563.1-14.585a61.457,61.457,0,0,0-5.136-8.169,58.8,58.8,0,0,1-5.593-9.057,55.772,55.772,0,0,1-5.269,8.6,1.02,1.02,0,0,1-1.42.249ZM54,53.174a7.113,7.113,0,0,1-9.417,0,9.2,9.2,0,0,0-11.609,0,7.113,7.113,0,0,1-9.417,0,9.2,9.2,0,0,0-11.609,0,7.5,7.5,0,0,1-4.709,1.775,1.02,1.02,0,0,0,0,2.041,9.522,9.522,0,0,0,5.991-2.227,7.168,7.168,0,0,1,9.049,0,9.15,9.15,0,0,0,11.978,0,7.161,7.161,0,0,1,9.044,0,9.15,9.15,0,0,0,11.978,0A1.019,1.019,0,1,0,54,53.174Zm0-8.908a7.114,7.114,0,0,1-9.417,0,1.021,1.021,0,0,0-1.283,1.59,9.151,9.151,0,0,0,11.978,0A1.019,1.019,0,1,0,54,44.266Zm-47.779,2.8a1.02,1.02,0,0,0,1.017,1.02,9.529,9.529,0,0,0,5.991-2.226,7.271,7.271,0,0,1,3.49-1.539,1.021,1.021,0,1,0-.3-2.019,9.34,9.34,0,0,0-4.473,1.969,7.5,7.5,0,0,1-4.709,1.775,1.02,1.02,0,0,0-1.017,1.02Z" fill-rule="evenodd"/>
    </g>
  </g>
</svg>
