<svg xmlns="http://www.w3.org/2000/svg" xmlns:xlink="http://www.w3.org/1999/xlink" width="108" height="108" viewBox="0 0 108 108">
  <defs>
    <filter id="Trazado_896985" x="0" y="0" width="108" height="108" filterUnits="userSpaceOnUse">
      <feOffset dy="3" input="SourceAlpha"/>
      <feGaussianBlur stdDeviation="3" result="blur"/>
      <feFlood flood-opacity="0.161"/>
      <feComposite operator="in" in2="blur"/>
      <feComposite in="SourceGraphic"/>
    </filter>
  </defs>
  <g id="Grupo_1178620" data-name="Grupo 1178620" transform="translate(-904.051 -2070.995)">
    <g id="Grupo_1111353" data-name="Grupo 1111353" transform="translate(913.051 2076.995)">
      <g id="Grupo_1109826" data-name="Grupo 1109826">
        <g id="Grupo_1098742" data-name="Grupo 1098742">
          <g transform="matrix(1, 0, 0, 1, -9, -6)" filter="url(#Trazado_896985)">
            <g id="Trazado_896985-2" data-name="Trazado 896985" transform="translate(9 6)" fill="#e0edd6" opacity="0.859">
              <path d="M 44.99993896484375 88.5 C 39.12682723999023 88.5 33.4301872253418 87.35007476806641 28.06826400756836 85.08217620849609 C 22.88850212097168 82.89132690429688 18.23627662658691 79.75461578369141 14.2408390045166 75.75916290283203 C 10.24540138244629 71.76372528076172 7.108676433563232 67.11151123046875 4.917826652526855 61.9317512512207 C 2.649926424026489 56.56982421875 1.500001430511475 50.87317657470703 1.500001430511475 45.00006103515625 C 1.500001430511475 39.12682342529297 2.649926424026489 33.4301872253418 4.917826652526855 28.06826210021973 C 7.108676433563232 22.88850021362305 10.24540138244629 18.23628807067871 14.2408390045166 14.24083709716797 C 18.23628807067871 10.24540042877197 22.88850212097168 7.108675003051758 28.06826400756836 4.917825222015381 C 33.4301872253418 2.649924993515015 39.12682723999023 1.5 44.99993896484375 1.5 C 50.87305068969727 1.5 56.5697021484375 2.649924993515015 61.93162536621094 4.917825222015381 C 67.11138916015625 7.108675003051758 71.76360321044922 10.24540042877197 75.75904083251953 14.24083709716797 C 79.75448608398438 18.23627471923828 82.89120483398438 22.88850021362305 85.08205413818359 28.06826210021973 C 87.34995269775391 33.4301872253418 88.4998779296875 39.12682342529297 88.4998779296875 44.99993896484375 C 88.4998779296875 50.87317657470703 87.34995269775391 56.56982421875 85.08205413818359 61.9317512512207 C 82.89120483398438 67.11151123046875 79.75448608398438 71.76372528076172 75.75904083251953 75.75916290283203 C 71.76360321044922 79.75461578369141 67.11138916015625 82.89132690429688 61.93162536621094 85.08217620849609 C 56.5697021484375 87.35007476806641 50.87305068969727 88.5 44.99993896484375 88.5 Z" stroke="none"/>
              <path d="M 44.99993896484375 3 C 39.32865142822266 3 33.82860946655273 4.110054016113281 28.65258026123047 6.299331665039062 C 23.65162658691406 8.414558410644531 19.15966796875 11.44332885742188 15.30149841308594 15.30149841308594 C 11.44332122802734 19.15966796875 8.41455078125 23.65162658691406 6.299324035644531 28.65258407592773 C 4.110054016113281 33.82861328125 2.999992370605469 39.32865524291992 2.999992370605469 45.00005722045898 C 2.999992370605469 50.67134475708008 4.110054016113281 56.17138671875 6.299324035644531 61.347412109375 C 8.41455078125 66.34837341308594 11.44332122802734 70.84033203125 15.30149841308594 74.69850158691406 C 19.15966796875 78.55667114257812 23.65162658691406 81.58544158935547 28.65258026123047 83.70066833496094 C 33.82860946655273 85.88994598388672 39.32865142822266 87 44.99993896484375 87 C 50.67122650146484 87 56.17126846313477 85.88994598388672 61.34729766845703 83.70066833496094 C 66.34825134277344 81.58544158935547 70.8402099609375 78.55667114257812 74.69837951660156 74.69850158691406 C 78.55654907226562 70.84033203125 81.5853271484375 66.34837341308594 83.70055389404297 61.347412109375 C 85.88982391357422 56.17138671875 86.9998779296875 50.67134475708008 86.9998779296875 44.99994277954102 C 86.9998779296875 39.32865524291992 85.88982391357422 33.82861328125 83.70055389404297 28.65258407592773 C 81.5853271484375 23.65162658691406 78.55654907226562 19.15966796875 74.69837951660156 15.30149841308594 C 70.8402099609375 11.44332885742188 66.34825134277344 8.414558410644531 61.34729766845703 6.299331665039062 C 56.17126846313477 4.110054016113281 50.67122650146484 3 44.99993896484375 3 M 44.99993896484375 0 C 69.85272216796875 0 89.99988555908203 20.14715576171875 89.99988555908203 44.99994277954102 L 89.99988555908203 45.00005722045898 C 89.99988555908203 69.85284423828125 69.85272216796875 90 44.99993896484375 90 C 20.14715576171875 90 -7.62939453125e-06 69.85284423828125 -7.62939453125e-06 45.00005722045898 L -7.62939453125e-06 44.99994277954102 C -7.62939453125e-06 20.14715576171875 20.14715576171875 0 44.99993896484375 0 Z" stroke="none" fill="#fff"/>
            </g>
          </g>
          <g id="Rectángulo_400907" data-name="Rectángulo 400907" transform="translate(0)" fill="none" stroke="#fff" stroke-width="3">
            <rect width="90" height="90" rx="45" stroke="none"/>
            <rect x="1.5" y="1.5" width="87" height="87" rx="43.5" fill="none"/>
          </g>
        </g>
      </g>
    </g>
    <g id="climate-control_18455616" transform="translate(918.214 2093.339)">
      <g id="Grupo_1178619" data-name="Grupo 1178619" transform="translate(13.892 9.495)">
        <path id="Trazado_904893" data-name="Trazado 904893" d="M174,95.255a5.188,5.188,0,1,0-5.188-5.188A5.2,5.2,0,0,0,174,95.255Z" transform="translate(-152.629 -84.88)" fill="#ffd400" fill-rule="evenodd"/>
        <path id="Trazado_904894" data-name="Trazado 904894" d="M28.794,120.5a4.465,4.465,0,0,1-.866-8.846,3.841,3.841,0,0,1,6.475-2.693,4.466,4.466,0,0,1,8.118,2.573c0,.118-.007.231-.012.345a4.467,4.467,0,0,1-1.643,8.62Z" transform="translate(-24.327 -104.585)" fill="#edf6ff" fill-rule="evenodd"/>
        <path id="Trazado_904895" data-name="Trazado 904895" d="M41.482,231.49A17.18,17.18,0,1,0,24.3,214.308,17.214,17.214,0,0,0,41.482,231.49Z" transform="translate(-24.3 -184.561)" fill="#0593fc" fill-rule="evenodd"/>
        <path id="Trazado_904896" data-name="Trazado 904896" d="M44.536,381.913A17.252,17.252,0,0,1,36.76,373.5c.874-1.867,2.116-2.4,3.37-4.03,1.664-2.153,2.262,1.186,6.134,1.43,7.778.688,6.229,4.06,1.307,6.128C46.539,377.572,45.085,380.764,44.536,381.913Z" transform="translate(-35.365 -336.965)" fill="#70da40" fill-rule="evenodd"/>
        <path id="Trazado_904897" data-name="Trazado 904897" d="M184.606,315.317a13.273,13.273,0,0,0-6.253-2.014c-.255-.009-4.883,1.319-8.22.764-2.955-.493-4.994-2.7-.61-5.089,3.207-1.747-.176-3.817,6.069-3.851,2.464-.012,5.794.228,9.115.329a17.291,17.291,0,0,1-.1,9.861Z" transform="translate(-151.013 -280.465)" fill="#70da40" fill-rule="evenodd"/>
        <path id="Trazado_904898" data-name="Trazado 904898" d="M43.293,197.13a17.248,17.248,0,0,1,3.873.438c-2.677,3.465-.071,5.757-4.5,7.674-5.632,2.434-9.344,6.18-12.061,6.605a9.571,9.571,0,0,1-4.267-.336A17.185,17.185,0,0,1,43.293,197.13Z" transform="translate(-26.112 -184.561)" fill="#70da40" fill-rule="evenodd"/>
        <path id="Trazado_904899" data-name="Trazado 904899" d="M261.22,285.576a11.187,11.187,0,0,0,2.809-1.164.679.679,0,0,1,.663-.019l1.636.832a.677.677,0,0,0,.8-.127l1.66-1.657a.682.682,0,0,0,.127-.8L268.083,281a.67.67,0,0,1,.018-.663,11.2,11.2,0,0,0,1.164-2.807.67.67,0,0,1,.456-.484l1.743-.567a.678.678,0,0,0,.477-.656v-2.348a.686.686,0,0,0-.477-.659l-1.743-.564a.682.682,0,0,1-.456-.484,11.2,11.2,0,0,0-1.164-2.807.671.671,0,0,1-.018-.665l.832-1.633a.682.682,0,0,0-.127-.8l-1.66-1.657a.68.68,0,0,0-.8-.13l-1.636.835a.679.679,0,0,1-.663-.021,11.3,11.3,0,0,0-2.809-1.161.671.671,0,0,1-.48-.456l-.567-1.743a.683.683,0,0,0-.66-.477h-2.345a.687.687,0,0,0-.659.477l-.567,1.743a.671.671,0,0,1-.48.456,11.3,11.3,0,0,0-2.809,1.161.676.676,0,0,1-.663.021l-1.633-.835a.682.682,0,0,0-.8.13l-1.661,1.657a.682.682,0,0,0-.127.8l.832,1.633a.674.674,0,0,1-.018.665,11.331,11.331,0,0,0-1.164,2.807.684.684,0,0,1-.452.484l-1.743.564a.684.684,0,0,0-.48.659v2.348a.678.678,0,0,0,.48.656l1.743.567a.67.67,0,0,1,.452.484,11.33,11.33,0,0,0,1.164,2.807.667.667,0,0,1,.018.663l-.832,1.636a.682.682,0,0,0,.127.8l1.661,1.657a.681.681,0,0,0,.8.127l1.633-.832a.676.676,0,0,1,.663.019,11.187,11.187,0,0,0,2.809,1.164.671.671,0,0,1,.48.456l.567,1.743a.683.683,0,0,0,.659.477h2.345a.686.686,0,0,0,.66-.477l.567-1.743A.671.671,0,0,1,261.22,285.576Z" transform="translate(-220.057 -241.324)" fill="#2f5274" fill-rule="evenodd"/>
        <path id="Trazado_904900" data-name="Trazado 904900" d="M324.693,208.558a5.644,5.644,0,1,1-6.476,0V195.037a3.215,3.215,0,0,1,3.21-3.207h.056a3.216,3.216,0,0,1,3.21,3.207Z" transform="translate(-283.17 -179.855)" fill="#edf6ff" fill-rule="evenodd"/>
        <path id="Trazado_904901" data-name="Trazado 904901" d="M347.136,365.842a2.406,2.406,0,1,0-2.406-2.406A2.412,2.412,0,0,0,347.136,365.842Z" transform="translate(-308.852 -330.11)" fill="#ff4646" fill-rule="evenodd"/>
        <path id="Trazado_904902" data-name="Trazado 904902" d="M41.482,197.13a17.406,17.406,0,0,1,1.833.1,17.181,17.181,0,0,0,0,34.166,17.18,17.18,0,1,1-1.833-34.261Z" transform="translate(-24.3 -184.561)" fill="#0584e3" fill-rule="evenodd"/>
        <path id="Trazado_904903" data-name="Trazado 904903" d="M39.416,382.69a17.152,17.152,0,0,0,6.017,9.775c-.373.73-.69,1.411-.887,1.827a17.252,17.252,0,0,1-7.776-8.413A11.089,11.089,0,0,1,39.416,382.69Z" transform="translate(-35.374 -349.345)" fill="#65c43a" fill-rule="evenodd"/>
        <path id="Trazado_904904" data-name="Trazado 904904" d="M43.293,197.13a17.406,17.406,0,0,1,1.833.1,17.19,17.19,0,0,0-15.185,14.7,9.809,9.809,0,0,1-3.6-.415A17.185,17.185,0,0,1,43.293,197.13Z" transform="translate(-26.112 -184.561)" fill="#65c43a" fill-rule="evenodd"/>
        <path id="Trazado_904905" data-name="Trazado 904905" d="M172.659,89.658a5.192,5.192,0,0,1,4.455-4.728,5.416,5.416,0,0,0-.718-.049,5.188,5.188,0,0,0-4.886,3.439,4.453,4.453,0,0,1,1.149,1.339Z" transform="translate(-155.027 -84.88)" fill="#e6bf00" fill-rule="evenodd"/>
        <path id="Trazado_904906" data-name="Trazado 904906" d="M317.435,213.173a5.642,5.642,0,0,1,2.406-4.624V195.027a3.218,3.218,0,0,1,2.424-3.112,3.115,3.115,0,0,0-.783-.1h-.056a3.216,3.216,0,0,0-3.21,3.207v13.521a5.647,5.647,0,0,0-2.406,4.624,5.652,5.652,0,0,0,.6,2.538,5.648,5.648,0,0,0,5.043,3.1,5.873,5.873,0,0,0,.811-.058A5.645,5.645,0,0,1,317.435,213.173Z" transform="translate(-283.17 -179.846)" fill="#d5dde6" fill-rule="evenodd"/>
        <path id="Trazado_904907" data-name="Trazado 904907" d="M250.009,295.156a11.323,11.323,0,0,1,1.161-2.807.68.68,0,0,0,.021-.665l-.835-1.633a.684.684,0,0,1,.125-.8l1.134-1.134-1.279-.653a.682.682,0,0,0-.8.13l-1.661,1.657a.716.716,0,0,0-.139.2.678.678,0,0,0,.012.607l.832,1.633a.674.674,0,0,1-.018.665,11.333,11.333,0,0,0-1.165,2.807.684.684,0,0,1-.452.484l-1.743.564a.684.684,0,0,0-.48.659v2.348a.678.678,0,0,0,.48.656l1.743.567a.67.67,0,0,1,.452.484,11.331,11.331,0,0,0,1.165,2.807.667.667,0,0,1,.018.663l-.832,1.636a.682.682,0,0,0,.127.8l.61.607,1.05,1.05a.681.681,0,0,0,.8.126l1.279-.651-1.134-1.134a.682.682,0,0,1-.127-.8l.705-1.383.13-.253a.679.679,0,0,0-.021-.663A11.459,11.459,0,0,1,250,300.917a.666.666,0,0,0-.452-.484l-1.743-.567a.681.681,0,0,1-.48-.656v-2.347a.689.689,0,0,1,.48-.659l1.743-.564A.681.681,0,0,0,250.009,295.156Z" transform="translate(-220.04 -264.709)" fill="#2a4a68" fill-rule="evenodd"/>
        <path id="Trazado_904908" data-name="Trazado 904908" d="M328.3,470.09a11.168,11.168,0,0,1-2.807-1.164.683.683,0,0,0-.665-.019l-1,.512a11.184,11.184,0,0,0,1.866.672.672.672,0,0,1,.48.456l.567,1.743a.683.683,0,0,0,.659.477h2.345a.638.638,0,0,0,.132-.012.679.679,0,0,1-.526-.465l-.567-1.743a.671.671,0,0,0-.48-.456Z" transform="translate(-290.283 -425.839)" fill="#2a4a68" fill-rule="evenodd"/>
      </g>
      <path id="Trazado_904909" data-name="Trazado 904909" d="M34.291,4.673V.887a.9.9,0,0,1,1.794,0V4.674a.9.9,0,1,1-1.794,0Zm7.5,3.633a.89.89,0,0,0,.634-.263L45.1,5.365A.9.9,0,0,0,43.831,4.1L41.152,6.775a.9.9,0,0,0,.634,1.531ZM27.951,8.043a.9.9,0,0,0,1.267-1.267L26.54,4.1a.9.9,0,0,0-1.267,1.267ZM67.093,41.408v2.384a1.594,1.594,0,0,1-1.107,1.523l-1.671.545a12.261,12.261,0,0,1-1.2,2.881l.8,1.565a1.6,1.6,0,0,1-.294,1.861l-1.685,1.685a1.6,1.6,0,0,1-1.854.3l-1.57-.8a12.415,12.415,0,0,1-2.883,1.2l-.541,1.671a1.607,1.607,0,0,1-1.523,1.106H51.185a1.6,1.6,0,0,1-1.522-1.1l-.541-1.672a12.443,12.443,0,0,1-2.885-1.2l-1.565.8a1.6,1.6,0,0,1-1.858-.294l-.492-.492A18.337,18.337,0,0,1,22.455,55.24c-.016-.007-.031-.011-.046-.019a.946.946,0,0,1-.109-.063,18.477,18.477,0,0,1-8.2-8.889.9.9,0,0,1-.047-.106A18.35,18.35,0,0,1,12.824,35.98c0-.01,0-.02,0-.029A18.336,18.336,0,0,1,18.149,25.81h-.134a5.433,5.433,0,0,1-1.71-10.59,4.8,4.8,0,0,1,7.278-3.263,5.439,5.439,0,0,1,6.258-1.021,6.168,6.168,0,1,1,5.872,9.22c0,.073,0,.146,0,.219a5.455,5.455,0,0,1-.066.848A18.384,18.384,0,0,1,47.568,31.2c.2-.087.413-.168.624-.244V24.165a4.161,4.161,0,0,1,4.156-4.156h.057a4.163,4.163,0,0,1,4.16,4.156v6.789a12.257,12.257,0,0,1,1.953.9l1.568-.8a1.6,1.6,0,0,1,1.858.294l1.685,1.685a1.6,1.6,0,0,1,.3,1.854l-.8,1.571a12.285,12.285,0,0,1,1.2,2.882l1.673.545a1.59,1.59,0,0,1,1.1,1.518ZM49.982,24.164V37.9a.893.893,0,0,1-.382.733,4.837,4.837,0,1,0,5.548,0,.9.9,0,0,1-.382-.733V24.164A2.367,2.367,0,0,0,52.4,21.8h-.057a2.365,2.365,0,0,0-2.361,2.363ZM31.3,12a5.411,5.411,0,0,1,1.553,3.586,5.394,5.394,0,0,1,2.489,2.8A4.375,4.375,0,1,0,31.3,12ZM20.295,24.016A18.258,18.258,0,0,1,30.934,20.61a18.553,18.553,0,0,1,2.958.237,3.685,3.685,0,0,0,.03-.474,3.617,3.617,0,0,0-1.348-2.833,5.1,5.1,0,0,1-.212.528.9.9,0,0,1-.814.52.9.9,0,0,1-.813-1.275,3.568,3.568,0,0,0,.329-1.514,3.644,3.644,0,0,0-6.58-2.152.905.905,0,0,1-.073.1,3.632,3.632,0,0,0-.522,1.164.9.9,0,0,1-1.74-.434,5.473,5.473,0,0,1,.385-1.061,3,3,0,0,0-4.306,1.528,5.335,5.335,0,0,1,1.149.166.9.9,0,1,1-.452,1.736,3.641,3.641,0,1,0-.914,7.167Zm-5.55,11.448a8.479,8.479,0,0,0,3.158.113c1.215-.19,2.863-1.273,4.772-2.526a47.266,47.266,0,0,1,7.266-4.124c2.164-.936,2.3-1.811,2.531-3.261a9.072,9.072,0,0,1,.923-3.081,16.848,16.848,0,0,0-2.459-.181A16.591,16.591,0,0,0,14.744,35.464ZM22.4,53.154c1.166-2.408,2.1-4,3.059-4.5.024-.012.047-.024.072-.034,2.638-1.107,3.705-2.367,3.621-2.908-.069-.445-1.131-1.281-4.669-1.6a7.691,7.691,0,0,1-4.23-1.676,3.37,3.37,0,0,0-.838-.507s-.128.046-.387.384a14.609,14.609,0,0,1-1.554,1.674,7.787,7.787,0,0,0-1.587,1.9A16.685,16.685,0,0,0,22.4,53.154Zm8.534,2.374A16.541,16.541,0,0,0,41.045,52.08a1.586,1.586,0,0,1-.21-1.778l.794-1.561a12.372,12.372,0,0,1-1.192-2.881l-1.673-.545a1.594,1.594,0,0,1-1.1-1.522v-.1a21.378,21.378,0,0,1-2.9.218,12.309,12.309,0,0,1-2-.15c-2.179-.364-3.677-1.458-3.912-2.856-.165-.981.224-2.469,3.011-3.986a2.292,2.292,0,0,0,1.317-1.6,2.726,2.726,0,0,1,1.311-1.781,8.606,8.606,0,0,1,3.959-.645c.758,0,1.624.012,2.763.056l1.606-1.606a1.6,1.6,0,0,1,1.854-.3l1.119.571a16.48,16.48,0,0,0-10.539-8.657,6.889,6.889,0,0,0-1,2.977c-.255,1.622-.518,3.3-3.59,4.628a45.074,45.074,0,0,0-6.992,3.977c-2.169,1.424-3.882,2.55-5.479,2.8a9.839,9.839,0,0,1-1.538.121,10.652,10.652,0,0,1-2.18-.233,16.62,16.62,0,0,0,.649,6.624A14.151,14.151,0,0,1,16.231,42.7a13,13,0,0,0,1.376-1.476,2.3,2.3,0,0,1,2.024-1.068,3.763,3.763,0,0,1,1.665.83,5.869,5.869,0,0,0,3.311,1.345h.022c3.909.345,6.026,1.391,6.294,3.106s-1.43,3.455-4.652,4.818c-.316.191-.965,1.019-2.286,3.745a16.47,16.47,0,0,0,6.949,1.531Zm9.5-16.184a12.378,12.378,0,0,1,1.192-2.882l-.8-1.57a1.487,1.487,0,0,1-.069-.157c-.929-.032-1.663-.045-2.308-.041a7.627,7.627,0,0,0-3.1.421c-.263.146-.319.289-.474.765A4.058,4.058,0,0,1,32.713,38.5c-1.659.9-2.172,1.684-2.1,2.114.082.487.964,1.139,2.438,1.384a15.612,15.612,0,0,0,4.609-.112v-.477a1.591,1.591,0,0,1,1.107-1.519ZM65.3,41.551l-1.638-.534a1.573,1.573,0,0,1-1.051-1.111,10.456,10.456,0,0,0-1.091-2.63,1.574,1.574,0,0,1-.045-1.532l.784-1.538-1.487-1.487-1.533.783a1.588,1.588,0,0,1-1.535-.043,10.379,10.379,0,0,0-1.141-.578v4.578a6.633,6.633,0,1,1-8.373,0V32.881a10.54,10.54,0,0,0-1.139.577,1.587,1.587,0,0,1-1.535.045l-1.535-.784-1.487,1.487.78,1.537a1.57,1.57,0,0,1-.049,1.538A10.549,10.549,0,0,0,42.142,39.9a1.575,1.575,0,0,1-1.054,1.113l-1.637.534v2.1l1.638.534A1.573,1.573,0,0,1,42.141,45.3,10.572,10.572,0,0,0,43.23,47.93a1.571,1.571,0,0,1,.039,1.54L42.493,51l1.488,1.488,1.533-.783a1.573,1.573,0,0,1,1.532.043,10.621,10.621,0,0,0,2.63,1.092,1.583,1.583,0,0,1,1.115,1.047l.533,1.644h2.1l.531-1.639a1.589,1.589,0,0,1,1.122-1.054A10.611,10.611,0,0,0,57.7,51.745a1.582,1.582,0,0,1,1.528-.046l1.54.786L62.258,51l-.784-1.535a1.576,1.576,0,0,1,.043-1.532A10.453,10.453,0,0,0,62.609,45.3a1.575,1.575,0,0,1,1.054-1.113l1.637-.534ZM49.034,42.6a3.344,3.344,0,0,1,2.444-3.217V24.193a.9.9,0,0,1,1.794,0V39.384A3.34,3.34,0,1,1,49.034,42.6Zm1.793,0a1.549,1.549,0,1,0,1.547-1.547A1.549,1.549,0,0,0,50.826,42.6Zm-7.2-28.59a.9.9,0,0,0,.9.9h3.787a.9.9,0,1,0,0-1.794H44.523a.9.9,0,0,0-.9.9Zm-2.473,5.965a.9.9,0,0,0,0,1.267l2.678,2.678A.9.9,0,0,0,45.1,22.654L42.42,19.975A.9.9,0,0,0,41.152,19.975Z" transform="translate(0 0)"/>
    </g>
  </g>
</svg>
