<svg xmlns="http://www.w3.org/2000/svg" xmlns:xlink="http://www.w3.org/1999/xlink" width="108" height="108" viewBox="0 0 108 108">
  <defs>
    <filter id="Trazado_896985" x="0" y="0" width="108" height="108" filterUnits="userSpaceOnUse">
      <feOffset dy="3" input="SourceAlpha"/>
      <feGaussianBlur stdDeviation="3" result="blur"/>
      <feFlood flood-opacity="0.161"/>
      <feComposite operator="in" in2="blur"/>
      <feComposite in="SourceGraphic"/>
    </filter>
  </defs>
  <g id="Grupo_1178636" data-name="Grupo 1178636" transform="translate(-1219.051 -2070.995)">
    <g id="Grupo_1111354" data-name="Grupo 1111354" transform="translate(1228.051 2076.995)">
      <g id="Grupo_1109826" data-name="Grupo 1109826">
        <g id="Grupo_1098742" data-name="Grupo 1098742">
          <g transform="matrix(1, 0, 0, 1, -9, -6)" filter="url(#Trazado_896985)">
            <g id="Trazado_896985-2" data-name="Trazado 896985" transform="translate(9 6)" fill="#e0edd6" opacity="0.859">
              <path d="M 44.99993896484375 88.5 C 39.12682723999023 88.5 33.4301872253418 87.35007476806641 28.06826400756836 85.08217620849609 C 22.88850212097168 82.89132690429688 18.23627662658691 79.75461578369141 14.2408390045166 75.75916290283203 C 10.24540138244629 71.76372528076172 7.108676433563232 67.11151123046875 4.917826652526855 61.9317512512207 C 2.649926424026489 56.56982421875 1.500001430511475 50.87317657470703 1.500001430511475 45.00006103515625 C 1.500001430511475 39.12682342529297 2.649926424026489 33.4301872253418 4.917826652526855 28.06826210021973 C 7.108676433563232 22.88850021362305 10.24540138244629 18.23628807067871 14.2408390045166 14.24083709716797 C 18.23628807067871 10.24540042877197 22.88850212097168 7.108675003051758 28.06826400756836 4.917825222015381 C 33.4301872253418 2.649924993515015 39.12682723999023 1.5 44.99993896484375 1.5 C 50.87305068969727 1.5 56.5697021484375 2.649924993515015 61.93162536621094 4.917825222015381 C 67.11138916015625 7.108675003051758 71.76360321044922 10.24540042877197 75.75904083251953 14.24083709716797 C 79.75448608398438 18.23627471923828 82.89120483398438 22.88850021362305 85.08205413818359 28.06826210021973 C 87.34995269775391 33.4301872253418 88.4998779296875 39.12682342529297 88.4998779296875 44.99993896484375 C 88.4998779296875 50.87317657470703 87.34995269775391 56.56982421875 85.08205413818359 61.9317512512207 C 82.89120483398438 67.11151123046875 79.75448608398438 71.76372528076172 75.75904083251953 75.75916290283203 C 71.76360321044922 79.75461578369141 67.11138916015625 82.89132690429688 61.93162536621094 85.08217620849609 C 56.5697021484375 87.35007476806641 50.87305068969727 88.5 44.99993896484375 88.5 Z" stroke="none"/>
              <path d="M 44.99993896484375 3 C 39.32865142822266 3 33.82860946655273 4.110054016113281 28.65258026123047 6.299331665039062 C 23.65162658691406 8.414558410644531 19.15966796875 11.44332885742188 15.30149841308594 15.30149841308594 C 11.44332122802734 19.15966796875 8.41455078125 23.65162658691406 6.299324035644531 28.65258407592773 C 4.110054016113281 33.82861328125 2.999992370605469 39.32865524291992 2.999992370605469 45.00005722045898 C 2.999992370605469 50.67134475708008 4.110054016113281 56.17138671875 6.299324035644531 61.347412109375 C 8.41455078125 66.34837341308594 11.44332122802734 70.84033203125 15.30149841308594 74.69850158691406 C 19.15966796875 78.55667114257812 23.65162658691406 81.58544158935547 28.65258026123047 83.70066833496094 C 33.82860946655273 85.88994598388672 39.32865142822266 87 44.99993896484375 87 C 50.67122650146484 87 56.17126846313477 85.88994598388672 61.34729766845703 83.70066833496094 C 66.34825134277344 81.58544158935547 70.8402099609375 78.55667114257812 74.69837951660156 74.69850158691406 C 78.55654907226562 70.84033203125 81.5853271484375 66.34837341308594 83.70055389404297 61.347412109375 C 85.88982391357422 56.17138671875 86.9998779296875 50.67134475708008 86.9998779296875 44.99994277954102 C 86.9998779296875 39.32865524291992 85.88982391357422 33.82861328125 83.70055389404297 28.65258407592773 C 81.5853271484375 23.65162658691406 78.55654907226562 19.15966796875 74.69837951660156 15.30149841308594 C 70.8402099609375 11.44332885742188 66.34825134277344 8.414558410644531 61.34729766845703 6.299331665039062 C 56.17126846313477 4.110054016113281 50.67122650146484 3 44.99993896484375 3 M 44.99993896484375 0 C 69.85272216796875 0 89.99988555908203 20.14715576171875 89.99988555908203 44.99994277954102 L 89.99988555908203 45.00005722045898 C 89.99988555908203 69.85284423828125 69.85272216796875 90 44.99993896484375 90 C 20.14715576171875 90 -7.62939453125e-06 69.85284423828125 -7.62939453125e-06 45.00005722045898 L -7.62939453125e-06 44.99994277954102 C -7.62939453125e-06 20.14715576171875 20.14715576171875 0 44.99993896484375 0 Z" stroke="none" fill="#fff"/>
            </g>
          </g>
          <g id="Rectángulo_400907" data-name="Rectángulo 400907" transform="translate(0)" fill="none" stroke="#fff" stroke-width="3">
            <rect width="90" height="90" rx="45" stroke="none"/>
            <rect x="1.5" y="1.5" width="87" height="87" rx="43.5" fill="none"/>
          </g>
        </g>
      </g>
    </g>
    <g id="ecosystem_4078427" transform="translate(1245.855 2092.805)">
      <g id="Grupo_1178634" data-name="Grupo 1178634" transform="translate(0.877 0.877)">
        <g id="Grupo_1178622" data-name="Grupo 1178622" transform="translate(33.336 7.018)">
          <path id="Trazado_904914" data-name="Trazado 904914" d="M48.65,30.054a4.388,4.388,0,0,1-4.386-4.386c0-.035.009-.061.009-.088a4.438,4.438,0,0,1-1.8-.009,4.38,4.38,0,0,1-.632-8.387,3.665,3.665,0,0,1-.211-1.167A3.5,3.5,0,0,1,43.527,12.9a4.822,4.822,0,0,0,2.009-2.009,3.556,3.556,0,0,1,.482-.7,3.5,3.5,0,0,1,5.746.7A4.822,4.822,0,0,0,53.773,12.9a3.5,3.5,0,0,1,1.895,3.114,3.444,3.444,0,0,1-.219,1.167,4.378,4.378,0,0,1-.623,8.387,4.438,4.438,0,0,1-1.8.009c0,.026.009.053.009.088A4.388,4.388,0,0,1,48.65,30.054Z" transform="translate(-39 -9)" fill="#a0d468"/>
        </g>
        <g id="Grupo_1178623" data-name="Grupo 1178623" transform="translate(23.688)">
          <path id="Trazado_904915" data-name="Trazado 904915" d="M40.282,15.036a3.665,3.665,0,0,0,.211,1.167,4.376,4.376,0,0,0-2.842,4.088v1.763a4.388,4.388,0,0,1-4.386-4.386c0-.035.009-.061.009-.088a4.438,4.438,0,0,1-1.8-.009,4.38,4.38,0,0,1-.632-8.387,3.665,3.665,0,0,1-.211-1.167A3.5,3.5,0,0,1,32.527,4.9a4.822,4.822,0,0,0,2.009-2.009,3.507,3.507,0,0,1,6.229,0A4.822,4.822,0,0,0,42.773,4.9a3.5,3.5,0,0,1,1.895,3.114V9.211a3.557,3.557,0,0,0-.482.7,4.822,4.822,0,0,1-2.009,2.009,3.5,3.5,0,0,0-1.895,3.114Z" transform="translate(-28.002 -1)" fill="#b4dd7f"/>
        </g>
        <g id="Grupo_1178624" data-name="Grupo 1178624" transform="translate(0 36.845)">
          <path id="Trazado_904916" data-name="Trazado 904916" d="M47.715,44.755c-3.4,0-3.4-1.755-6.808-1.755s-3.4,1.755-6.8,1.755S30.713,43,27.309,43s-3.4,1.755-6.8,1.755a6.33,6.33,0,0,1-2.456-.43h-.009C16.756,43.8,16.01,43,13.712,43c-2.316,0-3.053.816-4.36,1.333a6.269,6.269,0,0,1-2.43.421C3.842,44.755,3.553,43.272,1,43V58.791H53.636V43.044C51.083,43.316,50.794,44.755,47.715,44.755Z" transform="translate(-1 -43)" fill="#69d6f4"/>
        </g>
        <g id="Grupo_1178625" data-name="Grupo 1178625" transform="translate(17.054 33.336)">
          <path id="Trazado_904917" data-name="Trazado 904917" d="M56.022,39v3.553c-2.553.272-2.842,1.711-5.922,1.711-3.4,0-3.4-1.755-6.808-1.755s-3.4,1.755-6.8,1.755-3.4-1.755-6.8-1.755-3.4,1.755-6.8,1.755a6.33,6.33,0,0,1-2.456-.43,10.566,10.566,0,0,0,4.465-2.667A7.218,7.218,0,0,0,26.405,39H56.022Z" transform="translate(-20.44 -39)" fill="#cf9e76"/>
        </g>
        <g id="Grupo_1178626" data-name="Grupo 1178626" transform="translate(6.141 24.565)">
          <path id="Trazado_904918" data-name="Trazado 904918" d="M25.545,34.7a7.387,7.387,0,0,1-.561,2.834l-.105.237a7.218,7.218,0,0,1-1.5,2.167,10.566,10.566,0,0,1-4.465,2.667H18.9c-1.29-.526-2.035-1.325-4.334-1.325-2.316,0-3.053.816-4.36,1.333a4.1,4.1,0,0,1-1.6-1.447,4,4,0,0,1,1.167-5.457l.851-.57a3.842,3.842,0,0,1-.877-2.632,3.51,3.51,0,1,1,3.509,3.509h3.07a12.005,12.005,0,0,0,3.746-.605,11.846,11.846,0,0,0,3.36-1.763,1.354,1.354,0,0,1,.79-.263A1.314,1.314,0,0,1,25.545,34.7Z" transform="translate(-8 -29.001)" fill="#e6e9ed"/>
        </g>
        <g id="Grupo_1178627" data-name="Grupo 1178627" transform="translate(32.459 42.109)">
          <path id="Trazado_904919" data-name="Trazado 904919" d="M49.44,51.386l.842,1.123-.842,1.123a5.947,5.947,0,0,1-7.43,1.755l-4.009-2V51.632l4.009-2a5.927,5.927,0,0,1,5.325,0A5.871,5.871,0,0,1,49.44,51.386Z" transform="translate(-38 -49)" fill="#fcd770"/>
        </g>
        <g id="Grupo_1178628" data-name="Grupo 1178628" transform="translate(27.195 42.109)">
          <path id="Trazado_904920" data-name="Trazado 904920" d="M37.264,51.632v1.755l-1.755,2.632a3.509,3.509,0,1,1,0-7.018Z" transform="translate(-32 -49)" fill="#fcd770"/>
        </g>
        <g id="Grupo_1178629" data-name="Grupo 1178629" transform="translate(3.509 49.127)">
          <path id="Trazado_904921" data-name="Trazado 904921" d="M13.773,60.509H5c0-1.86,1.8-3.377,4.079-3.5.1-.009.2-.009.307-.009a5.413,5.413,0,0,1,1.43.193A3.67,3.67,0,0,1,13.773,60.509Z" transform="translate(-5 -57)" fill="#aab2bd"/>
        </g>
        <g id="Grupo_1178630" data-name="Grupo 1178630" transform="translate(9.325 47.372)">
          <path id="Trazado_904922" data-name="Trazado 904922" d="M19.06,55.5c1.526.623,2.544,1.737,2.544,3.009a2.667,2.667,0,0,1-.7,1.755H14.586a3.67,3.67,0,0,0-2.956-3.316A5.9,5.9,0,0,1,16.341,55,7.363,7.363,0,0,1,19.06,55.5Z" transform="translate(-11.63 -55)" fill="#ccd1d9"/>
        </g>
        <g id="Grupo_1178631" data-name="Grupo 1178631" transform="translate(4.386 41.232)">
          <path id="Trazado_904923" data-name="Trazado 904923" d="M15.65,54.141a5.9,5.9,0,0,0-4.711,1.948,5.413,5.413,0,0,0-1.43-.193c-.105,0-.211,0-.307.009A18.033,18.033,0,0,0,6,48.877h.342a5.918,5.918,0,0,1,4.921,2.632L13.018,48l1.755,3.509.772-.772a6.347,6.347,0,0,1,4.492-1.86,16.623,16.623,0,0,0-1.667,5.764A7.363,7.363,0,0,0,15.65,54.141Z" transform="translate(-6 -48)" fill="#b4dd7f"/>
        </g>
        <g id="Grupo_1178632" data-name="Grupo 1178632" transform="translate(0.877 0.877)">
          <path id="Trazado_904924" data-name="Trazado 904924" d="M19.545,10.773l-.061.044a5.983,5.983,0,0,0-2.57,6.1,5.973,5.973,0,0,0-6.1,2.57l-.044.061-.044-.061a5.983,5.983,0,0,0-6.1-2.57A5.988,5.988,0,0,0,4.737,15.8a5.983,5.983,0,0,0-2.676-4.983L2,10.773l.061-.044a5.983,5.983,0,0,0,2.57-6.1,5.988,5.988,0,0,0,1.114.105,5.983,5.983,0,0,0,4.983-2.676L10.773,2l.044.061a5.983,5.983,0,0,0,6.1,2.57,5.973,5.973,0,0,0,2.57,6.1Z" transform="translate(-2 -2)" fill="#ffc729"/>
        </g>
        <g id="Grupo_1178633" data-name="Grupo 1178633" transform="translate(5.563 5.563)">
          <circle id="Elipse_11613" data-name="Elipse 11613" cx="4.5" cy="4.5" r="4.5" transform="translate(-0.245 -0.245)" fill="#fcd770"/>
        </g>
      </g>
      <g id="Grupo_1178635" data-name="Grupo 1178635" transform="translate(0 0)">
        <path id="Trazado_904925" data-name="Trazado 904925" d="M44.741,33.336V29.747a5.273,5.273,0,0,0,4.314-4.307,4.954,4.954,0,0,0,1.156-.11A5.255,5.255,0,0,0,51.7,15.6a3.912,3.912,0,0,0,.06-.684A4.377,4.377,0,0,0,49.4,11.02a3.884,3.884,0,0,1-1.64-1.64A4.387,4.387,0,0,0,42.075,7.4,4.369,4.369,0,0,0,39.746,4a3.884,3.884,0,0,1-1.64-1.64,4.387,4.387,0,0,0-7.784,0A3.889,3.889,0,0,1,28.681,4,4.375,4.375,0,0,0,26.318,7.9a4.015,4.015,0,0,0,.059.685,5.255,5.255,0,0,0,1.489,9.732,5.592,5.592,0,0,0,1.156.11,5.275,5.275,0,0,0,4.314,4.307V33.336h-8.2a8.275,8.275,0,0,0,.3-2.193,2.194,2.194,0,0,0-3.51-1.755A11.036,11.036,0,0,1,15.8,31.572a4.413,4.413,0,0,0,.753-3.644A4.342,4.342,0,0,0,13.3,24.679a4.4,4.4,0,0,0-3.755.84A4.356,4.356,0,0,0,7.95,28.3L5.864,29l.555,1.664,1.6-.535a5,5,0,0,0,.412,1.212l-.123.082a4.883,4.883,0,0,0-1.058,7.166c-.146.009-.3.015-.459.015a5.437,5.437,0,0,1-2.983-.8A7.141,7.141,0,0,0,.97,36.851l-.97-.1V54.391H54.391V33.336ZM46.2,10.191a5.661,5.661,0,0,0,2.386,2.386,2.583,2.583,0,0,1,1.254,3.212l-.29.811.806.3a3.5,3.5,0,0,1-.5,6.708,3.606,3.606,0,0,1-1.444,0l-1.083-.223.03,1.106c0,.037,0,.073.01.111a3.508,3.508,0,0,1-2.632,3.34V20.675L48.7,18.3l-.9-1.5-3.059,1.834V16.3l-2.889-2.889-1.24,1.24,2.375,2.375V21.26l-3.057-1.834-.9,1.5,3.96,2.376v4.643a3.507,3.507,0,0,1-2.632-3.342l.039-1.215-1.083.223a3.605,3.605,0,0,1-1.444,0,3.5,3.5,0,0,1-.5-6.708l.806-.3-.289-.811a2.576,2.576,0,0,1-.165-.875,2.624,2.624,0,0,1,1.419-2.336,5.666,5.666,0,0,0,2.386-2.386,2.633,2.633,0,0,1,4.672,0Zm-15.5,7.4.039-1.215L29.66,16.6a3.606,3.606,0,0,1-1.444,0,3.5,3.5,0,0,1-.5-6.708l.806-.3-.289-.811a2.576,2.576,0,0,1-.165-.875,2.624,2.624,0,0,1,1.419-2.336,5.666,5.666,0,0,0,2.386-2.386,2.633,2.633,0,0,1,4.672,0,5.661,5.661,0,0,0,2.386,2.386A2.624,2.624,0,0,1,40.354,7.9v.886a4.489,4.489,0,0,0-.383.6,3.889,3.889,0,0,1-1.64,1.64,4.375,4.375,0,0,0-2.362,3.892,4.015,4.015,0,0,0,.059.685,5.187,5.187,0,0,0-.936.69v-7L32.2,6.4l-1.24,1.24,2.375,2.376v4.228l-3.057-1.834-.9,1.5,3.96,2.376V20.93A3.507,3.507,0,0,1,30.7,17.588Zm4.386,6.5a5.182,5.182,0,0,0,2.426,1.242,5.715,5.715,0,0,0,1.156.11,5.275,5.275,0,0,0,4.314,4.307v3.588h-7.9ZM7.9,35.477a3.118,3.118,0,0,1,1.39-2.6l1.7-1.152-.706-.755a3.036,3.036,0,0,1-.63-2.021,2.633,2.633,0,1,1,2.632,2.632v1.755h3.07a12.793,12.793,0,0,0,7.63-2.543.454.454,0,0,1,.7.35,6.493,6.493,0,0,1-1.914,4.621A9.714,9.714,0,0,1,17.953,38.1c-.189-.088-.372-.182-.561-.279a7.265,7.265,0,0,0-3.8-.976,7.285,7.285,0,0,0-3.8.975c-.17.088-.337.172-.505.253a3.1,3.1,0,0,1-1.39-2.6ZM19.033,52.636h-5.1a4.426,4.426,0,0,0-2.126-2.7,6.029,6.029,0,0,1,3.109-.807c2.377,0,4.386,1.205,4.386,2.632A1.646,1.646,0,0,1,19.033,52.636ZM16.9,47.6a8.649,8.649,0,0,0-1.986-.23,7.105,7.105,0,0,0-5.028,1.855,6.229,6.229,0,0,0-.743-.085,19.032,19.032,0,0,0-2.095-5.071A5.024,5.024,0,0,1,9.8,46.1l.839,1.258,1.646-3.292L13.8,47.1l1.632-1.632a5.439,5.439,0,0,1,2.439-1.415A17.357,17.357,0,0,0,16.9,47.6ZM8.773,50.882a3.584,3.584,0,0,1,3.293,1.755H5.479A3.584,3.584,0,0,1,8.773,50.882Zm43.863,1.755H20.919a3.277,3.277,0,0,0,.135-.877,4.114,4.114,0,0,0-2.462-3.529,15.668,15.668,0,0,1,1.493-4.851l.634-1.269H19.3a7.183,7.183,0,0,0-5.023,2.029l-1.995-3.991-1.941,3.881A6.772,6.772,0,0,0,5.61,42.109h-2.1l1.053,1.4a17.244,17.244,0,0,1,2.821,5.774,4.841,4.841,0,0,0-3.768,3.349H1.755V38.793a7.166,7.166,0,0,1,1.236.559,7.146,7.146,0,0,0,3.806,1,7.281,7.281,0,0,0,3.8-.975,5.566,5.566,0,0,1,3-.78,5.565,5.565,0,0,1,2.995.78,7.287,7.287,0,0,0,3.8.975,7.29,7.29,0,0,0,3.8-.975,5.571,5.571,0,0,1,3-.78,5.571,5.571,0,0,1,3,.78,7.9,7.9,0,0,0,7.605,0,6.153,6.153,0,0,1,6,0,7.908,7.908,0,0,0,7.607,0,7.379,7.379,0,0,1,1.245-.547Zm0-15.615a7.882,7.882,0,0,0-2.049.8,6.161,6.161,0,0,1-6,0,7.9,7.9,0,0,0-7.605,0,6.149,6.149,0,0,1-5.994,0,7.288,7.288,0,0,0-3.8-.975,7.288,7.288,0,0,0-3.8.975,5.6,5.6,0,0,1-2.357.752A11.434,11.434,0,0,0,23.013,37a8.329,8.329,0,0,0,1.429-1.914H52.636Z" transform="translate(0 0)"/>
        <path id="Trazado_904926" data-name="Trazado 904926" d="M43.812,48a6.877,6.877,0,0,0-3.057.722l-3.313,1.656L35.856,48h-.469a4.386,4.386,0,1,0,0,8.773h.469l1.585-2.378,3.313,1.656a6.837,6.837,0,0,0,8.527-2.012l1.239-1.652-1.239-1.652A6.872,6.872,0,0,0,43.812,48Zm-8.87,6.98a2.632,2.632,0,0,1,0-5.188l1.322,1.983V53Zm12.935-1.995a5.081,5.081,0,0,1-6.338,1.5l-3.52-1.76v-.67l3.52-1.76a5.082,5.082,0,0,1,6.339,1.5l.448.6Z" transform="translate(-3.805 -5.891)"/>
        <circle id="Elipse_11614" data-name="Elipse 11614" cx="1" cy="1" r="1" transform="translate(40.195 45.195)"/>
        <circle id="Elipse_11615" data-name="Elipse 11615" cx="1" cy="1" r="1" transform="translate(10.195 28.195)"/>
        <path id="Trazado_904927" data-name="Trazado 904927" d="M3.557,16.539,3.319,17.8l1.262-.238a5.129,5.129,0,0,1,5.25,2.259l.772,1.03.727-1.094a5.1,5.1,0,0,1,5.207-2.195L17.8,17.8l-.238-1.262a5.107,5.107,0,0,1,2.2-5.208l1.1-.81-1.1-.731a5.106,5.106,0,0,1-2.2-5.208L17.8,3.319l-1.262.238A5.13,5.13,0,0,1,11.288,1.3L10.516.268,9.789,1.362A5.1,5.1,0,0,1,4.582,3.557L3.318,3.319l.238,1.262A5.133,5.133,0,0,1,1.3,9.829l-1.04.77,1.1.731a5.108,5.108,0,0,1,2.2,5.208ZM5.4,5.4a6.847,6.847,0,0,0,5.156-2.195A6.79,6.79,0,0,0,15.72,5.4a6.848,6.848,0,0,0,2.19,5.16,6.851,6.851,0,0,0-2.19,5.16,6.943,6.943,0,0,0-5.156,2.195,6.853,6.853,0,0,0-5.029-2.2H5.4A6.861,6.861,0,0,0,3.2,10.564,6.852,6.852,0,0,0,5.4,5.4Z" transform="translate(-0.032 -0.033)"/>
        <path id="Trazado_904928" data-name="Trazado 904928" d="M11.264,16.527A5.264,5.264,0,1,0,6,11.264,5.269,5.269,0,0,0,11.264,16.527Zm0-8.773a3.509,3.509,0,1,1-3.509,3.509A3.513,3.513,0,0,1,11.264,7.755Z" transform="translate(-0.736 -0.736)"/>
      </g>
    </g>
  </g>
</svg>
